%TF.GenerationSoftware,KiCad,Pcbnew,(6.0.8)*%
%TF.CreationDate,2023-01-17T12:43:20+02:00*%
%TF.ProjectId,dc_ph2_converter,64635f70-6832-45f6-936f-6e7665727465,rev?*%
%TF.SameCoordinates,Original*%
%TF.FileFunction,Copper,L1,Top*%
%TF.FilePolarity,Positive*%
%FSLAX46Y46*%
G04 Gerber Fmt 4.6, Leading zero omitted, Abs format (unit mm)*
G04 Created by KiCad (PCBNEW (6.0.8)) date 2023-01-17 12:43:20*
%MOMM*%
%LPD*%
G01*
G04 APERTURE LIST*
%TA.AperFunction,ComponentPad*%
%ADD10R,1.500000X1.500000*%
%TD*%
%TA.AperFunction,ComponentPad*%
%ADD11O,1.350000X1.350000*%
%TD*%
%TA.AperFunction,ComponentPad*%
%ADD12R,2.500000X5.000000*%
%TD*%
%TA.AperFunction,ComponentPad*%
%ADD13O,2.500000X5.000000*%
%TD*%
%TA.AperFunction,ComponentPad*%
%ADD14O,5.000000X2.500000*%
%TD*%
%TA.AperFunction,ComponentPad*%
%ADD15R,3.000000X3.000000*%
%TD*%
%TA.AperFunction,ComponentPad*%
%ADD16C,3.000000*%
%TD*%
%TA.AperFunction,Conductor*%
%ADD17C,2.000000*%
%TD*%
%TA.AperFunction,Conductor*%
%ADD18C,1.000000*%
%TD*%
G04 APERTURE END LIST*
D10*
%TO.P,J2,1,Pin_1*%
%TO.N,Net-(C1-Pad1)*%
X120650000Y-67580000D03*
D11*
%TO.P,J2,2,Pin_2*%
%TO.N,GND*%
X120650000Y-69580000D03*
%TD*%
D12*
%TO.P,J1,1*%
%TO.N,Net-(C1-Pad1)*%
X99060000Y-67930000D03*
D13*
%TO.P,J1,2*%
%TO.N,GND*%
X92760000Y-67930000D03*
D14*
%TO.P,J1,3*%
%TO.N,N/C*%
X96160000Y-72730000D03*
%TD*%
D15*
%TO.P,C1,1*%
%TO.N,Net-(C1-Pad1)*%
X109220000Y-66040000D03*
D16*
%TO.P,C1,2*%
%TO.N,GND*%
X109220000Y-71040000D03*
%TD*%
D17*
%TO.N,Net-(C1-Pad1)*%
X99060000Y-67930000D02*
X107330000Y-67930000D01*
D18*
X109220000Y-66040000D02*
X119110000Y-66040000D01*
X119110000Y-66040000D02*
X120650000Y-67580000D01*
D17*
X107330000Y-67930000D02*
X109220000Y-66040000D01*
%TD*%
%TA.AperFunction,Conductor*%
%TO.N,GND*%
G36*
X119306765Y-58445502D02*
G01*
X119353258Y-58499158D01*
X119363362Y-58569432D01*
X119333868Y-58634012D01*
X119317428Y-58649831D01*
X119197761Y-58745702D01*
X119194804Y-58748818D01*
X119194803Y-58748819D01*
X119183248Y-58760996D01*
X118996862Y-58957406D01*
X118826554Y-59194415D01*
X118689986Y-59452346D01*
X118589688Y-59726424D01*
X118527514Y-60011579D01*
X118504616Y-60302533D01*
X118505911Y-60325000D01*
X118521416Y-60593903D01*
X118522241Y-60598108D01*
X118522242Y-60598116D01*
X118533668Y-60656354D01*
X118577604Y-60880297D01*
X118578991Y-60884347D01*
X118578992Y-60884352D01*
X118642331Y-61069349D01*
X118672141Y-61156415D01*
X118803276Y-61417149D01*
X118842773Y-61474617D01*
X118939828Y-61615833D01*
X118968584Y-61657674D01*
X119165005Y-61873538D01*
X119168293Y-61876287D01*
X119385614Y-62057996D01*
X119385619Y-62058000D01*
X119388906Y-62060748D01*
X119512523Y-62138293D01*
X119632501Y-62213555D01*
X119632505Y-62213557D01*
X119636141Y-62215838D01*
X119902138Y-62335940D01*
X119906257Y-62337160D01*
X120177860Y-62417613D01*
X120177865Y-62417614D01*
X120181973Y-62418831D01*
X120186207Y-62419479D01*
X120186212Y-62419480D01*
X120438877Y-62458143D01*
X120470469Y-62462977D01*
X120618982Y-62465310D01*
X120757996Y-62467495D01*
X120758002Y-62467495D01*
X120762287Y-62467562D01*
X120766539Y-62467047D01*
X120766547Y-62467047D01*
X120991773Y-62439791D01*
X121052027Y-62432499D01*
X121056175Y-62431411D01*
X121056179Y-62431410D01*
X121330177Y-62359528D01*
X121334328Y-62358439D01*
X121338288Y-62356799D01*
X121338293Y-62356797D01*
X121483440Y-62296675D01*
X121603966Y-62246751D01*
X121653846Y-62217604D01*
X121852243Y-62101670D01*
X121852245Y-62101668D01*
X121855951Y-62099503D01*
X122085621Y-61919419D01*
X122288726Y-61709831D01*
X122321954Y-61664596D01*
X122378402Y-61621538D01*
X122449169Y-61615833D01*
X122511786Y-61649293D01*
X122546373Y-61711295D01*
X122549500Y-61739191D01*
X122549500Y-75416674D01*
X122529498Y-75484795D01*
X122475842Y-75531288D01*
X122405568Y-75541392D01*
X122340988Y-75511898D01*
X122322619Y-75491565D01*
X122322533Y-75491634D01*
X122321252Y-75490052D01*
X122320410Y-75489120D01*
X122319837Y-75488305D01*
X122319835Y-75488302D01*
X122317368Y-75484792D01*
X122118697Y-75270996D01*
X122103820Y-75258819D01*
X121896164Y-75088855D01*
X121896161Y-75088853D01*
X121892849Y-75086142D01*
X121644003Y-74933648D01*
X121376763Y-74816338D01*
X121372635Y-74815162D01*
X121372632Y-74815161D01*
X121100203Y-74737558D01*
X121100205Y-74737558D01*
X121096075Y-74736382D01*
X120880789Y-74705743D01*
X120811385Y-74695865D01*
X120811383Y-74695865D01*
X120807133Y-74695260D01*
X120653243Y-74694454D01*
X120519569Y-74693754D01*
X120519563Y-74693754D01*
X120515283Y-74693732D01*
X120511039Y-74694291D01*
X120511035Y-74694291D01*
X120384045Y-74711010D01*
X120225926Y-74731826D01*
X119944416Y-74808839D01*
X119675962Y-74923344D01*
X119425533Y-75073223D01*
X119197761Y-75255702D01*
X119194804Y-75258818D01*
X119194803Y-75258819D01*
X119042813Y-75418984D01*
X118996862Y-75467406D01*
X118826554Y-75704415D01*
X118689986Y-75962346D01*
X118589688Y-76236424D01*
X118527514Y-76521579D01*
X118504616Y-76812533D01*
X118505911Y-76835000D01*
X118521416Y-77103903D01*
X118522241Y-77108108D01*
X118522242Y-77108116D01*
X118533668Y-77166354D01*
X118577604Y-77390297D01*
X118578991Y-77394347D01*
X118578992Y-77394352D01*
X118614195Y-77497171D01*
X118672141Y-77666415D01*
X118803276Y-77927149D01*
X118968584Y-78167674D01*
X119165005Y-78383538D01*
X119168293Y-78386287D01*
X119318449Y-78511837D01*
X119357878Y-78570878D01*
X119359129Y-78641864D01*
X119321803Y-78702257D01*
X119257751Y-78732882D01*
X119237626Y-78734500D01*
X93486432Y-78734500D01*
X93418311Y-78714498D01*
X93371818Y-78660842D01*
X93361714Y-78590568D01*
X93391208Y-78525988D01*
X93408686Y-78509346D01*
X93507240Y-78432070D01*
X93510621Y-78429419D01*
X93713726Y-78219831D01*
X93886507Y-77984617D01*
X94025768Y-77728131D01*
X94081988Y-77579349D01*
X94127413Y-77459136D01*
X94127414Y-77459132D01*
X94128931Y-77455118D01*
X94194087Y-77170630D01*
X94199667Y-77108116D01*
X94219811Y-76882398D01*
X94219811Y-76882396D01*
X94220031Y-76879932D01*
X94220502Y-76835000D01*
X94200651Y-76543822D01*
X94141467Y-76258032D01*
X94044044Y-75982918D01*
X93910186Y-75723572D01*
X93896723Y-75704415D01*
X93744835Y-75488302D01*
X93744834Y-75488301D01*
X93742368Y-75484792D01*
X93543697Y-75270996D01*
X93528820Y-75258819D01*
X93321164Y-75088855D01*
X93321161Y-75088853D01*
X93317849Y-75086142D01*
X93069003Y-74933648D01*
X92801763Y-74816338D01*
X92797635Y-74815162D01*
X92797632Y-74815161D01*
X92525203Y-74737558D01*
X92525205Y-74737558D01*
X92521075Y-74736382D01*
X92305789Y-74705743D01*
X92236385Y-74695865D01*
X92236383Y-74695865D01*
X92232133Y-74695260D01*
X92078243Y-74694454D01*
X91944569Y-74693754D01*
X91944563Y-74693754D01*
X91940283Y-74693732D01*
X91936039Y-74694291D01*
X91936035Y-74694291D01*
X91809045Y-74711010D01*
X91650926Y-74731826D01*
X91369416Y-74808839D01*
X91100962Y-74923344D01*
X90850533Y-75073223D01*
X90622761Y-75255702D01*
X90619804Y-75258818D01*
X90619803Y-75258819D01*
X90467813Y-75418984D01*
X90421862Y-75467406D01*
X90411626Y-75481651D01*
X90403823Y-75492510D01*
X90347828Y-75536158D01*
X90277125Y-75542604D01*
X90214160Y-75509801D01*
X90178926Y-75448165D01*
X90175500Y-75418984D01*
X90175500Y-72773005D01*
X93014931Y-72773005D01*
X93040988Y-73046120D01*
X93106199Y-73312612D01*
X93209196Y-73566900D01*
X93211500Y-73570835D01*
X93211502Y-73570839D01*
X93345512Y-73799710D01*
X93347822Y-73803655D01*
X93519173Y-74017920D01*
X93719660Y-74205204D01*
X93813781Y-74270498D01*
X93941330Y-74358983D01*
X93941335Y-74358986D01*
X93945083Y-74361586D01*
X93949168Y-74363618D01*
X93949171Y-74363620D01*
X94067901Y-74422687D01*
X94190719Y-74483788D01*
X94195053Y-74485209D01*
X94195056Y-74485210D01*
X94447090Y-74567831D01*
X94447095Y-74567832D01*
X94451423Y-74569251D01*
X94455914Y-74570031D01*
X94455915Y-74570031D01*
X94717953Y-74615529D01*
X94717961Y-74615530D01*
X94721734Y-74616185D01*
X94725571Y-74616376D01*
X94806843Y-74620422D01*
X94806851Y-74620422D01*
X94808414Y-74620500D01*
X97479697Y-74620500D01*
X97481965Y-74620335D01*
X97481977Y-74620335D01*
X97615509Y-74610646D01*
X97683635Y-74605703D01*
X97688090Y-74604719D01*
X97688093Y-74604719D01*
X97947079Y-74547540D01*
X97947083Y-74547539D01*
X97951539Y-74546555D01*
X98122579Y-74481754D01*
X98203827Y-74450972D01*
X98203830Y-74450971D01*
X98208097Y-74449354D01*
X98447937Y-74316134D01*
X98589885Y-74207803D01*
X98662402Y-74152460D01*
X98662403Y-74152459D01*
X98666034Y-74149688D01*
X98857819Y-73953502D01*
X99019274Y-73731685D01*
X99147018Y-73488884D01*
X99238374Y-73230186D01*
X99273779Y-73050556D01*
X99290547Y-72965482D01*
X99290548Y-72965476D01*
X99291428Y-72961010D01*
X99293236Y-72924694D01*
X99304842Y-72691564D01*
X99304842Y-72691558D01*
X99305069Y-72686995D01*
X99299598Y-72629654D01*
X107995618Y-72629654D01*
X108002673Y-72639627D01*
X108033679Y-72665551D01*
X108040598Y-72670579D01*
X108265272Y-72811515D01*
X108272807Y-72815556D01*
X108514520Y-72924694D01*
X108522551Y-72927680D01*
X108776832Y-73003002D01*
X108785184Y-73004869D01*
X109047340Y-73044984D01*
X109055874Y-73045700D01*
X109321045Y-73049867D01*
X109329596Y-73049418D01*
X109592883Y-73017557D01*
X109601284Y-73015955D01*
X109857824Y-72948653D01*
X109865926Y-72945926D01*
X110110949Y-72844434D01*
X110118617Y-72840628D01*
X110347598Y-72706822D01*
X110354679Y-72702009D01*
X110434655Y-72639301D01*
X110443125Y-72627442D01*
X110436608Y-72615818D01*
X109232812Y-71412022D01*
X109218868Y-71404408D01*
X109217035Y-71404539D01*
X109210420Y-71408790D01*
X108002910Y-72616300D01*
X107995618Y-72629654D01*
X99299598Y-72629654D01*
X99279012Y-72413880D01*
X99213801Y-72147388D01*
X99110804Y-71893100D01*
X99099520Y-71873827D01*
X98974488Y-71660290D01*
X98974487Y-71660289D01*
X98972178Y-71656345D01*
X98800827Y-71442080D01*
X98797497Y-71438970D01*
X98797494Y-71438966D01*
X98663268Y-71313580D01*
X98636501Y-71288575D01*
X98600375Y-71227457D01*
X98603027Y-71156510D01*
X98643615Y-71098260D01*
X98709253Y-71071200D01*
X98722513Y-71070500D01*
X100374690Y-71070500D01*
X100377137Y-71070307D01*
X100377148Y-71070307D01*
X100397042Y-71068741D01*
X100410993Y-71067643D01*
X100514679Y-71037519D01*
X100558782Y-71024706D01*
X100558783Y-71024705D01*
X100566395Y-71022494D01*
X100579654Y-71014653D01*
X100698866Y-70944151D01*
X100705687Y-70940117D01*
X100820117Y-70825687D01*
X100902494Y-70686395D01*
X100947643Y-70530993D01*
X100949570Y-70506509D01*
X100950307Y-70497148D01*
X100950307Y-70497137D01*
X100950500Y-70494690D01*
X100950500Y-69696500D01*
X100970502Y-69628379D01*
X101024158Y-69581886D01*
X101076500Y-69570500D01*
X107260584Y-69570500D01*
X107270469Y-69570888D01*
X107330000Y-69575573D01*
X107334930Y-69575185D01*
X107334931Y-69575185D01*
X107557176Y-69557695D01*
X107626656Y-69572291D01*
X107677215Y-69622134D01*
X107692801Y-69691399D01*
X107668915Y-69756861D01*
X107669194Y-69757062D01*
X107668478Y-69758058D01*
X107668465Y-69758094D01*
X107668311Y-69758291D01*
X107511936Y-69975910D01*
X107507414Y-69983204D01*
X107383325Y-70217567D01*
X107379839Y-70225395D01*
X107288700Y-70474446D01*
X107286311Y-70482670D01*
X107229812Y-70741795D01*
X107228563Y-70750250D01*
X107207754Y-71014653D01*
X107207665Y-71023204D01*
X107222932Y-71287969D01*
X107224005Y-71296470D01*
X107275065Y-71556722D01*
X107277276Y-71564974D01*
X107363184Y-71815894D01*
X107366499Y-71823779D01*
X107485664Y-72060713D01*
X107490020Y-72068079D01*
X107619347Y-72256250D01*
X107629601Y-72264594D01*
X107643342Y-72257448D01*
X108859658Y-71041132D01*
X109584408Y-71041132D01*
X109584539Y-71042965D01*
X109588790Y-71049580D01*
X110795730Y-72256520D01*
X110807939Y-72263187D01*
X110819439Y-72254497D01*
X110916831Y-72121913D01*
X110921418Y-72114685D01*
X111047962Y-71881621D01*
X111051530Y-71873827D01*
X111145271Y-71625750D01*
X111147748Y-71617544D01*
X111206954Y-71359038D01*
X111208294Y-71350577D01*
X111232031Y-71084616D01*
X111232277Y-71079677D01*
X111232666Y-71042485D01*
X111232523Y-71037519D01*
X111214362Y-70771123D01*
X111213201Y-70762649D01*
X111159419Y-70502944D01*
X111157120Y-70494709D01*
X111068588Y-70244705D01*
X111065191Y-70236854D01*
X110943550Y-70001178D01*
X110939122Y-69993866D01*
X110835876Y-69846962D01*
X119497158Y-69846962D01*
X119528656Y-69970985D01*
X119532497Y-69981832D01*
X119618685Y-70168789D01*
X119624436Y-70178750D01*
X119743254Y-70346873D01*
X119750720Y-70355615D01*
X119898191Y-70499275D01*
X119907124Y-70506509D01*
X120078299Y-70620884D01*
X120088409Y-70626374D01*
X120277566Y-70707642D01*
X120288499Y-70711194D01*
X120378332Y-70731521D01*
X120392405Y-70730632D01*
X120396000Y-70721233D01*
X120396000Y-70720512D01*
X120904000Y-70720512D01*
X120907966Y-70734018D01*
X120921883Y-70736011D01*
X120932817Y-70733386D01*
X121127763Y-70667210D01*
X121138272Y-70662531D01*
X121317882Y-70561944D01*
X121327375Y-70555420D01*
X121485653Y-70423782D01*
X121493782Y-70415653D01*
X121625420Y-70257375D01*
X121631944Y-70247882D01*
X121732531Y-70068272D01*
X121737210Y-70057763D01*
X121803386Y-69862817D01*
X121806017Y-69851857D01*
X121804040Y-69837992D01*
X121790474Y-69834000D01*
X120922115Y-69834000D01*
X120906876Y-69838475D01*
X120905671Y-69839865D01*
X120904000Y-69847548D01*
X120904000Y-70720512D01*
X120396000Y-70720512D01*
X120396000Y-69852115D01*
X120391525Y-69836876D01*
X120390135Y-69835671D01*
X120382452Y-69834000D01*
X119511981Y-69834000D01*
X119498450Y-69837973D01*
X119497158Y-69846962D01*
X110835876Y-69846962D01*
X110820031Y-69824417D01*
X110809509Y-69816037D01*
X110796121Y-69823089D01*
X109592022Y-71027188D01*
X109584408Y-71041132D01*
X108859658Y-71041132D01*
X110436604Y-69464186D01*
X110443795Y-69451017D01*
X110436473Y-69440780D01*
X110389233Y-69402115D01*
X110382261Y-69397160D01*
X110156122Y-69258582D01*
X110148552Y-69254624D01*
X109905704Y-69148022D01*
X109897644Y-69145120D01*
X109642592Y-69072467D01*
X109634214Y-69070685D01*
X109371656Y-69033318D01*
X109363111Y-69032691D01*
X109097908Y-69031302D01*
X109089374Y-69031839D01*
X108834133Y-69065442D01*
X108763984Y-69054503D01*
X108710886Y-69007374D01*
X108691696Y-68939020D01*
X108712507Y-68871143D01*
X108728592Y-68851425D01*
X109362612Y-68217405D01*
X109424924Y-68183379D01*
X109451707Y-68180500D01*
X110784690Y-68180500D01*
X110787137Y-68180307D01*
X110787148Y-68180307D01*
X110807042Y-68178741D01*
X110820993Y-68177643D01*
X110919494Y-68149026D01*
X110968782Y-68134706D01*
X110968783Y-68134705D01*
X110976395Y-68132494D01*
X111115687Y-68050117D01*
X111230117Y-67935687D01*
X111312494Y-67796395D01*
X111321469Y-67765505D01*
X111348308Y-67673124D01*
X111357643Y-67640993D01*
X111360500Y-67604690D01*
X111360500Y-67306500D01*
X111380502Y-67238379D01*
X111434158Y-67191886D01*
X111486500Y-67180500D01*
X118585398Y-67180500D01*
X118653519Y-67200502D01*
X118674493Y-67217404D01*
X119222595Y-67765505D01*
X119256620Y-67827818D01*
X119259500Y-67854601D01*
X119259500Y-68394690D01*
X119262357Y-68430993D01*
X119307506Y-68586395D01*
X119389883Y-68725687D01*
X119504313Y-68840117D01*
X119511131Y-68844149D01*
X119511136Y-68844153D01*
X119552230Y-68868456D01*
X119600682Y-68920349D01*
X119613387Y-68990200D01*
X119599599Y-69035576D01*
X119555057Y-69120237D01*
X119550655Y-69130863D01*
X119495436Y-69308700D01*
X119495218Y-69322799D01*
X119501950Y-69326000D01*
X121789485Y-69326000D01*
X121803016Y-69322027D01*
X121804185Y-69313892D01*
X121760725Y-69159794D01*
X121756604Y-69149060D01*
X121699126Y-69032506D01*
X121686936Y-68962563D01*
X121714495Y-68897134D01*
X121747993Y-68868323D01*
X121788866Y-68844151D01*
X121795687Y-68840117D01*
X121910117Y-68725687D01*
X121992494Y-68586395D01*
X122037643Y-68430993D01*
X122040500Y-68394690D01*
X122040500Y-66765310D01*
X122037643Y-66729007D01*
X122003453Y-66611327D01*
X121994706Y-66581218D01*
X121994705Y-66581217D01*
X121992494Y-66573605D01*
X121910117Y-66434313D01*
X121795687Y-66319883D01*
X121656395Y-66237506D01*
X121648783Y-66235295D01*
X121648782Y-66235294D01*
X121581828Y-66215842D01*
X121500993Y-66192357D01*
X121487042Y-66191259D01*
X121467148Y-66189693D01*
X121467137Y-66189693D01*
X121464690Y-66189500D01*
X120924602Y-66189500D01*
X120856481Y-66169498D01*
X120835507Y-66152596D01*
X119946654Y-65263744D01*
X119941017Y-65257725D01*
X119902237Y-65213505D01*
X119898432Y-65209166D01*
X119893900Y-65205593D01*
X119829109Y-65154515D01*
X119826572Y-65152461D01*
X119758754Y-65096058D01*
X119753715Y-65093236D01*
X119750469Y-65091005D01*
X119741629Y-65085098D01*
X119738359Y-65082975D01*
X119733822Y-65079398D01*
X119655688Y-65038290D01*
X119652852Y-65036749D01*
X119580915Y-64996462D01*
X119580903Y-64996457D01*
X119575870Y-64993638D01*
X119570404Y-64991783D01*
X119566775Y-64990167D01*
X119557082Y-64986003D01*
X119553437Y-64984493D01*
X119548320Y-64981801D01*
X119508175Y-64969335D01*
X119464048Y-64955633D01*
X119460912Y-64954614D01*
X119382860Y-64928119D01*
X119382855Y-64928118D01*
X119377385Y-64926261D01*
X119371663Y-64925431D01*
X119367796Y-64924503D01*
X119357519Y-64922177D01*
X119353656Y-64921356D01*
X119348139Y-64919643D01*
X119260513Y-64909272D01*
X119257254Y-64908843D01*
X119241732Y-64906592D01*
X119175658Y-64897011D01*
X119175654Y-64897011D01*
X119169945Y-64896183D01*
X119087999Y-64899403D01*
X119083052Y-64899500D01*
X111486500Y-64899500D01*
X111418379Y-64879498D01*
X111371886Y-64825842D01*
X111360500Y-64773500D01*
X111360500Y-64475310D01*
X111357643Y-64439007D01*
X111312494Y-64283605D01*
X111230117Y-64144313D01*
X111115687Y-64029883D01*
X110976395Y-63947506D01*
X110968783Y-63945295D01*
X110968782Y-63945294D01*
X110919494Y-63930974D01*
X110820993Y-63902357D01*
X110807042Y-63901259D01*
X110787148Y-63899693D01*
X110787137Y-63899693D01*
X110784690Y-63899500D01*
X107655310Y-63899500D01*
X107652863Y-63899693D01*
X107652852Y-63899693D01*
X107632958Y-63901259D01*
X107619007Y-63902357D01*
X107520506Y-63930974D01*
X107471218Y-63945294D01*
X107471217Y-63945295D01*
X107463605Y-63947506D01*
X107324313Y-64029883D01*
X107209883Y-64144313D01*
X107127506Y-64283605D01*
X107082357Y-64439007D01*
X107079500Y-64475310D01*
X107079500Y-65808293D01*
X107059498Y-65876414D01*
X107042595Y-65897388D01*
X106687388Y-66252595D01*
X106625076Y-66286621D01*
X106598293Y-66289500D01*
X101076500Y-66289500D01*
X101008379Y-66269498D01*
X100961886Y-66215842D01*
X100950500Y-66163500D01*
X100950500Y-65365310D01*
X100947643Y-65329007D01*
X100912826Y-65209166D01*
X100904706Y-65181218D01*
X100904705Y-65181217D01*
X100902494Y-65173605D01*
X100852289Y-65088712D01*
X100824151Y-65041134D01*
X100820117Y-65034313D01*
X100705687Y-64919883D01*
X100698866Y-64915849D01*
X100573218Y-64841541D01*
X100573217Y-64841541D01*
X100566395Y-64837506D01*
X100558783Y-64835295D01*
X100558782Y-64835294D01*
X100509494Y-64820974D01*
X100410993Y-64792357D01*
X100397042Y-64791259D01*
X100377148Y-64789693D01*
X100377137Y-64789693D01*
X100374690Y-64789500D01*
X97745310Y-64789500D01*
X97742863Y-64789693D01*
X97742852Y-64789693D01*
X97722958Y-64791259D01*
X97709007Y-64792357D01*
X97610506Y-64820974D01*
X97561218Y-64835294D01*
X97561217Y-64835295D01*
X97553605Y-64837506D01*
X97546783Y-64841541D01*
X97546782Y-64841541D01*
X97421134Y-64915849D01*
X97414313Y-64919883D01*
X97299883Y-65034313D01*
X97295849Y-65041134D01*
X97267712Y-65088712D01*
X97217506Y-65173605D01*
X97215295Y-65181217D01*
X97215294Y-65181218D01*
X97207174Y-65209166D01*
X97172357Y-65329007D01*
X97169500Y-65365310D01*
X97169500Y-70494690D01*
X97169693Y-70497137D01*
X97169693Y-70497148D01*
X97170430Y-70506509D01*
X97172357Y-70530993D01*
X97198473Y-70620884D01*
X97215168Y-70678347D01*
X97214965Y-70749343D01*
X97176412Y-70808959D01*
X97111747Y-70838268D01*
X97094171Y-70839500D01*
X94840303Y-70839500D01*
X94838035Y-70839665D01*
X94838023Y-70839665D01*
X94704491Y-70849354D01*
X94636365Y-70854297D01*
X94631910Y-70855281D01*
X94631907Y-70855281D01*
X94372921Y-70912460D01*
X94372917Y-70912461D01*
X94368461Y-70913445D01*
X94287414Y-70944151D01*
X94116173Y-71009028D01*
X94116170Y-71009029D01*
X94111903Y-71010646D01*
X93872063Y-71143866D01*
X93763015Y-71227089D01*
X93726710Y-71254796D01*
X93653966Y-71310312D01*
X93462181Y-71506498D01*
X93300726Y-71728315D01*
X93172982Y-71971116D01*
X93081626Y-72229814D01*
X93028572Y-72498990D01*
X93028345Y-72503543D01*
X93028345Y-72503546D01*
X93018226Y-72706822D01*
X93014931Y-72773005D01*
X90175500Y-72773005D01*
X90175500Y-69243998D01*
X91002000Y-69243998D01*
X91002173Y-69248673D01*
X91016088Y-69435926D01*
X91017464Y-69445132D01*
X91073071Y-69690874D01*
X91075795Y-69699785D01*
X91167112Y-69934608D01*
X91171123Y-69943017D01*
X91296146Y-70161760D01*
X91301357Y-70169486D01*
X91457341Y-70367350D01*
X91463634Y-70374218D01*
X91647144Y-70546848D01*
X91654398Y-70552722D01*
X91861403Y-70696327D01*
X91869438Y-70701060D01*
X92095407Y-70812495D01*
X92104040Y-70815983D01*
X92343994Y-70892793D01*
X92353076Y-70894973D01*
X92488120Y-70916967D01*
X92501714Y-70915271D01*
X92505865Y-70901606D01*
X93014000Y-70901606D01*
X93018018Y-70915290D01*
X93031710Y-70917311D01*
X93121904Y-70905036D01*
X93131022Y-70903098D01*
X93372902Y-70832596D01*
X93381633Y-70829333D01*
X93610442Y-70723849D01*
X93618594Y-70719330D01*
X93829291Y-70581192D01*
X93836696Y-70575509D01*
X94024654Y-70407751D01*
X94031139Y-70401035D01*
X94192239Y-70207334D01*
X94197654Y-70199742D01*
X94328354Y-69984354D01*
X94332592Y-69976037D01*
X94430019Y-69743701D01*
X94432980Y-69734851D01*
X94494994Y-69490669D01*
X94496616Y-69481472D01*
X94517684Y-69272247D01*
X94518000Y-69265955D01*
X94518000Y-68202115D01*
X94513525Y-68186876D01*
X94512135Y-68185671D01*
X94504452Y-68184000D01*
X93032115Y-68184000D01*
X93016876Y-68188475D01*
X93015671Y-68189865D01*
X93014000Y-68197548D01*
X93014000Y-70901606D01*
X92505865Y-70901606D01*
X92506000Y-70901161D01*
X92506000Y-68202115D01*
X92501525Y-68186876D01*
X92500135Y-68185671D01*
X92492452Y-68184000D01*
X91020115Y-68184000D01*
X91004876Y-68188475D01*
X91003671Y-68189865D01*
X91002000Y-68197548D01*
X91002000Y-69243998D01*
X90175500Y-69243998D01*
X90175500Y-67657885D01*
X91002000Y-67657885D01*
X91006475Y-67673124D01*
X91007865Y-67674329D01*
X91015548Y-67676000D01*
X92487885Y-67676000D01*
X92503124Y-67671525D01*
X92504329Y-67670135D01*
X92506000Y-67662452D01*
X92506000Y-67657885D01*
X93014000Y-67657885D01*
X93018475Y-67673124D01*
X93019865Y-67674329D01*
X93027548Y-67676000D01*
X94499885Y-67676000D01*
X94515124Y-67671525D01*
X94516329Y-67670135D01*
X94518000Y-67662452D01*
X94518000Y-66616002D01*
X94517827Y-66611327D01*
X94503912Y-66424074D01*
X94502536Y-66414868D01*
X94446929Y-66169126D01*
X94444205Y-66160215D01*
X94352888Y-65925392D01*
X94348877Y-65916983D01*
X94223854Y-65698240D01*
X94218643Y-65690514D01*
X94062659Y-65492650D01*
X94056366Y-65485782D01*
X93872856Y-65313152D01*
X93865602Y-65307278D01*
X93658597Y-65163673D01*
X93650562Y-65158940D01*
X93424593Y-65047505D01*
X93415960Y-65044017D01*
X93176006Y-64967207D01*
X93166924Y-64965027D01*
X93031880Y-64943033D01*
X93018286Y-64944729D01*
X93014000Y-64958839D01*
X93014000Y-67657885D01*
X92506000Y-67657885D01*
X92506000Y-64958394D01*
X92501982Y-64944710D01*
X92488290Y-64942689D01*
X92398096Y-64954964D01*
X92388978Y-64956902D01*
X92147098Y-65027404D01*
X92138367Y-65030667D01*
X91909558Y-65136151D01*
X91901406Y-65140670D01*
X91690709Y-65278808D01*
X91683304Y-65284491D01*
X91495346Y-65452249D01*
X91488861Y-65458965D01*
X91327761Y-65652666D01*
X91322346Y-65660258D01*
X91191646Y-65875646D01*
X91187408Y-65883963D01*
X91089981Y-66116299D01*
X91087020Y-66125149D01*
X91025006Y-66369331D01*
X91023384Y-66378528D01*
X91002316Y-66587753D01*
X91002000Y-66594045D01*
X91002000Y-67657885D01*
X90175500Y-67657885D01*
X90175500Y-61743694D01*
X90195502Y-61675573D01*
X90249158Y-61629080D01*
X90319432Y-61618976D01*
X90384012Y-61648470D01*
X90394694Y-61658894D01*
X90590005Y-61873538D01*
X90593293Y-61876287D01*
X90810614Y-62057996D01*
X90810619Y-62058000D01*
X90813906Y-62060748D01*
X90937523Y-62138293D01*
X91057501Y-62213555D01*
X91057505Y-62213557D01*
X91061141Y-62215838D01*
X91327138Y-62335940D01*
X91331257Y-62337160D01*
X91602860Y-62417613D01*
X91602865Y-62417614D01*
X91606973Y-62418831D01*
X91611207Y-62419479D01*
X91611212Y-62419480D01*
X91863877Y-62458143D01*
X91895469Y-62462977D01*
X92043982Y-62465310D01*
X92182996Y-62467495D01*
X92183002Y-62467495D01*
X92187287Y-62467562D01*
X92191539Y-62467047D01*
X92191547Y-62467047D01*
X92416773Y-62439791D01*
X92477027Y-62432499D01*
X92481175Y-62431411D01*
X92481179Y-62431410D01*
X92755177Y-62359528D01*
X92759328Y-62358439D01*
X92763288Y-62356799D01*
X92763293Y-62356797D01*
X92908440Y-62296675D01*
X93028966Y-62246751D01*
X93078846Y-62217604D01*
X93277243Y-62101670D01*
X93277245Y-62101668D01*
X93280951Y-62099503D01*
X93510621Y-61919419D01*
X93713726Y-61709831D01*
X93886507Y-61474617D01*
X94025768Y-61218131D01*
X94128931Y-60945118D01*
X94194087Y-60660630D01*
X94199667Y-60598116D01*
X94219811Y-60372398D01*
X94219811Y-60372396D01*
X94220031Y-60369932D01*
X94220502Y-60325000D01*
X94200651Y-60033822D01*
X94141467Y-59748032D01*
X94044044Y-59472918D01*
X93910186Y-59213572D01*
X93896723Y-59194415D01*
X93744835Y-58978302D01*
X93744834Y-58978301D01*
X93742368Y-58974792D01*
X93543697Y-58760996D01*
X93525012Y-58745702D01*
X93406869Y-58649004D01*
X93366823Y-58590379D01*
X93364830Y-58519411D01*
X93401521Y-58458630D01*
X93465248Y-58427335D01*
X93486675Y-58425500D01*
X119238644Y-58425500D01*
X119306765Y-58445502D01*
G37*
%TD.AperFunction*%
%TD*%
M02*
