%TF.GenerationSoftware,KiCad,Pcbnew,(6.0.8)*%
%TF.CreationDate,2023-01-19T20:27:47+02:00*%
%TF.ProjectId,amp,616d702e-6b69-4636-9164-5f7063625858,rev?*%
%TF.SameCoordinates,Original*%
%TF.FileFunction,Copper,L1,Top*%
%TF.FilePolarity,Positive*%
%FSLAX46Y46*%
G04 Gerber Fmt 4.6, Leading zero omitted, Abs format (unit mm)*
G04 Created by KiCad (PCBNEW (6.0.8)) date 2023-01-19 20:27:47*
%MOMM*%
%LPD*%
G01*
G04 APERTURE LIST*
%TA.AperFunction,ComponentPad*%
%ADD10R,1.500000X1.750000*%
%TD*%
%TA.AperFunction,ComponentPad*%
%ADD11C,2.000000*%
%TD*%
%TA.AperFunction,ComponentPad*%
%ADD12R,2.600000X2.600000*%
%TD*%
%TA.AperFunction,ComponentPad*%
%ADD13C,2.600000*%
%TD*%
%TA.AperFunction,ComponentPad*%
%ADD14R,2.000000X2.000000*%
%TD*%
%TA.AperFunction,ComponentPad*%
%ADD15C,1.300000*%
%TD*%
%TA.AperFunction,Conductor*%
%ADD16C,0.800000*%
%TD*%
G04 APERTURE END LIST*
D10*
%TO.P,J1,1,Pin_1*%
%TO.N,GND*%
X78105000Y-65405000D03*
%TO.P,J1,2,Pin_2*%
%TO.N,Net-(AMP1-Pad4)*%
X76105000Y-65405000D03*
%TD*%
D11*
%TO.P,AMP1,1,L*%
%TO.N,Net-(AMP1-Pad1)*%
X67000000Y-43690000D03*
%TO.P,AMP1,2,GND*%
%TO.N,GND*%
X67000000Y-46230000D03*
%TO.P,AMP1,3,R*%
%TO.N,Net-(AMP1-Pad3)*%
X67000000Y-48770000D03*
%TO.P,AMP1,4,5v+*%
%TO.N,Net-(AMP1-Pad4)*%
X67000000Y-56770000D03*
%TO.P,AMP1,5,5v-*%
%TO.N,GND*%
X67000000Y-59310000D03*
%TO.P,AMP1,6,OutL-*%
%TO.N,Net-(AMP1-Pad6)*%
X86000000Y-43690000D03*
%TO.P,AMP1,7,OutL+*%
%TO.N,Net-(AMP1-Pad7)*%
X86000000Y-46230000D03*
%TO.P,AMP1,8,OutR+*%
%TO.N,Net-(AMP1-Pad8)*%
X86000000Y-56770000D03*
%TO.P,AMP1,9,OutR-*%
%TO.N,Net-(AMP1-Pad9)*%
X86000000Y-59310000D03*
%TD*%
D12*
%TO.P,J3,1,Pin_1*%
%TO.N,Net-(AMP1-Pad6)*%
X95195000Y-42500000D03*
D13*
%TO.P,J3,2,Pin_2*%
%TO.N,Net-(AMP1-Pad7)*%
X95195000Y-47580000D03*
%TD*%
D14*
%TO.P,C1,1*%
%TO.N,Net-(AMP1-Pad4)*%
X58500000Y-55132323D03*
D11*
%TO.P,C1,2*%
%TO.N,GND*%
X58500000Y-60132323D03*
%TD*%
D12*
%TO.P,J4,1,Pin_1*%
%TO.N,Net-(AMP1-Pad8)*%
X95195000Y-55455000D03*
D13*
%TO.P,J4,2,Pin_2*%
%TO.N,Net-(AMP1-Pad9)*%
X95195000Y-60535000D03*
%TD*%
D15*
%TO.P,J2,*%
%TO.N,*%
X60595000Y-43000000D03*
X54595000Y-43000000D03*
D14*
%TO.P,J2,1*%
%TO.N,Net-(AMP1-Pad3)*%
X56995000Y-40100000D03*
%TO.P,J2,2*%
%TO.N,Net-(AMP1-Pad1)*%
X60295000Y-40100000D03*
%TO.P,J2,3*%
X60295000Y-45900000D03*
%TO.P,J2,4*%
%TO.N,GND*%
X53595000Y-40100000D03*
%TO.P,J2,5*%
X53595000Y-45900000D03*
%TD*%
D16*
%TO.N,Net-(AMP1-Pad1)*%
X61690000Y-40100000D02*
X62500000Y-40910000D01*
X60295000Y-40100000D02*
X61690000Y-40100000D01*
X74295000Y-41275000D02*
X74295000Y-43180000D01*
X74295000Y-43180000D02*
X73785000Y-43690000D01*
X62500000Y-40910000D02*
X73930000Y-40910000D01*
X73930000Y-40910000D02*
X74295000Y-41275000D01*
X62500000Y-45000000D02*
X62500000Y-40910000D01*
X73785000Y-43690000D02*
X67000000Y-43690000D01*
%TO.N,Net-(AMP1-Pad3)*%
X56995000Y-48105000D02*
X57660000Y-48770000D01*
X57660000Y-48770000D02*
X67000000Y-48770000D01*
X56995000Y-40100000D02*
X56995000Y-48105000D01*
%TO.N,Net-(AMP1-Pad4)*%
X76105000Y-60865000D02*
X76105000Y-65405000D01*
X72010000Y-56770000D02*
X76105000Y-60865000D01*
X67000000Y-56770000D02*
X72010000Y-56770000D01*
X58500000Y-55132323D02*
X65362323Y-55132323D01*
X65362323Y-55132323D02*
X67000000Y-56770000D01*
%TO.N,Net-(AMP1-Pad1)*%
X61600000Y-45900000D02*
X62500000Y-45000000D01*
X59795000Y-45900000D02*
X61600000Y-45900000D01*
%TO.N,Net-(AMP1-Pad6)*%
X94005000Y-43690000D02*
X95195000Y-42500000D01*
X86000000Y-43690000D02*
X94005000Y-43690000D01*
%TO.N,Net-(AMP1-Pad7)*%
X93845000Y-46230000D02*
X95195000Y-47580000D01*
X86000000Y-46230000D02*
X93845000Y-46230000D01*
%TO.N,Net-(AMP1-Pad8)*%
X86000000Y-56770000D02*
X93880000Y-56770000D01*
X93880000Y-56770000D02*
X95195000Y-55455000D01*
%TO.N,Net-(AMP1-Pad9)*%
X93970000Y-59310000D02*
X95195000Y-60535000D01*
X86000000Y-59310000D02*
X93970000Y-59310000D01*
%TD*%
%TA.AperFunction,Conductor*%
%TO.N,GND*%
G36*
X98395018Y-32895000D02*
G01*
X98409851Y-32897310D01*
X98409855Y-32897310D01*
X98418724Y-32898691D01*
X98427626Y-32897527D01*
X98427628Y-32897527D01*
X98431936Y-32896963D01*
X98436720Y-32896338D01*
X98460117Y-32895472D01*
X98716492Y-32909869D01*
X98730524Y-32911450D01*
X98870953Y-32935311D01*
X99011376Y-32959170D01*
X99025151Y-32962314D01*
X99298891Y-33041177D01*
X99312228Y-33045844D01*
X99575418Y-33154861D01*
X99588148Y-33160992D01*
X99837468Y-33298786D01*
X99849432Y-33306303D01*
X100081762Y-33471149D01*
X100092808Y-33479958D01*
X100172083Y-33550802D01*
X100305224Y-33669785D01*
X100315215Y-33679776D01*
X100484809Y-33869550D01*
X100505041Y-33892190D01*
X100513850Y-33903236D01*
X100526955Y-33921706D01*
X100678697Y-34135568D01*
X100686214Y-34147532D01*
X100824008Y-34396852D01*
X100830139Y-34409582D01*
X100939156Y-34672772D01*
X100943823Y-34686109D01*
X101022686Y-34959849D01*
X101025830Y-34973624D01*
X101026678Y-34978612D01*
X101072969Y-35251055D01*
X101073549Y-35254471D01*
X101075131Y-35268513D01*
X101089118Y-35517593D01*
X101087817Y-35544036D01*
X101087690Y-35544849D01*
X101087690Y-35544855D01*
X101086309Y-35553724D01*
X101087473Y-35562626D01*
X101087473Y-35562628D01*
X101090436Y-35585283D01*
X101091500Y-35601621D01*
X101091500Y-66625633D01*
X101090000Y-66645018D01*
X101087690Y-66659851D01*
X101087690Y-66659855D01*
X101086309Y-66668724D01*
X101087473Y-66677626D01*
X101087473Y-66677628D01*
X101088662Y-66686716D01*
X101089528Y-66710117D01*
X101077331Y-66927320D01*
X101075131Y-66966488D01*
X101073550Y-66980524D01*
X101071951Y-66989933D01*
X101025830Y-67261376D01*
X101022686Y-67275151D01*
X100943823Y-67548891D01*
X100939156Y-67562228D01*
X100830139Y-67825418D01*
X100824008Y-67838148D01*
X100686214Y-68087468D01*
X100678697Y-68099432D01*
X100513851Y-68331762D01*
X100505042Y-68342808D01*
X100384012Y-68478241D01*
X100315215Y-68555224D01*
X100305224Y-68565215D01*
X100258267Y-68607179D01*
X100092810Y-68755041D01*
X100081762Y-68763851D01*
X99849432Y-68928697D01*
X99837468Y-68936214D01*
X99588148Y-69074008D01*
X99575418Y-69080139D01*
X99312228Y-69189156D01*
X99298891Y-69193823D01*
X99025151Y-69272686D01*
X99011376Y-69275830D01*
X98893073Y-69295931D01*
X98730524Y-69323550D01*
X98716490Y-69325131D01*
X98647407Y-69329010D01*
X98467407Y-69339118D01*
X98440964Y-69337817D01*
X98440151Y-69337690D01*
X98440145Y-69337690D01*
X98431276Y-69336309D01*
X98422375Y-69337473D01*
X98422371Y-69337473D01*
X98399710Y-69340437D01*
X98383373Y-69341501D01*
X74612489Y-69341693D01*
X54145935Y-69341859D01*
X54131858Y-69341070D01*
X54094458Y-69336865D01*
X54076866Y-69339930D01*
X54053337Y-69341787D01*
X53788230Y-69337777D01*
X53773761Y-69336722D01*
X53483299Y-69298642D01*
X53469056Y-69295932D01*
X53326977Y-69260319D01*
X53184903Y-69224707D01*
X53171053Y-69220374D01*
X52896980Y-69116952D01*
X52883721Y-69111056D01*
X52623343Y-68976801D01*
X52610859Y-68969424D01*
X52367651Y-68806124D01*
X52356102Y-68797366D01*
X52133270Y-68607174D01*
X52122800Y-68597138D01*
X52010240Y-68476077D01*
X51923328Y-68382602D01*
X51914077Y-68371425D01*
X51740599Y-68135381D01*
X51732692Y-68123212D01*
X51587499Y-67868775D01*
X51581045Y-67855778D01*
X51466073Y-67586345D01*
X51461162Y-67572712D01*
X51377923Y-67291810D01*
X51374613Y-67277700D01*
X51324230Y-66989129D01*
X51322561Y-66974714D01*
X51314971Y-66843132D01*
X51307712Y-66717288D01*
X51309004Y-66690645D01*
X51309082Y-66690145D01*
X51310463Y-66681276D01*
X51306886Y-66653918D01*
X51986917Y-66653918D01*
X51987334Y-66661156D01*
X52002682Y-66927320D01*
X52055405Y-67196053D01*
X52056792Y-67200103D01*
X52056793Y-67200108D01*
X52130158Y-67414389D01*
X52144112Y-67455144D01*
X52267160Y-67699799D01*
X52269586Y-67703328D01*
X52269589Y-67703334D01*
X52419843Y-67921953D01*
X52422274Y-67925490D01*
X52606582Y-68128043D01*
X52816675Y-68303707D01*
X52820316Y-68305991D01*
X53045024Y-68446951D01*
X53045028Y-68446953D01*
X53048664Y-68449234D01*
X53116544Y-68479883D01*
X53294345Y-68560164D01*
X53294349Y-68560166D01*
X53298257Y-68561930D01*
X53302377Y-68563150D01*
X53302376Y-68563150D01*
X53556723Y-68638491D01*
X53556727Y-68638492D01*
X53560836Y-68639709D01*
X53565070Y-68640357D01*
X53565075Y-68640358D01*
X53827298Y-68680483D01*
X53827300Y-68680483D01*
X53831540Y-68681132D01*
X53970912Y-68683322D01*
X54101071Y-68685367D01*
X54101077Y-68685367D01*
X54105362Y-68685434D01*
X54377235Y-68652534D01*
X54642127Y-68583041D01*
X54646087Y-68581401D01*
X54646092Y-68581399D01*
X54768632Y-68530641D01*
X54895136Y-68478241D01*
X55131582Y-68340073D01*
X55347089Y-68171094D01*
X55381698Y-68135381D01*
X55534686Y-67977509D01*
X55537669Y-67974431D01*
X55540202Y-67970983D01*
X55540206Y-67970978D01*
X55697257Y-67757178D01*
X55699795Y-67753723D01*
X55727154Y-67703334D01*
X55828418Y-67516830D01*
X55828419Y-67516828D01*
X55830468Y-67513054D01*
X55927269Y-67256877D01*
X55988407Y-66989933D01*
X55989247Y-66980529D01*
X56012531Y-66719627D01*
X56012531Y-66719625D01*
X56012751Y-66717161D01*
X56013193Y-66675000D01*
X56011756Y-66653918D01*
X55994859Y-66406055D01*
X55994858Y-66406049D01*
X55994567Y-66401778D01*
X55990567Y-66382460D01*
X55939901Y-66137809D01*
X55939032Y-66133612D01*
X55847617Y-65875465D01*
X55722013Y-65632112D01*
X55712040Y-65617921D01*
X55567008Y-65411562D01*
X55564545Y-65408057D01*
X55378125Y-65207445D01*
X55374810Y-65204731D01*
X55374806Y-65204728D01*
X55169523Y-65036706D01*
X55166205Y-65033990D01*
X54932704Y-64890901D01*
X54928768Y-64889173D01*
X54685873Y-64782549D01*
X54685869Y-64782548D01*
X54681945Y-64780825D01*
X54418566Y-64705800D01*
X54414324Y-64705196D01*
X54414318Y-64705195D01*
X54213834Y-64676662D01*
X54147443Y-64667213D01*
X54003589Y-64666460D01*
X53877877Y-64665802D01*
X53877871Y-64665802D01*
X53873591Y-64665780D01*
X53869347Y-64666339D01*
X53869343Y-64666339D01*
X53750302Y-64682011D01*
X53602078Y-64701525D01*
X53597938Y-64702658D01*
X53597936Y-64702658D01*
X53525008Y-64722609D01*
X53337928Y-64773788D01*
X53333980Y-64775472D01*
X53089982Y-64879546D01*
X53089978Y-64879548D01*
X53086030Y-64881232D01*
X53066125Y-64893145D01*
X52854725Y-65019664D01*
X52854721Y-65019667D01*
X52851043Y-65021868D01*
X52637318Y-65193094D01*
X52448808Y-65391742D01*
X52289002Y-65614136D01*
X52160857Y-65856161D01*
X52159385Y-65860184D01*
X52159383Y-65860188D01*
X52152314Y-65879506D01*
X52066743Y-66113337D01*
X52008404Y-66380907D01*
X52007253Y-66395528D01*
X51988376Y-66635386D01*
X51986917Y-66653918D01*
X51306886Y-66653918D01*
X51306340Y-66649741D01*
X51305277Y-66633393D01*
X51305821Y-61389711D01*
X57672496Y-61389711D01*
X57678223Y-61397361D01*
X57809042Y-61477528D01*
X57817837Y-61482010D01*
X58027988Y-61569057D01*
X58037373Y-61572106D01*
X58258554Y-61625208D01*
X58268301Y-61626751D01*
X58495070Y-61644598D01*
X58504930Y-61644598D01*
X58731699Y-61626751D01*
X58741446Y-61625208D01*
X58962627Y-61572106D01*
X58972012Y-61569057D01*
X59182163Y-61482010D01*
X59190958Y-61477528D01*
X59318110Y-61399608D01*
X59327570Y-61389152D01*
X59323786Y-61380373D01*
X58512812Y-60569399D01*
X58498868Y-60561785D01*
X58497035Y-60561916D01*
X58490420Y-60566167D01*
X57679256Y-61377331D01*
X57672496Y-61389711D01*
X51305821Y-61389711D01*
X51305951Y-60137253D01*
X56987725Y-60137253D01*
X57005572Y-60364022D01*
X57007115Y-60373769D01*
X57060217Y-60594950D01*
X57063266Y-60604335D01*
X57150313Y-60814486D01*
X57154795Y-60823281D01*
X57232715Y-60950433D01*
X57243171Y-60959893D01*
X57251950Y-60956109D01*
X58062924Y-60145135D01*
X58069302Y-60133455D01*
X58929462Y-60133455D01*
X58929593Y-60135288D01*
X58933844Y-60141903D01*
X59745008Y-60953067D01*
X59757388Y-60959827D01*
X59765038Y-60954100D01*
X59845205Y-60823281D01*
X59849687Y-60814486D01*
X59936734Y-60604335D01*
X59939783Y-60594950D01*
X59946400Y-60567388D01*
X66172496Y-60567388D01*
X66178223Y-60575038D01*
X66309042Y-60655205D01*
X66317837Y-60659687D01*
X66527988Y-60746734D01*
X66537373Y-60749783D01*
X66758554Y-60802885D01*
X66768301Y-60804428D01*
X66995070Y-60822275D01*
X67004930Y-60822275D01*
X67231699Y-60804428D01*
X67241446Y-60802885D01*
X67462627Y-60749783D01*
X67472012Y-60746734D01*
X67682163Y-60659687D01*
X67690958Y-60655205D01*
X67818110Y-60577285D01*
X67827570Y-60566829D01*
X67823786Y-60558050D01*
X67012812Y-59747076D01*
X66998868Y-59739462D01*
X66997035Y-59739593D01*
X66990420Y-59743844D01*
X66179256Y-60555008D01*
X66172496Y-60567388D01*
X59946400Y-60567388D01*
X59992885Y-60373769D01*
X59994428Y-60364022D01*
X60012275Y-60137253D01*
X60012275Y-60127393D01*
X59994428Y-59900624D01*
X59992885Y-59890877D01*
X59939783Y-59669696D01*
X59936734Y-59660311D01*
X59849687Y-59450160D01*
X59845205Y-59441365D01*
X59767724Y-59314930D01*
X65487725Y-59314930D01*
X65505572Y-59541699D01*
X65507115Y-59551446D01*
X65560217Y-59772627D01*
X65563266Y-59782012D01*
X65650313Y-59992163D01*
X65654795Y-60000958D01*
X65732715Y-60128110D01*
X65743171Y-60137570D01*
X65751950Y-60133786D01*
X66562924Y-59322812D01*
X66569302Y-59311132D01*
X67429462Y-59311132D01*
X67429593Y-59312965D01*
X67433844Y-59319580D01*
X68245008Y-60130744D01*
X68257388Y-60137504D01*
X68265038Y-60131777D01*
X68345205Y-60000958D01*
X68349687Y-59992163D01*
X68436734Y-59782012D01*
X68439783Y-59772627D01*
X68492885Y-59551446D01*
X68494428Y-59541699D01*
X68512275Y-59314930D01*
X68512275Y-59305070D01*
X68494428Y-59078301D01*
X68492885Y-59068554D01*
X68439783Y-58847373D01*
X68436734Y-58837988D01*
X68349687Y-58627837D01*
X68345205Y-58619042D01*
X68267285Y-58491890D01*
X68256829Y-58482430D01*
X68248050Y-58486214D01*
X67437076Y-59297188D01*
X67429462Y-59311132D01*
X66569302Y-59311132D01*
X66570538Y-59308868D01*
X66570407Y-59307035D01*
X66566156Y-59300420D01*
X65754992Y-58489256D01*
X65742612Y-58482496D01*
X65734962Y-58488223D01*
X65654795Y-58619042D01*
X65650313Y-58627837D01*
X65563266Y-58837988D01*
X65560217Y-58847373D01*
X65507115Y-59068554D01*
X65505572Y-59078301D01*
X65487725Y-59305070D01*
X65487725Y-59314930D01*
X59767724Y-59314930D01*
X59767285Y-59314213D01*
X59756829Y-59304753D01*
X59748050Y-59308537D01*
X58937076Y-60119511D01*
X58929462Y-60133455D01*
X58069302Y-60133455D01*
X58070538Y-60131191D01*
X58070407Y-60129358D01*
X58066156Y-60122743D01*
X57254992Y-59311579D01*
X57242612Y-59304819D01*
X57234962Y-59310546D01*
X57154795Y-59441365D01*
X57150313Y-59450160D01*
X57063266Y-59660311D01*
X57060217Y-59669696D01*
X57007115Y-59890877D01*
X57005572Y-59900624D01*
X56987725Y-60127393D01*
X56987725Y-60137253D01*
X51305951Y-60137253D01*
X51306082Y-58875494D01*
X57672430Y-58875494D01*
X57676214Y-58884273D01*
X58487188Y-59695247D01*
X58501132Y-59702861D01*
X58502965Y-59702730D01*
X58509580Y-59698479D01*
X59320744Y-58887315D01*
X59327504Y-58874935D01*
X59321777Y-58867285D01*
X59190958Y-58787118D01*
X59182163Y-58782636D01*
X58972012Y-58695589D01*
X58962627Y-58692540D01*
X58741446Y-58639438D01*
X58731699Y-58637895D01*
X58504930Y-58620048D01*
X58495070Y-58620048D01*
X58268301Y-58637895D01*
X58258554Y-58639438D01*
X58037373Y-58692540D01*
X58027988Y-58695589D01*
X57817837Y-58782636D01*
X57809042Y-58787118D01*
X57681890Y-58865038D01*
X57672430Y-58875494D01*
X51306082Y-58875494D01*
X51306362Y-56180457D01*
X56991500Y-56180457D01*
X56998255Y-56242639D01*
X57049385Y-56379028D01*
X57136739Y-56495584D01*
X57253295Y-56582938D01*
X57389684Y-56634068D01*
X57451866Y-56640823D01*
X59548134Y-56640823D01*
X59610316Y-56634068D01*
X59746705Y-56582938D01*
X59863261Y-56495584D01*
X59950615Y-56379028D01*
X60001745Y-56242639D01*
X60008500Y-56180457D01*
X60008500Y-56166823D01*
X60028502Y-56098702D01*
X60082158Y-56052209D01*
X60134500Y-56040823D01*
X64933820Y-56040823D01*
X65001941Y-56060825D01*
X65022915Y-56077728D01*
X65462422Y-56517235D01*
X65496448Y-56579547D01*
X65498939Y-56616213D01*
X65486835Y-56770000D01*
X65505465Y-57006711D01*
X65506619Y-57011518D01*
X65506620Y-57011524D01*
X65541640Y-57157391D01*
X65560895Y-57237594D01*
X65562788Y-57242165D01*
X65562789Y-57242167D01*
X65648109Y-57448148D01*
X65651760Y-57456963D01*
X65654346Y-57461183D01*
X65773241Y-57655202D01*
X65773245Y-57655208D01*
X65775824Y-57659416D01*
X65930031Y-57839969D01*
X66110584Y-57994176D01*
X66114800Y-57996760D01*
X66114802Y-57996761D01*
X66126012Y-58003631D01*
X66175882Y-58061182D01*
X66176212Y-58061948D01*
X66987188Y-58872924D01*
X67001132Y-58880538D01*
X67002965Y-58880407D01*
X67009580Y-58876156D01*
X67820744Y-58064992D01*
X67828222Y-58051298D01*
X67872973Y-58004253D01*
X67885198Y-57996761D01*
X67885200Y-57996760D01*
X67889416Y-57994176D01*
X68069969Y-57839969D01*
X68170153Y-57722669D01*
X68229604Y-57683860D01*
X68265964Y-57678500D01*
X71581497Y-57678500D01*
X71649618Y-57698502D01*
X71670592Y-57715405D01*
X75159595Y-61204408D01*
X75193621Y-61266720D01*
X75196500Y-61293503D01*
X75196500Y-63958991D01*
X75176498Y-64027112D01*
X75122842Y-64073605D01*
X75117306Y-64075903D01*
X75116704Y-64076232D01*
X75108295Y-64079385D01*
X74991739Y-64166739D01*
X74904385Y-64283295D01*
X74853255Y-64419684D01*
X74846500Y-64481866D01*
X74846500Y-66328134D01*
X74853255Y-66390316D01*
X74904385Y-66526705D01*
X74991739Y-66643261D01*
X75108295Y-66730615D01*
X75244684Y-66781745D01*
X75306866Y-66788500D01*
X76903134Y-66788500D01*
X76965316Y-66781745D01*
X76972712Y-66778973D01*
X76972718Y-66778971D01*
X77061483Y-66745694D01*
X77132290Y-66740511D01*
X77149941Y-66745694D01*
X77237391Y-66778478D01*
X77252649Y-66782105D01*
X77303514Y-66787631D01*
X77310328Y-66788000D01*
X77786885Y-66788000D01*
X77802124Y-66783525D01*
X77803329Y-66782135D01*
X77805000Y-66774452D01*
X77805000Y-66769884D01*
X78405000Y-66769884D01*
X78409475Y-66785123D01*
X78410865Y-66786328D01*
X78418548Y-66787999D01*
X78899669Y-66787999D01*
X78906490Y-66787629D01*
X78957352Y-66782105D01*
X78972604Y-66778479D01*
X79093054Y-66733324D01*
X79108649Y-66724786D01*
X79203208Y-66653918D01*
X96411917Y-66653918D01*
X96412334Y-66661156D01*
X96427682Y-66927320D01*
X96480405Y-67196053D01*
X96481792Y-67200103D01*
X96481793Y-67200108D01*
X96555158Y-67414389D01*
X96569112Y-67455144D01*
X96692160Y-67699799D01*
X96694586Y-67703328D01*
X96694589Y-67703334D01*
X96844843Y-67921953D01*
X96847274Y-67925490D01*
X97031582Y-68128043D01*
X97241675Y-68303707D01*
X97245316Y-68305991D01*
X97470024Y-68446951D01*
X97470028Y-68446953D01*
X97473664Y-68449234D01*
X97541544Y-68479883D01*
X97719345Y-68560164D01*
X97719349Y-68560166D01*
X97723257Y-68561930D01*
X97727377Y-68563150D01*
X97727376Y-68563150D01*
X97981723Y-68638491D01*
X97981727Y-68638492D01*
X97985836Y-68639709D01*
X97990070Y-68640357D01*
X97990075Y-68640358D01*
X98252298Y-68680483D01*
X98252300Y-68680483D01*
X98256540Y-68681132D01*
X98395912Y-68683322D01*
X98526071Y-68685367D01*
X98526077Y-68685367D01*
X98530362Y-68685434D01*
X98802235Y-68652534D01*
X99067127Y-68583041D01*
X99071087Y-68581401D01*
X99071092Y-68581399D01*
X99193632Y-68530641D01*
X99320136Y-68478241D01*
X99556582Y-68340073D01*
X99772089Y-68171094D01*
X99806698Y-68135381D01*
X99959686Y-67977509D01*
X99962669Y-67974431D01*
X99965202Y-67970983D01*
X99965206Y-67970978D01*
X100122257Y-67757178D01*
X100124795Y-67753723D01*
X100152154Y-67703334D01*
X100253418Y-67516830D01*
X100253419Y-67516828D01*
X100255468Y-67513054D01*
X100352269Y-67256877D01*
X100413407Y-66989933D01*
X100414247Y-66980529D01*
X100437531Y-66719627D01*
X100437531Y-66719625D01*
X100437751Y-66717161D01*
X100438193Y-66675000D01*
X100436756Y-66653918D01*
X100419859Y-66406055D01*
X100419858Y-66406049D01*
X100419567Y-66401778D01*
X100415567Y-66382460D01*
X100364901Y-66137809D01*
X100364032Y-66133612D01*
X100272617Y-65875465D01*
X100147013Y-65632112D01*
X100137040Y-65617921D01*
X99992008Y-65411562D01*
X99989545Y-65408057D01*
X99803125Y-65207445D01*
X99799810Y-65204731D01*
X99799806Y-65204728D01*
X99594523Y-65036706D01*
X99591205Y-65033990D01*
X99357704Y-64890901D01*
X99353768Y-64889173D01*
X99110873Y-64782549D01*
X99110869Y-64782548D01*
X99106945Y-64780825D01*
X98843566Y-64705800D01*
X98839324Y-64705196D01*
X98839318Y-64705195D01*
X98638834Y-64676662D01*
X98572443Y-64667213D01*
X98428589Y-64666460D01*
X98302877Y-64665802D01*
X98302871Y-64665802D01*
X98298591Y-64665780D01*
X98294347Y-64666339D01*
X98294343Y-64666339D01*
X98175302Y-64682011D01*
X98027078Y-64701525D01*
X98022938Y-64702658D01*
X98022936Y-64702658D01*
X97950008Y-64722609D01*
X97762928Y-64773788D01*
X97758980Y-64775472D01*
X97514982Y-64879546D01*
X97514978Y-64879548D01*
X97511030Y-64881232D01*
X97491125Y-64893145D01*
X97279725Y-65019664D01*
X97279721Y-65019667D01*
X97276043Y-65021868D01*
X97062318Y-65193094D01*
X96873808Y-65391742D01*
X96714002Y-65614136D01*
X96585857Y-65856161D01*
X96584385Y-65860184D01*
X96584383Y-65860188D01*
X96577314Y-65879506D01*
X96491743Y-66113337D01*
X96433404Y-66380907D01*
X96432253Y-66395528D01*
X96413376Y-66635386D01*
X96411917Y-66653918D01*
X79203208Y-66653918D01*
X79210724Y-66648285D01*
X79223285Y-66635724D01*
X79299786Y-66533649D01*
X79308324Y-66518054D01*
X79353478Y-66397606D01*
X79357105Y-66382351D01*
X79362631Y-66331486D01*
X79363000Y-66324672D01*
X79363000Y-65723115D01*
X79358525Y-65707876D01*
X79357135Y-65706671D01*
X79349452Y-65705000D01*
X78423115Y-65705000D01*
X78407876Y-65709475D01*
X78406671Y-65710865D01*
X78405000Y-65718548D01*
X78405000Y-66769884D01*
X77805000Y-66769884D01*
X77805000Y-65086885D01*
X78405000Y-65086885D01*
X78409475Y-65102124D01*
X78410865Y-65103329D01*
X78418548Y-65105000D01*
X79344884Y-65105000D01*
X79360123Y-65100525D01*
X79361328Y-65099135D01*
X79362999Y-65091452D01*
X79362999Y-64485331D01*
X79362629Y-64478510D01*
X79357105Y-64427648D01*
X79353479Y-64412396D01*
X79308324Y-64291946D01*
X79299786Y-64276351D01*
X79223285Y-64174276D01*
X79210724Y-64161715D01*
X79108649Y-64085214D01*
X79093054Y-64076676D01*
X78972606Y-64031522D01*
X78957351Y-64027895D01*
X78906486Y-64022369D01*
X78899672Y-64022000D01*
X78423115Y-64022000D01*
X78407876Y-64026475D01*
X78406671Y-64027865D01*
X78405000Y-64035548D01*
X78405000Y-65086885D01*
X77805000Y-65086885D01*
X77805000Y-64040116D01*
X77800525Y-64024877D01*
X77799135Y-64023672D01*
X77791452Y-64022001D01*
X77310331Y-64022001D01*
X77303510Y-64022371D01*
X77252648Y-64027895D01*
X77237397Y-64031521D01*
X77183730Y-64051640D01*
X77112923Y-64056823D01*
X77050554Y-64022903D01*
X77016425Y-63960648D01*
X77013500Y-63933658D01*
X77013500Y-60946417D01*
X77015051Y-60926707D01*
X77016220Y-60919327D01*
X77016220Y-60919326D01*
X77017252Y-60912810D01*
X77013673Y-60844520D01*
X77013500Y-60837926D01*
X77013500Y-60817390D01*
X77012138Y-60804428D01*
X77011353Y-60796958D01*
X77010836Y-60790384D01*
X77007603Y-60728696D01*
X77007603Y-60728694D01*
X77007257Y-60722097D01*
X77003615Y-60708504D01*
X77000014Y-60689075D01*
X76999232Y-60681639D01*
X76998542Y-60675072D01*
X76977407Y-60610025D01*
X76975535Y-60603706D01*
X76959538Y-60544003D01*
X76959537Y-60544000D01*
X76957830Y-60537630D01*
X76951438Y-60525085D01*
X76943874Y-60506823D01*
X76941568Y-60499726D01*
X76939527Y-60493444D01*
X76905336Y-60434223D01*
X76902188Y-60428426D01*
X76874126Y-60373351D01*
X76874124Y-60373348D01*
X76871129Y-60367470D01*
X76862273Y-60356533D01*
X76851073Y-60340237D01*
X76847343Y-60333776D01*
X76847340Y-60333772D01*
X76844040Y-60328056D01*
X76839623Y-60323150D01*
X76839619Y-60323145D01*
X76798278Y-60277231D01*
X76793994Y-60272216D01*
X76783148Y-60258823D01*
X76781072Y-60256259D01*
X76766557Y-60241744D01*
X76762016Y-60236959D01*
X76720673Y-60191043D01*
X76716253Y-60186134D01*
X76704865Y-60177860D01*
X76689832Y-60165019D01*
X75834813Y-59310000D01*
X84486835Y-59310000D01*
X84505465Y-59546711D01*
X84560895Y-59777594D01*
X84562788Y-59782165D01*
X84562789Y-59782167D01*
X84649772Y-59992163D01*
X84651760Y-59996963D01*
X84654346Y-60001183D01*
X84773241Y-60195202D01*
X84773245Y-60195208D01*
X84775824Y-60199416D01*
X84855033Y-60292158D01*
X84910520Y-60357124D01*
X84930031Y-60379969D01*
X85110584Y-60534176D01*
X85114792Y-60536755D01*
X85114798Y-60536759D01*
X85308084Y-60655205D01*
X85313037Y-60658240D01*
X85317607Y-60660133D01*
X85317611Y-60660135D01*
X85527833Y-60747211D01*
X85532406Y-60749105D01*
X85580303Y-60760604D01*
X85758476Y-60803380D01*
X85758482Y-60803381D01*
X85763289Y-60804535D01*
X86000000Y-60823165D01*
X86236711Y-60804535D01*
X86241518Y-60803381D01*
X86241524Y-60803380D01*
X86419697Y-60760604D01*
X86467594Y-60749105D01*
X86472167Y-60747211D01*
X86682389Y-60660135D01*
X86682393Y-60660133D01*
X86686963Y-60658240D01*
X86691916Y-60655205D01*
X86885202Y-60536759D01*
X86885208Y-60536755D01*
X86889416Y-60534176D01*
X87069969Y-60379969D01*
X87170153Y-60262669D01*
X87229604Y-60223860D01*
X87265964Y-60218500D01*
X93269815Y-60218500D01*
X93337936Y-60238502D01*
X93384429Y-60292158D01*
X93395181Y-60357124D01*
X93382050Y-60487526D01*
X93382274Y-60492192D01*
X93382274Y-60492197D01*
X93387210Y-60594950D01*
X93394947Y-60756019D01*
X93447388Y-61019656D01*
X93538220Y-61272646D01*
X93665450Y-61509431D01*
X93668241Y-61513168D01*
X93668245Y-61513175D01*
X93749887Y-61622506D01*
X93826281Y-61724810D01*
X93829590Y-61728090D01*
X93829595Y-61728096D01*
X94013863Y-61910762D01*
X94017180Y-61914050D01*
X94020942Y-61916808D01*
X94020945Y-61916811D01*
X94133299Y-61999192D01*
X94233954Y-62072995D01*
X94238089Y-62075171D01*
X94238093Y-62075173D01*
X94467698Y-62195975D01*
X94471840Y-62198154D01*
X94725613Y-62286775D01*
X94730206Y-62287647D01*
X94985109Y-62336042D01*
X94985112Y-62336042D01*
X94989698Y-62336913D01*
X95117370Y-62341929D01*
X95253625Y-62347283D01*
X95253630Y-62347283D01*
X95258293Y-62347466D01*
X95362607Y-62336042D01*
X95520844Y-62318713D01*
X95520850Y-62318712D01*
X95525497Y-62318203D01*
X95530021Y-62317012D01*
X95780918Y-62250956D01*
X95780920Y-62250955D01*
X95785441Y-62249765D01*
X95789738Y-62247919D01*
X96028120Y-62145502D01*
X96028122Y-62145501D01*
X96032414Y-62143657D01*
X96151071Y-62070230D01*
X96257017Y-62004669D01*
X96257021Y-62004666D01*
X96260990Y-62002210D01*
X96466149Y-61828530D01*
X96643382Y-61626434D01*
X96788797Y-61400361D01*
X96899199Y-61155278D01*
X96936209Y-61024051D01*
X96970893Y-60901072D01*
X96970894Y-60901069D01*
X96972163Y-60896568D01*
X96985251Y-60793690D01*
X97005688Y-60633045D01*
X97005688Y-60633041D01*
X97006086Y-60629915D01*
X97007002Y-60594950D01*
X97007870Y-60561785D01*
X97008571Y-60535000D01*
X96988650Y-60266937D01*
X96986234Y-60256259D01*
X96930361Y-60009331D01*
X96930360Y-60009326D01*
X96929327Y-60004763D01*
X96831902Y-59754238D01*
X96698518Y-59520864D01*
X96532105Y-59309769D01*
X96336317Y-59125591D01*
X96115457Y-58972374D01*
X96111264Y-58970306D01*
X95878564Y-58855551D01*
X95878561Y-58855550D01*
X95874376Y-58853486D01*
X95618370Y-58771538D01*
X95613763Y-58770788D01*
X95613760Y-58770787D01*
X95357674Y-58729081D01*
X95357675Y-58729081D01*
X95353063Y-58728330D01*
X95222719Y-58726624D01*
X95088961Y-58724873D01*
X95088958Y-58724873D01*
X95084284Y-58724812D01*
X94817937Y-58761060D01*
X94813447Y-58762369D01*
X94813441Y-58762370D01*
X94802772Y-58765480D01*
X94731776Y-58765338D01*
X94678421Y-58733608D01*
X94669981Y-58725168D01*
X94657140Y-58710135D01*
X94652746Y-58704087D01*
X94652745Y-58704086D01*
X94648866Y-58698747D01*
X94598041Y-58652984D01*
X94593256Y-58648443D01*
X94578741Y-58633928D01*
X94565292Y-58623037D01*
X94562784Y-58621006D01*
X94557769Y-58616722D01*
X94511855Y-58575381D01*
X94511850Y-58575377D01*
X94506944Y-58570960D01*
X94501228Y-58567660D01*
X94501224Y-58567657D01*
X94494763Y-58563927D01*
X94478466Y-58552727D01*
X94472660Y-58548025D01*
X94472658Y-58548024D01*
X94467530Y-58543871D01*
X94406577Y-58512814D01*
X94400782Y-58509667D01*
X94347279Y-58478777D01*
X94347278Y-58478776D01*
X94341556Y-58475473D01*
X94335274Y-58473432D01*
X94335272Y-58473431D01*
X94328174Y-58471125D01*
X94309907Y-58463559D01*
X94297370Y-58457171D01*
X94231299Y-58439467D01*
X94224997Y-58437600D01*
X94159928Y-58416458D01*
X94153363Y-58415768D01*
X94153354Y-58415766D01*
X94145925Y-58414985D01*
X94126491Y-58411383D01*
X94119286Y-58409453D01*
X94119284Y-58409453D01*
X94112903Y-58407743D01*
X94106312Y-58407398D01*
X94106308Y-58407397D01*
X94044616Y-58404164D01*
X94038042Y-58403647D01*
X94020884Y-58401844D01*
X94020882Y-58401844D01*
X94017610Y-58401500D01*
X93997074Y-58401500D01*
X93990480Y-58401327D01*
X93928782Y-58398093D01*
X93928777Y-58398093D01*
X93922190Y-58397748D01*
X93908292Y-58399949D01*
X93888583Y-58401500D01*
X87265964Y-58401500D01*
X87197843Y-58381498D01*
X87170153Y-58357331D01*
X87073177Y-58243787D01*
X87069969Y-58240031D01*
X87066213Y-58236823D01*
X87066208Y-58236818D01*
X86947944Y-58135811D01*
X86909134Y-58076361D01*
X86908628Y-58005366D01*
X86947944Y-57944189D01*
X87066208Y-57843182D01*
X87066213Y-57843177D01*
X87069969Y-57839969D01*
X87170153Y-57722669D01*
X87229604Y-57683860D01*
X87265964Y-57678500D01*
X93798583Y-57678500D01*
X93818292Y-57680051D01*
X93832190Y-57682252D01*
X93838777Y-57681907D01*
X93838782Y-57681907D01*
X93900480Y-57678673D01*
X93907074Y-57678500D01*
X93927610Y-57678500D01*
X93930882Y-57678156D01*
X93930884Y-57678156D01*
X93948042Y-57676353D01*
X93954616Y-57675836D01*
X94016308Y-57672603D01*
X94016312Y-57672602D01*
X94022903Y-57672257D01*
X94029284Y-57670547D01*
X94029286Y-57670547D01*
X94036491Y-57668617D01*
X94055925Y-57665015D01*
X94063354Y-57664234D01*
X94063363Y-57664232D01*
X94069928Y-57663542D01*
X94134997Y-57642400D01*
X94141299Y-57640533D01*
X94207370Y-57622829D01*
X94219908Y-57616440D01*
X94238174Y-57608875D01*
X94245272Y-57606569D01*
X94245274Y-57606568D01*
X94251556Y-57604527D01*
X94310785Y-57570331D01*
X94316579Y-57567185D01*
X94377530Y-57536129D01*
X94388467Y-57527273D01*
X94404763Y-57516073D01*
X94411224Y-57512343D01*
X94411228Y-57512340D01*
X94416944Y-57509040D01*
X94421850Y-57504623D01*
X94421855Y-57504619D01*
X94467769Y-57463278D01*
X94472784Y-57458994D01*
X94486177Y-57448148D01*
X94488741Y-57446072D01*
X94503256Y-57431557D01*
X94508041Y-57427016D01*
X94553957Y-57385673D01*
X94558866Y-57381253D01*
X94567140Y-57369865D01*
X94579981Y-57354832D01*
X94634408Y-57300405D01*
X94696720Y-57266379D01*
X94723503Y-57263500D01*
X96543134Y-57263500D01*
X96605316Y-57256745D01*
X96741705Y-57205615D01*
X96858261Y-57118261D01*
X96945615Y-57001705D01*
X96996745Y-56865316D01*
X97003500Y-56803134D01*
X97003500Y-54106866D01*
X96996745Y-54044684D01*
X96945615Y-53908295D01*
X96858261Y-53791739D01*
X96741705Y-53704385D01*
X96605316Y-53653255D01*
X96543134Y-53646500D01*
X93846866Y-53646500D01*
X93784684Y-53653255D01*
X93648295Y-53704385D01*
X93531739Y-53791739D01*
X93444385Y-53908295D01*
X93393255Y-54044684D01*
X93386500Y-54106866D01*
X93386500Y-55735500D01*
X93366498Y-55803621D01*
X93312842Y-55850114D01*
X93260500Y-55861500D01*
X87265964Y-55861500D01*
X87197843Y-55841498D01*
X87170153Y-55817331D01*
X87073177Y-55703787D01*
X87069969Y-55700031D01*
X86889416Y-55545824D01*
X86885208Y-55543245D01*
X86885202Y-55543241D01*
X86691183Y-55424346D01*
X86686963Y-55421760D01*
X86682393Y-55419867D01*
X86682389Y-55419865D01*
X86472167Y-55332789D01*
X86472165Y-55332788D01*
X86467594Y-55330895D01*
X86387391Y-55311640D01*
X86241524Y-55276620D01*
X86241518Y-55276619D01*
X86236711Y-55275465D01*
X86000000Y-55256835D01*
X85763289Y-55275465D01*
X85758482Y-55276619D01*
X85758476Y-55276620D01*
X85612609Y-55311640D01*
X85532406Y-55330895D01*
X85527835Y-55332788D01*
X85527833Y-55332789D01*
X85317611Y-55419865D01*
X85317607Y-55419867D01*
X85313037Y-55421760D01*
X85308817Y-55424346D01*
X85114798Y-55543241D01*
X85114792Y-55543245D01*
X85110584Y-55545824D01*
X84930031Y-55700031D01*
X84775824Y-55880584D01*
X84773245Y-55884792D01*
X84773241Y-55884798D01*
X84665372Y-56060825D01*
X84651760Y-56083037D01*
X84649867Y-56087607D01*
X84649865Y-56087611D01*
X84609456Y-56185168D01*
X84560895Y-56302406D01*
X84505465Y-56533289D01*
X84486835Y-56770000D01*
X84505465Y-57006711D01*
X84506619Y-57011518D01*
X84506620Y-57011524D01*
X84541640Y-57157391D01*
X84560895Y-57237594D01*
X84562788Y-57242165D01*
X84562789Y-57242167D01*
X84648109Y-57448148D01*
X84651760Y-57456963D01*
X84654346Y-57461183D01*
X84773241Y-57655202D01*
X84773245Y-57655208D01*
X84775824Y-57659416D01*
X84930031Y-57839969D01*
X84933787Y-57843177D01*
X84933792Y-57843182D01*
X85052056Y-57944189D01*
X85090866Y-58003639D01*
X85091372Y-58074634D01*
X85052056Y-58135811D01*
X84933792Y-58236818D01*
X84933787Y-58236823D01*
X84930031Y-58240031D01*
X84775824Y-58420584D01*
X84773245Y-58424792D01*
X84773241Y-58424798D01*
X84694846Y-58552727D01*
X84651760Y-58623037D01*
X84649867Y-58627607D01*
X84649865Y-58627611D01*
X84590560Y-58770787D01*
X84560895Y-58842406D01*
X84551772Y-58880407D01*
X84529693Y-58972374D01*
X84505465Y-59073289D01*
X84486835Y-59310000D01*
X75834813Y-59310000D01*
X72709981Y-56185168D01*
X72697140Y-56170135D01*
X72692746Y-56164087D01*
X72692745Y-56164086D01*
X72688866Y-56158747D01*
X72638041Y-56112984D01*
X72633256Y-56108443D01*
X72618741Y-56093928D01*
X72605292Y-56083037D01*
X72602784Y-56081006D01*
X72597769Y-56076722D01*
X72551855Y-56035381D01*
X72551850Y-56035377D01*
X72546944Y-56030960D01*
X72541228Y-56027660D01*
X72541224Y-56027657D01*
X72534763Y-56023927D01*
X72518466Y-56012727D01*
X72512660Y-56008025D01*
X72512658Y-56008024D01*
X72507530Y-56003871D01*
X72446577Y-55972814D01*
X72440782Y-55969667D01*
X72387279Y-55938777D01*
X72387278Y-55938776D01*
X72381556Y-55935473D01*
X72375274Y-55933432D01*
X72375272Y-55933431D01*
X72368174Y-55931125D01*
X72349907Y-55923559D01*
X72337370Y-55917171D01*
X72271299Y-55899467D01*
X72264997Y-55897600D01*
X72199928Y-55876458D01*
X72193363Y-55875768D01*
X72193354Y-55875766D01*
X72185925Y-55874985D01*
X72166491Y-55871383D01*
X72159286Y-55869453D01*
X72159284Y-55869453D01*
X72152903Y-55867743D01*
X72146312Y-55867398D01*
X72146308Y-55867397D01*
X72084616Y-55864164D01*
X72078042Y-55863647D01*
X72060884Y-55861844D01*
X72060882Y-55861844D01*
X72057610Y-55861500D01*
X72037074Y-55861500D01*
X72030480Y-55861327D01*
X71968782Y-55858093D01*
X71968777Y-55858093D01*
X71962190Y-55857748D01*
X71948292Y-55859949D01*
X71928583Y-55861500D01*
X68265964Y-55861500D01*
X68197843Y-55841498D01*
X68170153Y-55817331D01*
X68073177Y-55703787D01*
X68069969Y-55700031D01*
X67889416Y-55545824D01*
X67885208Y-55543245D01*
X67885202Y-55543241D01*
X67691183Y-55424346D01*
X67686963Y-55421760D01*
X67682393Y-55419867D01*
X67682389Y-55419865D01*
X67472167Y-55332789D01*
X67472165Y-55332788D01*
X67467594Y-55330895D01*
X67387391Y-55311640D01*
X67241524Y-55276620D01*
X67241518Y-55276619D01*
X67236711Y-55275465D01*
X67000000Y-55256835D01*
X66846215Y-55268939D01*
X66776736Y-55254343D01*
X66747235Y-55232422D01*
X66062304Y-54547491D01*
X66049463Y-54532458D01*
X66045069Y-54526410D01*
X66045068Y-54526409D01*
X66041189Y-54521070D01*
X65990364Y-54475307D01*
X65985579Y-54470766D01*
X65971064Y-54456251D01*
X65963605Y-54450211D01*
X65955107Y-54443329D01*
X65950092Y-54439045D01*
X65904178Y-54397704D01*
X65904173Y-54397700D01*
X65899267Y-54393283D01*
X65893551Y-54389983D01*
X65893547Y-54389980D01*
X65887086Y-54386250D01*
X65870789Y-54375050D01*
X65864983Y-54370348D01*
X65864981Y-54370347D01*
X65859853Y-54366194D01*
X65798900Y-54335137D01*
X65793105Y-54331990D01*
X65739602Y-54301100D01*
X65739601Y-54301099D01*
X65733879Y-54297796D01*
X65727597Y-54295755D01*
X65727595Y-54295754D01*
X65720497Y-54293448D01*
X65702230Y-54285882D01*
X65689693Y-54279494D01*
X65623622Y-54261790D01*
X65617320Y-54259923D01*
X65552251Y-54238781D01*
X65545686Y-54238091D01*
X65545677Y-54238089D01*
X65538248Y-54237308D01*
X65518814Y-54233706D01*
X65511609Y-54231776D01*
X65511607Y-54231776D01*
X65505226Y-54230066D01*
X65498635Y-54229721D01*
X65498631Y-54229720D01*
X65436939Y-54226487D01*
X65430365Y-54225970D01*
X65413207Y-54224167D01*
X65413205Y-54224167D01*
X65409933Y-54223823D01*
X65389397Y-54223823D01*
X65382803Y-54223650D01*
X65321105Y-54220416D01*
X65321100Y-54220416D01*
X65314513Y-54220071D01*
X65300615Y-54222272D01*
X65280906Y-54223823D01*
X60134500Y-54223823D01*
X60066379Y-54203821D01*
X60019886Y-54150165D01*
X60008500Y-54097823D01*
X60008500Y-54084189D01*
X60001745Y-54022007D01*
X59950615Y-53885618D01*
X59863261Y-53769062D01*
X59746705Y-53681708D01*
X59610316Y-53630578D01*
X59548134Y-53623823D01*
X57451866Y-53623823D01*
X57389684Y-53630578D01*
X57253295Y-53681708D01*
X57136739Y-53769062D01*
X57049385Y-53885618D01*
X56998255Y-54022007D01*
X56991500Y-54084189D01*
X56991500Y-56180457D01*
X51306362Y-56180457D01*
X51307320Y-46944669D01*
X52087001Y-46944669D01*
X52087371Y-46951490D01*
X52092895Y-47002352D01*
X52096521Y-47017604D01*
X52141676Y-47138054D01*
X52150214Y-47153649D01*
X52226715Y-47255724D01*
X52239276Y-47268285D01*
X52341351Y-47344786D01*
X52356946Y-47353324D01*
X52477394Y-47398478D01*
X52492649Y-47402105D01*
X52543514Y-47407631D01*
X52550328Y-47408000D01*
X53276885Y-47408000D01*
X53292124Y-47403525D01*
X53293329Y-47402135D01*
X53295000Y-47394452D01*
X53295000Y-47389884D01*
X53895000Y-47389884D01*
X53899475Y-47405123D01*
X53900865Y-47406328D01*
X53908548Y-47407999D01*
X54639669Y-47407999D01*
X54646490Y-47407629D01*
X54697352Y-47402105D01*
X54712604Y-47398479D01*
X54833054Y-47353324D01*
X54848649Y-47344786D01*
X54950724Y-47268285D01*
X54963285Y-47255724D01*
X55039786Y-47153649D01*
X55048324Y-47138054D01*
X55093478Y-47017606D01*
X55097105Y-47002351D01*
X55102631Y-46951486D01*
X55103000Y-46944672D01*
X55103000Y-46218115D01*
X55098525Y-46202876D01*
X55097135Y-46201671D01*
X55089452Y-46200000D01*
X53913115Y-46200000D01*
X53897876Y-46204475D01*
X53896671Y-46205865D01*
X53895000Y-46213548D01*
X53895000Y-47389884D01*
X53295000Y-47389884D01*
X53295000Y-46218115D01*
X53290525Y-46202876D01*
X53289135Y-46201671D01*
X53281452Y-46200000D01*
X52105116Y-46200000D01*
X52089877Y-46204475D01*
X52088672Y-46205865D01*
X52087001Y-46213548D01*
X52087001Y-46944669D01*
X51307320Y-46944669D01*
X51307461Y-45581885D01*
X52087000Y-45581885D01*
X52091475Y-45597124D01*
X52092865Y-45598329D01*
X52100548Y-45600000D01*
X53276885Y-45600000D01*
X53292124Y-45595525D01*
X53293329Y-45594135D01*
X53295000Y-45586452D01*
X53295000Y-44410116D01*
X53290525Y-44394877D01*
X53289135Y-44393672D01*
X53281452Y-44392001D01*
X52550331Y-44392001D01*
X52543510Y-44392371D01*
X52492648Y-44397895D01*
X52477396Y-44401521D01*
X52356946Y-44446676D01*
X52341351Y-44455214D01*
X52239276Y-44531715D01*
X52226715Y-44544276D01*
X52150214Y-44646351D01*
X52141676Y-44661946D01*
X52096522Y-44782394D01*
X52092895Y-44797649D01*
X52087369Y-44848514D01*
X52087000Y-44855328D01*
X52087000Y-45581885D01*
X51307461Y-45581885D01*
X51307732Y-42969544D01*
X53431936Y-42969544D01*
X53445861Y-43182006D01*
X53447282Y-43187602D01*
X53447283Y-43187607D01*
X53490031Y-43355925D01*
X53498272Y-43388372D01*
X53500689Y-43393615D01*
X53537389Y-43473223D01*
X53587411Y-43581731D01*
X53710296Y-43755609D01*
X53862809Y-43904181D01*
X53867605Y-43907386D01*
X53867608Y-43907388D01*
X53926615Y-43946815D01*
X54039843Y-44022471D01*
X54045146Y-44024749D01*
X54045149Y-44024751D01*
X54127324Y-44060056D01*
X54235470Y-44106519D01*
X54345058Y-44131316D01*
X54397167Y-44143107D01*
X54459193Y-44177650D01*
X54492698Y-44240243D01*
X54487044Y-44311014D01*
X54444025Y-44367494D01*
X54377301Y-44391749D01*
X54369359Y-44392000D01*
X53913115Y-44392000D01*
X53897876Y-44396475D01*
X53896671Y-44397865D01*
X53895000Y-44405548D01*
X53895000Y-45581885D01*
X53899475Y-45597124D01*
X53900865Y-45598329D01*
X53908548Y-45600000D01*
X55084884Y-45600000D01*
X55100123Y-45595525D01*
X55101328Y-45594135D01*
X55102999Y-45586452D01*
X55102999Y-44855331D01*
X55102629Y-44848510D01*
X55097105Y-44797648D01*
X55093479Y-44782396D01*
X55048324Y-44661946D01*
X55039786Y-44646351D01*
X54963285Y-44544276D01*
X54950724Y-44531715D01*
X54848649Y-44455214D01*
X54833054Y-44446676D01*
X54712600Y-44401519D01*
X54706853Y-44400153D01*
X54645207Y-44364936D01*
X54612387Y-44301980D01*
X54618813Y-44231275D01*
X54662446Y-44175269D01*
X54717919Y-44152875D01*
X54749448Y-44148303D01*
X54860890Y-44132145D01*
X54860894Y-44132144D01*
X54866605Y-44131316D01*
X55068223Y-44062876D01*
X55253993Y-43958840D01*
X55417693Y-43822693D01*
X55532152Y-43685070D01*
X55550149Y-43663431D01*
X55553840Y-43658993D01*
X55657876Y-43473223D01*
X55726316Y-43271605D01*
X55728780Y-43254616D01*
X55756337Y-43064561D01*
X55756337Y-43064559D01*
X55756869Y-43060891D01*
X55758463Y-43000000D01*
X55740527Y-42804798D01*
X55739510Y-42793730D01*
X55739509Y-42793727D01*
X55738981Y-42787976D01*
X55691615Y-42620031D01*
X55682754Y-42588611D01*
X55682753Y-42588609D01*
X55681186Y-42583052D01*
X55587015Y-42392092D01*
X55548016Y-42339865D01*
X55463074Y-42226114D01*
X55459622Y-42221491D01*
X55303271Y-42076963D01*
X55123201Y-41963347D01*
X54925441Y-41884449D01*
X54919781Y-41883323D01*
X54919777Y-41883322D01*
X54720878Y-41843759D01*
X54657968Y-41810852D01*
X54622836Y-41749157D01*
X54626636Y-41678262D01*
X54668162Y-41620676D01*
X54705737Y-41602665D01*
X54705207Y-41601252D01*
X54833054Y-41553324D01*
X54848649Y-41544786D01*
X54950724Y-41468285D01*
X54963285Y-41455724D01*
X55039786Y-41353649D01*
X55048324Y-41338054D01*
X55093478Y-41217606D01*
X55097105Y-41202351D01*
X55102631Y-41151486D01*
X55102813Y-41148134D01*
X55486500Y-41148134D01*
X55493255Y-41210316D01*
X55544385Y-41346705D01*
X55631739Y-41463261D01*
X55748295Y-41550615D01*
X55884684Y-41601745D01*
X55946866Y-41608500D01*
X55960500Y-41608500D01*
X56028621Y-41628502D01*
X56075114Y-41682158D01*
X56086500Y-41734500D01*
X56086500Y-48023583D01*
X56084949Y-48043292D01*
X56082748Y-48057190D01*
X56083093Y-48063777D01*
X56083093Y-48063782D01*
X56086327Y-48125480D01*
X56086500Y-48132074D01*
X56086500Y-48152610D01*
X56086844Y-48155882D01*
X56086844Y-48155884D01*
X56088647Y-48173042D01*
X56089164Y-48179616D01*
X56090471Y-48204542D01*
X56092743Y-48247903D01*
X56094453Y-48254284D01*
X56094453Y-48254286D01*
X56096383Y-48261491D01*
X56099985Y-48280925D01*
X56100766Y-48288354D01*
X56100768Y-48288363D01*
X56101458Y-48294928D01*
X56122600Y-48359997D01*
X56124467Y-48366299D01*
X56142171Y-48432370D01*
X56146619Y-48441100D01*
X56148559Y-48444907D01*
X56156125Y-48463173D01*
X56160473Y-48476556D01*
X56163776Y-48482278D01*
X56163777Y-48482279D01*
X56194667Y-48535782D01*
X56197814Y-48541577D01*
X56228871Y-48602530D01*
X56233024Y-48607658D01*
X56233025Y-48607660D01*
X56237727Y-48613466D01*
X56248927Y-48629763D01*
X56252657Y-48636224D01*
X56252660Y-48636228D01*
X56255960Y-48641944D01*
X56260377Y-48646850D01*
X56260381Y-48646855D01*
X56301722Y-48692769D01*
X56306006Y-48697784D01*
X56318928Y-48713741D01*
X56333443Y-48728256D01*
X56337984Y-48733041D01*
X56383747Y-48783866D01*
X56389086Y-48787745D01*
X56389087Y-48787746D01*
X56395135Y-48792140D01*
X56410168Y-48804981D01*
X56960019Y-49354832D01*
X56972860Y-49369865D01*
X56981134Y-49381253D01*
X56986043Y-49385673D01*
X57031959Y-49427016D01*
X57036744Y-49431557D01*
X57051259Y-49446072D01*
X57053823Y-49448148D01*
X57067216Y-49458994D01*
X57072231Y-49463278D01*
X57118145Y-49504619D01*
X57118150Y-49504623D01*
X57123056Y-49509040D01*
X57128772Y-49512340D01*
X57128776Y-49512343D01*
X57135237Y-49516073D01*
X57151533Y-49527273D01*
X57162470Y-49536129D01*
X57223421Y-49567185D01*
X57229215Y-49570331D01*
X57288444Y-49604527D01*
X57294726Y-49606568D01*
X57294728Y-49606569D01*
X57301826Y-49608875D01*
X57320092Y-49616440D01*
X57332630Y-49622829D01*
X57398701Y-49640533D01*
X57405003Y-49642400D01*
X57470072Y-49663542D01*
X57476637Y-49664232D01*
X57476646Y-49664234D01*
X57484075Y-49665015D01*
X57503509Y-49668617D01*
X57510714Y-49670547D01*
X57510716Y-49670547D01*
X57517097Y-49672257D01*
X57523688Y-49672602D01*
X57523692Y-49672603D01*
X57585384Y-49675836D01*
X57591958Y-49676353D01*
X57609116Y-49678156D01*
X57609118Y-49678156D01*
X57612390Y-49678500D01*
X57632926Y-49678500D01*
X57639520Y-49678673D01*
X57701218Y-49681907D01*
X57701223Y-49681907D01*
X57707810Y-49682252D01*
X57721708Y-49680051D01*
X57741417Y-49678500D01*
X65734036Y-49678500D01*
X65802157Y-49698502D01*
X65829847Y-49722669D01*
X65930031Y-49839969D01*
X66110584Y-49994176D01*
X66114792Y-49996755D01*
X66114798Y-49996759D01*
X66308817Y-50115654D01*
X66313037Y-50118240D01*
X66317607Y-50120133D01*
X66317611Y-50120135D01*
X66527833Y-50207211D01*
X66532406Y-50209105D01*
X66612609Y-50228360D01*
X66758476Y-50263380D01*
X66758482Y-50263381D01*
X66763289Y-50264535D01*
X67000000Y-50283165D01*
X67236711Y-50264535D01*
X67241518Y-50263381D01*
X67241524Y-50263380D01*
X67387391Y-50228360D01*
X67467594Y-50209105D01*
X67472167Y-50207211D01*
X67682389Y-50120135D01*
X67682393Y-50120133D01*
X67686963Y-50118240D01*
X67691183Y-50115654D01*
X67885202Y-49996759D01*
X67885208Y-49996755D01*
X67889416Y-49994176D01*
X68069969Y-49839969D01*
X68224176Y-49659416D01*
X68226755Y-49655208D01*
X68226759Y-49655202D01*
X68345654Y-49461183D01*
X68348240Y-49456963D01*
X68351892Y-49448148D01*
X68437211Y-49242167D01*
X68437212Y-49242165D01*
X68439105Y-49237594D01*
X68494535Y-49006711D01*
X68513165Y-48770000D01*
X68494535Y-48533289D01*
X68473426Y-48445361D01*
X68454446Y-48366305D01*
X68439105Y-48302406D01*
X68433285Y-48288354D01*
X68350135Y-48087611D01*
X68350133Y-48087607D01*
X68348240Y-48083037D01*
X68336976Y-48064656D01*
X68226759Y-47884798D01*
X68226755Y-47884792D01*
X68224176Y-47880584D01*
X68069969Y-47700031D01*
X67889416Y-47545824D01*
X67885198Y-47543239D01*
X67873988Y-47536369D01*
X67824118Y-47478818D01*
X67823788Y-47478052D01*
X67012812Y-46667076D01*
X66998868Y-46659462D01*
X66997035Y-46659593D01*
X66990420Y-46663844D01*
X66179256Y-47475008D01*
X66171778Y-47488702D01*
X66127027Y-47535747D01*
X66114802Y-47543239D01*
X66110584Y-47545824D01*
X65930031Y-47700031D01*
X65926823Y-47703787D01*
X65829847Y-47817331D01*
X65770396Y-47856140D01*
X65734036Y-47861500D01*
X58088503Y-47861500D01*
X58020382Y-47841498D01*
X57999408Y-47824595D01*
X57940405Y-47765592D01*
X57906379Y-47703280D01*
X57903500Y-47676497D01*
X57903500Y-46948134D01*
X58786500Y-46948134D01*
X58793255Y-47010316D01*
X58844385Y-47146705D01*
X58931739Y-47263261D01*
X59048295Y-47350615D01*
X59184684Y-47401745D01*
X59246866Y-47408500D01*
X61343134Y-47408500D01*
X61405316Y-47401745D01*
X61541705Y-47350615D01*
X61658261Y-47263261D01*
X61745615Y-47146705D01*
X61796745Y-47010316D01*
X61803500Y-46948134D01*
X61803500Y-46882703D01*
X61823502Y-46814582D01*
X61877158Y-46768089D01*
X61896888Y-46760997D01*
X61927370Y-46752829D01*
X61939908Y-46746440D01*
X61958174Y-46738875D01*
X61965272Y-46736569D01*
X61965274Y-46736568D01*
X61971556Y-46734527D01*
X62030785Y-46700331D01*
X62036579Y-46697185D01*
X62097530Y-46666129D01*
X62108467Y-46657273D01*
X62124763Y-46646073D01*
X62131224Y-46642343D01*
X62131228Y-46642340D01*
X62136944Y-46639040D01*
X62141850Y-46634623D01*
X62141855Y-46634619D01*
X62187769Y-46593278D01*
X62192784Y-46588994D01*
X62206177Y-46578148D01*
X62208741Y-46576072D01*
X62223256Y-46561557D01*
X62228041Y-46557016D01*
X62273957Y-46515673D01*
X62278866Y-46511253D01*
X62287140Y-46499865D01*
X62299981Y-46484832D01*
X62549883Y-46234930D01*
X65487725Y-46234930D01*
X65505572Y-46461699D01*
X65507115Y-46471446D01*
X65560217Y-46692627D01*
X65563266Y-46702012D01*
X65650313Y-46912163D01*
X65654795Y-46920958D01*
X65732715Y-47048110D01*
X65743171Y-47057570D01*
X65751950Y-47053786D01*
X66562924Y-46242812D01*
X66569302Y-46231132D01*
X67429462Y-46231132D01*
X67429593Y-46232965D01*
X67433844Y-46239580D01*
X68245008Y-47050744D01*
X68257388Y-47057504D01*
X68265038Y-47051777D01*
X68345205Y-46920958D01*
X68349687Y-46912163D01*
X68436734Y-46702012D01*
X68439783Y-46692627D01*
X68492885Y-46471446D01*
X68494428Y-46461699D01*
X68512275Y-46234930D01*
X68512275Y-46230000D01*
X84486835Y-46230000D01*
X84505465Y-46466711D01*
X84506619Y-46471518D01*
X84506620Y-46471524D01*
X84534822Y-46588994D01*
X84560895Y-46697594D01*
X84562788Y-46702165D01*
X84562789Y-46702167D01*
X84649772Y-46912163D01*
X84651760Y-46916963D01*
X84654346Y-46921183D01*
X84773241Y-47115202D01*
X84773245Y-47115208D01*
X84775824Y-47119416D01*
X84855033Y-47212158D01*
X84910520Y-47277124D01*
X84930031Y-47299969D01*
X85110584Y-47454176D01*
X85114792Y-47456755D01*
X85114798Y-47456759D01*
X85230844Y-47527872D01*
X85313037Y-47578240D01*
X85317607Y-47580133D01*
X85317611Y-47580135D01*
X85527833Y-47667211D01*
X85532406Y-47669105D01*
X85569644Y-47678045D01*
X85758476Y-47723380D01*
X85758482Y-47723381D01*
X85763289Y-47724535D01*
X86000000Y-47743165D01*
X86236711Y-47724535D01*
X86241518Y-47723381D01*
X86241524Y-47723380D01*
X86430356Y-47678045D01*
X86467594Y-47669105D01*
X86472167Y-47667211D01*
X86682389Y-47580135D01*
X86682393Y-47580133D01*
X86686963Y-47578240D01*
X86769156Y-47527872D01*
X86885202Y-47456759D01*
X86885208Y-47456755D01*
X86889416Y-47454176D01*
X87069969Y-47299969D01*
X87090898Y-47275465D01*
X87170153Y-47182669D01*
X87229604Y-47143860D01*
X87265964Y-47138500D01*
X93282402Y-47138500D01*
X93350523Y-47158502D01*
X93397016Y-47212158D01*
X93407768Y-47277124D01*
X93382050Y-47532526D01*
X93382274Y-47537192D01*
X93382274Y-47537197D01*
X93384179Y-47576851D01*
X93394947Y-47801019D01*
X93447388Y-48064656D01*
X93538220Y-48317646D01*
X93540432Y-48321762D01*
X93540433Y-48321765D01*
X93620229Y-48470272D01*
X93665450Y-48554431D01*
X93668241Y-48558168D01*
X93668245Y-48558175D01*
X93730799Y-48641944D01*
X93826281Y-48769810D01*
X93829590Y-48773090D01*
X93829595Y-48773096D01*
X94013863Y-48955762D01*
X94017180Y-48959050D01*
X94020942Y-48961808D01*
X94020945Y-48961811D01*
X94133299Y-49044192D01*
X94233954Y-49117995D01*
X94238089Y-49120171D01*
X94238093Y-49120173D01*
X94452126Y-49232782D01*
X94471840Y-49243154D01*
X94725613Y-49331775D01*
X94730206Y-49332647D01*
X94985109Y-49381042D01*
X94985112Y-49381042D01*
X94989698Y-49381913D01*
X95117370Y-49386929D01*
X95253625Y-49392283D01*
X95253630Y-49392283D01*
X95258293Y-49392466D01*
X95354654Y-49381913D01*
X95520844Y-49363713D01*
X95520850Y-49363712D01*
X95525497Y-49363203D01*
X95557292Y-49354832D01*
X95780918Y-49295956D01*
X95780920Y-49295955D01*
X95785441Y-49294765D01*
X95789738Y-49292919D01*
X96028120Y-49190502D01*
X96028122Y-49190501D01*
X96032414Y-49188657D01*
X96151071Y-49115230D01*
X96257017Y-49049669D01*
X96257021Y-49049666D01*
X96260990Y-49047210D01*
X96466149Y-48873530D01*
X96643382Y-48671434D01*
X96680669Y-48613466D01*
X96751609Y-48503176D01*
X96788797Y-48445361D01*
X96899199Y-48200278D01*
X96906880Y-48173042D01*
X96970893Y-47946072D01*
X96970894Y-47946069D01*
X96972163Y-47941568D01*
X96990043Y-47801019D01*
X97005688Y-47678045D01*
X97005688Y-47678041D01*
X97006086Y-47674915D01*
X97008571Y-47580000D01*
X96998982Y-47450965D01*
X96988996Y-47316592D01*
X96988996Y-47316591D01*
X96988650Y-47311937D01*
X96980773Y-47277124D01*
X96930361Y-47054331D01*
X96930360Y-47054326D01*
X96929327Y-47049763D01*
X96831902Y-46799238D01*
X96698518Y-46565864D01*
X96655467Y-46511253D01*
X96616401Y-46461699D01*
X96532105Y-46354769D01*
X96336317Y-46170591D01*
X96115457Y-46017374D01*
X96076623Y-45998223D01*
X95878564Y-45900551D01*
X95878561Y-45900550D01*
X95874376Y-45898486D01*
X95618370Y-45816538D01*
X95613763Y-45815788D01*
X95613760Y-45815787D01*
X95357674Y-45774081D01*
X95357675Y-45774081D01*
X95353063Y-45773330D01*
X95222719Y-45771624D01*
X95088961Y-45769873D01*
X95088958Y-45769873D01*
X95084284Y-45769812D01*
X94817937Y-45806060D01*
X94813447Y-45807369D01*
X94813441Y-45807370D01*
X94802772Y-45810480D01*
X94731776Y-45810338D01*
X94678421Y-45778608D01*
X94544981Y-45645168D01*
X94532140Y-45630135D01*
X94527746Y-45624087D01*
X94527745Y-45624086D01*
X94523866Y-45618747D01*
X94473041Y-45572984D01*
X94468256Y-45568443D01*
X94453741Y-45553928D01*
X94438832Y-45541855D01*
X94437784Y-45541006D01*
X94432769Y-45536722D01*
X94386855Y-45495381D01*
X94386850Y-45495377D01*
X94381944Y-45490960D01*
X94376228Y-45487660D01*
X94376224Y-45487657D01*
X94369763Y-45483927D01*
X94353466Y-45472727D01*
X94347660Y-45468025D01*
X94347658Y-45468024D01*
X94342530Y-45463871D01*
X94281577Y-45432814D01*
X94275782Y-45429667D01*
X94222279Y-45398777D01*
X94222278Y-45398776D01*
X94216556Y-45395473D01*
X94210274Y-45393432D01*
X94210272Y-45393431D01*
X94203174Y-45391125D01*
X94184907Y-45383559D01*
X94172370Y-45377171D01*
X94106299Y-45359467D01*
X94099997Y-45357600D01*
X94034928Y-45336458D01*
X94028363Y-45335768D01*
X94028354Y-45335766D01*
X94020925Y-45334985D01*
X94001491Y-45331383D01*
X93994286Y-45329453D01*
X93994284Y-45329453D01*
X93987903Y-45327743D01*
X93981312Y-45327398D01*
X93981308Y-45327397D01*
X93919616Y-45324164D01*
X93913042Y-45323647D01*
X93895884Y-45321844D01*
X93895882Y-45321844D01*
X93892610Y-45321500D01*
X93872074Y-45321500D01*
X93865480Y-45321327D01*
X93803782Y-45318093D01*
X93803777Y-45318093D01*
X93797190Y-45317748D01*
X93783292Y-45319949D01*
X93763583Y-45321500D01*
X87265964Y-45321500D01*
X87197843Y-45301498D01*
X87170153Y-45277331D01*
X87073177Y-45163787D01*
X87069969Y-45160031D01*
X87066213Y-45156823D01*
X87066208Y-45156818D01*
X86947944Y-45055811D01*
X86909134Y-44996361D01*
X86908628Y-44925366D01*
X86947944Y-44864189D01*
X87066208Y-44763182D01*
X87066213Y-44763177D01*
X87069969Y-44759969D01*
X87161078Y-44653295D01*
X87170153Y-44642669D01*
X87229604Y-44603860D01*
X87265964Y-44598500D01*
X93923583Y-44598500D01*
X93943292Y-44600051D01*
X93957190Y-44602252D01*
X93963777Y-44601907D01*
X93963782Y-44601907D01*
X94025480Y-44598673D01*
X94032074Y-44598500D01*
X94052610Y-44598500D01*
X94055882Y-44598156D01*
X94055884Y-44598156D01*
X94073042Y-44596353D01*
X94079616Y-44595836D01*
X94141308Y-44592603D01*
X94141312Y-44592602D01*
X94147903Y-44592257D01*
X94154284Y-44590547D01*
X94154286Y-44590547D01*
X94161491Y-44588617D01*
X94180925Y-44585015D01*
X94188354Y-44584234D01*
X94188363Y-44584232D01*
X94194928Y-44583542D01*
X94259997Y-44562400D01*
X94266299Y-44560533D01*
X94332370Y-44542829D01*
X94344908Y-44536440D01*
X94363174Y-44528875D01*
X94370272Y-44526569D01*
X94370274Y-44526568D01*
X94376556Y-44524527D01*
X94435785Y-44490331D01*
X94441579Y-44487185D01*
X94442523Y-44486704D01*
X94502530Y-44456129D01*
X94513467Y-44447273D01*
X94529763Y-44436073D01*
X94536224Y-44432343D01*
X94536228Y-44432340D01*
X94541944Y-44429040D01*
X94546850Y-44424623D01*
X94546855Y-44424619D01*
X94592769Y-44383278D01*
X94597784Y-44378994D01*
X94611177Y-44368148D01*
X94613741Y-44366072D01*
X94628256Y-44351557D01*
X94633028Y-44347028D01*
X94639870Y-44340867D01*
X94703877Y-44310147D01*
X94724184Y-44308500D01*
X96543134Y-44308500D01*
X96605316Y-44301745D01*
X96741705Y-44250615D01*
X96858261Y-44163261D01*
X96945615Y-44046705D01*
X96996745Y-43910316D01*
X97003500Y-43848134D01*
X97003500Y-41151866D01*
X96996745Y-41089684D01*
X96945615Y-40953295D01*
X96858261Y-40836739D01*
X96741705Y-40749385D01*
X96605316Y-40698255D01*
X96543134Y-40691500D01*
X93846866Y-40691500D01*
X93784684Y-40698255D01*
X93648295Y-40749385D01*
X93531739Y-40836739D01*
X93444385Y-40953295D01*
X93393255Y-41089684D01*
X93386500Y-41151866D01*
X93386500Y-42655500D01*
X93366498Y-42723621D01*
X93312842Y-42770114D01*
X93260500Y-42781500D01*
X87265964Y-42781500D01*
X87197843Y-42761498D01*
X87170153Y-42737331D01*
X87073177Y-42623787D01*
X87069969Y-42620031D01*
X86889416Y-42465824D01*
X86885208Y-42463245D01*
X86885202Y-42463241D01*
X86691183Y-42344346D01*
X86686963Y-42341760D01*
X86682393Y-42339867D01*
X86682389Y-42339865D01*
X86472167Y-42252789D01*
X86472165Y-42252788D01*
X86467594Y-42250895D01*
X86364374Y-42226114D01*
X86241524Y-42196620D01*
X86241518Y-42196619D01*
X86236711Y-42195465D01*
X86000000Y-42176835D01*
X85763289Y-42195465D01*
X85758482Y-42196619D01*
X85758476Y-42196620D01*
X85635626Y-42226114D01*
X85532406Y-42250895D01*
X85527835Y-42252788D01*
X85527833Y-42252789D01*
X85317611Y-42339865D01*
X85317607Y-42339867D01*
X85313037Y-42341760D01*
X85308817Y-42344346D01*
X85114798Y-42463241D01*
X85114792Y-42463245D01*
X85110584Y-42465824D01*
X84930031Y-42620031D01*
X84775824Y-42800584D01*
X84773245Y-42804792D01*
X84773241Y-42804798D01*
X84675800Y-42963808D01*
X84651760Y-43003037D01*
X84649867Y-43007607D01*
X84649865Y-43007611D01*
X84562789Y-43217833D01*
X84560895Y-43222406D01*
X84549083Y-43271605D01*
X84508345Y-43441294D01*
X84505465Y-43453289D01*
X84486835Y-43690000D01*
X84505465Y-43926711D01*
X84506619Y-43931518D01*
X84506620Y-43931524D01*
X84512292Y-43955149D01*
X84560895Y-44157594D01*
X84562788Y-44162165D01*
X84562789Y-44162167D01*
X84648109Y-44368148D01*
X84651760Y-44376963D01*
X84654346Y-44381183D01*
X84773241Y-44575202D01*
X84773245Y-44575208D01*
X84775824Y-44579416D01*
X84930031Y-44759969D01*
X84933787Y-44763177D01*
X84933792Y-44763182D01*
X85052056Y-44864189D01*
X85090866Y-44923639D01*
X85091372Y-44994634D01*
X85052056Y-45055811D01*
X84933792Y-45156818D01*
X84933787Y-45156823D01*
X84930031Y-45160031D01*
X84775824Y-45340584D01*
X84773245Y-45344792D01*
X84773241Y-45344798D01*
X84694846Y-45472727D01*
X84651760Y-45543037D01*
X84649867Y-45547607D01*
X84649865Y-45547611D01*
X84586752Y-45699981D01*
X84560895Y-45762406D01*
X84505465Y-45993289D01*
X84486835Y-46230000D01*
X68512275Y-46230000D01*
X68512275Y-46225070D01*
X68494428Y-45998301D01*
X68492885Y-45988554D01*
X68439783Y-45767373D01*
X68436734Y-45757988D01*
X68349687Y-45547837D01*
X68345205Y-45539042D01*
X68267285Y-45411890D01*
X68256829Y-45402430D01*
X68248050Y-45406214D01*
X67437076Y-46217188D01*
X67429462Y-46231132D01*
X66569302Y-46231132D01*
X66570538Y-46228868D01*
X66570407Y-46227035D01*
X66566156Y-46220420D01*
X65754992Y-45409256D01*
X65742612Y-45402496D01*
X65734962Y-45408223D01*
X65654795Y-45539042D01*
X65650313Y-45547837D01*
X65563266Y-45757988D01*
X65560217Y-45767373D01*
X65507115Y-45988554D01*
X65505572Y-45998301D01*
X65487725Y-46225070D01*
X65487725Y-46234930D01*
X62549883Y-46234930D01*
X63084832Y-45699981D01*
X63099865Y-45687140D01*
X63105913Y-45682746D01*
X63105914Y-45682745D01*
X63111253Y-45678866D01*
X63157016Y-45628041D01*
X63161557Y-45623256D01*
X63176072Y-45608741D01*
X63183150Y-45600000D01*
X63188994Y-45592784D01*
X63193278Y-45587769D01*
X63234619Y-45541855D01*
X63234623Y-45541850D01*
X63239040Y-45536944D01*
X63242340Y-45531228D01*
X63242343Y-45531224D01*
X63246073Y-45524763D01*
X63257273Y-45508466D01*
X63261975Y-45502660D01*
X63261976Y-45502658D01*
X63266129Y-45497530D01*
X63297186Y-45436577D01*
X63300333Y-45430782D01*
X63331223Y-45377279D01*
X63331224Y-45377278D01*
X63334527Y-45371556D01*
X63338875Y-45358173D01*
X63346441Y-45339907D01*
X63349832Y-45333252D01*
X63352829Y-45327370D01*
X63355408Y-45317748D01*
X63370529Y-45261315D01*
X63372402Y-45254991D01*
X63391500Y-45196212D01*
X63393542Y-45189928D01*
X63395012Y-45175939D01*
X63398617Y-45156486D01*
X63400547Y-45149285D01*
X63402257Y-45142904D01*
X63405836Y-45074615D01*
X63406353Y-45068040D01*
X63408156Y-45050882D01*
X63408500Y-45047610D01*
X63408500Y-45027075D01*
X63408673Y-45020481D01*
X63411907Y-44958783D01*
X63411907Y-44958778D01*
X63412252Y-44952191D01*
X63410051Y-44938293D01*
X63408500Y-44918584D01*
X63408500Y-41944500D01*
X63428502Y-41876379D01*
X63482158Y-41829886D01*
X63534500Y-41818500D01*
X73260500Y-41818500D01*
X73328621Y-41838502D01*
X73375114Y-41892158D01*
X73386500Y-41944500D01*
X73386500Y-42655500D01*
X73366498Y-42723621D01*
X73312842Y-42770114D01*
X73260500Y-42781500D01*
X68265964Y-42781500D01*
X68197843Y-42761498D01*
X68170153Y-42737331D01*
X68073177Y-42623787D01*
X68069969Y-42620031D01*
X67889416Y-42465824D01*
X67885208Y-42463245D01*
X67885202Y-42463241D01*
X67691183Y-42344346D01*
X67686963Y-42341760D01*
X67682393Y-42339867D01*
X67682389Y-42339865D01*
X67472167Y-42252789D01*
X67472165Y-42252788D01*
X67467594Y-42250895D01*
X67364374Y-42226114D01*
X67241524Y-42196620D01*
X67241518Y-42196619D01*
X67236711Y-42195465D01*
X67000000Y-42176835D01*
X66763289Y-42195465D01*
X66758482Y-42196619D01*
X66758476Y-42196620D01*
X66635626Y-42226114D01*
X66532406Y-42250895D01*
X66527835Y-42252788D01*
X66527833Y-42252789D01*
X66317611Y-42339865D01*
X66317607Y-42339867D01*
X66313037Y-42341760D01*
X66308817Y-42344346D01*
X66114798Y-42463241D01*
X66114792Y-42463245D01*
X66110584Y-42465824D01*
X65930031Y-42620031D01*
X65775824Y-42800584D01*
X65773245Y-42804792D01*
X65773241Y-42804798D01*
X65675800Y-42963808D01*
X65651760Y-43003037D01*
X65649867Y-43007607D01*
X65649865Y-43007611D01*
X65562789Y-43217833D01*
X65560895Y-43222406D01*
X65549083Y-43271605D01*
X65508345Y-43441294D01*
X65505465Y-43453289D01*
X65486835Y-43690000D01*
X65505465Y-43926711D01*
X65506619Y-43931518D01*
X65506620Y-43931524D01*
X65512292Y-43955149D01*
X65560895Y-44157594D01*
X65562788Y-44162165D01*
X65562789Y-44162167D01*
X65648109Y-44368148D01*
X65651760Y-44376963D01*
X65654346Y-44381183D01*
X65773241Y-44575202D01*
X65773245Y-44575208D01*
X65775824Y-44579416D01*
X65930031Y-44759969D01*
X66110584Y-44914176D01*
X66114800Y-44916760D01*
X66114802Y-44916761D01*
X66126012Y-44923631D01*
X66175882Y-44981182D01*
X66176212Y-44981948D01*
X66987188Y-45792924D01*
X67001132Y-45800538D01*
X67002965Y-45800407D01*
X67009580Y-45796156D01*
X67820744Y-44984992D01*
X67828222Y-44971298D01*
X67872973Y-44924253D01*
X67885198Y-44916761D01*
X67885200Y-44916760D01*
X67889416Y-44914176D01*
X68069969Y-44759969D01*
X68161078Y-44653295D01*
X68170153Y-44642669D01*
X68229604Y-44603860D01*
X68265964Y-44598500D01*
X73703583Y-44598500D01*
X73723292Y-44600051D01*
X73737190Y-44602252D01*
X73743777Y-44601907D01*
X73743782Y-44601907D01*
X73805480Y-44598673D01*
X73812074Y-44598500D01*
X73832610Y-44598500D01*
X73835882Y-44598156D01*
X73835884Y-44598156D01*
X73853042Y-44596353D01*
X73859616Y-44595836D01*
X73921308Y-44592603D01*
X73921312Y-44592602D01*
X73927903Y-44592257D01*
X73934284Y-44590547D01*
X73934286Y-44590547D01*
X73941491Y-44588617D01*
X73960925Y-44585015D01*
X73968354Y-44584234D01*
X73968363Y-44584232D01*
X73974928Y-44583542D01*
X74039997Y-44562400D01*
X74046299Y-44560533D01*
X74112370Y-44542829D01*
X74124908Y-44536440D01*
X74143174Y-44528875D01*
X74150272Y-44526569D01*
X74150274Y-44526568D01*
X74156556Y-44524527D01*
X74215785Y-44490331D01*
X74221579Y-44487185D01*
X74222523Y-44486704D01*
X74282530Y-44456129D01*
X74293467Y-44447273D01*
X74309763Y-44436073D01*
X74316224Y-44432343D01*
X74316228Y-44432340D01*
X74321944Y-44429040D01*
X74326850Y-44424623D01*
X74326855Y-44424619D01*
X74372769Y-44383278D01*
X74377784Y-44378994D01*
X74391177Y-44368148D01*
X74393741Y-44366072D01*
X74408256Y-44351557D01*
X74413041Y-44347016D01*
X74458957Y-44305673D01*
X74463866Y-44301253D01*
X74472140Y-44289865D01*
X74484981Y-44274832D01*
X74879832Y-43879981D01*
X74894865Y-43867140D01*
X74900913Y-43862746D01*
X74900914Y-43862745D01*
X74906253Y-43858866D01*
X74952016Y-43808041D01*
X74956557Y-43803256D01*
X74971072Y-43788741D01*
X74983994Y-43772784D01*
X74988278Y-43767769D01*
X75029619Y-43721855D01*
X75029623Y-43721850D01*
X75034040Y-43716944D01*
X75037340Y-43711228D01*
X75037343Y-43711224D01*
X75041073Y-43704763D01*
X75052273Y-43688466D01*
X75056975Y-43682660D01*
X75056976Y-43682658D01*
X75061129Y-43677530D01*
X75070575Y-43658993D01*
X75092188Y-43616574D01*
X75095336Y-43610777D01*
X75126224Y-43557277D01*
X75129527Y-43551556D01*
X75133875Y-43538174D01*
X75141438Y-43519915D01*
X75147830Y-43507370D01*
X75165537Y-43441288D01*
X75167409Y-43434969D01*
X75186501Y-43376210D01*
X75186501Y-43376209D01*
X75188542Y-43369928D01*
X75190014Y-43355925D01*
X75193615Y-43336496D01*
X75197257Y-43322903D01*
X75199659Y-43277075D01*
X75200836Y-43254616D01*
X75201353Y-43248042D01*
X75203156Y-43230884D01*
X75203156Y-43230882D01*
X75203500Y-43227610D01*
X75203500Y-43207074D01*
X75203673Y-43200480D01*
X75206907Y-43138782D01*
X75206907Y-43138777D01*
X75207252Y-43132190D01*
X75205051Y-43118292D01*
X75203500Y-43098583D01*
X75203500Y-41356417D01*
X75205051Y-41336705D01*
X75206220Y-41329325D01*
X75207252Y-41322810D01*
X75203673Y-41254520D01*
X75203500Y-41247926D01*
X75203500Y-41227390D01*
X75202472Y-41217606D01*
X75201353Y-41206958D01*
X75200836Y-41200384D01*
X75197603Y-41138696D01*
X75197603Y-41138694D01*
X75197257Y-41132097D01*
X75193615Y-41118504D01*
X75190014Y-41099075D01*
X75189232Y-41091639D01*
X75188542Y-41085072D01*
X75167407Y-41020025D01*
X75165535Y-41013706D01*
X75149538Y-40954003D01*
X75149537Y-40954000D01*
X75147830Y-40947630D01*
X75141438Y-40935085D01*
X75133874Y-40916823D01*
X75131568Y-40909726D01*
X75129527Y-40903444D01*
X75095336Y-40844223D01*
X75092188Y-40838426D01*
X75064126Y-40783351D01*
X75064124Y-40783348D01*
X75061129Y-40777470D01*
X75052273Y-40766533D01*
X75041073Y-40750237D01*
X75037343Y-40743776D01*
X75037340Y-40743772D01*
X75034040Y-40738056D01*
X75029623Y-40733150D01*
X75029619Y-40733145D01*
X74988278Y-40687231D01*
X74983994Y-40682216D01*
X74973148Y-40668823D01*
X74971072Y-40666259D01*
X74956557Y-40651744D01*
X74952016Y-40646959D01*
X74910673Y-40601043D01*
X74906253Y-40596134D01*
X74894865Y-40587860D01*
X74879832Y-40575019D01*
X74629981Y-40325168D01*
X74617140Y-40310135D01*
X74612746Y-40304087D01*
X74612745Y-40304086D01*
X74608866Y-40298747D01*
X74558041Y-40252984D01*
X74553256Y-40248443D01*
X74538741Y-40233928D01*
X74531282Y-40227888D01*
X74522784Y-40221006D01*
X74517769Y-40216722D01*
X74471855Y-40175381D01*
X74471850Y-40175377D01*
X74466944Y-40170960D01*
X74461228Y-40167660D01*
X74461224Y-40167657D01*
X74454763Y-40163927D01*
X74438466Y-40152727D01*
X74432660Y-40148025D01*
X74432658Y-40148024D01*
X74427530Y-40143871D01*
X74366577Y-40112814D01*
X74360782Y-40109667D01*
X74307279Y-40078777D01*
X74307278Y-40078776D01*
X74301556Y-40075473D01*
X74295274Y-40073432D01*
X74295272Y-40073431D01*
X74288174Y-40071125D01*
X74269907Y-40063559D01*
X74257370Y-40057171D01*
X74191299Y-40039467D01*
X74184997Y-40037600D01*
X74119928Y-40016458D01*
X74113363Y-40015768D01*
X74113354Y-40015766D01*
X74105925Y-40014985D01*
X74086491Y-40011383D01*
X74079286Y-40009453D01*
X74079284Y-40009453D01*
X74072903Y-40007743D01*
X74066312Y-40007398D01*
X74066308Y-40007397D01*
X74004616Y-40004164D01*
X73998042Y-40003647D01*
X73980884Y-40001844D01*
X73980882Y-40001844D01*
X73977610Y-40001500D01*
X73957074Y-40001500D01*
X73950480Y-40001327D01*
X73888782Y-39998093D01*
X73888777Y-39998093D01*
X73882190Y-39997748D01*
X73868292Y-39999949D01*
X73848583Y-40001500D01*
X62928503Y-40001500D01*
X62860382Y-39981498D01*
X62839408Y-39964595D01*
X62389981Y-39515168D01*
X62377140Y-39500135D01*
X62372746Y-39494087D01*
X62372745Y-39494086D01*
X62368866Y-39488747D01*
X62318041Y-39442984D01*
X62313256Y-39438443D01*
X62298741Y-39423928D01*
X62291282Y-39417888D01*
X62282784Y-39411006D01*
X62277769Y-39406722D01*
X62231855Y-39365381D01*
X62231850Y-39365377D01*
X62226944Y-39360960D01*
X62221228Y-39357660D01*
X62221224Y-39357657D01*
X62214763Y-39353927D01*
X62198466Y-39342727D01*
X62192660Y-39338025D01*
X62192658Y-39338024D01*
X62187530Y-39333871D01*
X62126577Y-39302814D01*
X62120782Y-39299667D01*
X62067279Y-39268777D01*
X62067278Y-39268776D01*
X62061556Y-39265473D01*
X62055274Y-39263432D01*
X62055272Y-39263431D01*
X62048174Y-39261125D01*
X62029907Y-39253559D01*
X62017370Y-39247171D01*
X61951299Y-39229467D01*
X61944987Y-39227597D01*
X61890564Y-39209914D01*
X61831958Y-39169840D01*
X61804321Y-39104444D01*
X61803500Y-39090081D01*
X61803500Y-39051866D01*
X61796745Y-38989684D01*
X61745615Y-38853295D01*
X61658261Y-38736739D01*
X61541705Y-38649385D01*
X61405316Y-38598255D01*
X61343134Y-38591500D01*
X59246866Y-38591500D01*
X59184684Y-38598255D01*
X59048295Y-38649385D01*
X58931739Y-38736739D01*
X58844385Y-38853295D01*
X58793255Y-38989684D01*
X58786500Y-39051866D01*
X58786500Y-41148134D01*
X58793255Y-41210316D01*
X58844385Y-41346705D01*
X58931739Y-41463261D01*
X59048295Y-41550615D01*
X59184684Y-41601745D01*
X59246866Y-41608500D01*
X60374387Y-41608500D01*
X60442508Y-41628502D01*
X60489001Y-41682158D01*
X60499105Y-41752432D01*
X60469611Y-41817012D01*
X60409885Y-41855396D01*
X60395725Y-41858680D01*
X60299564Y-41875203D01*
X60299561Y-41875204D01*
X60293874Y-41876181D01*
X60094116Y-41949875D01*
X59911134Y-42058739D01*
X59751054Y-42199125D01*
X59619238Y-42366333D01*
X59616549Y-42371444D01*
X59616547Y-42371447D01*
X59600900Y-42401187D01*
X59520100Y-42554762D01*
X59518386Y-42560283D01*
X59518384Y-42560287D01*
X59500829Y-42616823D01*
X59456961Y-42758102D01*
X59431936Y-42969544D01*
X59445861Y-43182006D01*
X59447282Y-43187602D01*
X59447283Y-43187607D01*
X59490031Y-43355925D01*
X59498272Y-43388372D01*
X59500689Y-43393615D01*
X59537389Y-43473223D01*
X59587411Y-43581731D01*
X59710296Y-43755609D01*
X59862809Y-43904181D01*
X59867605Y-43907386D01*
X59867608Y-43907388D01*
X59926615Y-43946815D01*
X60039843Y-44022471D01*
X60045146Y-44024749D01*
X60045149Y-44024751D01*
X60127324Y-44060056D01*
X60235470Y-44106519D01*
X60394958Y-44142607D01*
X60456984Y-44177150D01*
X60490489Y-44239743D01*
X60484835Y-44310514D01*
X60441816Y-44366993D01*
X60375092Y-44391249D01*
X60367150Y-44391500D01*
X59246866Y-44391500D01*
X59184684Y-44398255D01*
X59048295Y-44449385D01*
X58931739Y-44536739D01*
X58844385Y-44653295D01*
X58793255Y-44789684D01*
X58786500Y-44851866D01*
X58786500Y-46948134D01*
X57903500Y-46948134D01*
X57903500Y-41734500D01*
X57923502Y-41666379D01*
X57977158Y-41619886D01*
X58029500Y-41608500D01*
X58043134Y-41608500D01*
X58105316Y-41601745D01*
X58241705Y-41550615D01*
X58358261Y-41463261D01*
X58445615Y-41346705D01*
X58496745Y-41210316D01*
X58503500Y-41148134D01*
X58503500Y-39051866D01*
X58496745Y-38989684D01*
X58445615Y-38853295D01*
X58358261Y-38736739D01*
X58241705Y-38649385D01*
X58105316Y-38598255D01*
X58043134Y-38591500D01*
X55946866Y-38591500D01*
X55884684Y-38598255D01*
X55748295Y-38649385D01*
X55631739Y-38736739D01*
X55544385Y-38853295D01*
X55493255Y-38989684D01*
X55486500Y-39051866D01*
X55486500Y-41148134D01*
X55102813Y-41148134D01*
X55103000Y-41144672D01*
X55103000Y-40418115D01*
X55098525Y-40402876D01*
X55097135Y-40401671D01*
X55089452Y-40400000D01*
X53913115Y-40400000D01*
X53897876Y-40404475D01*
X53896671Y-40405865D01*
X53895000Y-40413548D01*
X53895000Y-41589884D01*
X53899475Y-41605123D01*
X53900865Y-41606328D01*
X53908548Y-41607999D01*
X54377303Y-41607999D01*
X54445424Y-41628001D01*
X54491917Y-41681657D01*
X54502021Y-41751931D01*
X54472527Y-41816511D01*
X54412801Y-41854895D01*
X54398641Y-41858179D01*
X54299564Y-41875203D01*
X54299561Y-41875204D01*
X54293874Y-41876181D01*
X54094116Y-41949875D01*
X53911134Y-42058739D01*
X53751054Y-42199125D01*
X53619238Y-42366333D01*
X53616549Y-42371444D01*
X53616547Y-42371447D01*
X53600900Y-42401187D01*
X53520100Y-42554762D01*
X53518386Y-42560283D01*
X53518384Y-42560287D01*
X53500829Y-42616823D01*
X53456961Y-42758102D01*
X53431936Y-42969544D01*
X51307732Y-42969544D01*
X51307922Y-41144669D01*
X52087001Y-41144669D01*
X52087371Y-41151490D01*
X52092895Y-41202352D01*
X52096521Y-41217604D01*
X52141676Y-41338054D01*
X52150214Y-41353649D01*
X52226715Y-41455724D01*
X52239276Y-41468285D01*
X52341351Y-41544786D01*
X52356946Y-41553324D01*
X52477394Y-41598478D01*
X52492649Y-41602105D01*
X52543514Y-41607631D01*
X52550328Y-41608000D01*
X53276885Y-41608000D01*
X53292124Y-41603525D01*
X53293329Y-41602135D01*
X53295000Y-41594452D01*
X53295000Y-40418115D01*
X53290525Y-40402876D01*
X53289135Y-40401671D01*
X53281452Y-40400000D01*
X52105116Y-40400000D01*
X52089877Y-40404475D01*
X52088672Y-40405865D01*
X52087001Y-40413548D01*
X52087001Y-41144669D01*
X51307922Y-41144669D01*
X51308063Y-39781885D01*
X52087000Y-39781885D01*
X52091475Y-39797124D01*
X52092865Y-39798329D01*
X52100548Y-39800000D01*
X53276885Y-39800000D01*
X53292124Y-39795525D01*
X53293329Y-39794135D01*
X53295000Y-39786452D01*
X53295000Y-39781885D01*
X53895000Y-39781885D01*
X53899475Y-39797124D01*
X53900865Y-39798329D01*
X53908548Y-39800000D01*
X55084884Y-39800000D01*
X55100123Y-39795525D01*
X55101328Y-39794135D01*
X55102999Y-39786452D01*
X55102999Y-39055331D01*
X55102629Y-39048510D01*
X55097105Y-38997648D01*
X55093479Y-38982396D01*
X55048324Y-38861946D01*
X55039786Y-38846351D01*
X54963285Y-38744276D01*
X54950724Y-38731715D01*
X54848649Y-38655214D01*
X54833054Y-38646676D01*
X54712606Y-38601522D01*
X54697351Y-38597895D01*
X54646486Y-38592369D01*
X54639672Y-38592000D01*
X53913115Y-38592000D01*
X53897876Y-38596475D01*
X53896671Y-38597865D01*
X53895000Y-38605548D01*
X53895000Y-39781885D01*
X53295000Y-39781885D01*
X53295000Y-38610116D01*
X53290525Y-38594877D01*
X53289135Y-38593672D01*
X53281452Y-38592001D01*
X52550331Y-38592001D01*
X52543510Y-38592371D01*
X52492648Y-38597895D01*
X52477396Y-38601521D01*
X52356946Y-38646676D01*
X52341351Y-38655214D01*
X52239276Y-38731715D01*
X52226715Y-38744276D01*
X52150214Y-38846351D01*
X52141676Y-38861946D01*
X52096522Y-38982394D01*
X52092895Y-38997649D01*
X52087369Y-39048514D01*
X52087000Y-39055328D01*
X52087000Y-39781885D01*
X51308063Y-39781885D01*
X51308495Y-35613267D01*
X51310241Y-35592377D01*
X51312769Y-35577349D01*
X51313576Y-35572552D01*
X51313729Y-35560000D01*
X51313040Y-35555190D01*
X51313039Y-35555172D01*
X51311751Y-35546181D01*
X51310676Y-35521254D01*
X51311930Y-35498918D01*
X51986917Y-35498918D01*
X51987334Y-35506156D01*
X52002682Y-35772320D01*
X52055405Y-36041053D01*
X52056792Y-36045103D01*
X52056793Y-36045108D01*
X52142723Y-36296088D01*
X52144112Y-36300144D01*
X52267160Y-36544799D01*
X52269586Y-36548328D01*
X52269589Y-36548334D01*
X52334087Y-36642178D01*
X52422274Y-36770490D01*
X52425161Y-36773663D01*
X52425162Y-36773664D01*
X52458671Y-36810490D01*
X52606582Y-36973043D01*
X52816675Y-37148707D01*
X52820316Y-37150991D01*
X53045024Y-37291951D01*
X53045028Y-37291953D01*
X53048664Y-37294234D01*
X53116544Y-37324883D01*
X53294345Y-37405164D01*
X53294349Y-37405166D01*
X53298257Y-37406930D01*
X53302377Y-37408150D01*
X53302376Y-37408150D01*
X53556723Y-37483491D01*
X53556727Y-37483492D01*
X53560836Y-37484709D01*
X53565070Y-37485357D01*
X53565075Y-37485358D01*
X53827298Y-37525483D01*
X53827300Y-37525483D01*
X53831540Y-37526132D01*
X53970912Y-37528322D01*
X54101071Y-37530367D01*
X54101077Y-37530367D01*
X54105362Y-37530434D01*
X54377235Y-37497534D01*
X54642127Y-37428041D01*
X54646087Y-37426401D01*
X54646092Y-37426399D01*
X54768632Y-37375641D01*
X54895136Y-37323241D01*
X55063130Y-37225073D01*
X55127879Y-37187237D01*
X55127880Y-37187236D01*
X55131582Y-37185073D01*
X55347089Y-37016094D01*
X55353124Y-37009867D01*
X55534686Y-36822509D01*
X55537669Y-36819431D01*
X55540202Y-36815983D01*
X55540206Y-36815978D01*
X55697257Y-36602178D01*
X55699795Y-36598723D01*
X55727154Y-36548334D01*
X55828418Y-36361830D01*
X55828419Y-36361828D01*
X55830468Y-36358054D01*
X55927269Y-36101877D01*
X55985627Y-35847071D01*
X55987449Y-35839117D01*
X55987450Y-35839113D01*
X55988407Y-35834933D01*
X55991689Y-35798166D01*
X56012531Y-35564627D01*
X56012531Y-35564625D01*
X56012751Y-35562161D01*
X56012840Y-35553724D01*
X56012995Y-35538918D01*
X96411917Y-35538918D01*
X96412334Y-35546156D01*
X96427682Y-35812320D01*
X96480405Y-36081053D01*
X96481792Y-36085103D01*
X96481793Y-36085108D01*
X96567723Y-36336088D01*
X96569112Y-36340144D01*
X96692160Y-36584799D01*
X96694586Y-36588328D01*
X96694589Y-36588334D01*
X96821964Y-36773664D01*
X96847274Y-36810490D01*
X97031582Y-37013043D01*
X97034877Y-37015798D01*
X97034878Y-37015799D01*
X97079382Y-37053010D01*
X97241675Y-37188707D01*
X97245316Y-37190991D01*
X97470024Y-37331951D01*
X97470028Y-37331953D01*
X97473664Y-37334234D01*
X97541544Y-37364883D01*
X97719345Y-37445164D01*
X97719349Y-37445166D01*
X97723257Y-37446930D01*
X97727377Y-37448150D01*
X97727376Y-37448150D01*
X97981723Y-37523491D01*
X97981727Y-37523492D01*
X97985836Y-37524709D01*
X97990070Y-37525357D01*
X97990075Y-37525358D01*
X98252298Y-37565483D01*
X98252300Y-37565483D01*
X98256540Y-37566132D01*
X98395912Y-37568322D01*
X98526071Y-37570367D01*
X98526077Y-37570367D01*
X98530362Y-37570434D01*
X98802235Y-37537534D01*
X99067127Y-37468041D01*
X99071087Y-37466401D01*
X99071092Y-37466399D01*
X99218925Y-37405164D01*
X99320136Y-37363241D01*
X99556582Y-37225073D01*
X99772089Y-37056094D01*
X99813809Y-37013043D01*
X99959686Y-36862509D01*
X99962669Y-36859431D01*
X99965202Y-36855983D01*
X99965206Y-36855978D01*
X100122257Y-36642178D01*
X100124795Y-36638723D01*
X100126841Y-36634955D01*
X100253418Y-36401830D01*
X100253419Y-36401828D01*
X100255468Y-36398054D01*
X100352269Y-36141877D01*
X100413407Y-35874933D01*
X100416604Y-35839117D01*
X100437531Y-35604627D01*
X100437531Y-35604625D01*
X100437751Y-35602161D01*
X100438145Y-35564627D01*
X100438167Y-35562484D01*
X100438167Y-35562483D01*
X100438193Y-35560000D01*
X100436756Y-35538918D01*
X100419859Y-35291055D01*
X100419858Y-35291049D01*
X100419567Y-35286778D01*
X100415785Y-35268513D01*
X100364901Y-35022809D01*
X100364032Y-35018612D01*
X100272617Y-34760465D01*
X100147013Y-34517112D01*
X100137040Y-34502921D01*
X99992008Y-34296562D01*
X99989545Y-34293057D01*
X99919466Y-34217643D01*
X99806046Y-34095588D01*
X99806043Y-34095585D01*
X99803125Y-34092445D01*
X99799810Y-34089731D01*
X99799806Y-34089728D01*
X99594523Y-33921706D01*
X99591205Y-33918990D01*
X99357704Y-33775901D01*
X99353768Y-33774173D01*
X99110873Y-33667549D01*
X99110869Y-33667548D01*
X99106945Y-33665825D01*
X98843566Y-33590800D01*
X98839324Y-33590196D01*
X98839318Y-33590195D01*
X98638834Y-33561662D01*
X98572443Y-33552213D01*
X98428589Y-33551460D01*
X98302877Y-33550802D01*
X98302871Y-33550802D01*
X98298591Y-33550780D01*
X98294347Y-33551339D01*
X98294343Y-33551339D01*
X98175302Y-33567011D01*
X98027078Y-33586525D01*
X98022938Y-33587658D01*
X98022936Y-33587658D01*
X97950008Y-33607609D01*
X97762928Y-33658788D01*
X97758980Y-33660472D01*
X97514982Y-33764546D01*
X97514978Y-33764548D01*
X97511030Y-33766232D01*
X97491125Y-33778145D01*
X97279725Y-33904664D01*
X97279721Y-33904667D01*
X97276043Y-33906868D01*
X97062318Y-34078094D01*
X97045717Y-34095588D01*
X96911767Y-34236742D01*
X96873808Y-34276742D01*
X96714002Y-34499136D01*
X96585857Y-34741161D01*
X96584385Y-34745184D01*
X96584383Y-34745188D01*
X96500787Y-34973624D01*
X96491743Y-34998337D01*
X96433404Y-35265907D01*
X96411917Y-35538918D01*
X56012995Y-35538918D01*
X56013167Y-35522484D01*
X56013167Y-35522483D01*
X56013193Y-35520000D01*
X56011756Y-35498918D01*
X55994859Y-35251055D01*
X55994858Y-35251049D01*
X55994567Y-35246778D01*
X55939032Y-34978612D01*
X55847617Y-34720465D01*
X55742659Y-34517112D01*
X55723978Y-34480919D01*
X55723978Y-34480918D01*
X55722013Y-34477112D01*
X55712040Y-34462921D01*
X55567008Y-34256562D01*
X55564545Y-34253057D01*
X55418216Y-34095588D01*
X55381046Y-34055588D01*
X55381043Y-34055585D01*
X55378125Y-34052445D01*
X55374810Y-34049731D01*
X55374806Y-34049728D01*
X55169523Y-33881706D01*
X55166205Y-33878990D01*
X54932704Y-33735901D01*
X54928768Y-33734173D01*
X54685873Y-33627549D01*
X54685869Y-33627548D01*
X54681945Y-33625825D01*
X54418566Y-33550800D01*
X54414324Y-33550196D01*
X54414318Y-33550195D01*
X54213834Y-33521662D01*
X54147443Y-33512213D01*
X54003589Y-33511460D01*
X53877877Y-33510802D01*
X53877871Y-33510802D01*
X53873591Y-33510780D01*
X53869347Y-33511339D01*
X53869343Y-33511339D01*
X53750302Y-33527011D01*
X53602078Y-33546525D01*
X53597938Y-33547658D01*
X53597936Y-33547658D01*
X53525008Y-33567609D01*
X53337928Y-33618788D01*
X53333980Y-33620472D01*
X53089982Y-33724546D01*
X53089978Y-33724548D01*
X53086030Y-33726232D01*
X53015507Y-33768439D01*
X52854725Y-33864664D01*
X52854721Y-33864667D01*
X52851043Y-33866868D01*
X52637318Y-34038094D01*
X52448808Y-34236742D01*
X52289002Y-34459136D01*
X52160857Y-34701161D01*
X52159385Y-34705184D01*
X52159383Y-34705188D01*
X52137676Y-34764506D01*
X52066743Y-34958337D01*
X52008404Y-35225907D01*
X51986917Y-35498918D01*
X51311930Y-35498918D01*
X51314099Y-35460301D01*
X51324869Y-35268508D01*
X51326451Y-35254471D01*
X51327032Y-35251055D01*
X51373322Y-34978612D01*
X51374170Y-34973624D01*
X51377314Y-34959849D01*
X51456177Y-34686109D01*
X51460844Y-34672772D01*
X51569861Y-34409582D01*
X51575992Y-34396852D01*
X51713786Y-34147532D01*
X51721303Y-34135568D01*
X51873045Y-33921706D01*
X51886150Y-33903236D01*
X51894959Y-33892190D01*
X51915192Y-33869550D01*
X52084785Y-33679776D01*
X52094776Y-33669785D01*
X52227917Y-33550802D01*
X52307192Y-33479958D01*
X52318238Y-33471149D01*
X52550568Y-33306303D01*
X52562532Y-33298786D01*
X52811852Y-33160992D01*
X52824582Y-33154861D01*
X53087772Y-33045844D01*
X53101109Y-33041177D01*
X53374849Y-32962314D01*
X53388624Y-32959170D01*
X53529047Y-32935311D01*
X53669476Y-32911450D01*
X53683510Y-32909869D01*
X53752593Y-32905990D01*
X53932593Y-32895882D01*
X53959036Y-32897183D01*
X53959849Y-32897310D01*
X53959855Y-32897310D01*
X53968724Y-32898691D01*
X53977626Y-32897527D01*
X53977628Y-32897527D01*
X53992677Y-32895559D01*
X54000286Y-32894564D01*
X54016621Y-32893500D01*
X98375633Y-32893500D01*
X98395018Y-32895000D01*
G37*
%TD.AperFunction*%
%TD*%
M02*
