%TF.GenerationSoftware,KiCad,Pcbnew,(6.0.8)*%
%TF.CreationDate,2023-01-17T19:39:28+02:00*%
%TF.ProjectId,doom_day_lamp,646f6f6d-5f64-4617-995f-6c616d702e6b,rev?*%
%TF.SameCoordinates,Original*%
%TF.FileFunction,Copper,L2,Bot*%
%TF.FilePolarity,Positive*%
%FSLAX46Y46*%
G04 Gerber Fmt 4.6, Leading zero omitted, Abs format (unit mm)*
G04 Created by KiCad (PCBNEW (6.0.8)) date 2023-01-17 19:39:28*
%MOMM*%
%LPD*%
G01*
G04 APERTURE LIST*
%TA.AperFunction,ComponentPad*%
%ADD10O,2.200000X3.500000*%
%TD*%
%TA.AperFunction,ComponentPad*%
%ADD11R,1.500000X2.500000*%
%TD*%
%TA.AperFunction,ComponentPad*%
%ADD12O,1.500000X2.500000*%
%TD*%
%TA.AperFunction,ComponentPad*%
%ADD13C,1.600000*%
%TD*%
%TA.AperFunction,ComponentPad*%
%ADD14O,1.600000X1.600000*%
%TD*%
%TA.AperFunction,ComponentPad*%
%ADD15R,1.800000X1.800000*%
%TD*%
%TA.AperFunction,ComponentPad*%
%ADD16C,1.800000*%
%TD*%
%TA.AperFunction,ComponentPad*%
%ADD17O,2.500000X2.000000*%
%TD*%
%TA.AperFunction,ComponentPad*%
%ADD18R,1.700000X1.700000*%
%TD*%
%TA.AperFunction,ComponentPad*%
%ADD19O,1.700000X1.700000*%
%TD*%
%TA.AperFunction,ComponentPad*%
%ADD20R,1.350000X1.350000*%
%TD*%
%TA.AperFunction,ComponentPad*%
%ADD21O,1.350000X1.350000*%
%TD*%
%TA.AperFunction,Conductor*%
%ADD22C,0.500000*%
%TD*%
%TA.AperFunction,Conductor*%
%ADD23C,0.250000*%
%TD*%
G04 APERTURE END LIST*
D10*
%TO.P,SW1,*%
%TO.N,*%
X169445000Y-59832500D03*
X156845000Y-59832500D03*
D11*
%TO.P,SW1,1,A*%
%TO.N,Net-(SW1-Pad1)*%
X160145000Y-59832500D03*
D12*
%TO.P,SW1,2,B*%
%TO.N,Net-(J1-Pad2)*%
X163145000Y-59832500D03*
%TO.P,SW1,3,C*%
%TO.N,unconnected-(SW1-Pad3)*%
X166145000Y-59832500D03*
%TD*%
D13*
%TO.P,R20,1*%
%TO.N,Net-(D20-Pad2)*%
X142875000Y-49530000D03*
D14*
%TO.P,R20,2*%
%TO.N,Net-(JP1-Pad2)*%
X142875000Y-46990000D03*
%TD*%
D15*
%TO.P,D7,1,K*%
%TO.N,GND*%
X87630000Y-54610000D03*
D16*
%TO.P,D7,2,A*%
%TO.N,Net-(D7-Pad2)*%
X87630000Y-57150000D03*
%TD*%
D15*
%TO.P,D3,1,K*%
%TO.N,GND*%
X123190000Y-54610000D03*
D16*
%TO.P,D3,2,A*%
%TO.N,Net-(D3-Pad2)*%
X123190000Y-57150000D03*
%TD*%
D15*
%TO.P,D5,1,K*%
%TO.N,GND*%
X105410000Y-54610000D03*
D16*
%TO.P,D5,2,A*%
%TO.N,Net-(D5-Pad2)*%
X105410000Y-57150000D03*
%TD*%
D15*
%TO.P,D19,1,K*%
%TO.N,GND*%
X129540000Y-52070000D03*
D16*
%TO.P,D19,2,A*%
%TO.N,Net-(D19-Pad2)*%
X129540000Y-49530000D03*
%TD*%
D15*
%TO.P,D15,1,K*%
%TO.N,GND*%
X93980000Y-52070000D03*
D16*
%TO.P,D15,2,A*%
%TO.N,Net-(D15-Pad2)*%
X93980000Y-49530000D03*
%TD*%
D13*
%TO.P,R14,1*%
%TO.N,Net-(D14-Pad2)*%
X89535000Y-49530000D03*
D14*
%TO.P,R14,2*%
%TO.N,Net-(JP1-Pad2)*%
X89535000Y-46990000D03*
%TD*%
D15*
%TO.P,D16,1,K*%
%TO.N,GND*%
X102870000Y-52070000D03*
D16*
%TO.P,D16,2,A*%
%TO.N,Net-(D16-Pad2)*%
X102870000Y-49530000D03*
%TD*%
D15*
%TO.P,D11,1,K*%
%TO.N,GND*%
X58420000Y-52070000D03*
D16*
%TO.P,D11,2,A*%
%TO.N,Net-(D11-Pad2)*%
X58420000Y-49530000D03*
%TD*%
D15*
%TO.P,D2,1,K*%
%TO.N,GND*%
X132080000Y-54610000D03*
D16*
%TO.P,D2,2,A*%
%TO.N,Net-(D2-Pad2)*%
X132080000Y-57150000D03*
%TD*%
D17*
%TO.P,U1,1,IN-*%
%TO.N,GND*%
X165100000Y-54735000D03*
%TO.P,U1,2,IN+*%
%TO.N,Net-(SW1-Pad1)*%
X165100000Y-45595000D03*
%TO.P,U1,3,OUT-*%
%TO.N,GND*%
X149860000Y-54735000D03*
%TO.P,U1,4,OUT+*%
%TO.N,Net-(JP1-Pad1)*%
X149860000Y-45595000D03*
%TD*%
D13*
%TO.P,R12,1*%
%TO.N,Net-(D12-Pad2)*%
X71755000Y-49530000D03*
D14*
%TO.P,R12,2*%
%TO.N,Net-(JP1-Pad2)*%
X71755000Y-46990000D03*
%TD*%
D13*
%TO.P,R18,1*%
%TO.N,Net-(D18-Pad2)*%
X125095000Y-49530000D03*
D14*
%TO.P,R18,2*%
%TO.N,Net-(JP1-Pad2)*%
X125095000Y-46990000D03*
%TD*%
D15*
%TO.P,D6,1,K*%
%TO.N,GND*%
X96520000Y-54610000D03*
D16*
%TO.P,D6,2,A*%
%TO.N,Net-(D6-Pad2)*%
X96520000Y-57150000D03*
%TD*%
D13*
%TO.P,R9,1*%
%TO.N,Net-(D10-Pad2)*%
X65405000Y-57150000D03*
D14*
%TO.P,R9,2*%
%TO.N,Net-(JP1-Pad2)*%
X65405000Y-59690000D03*
%TD*%
D18*
%TO.P,JP1,1,A*%
%TO.N,Net-(JP1-Pad1)*%
X152400000Y-59690000D03*
D19*
%TO.P,JP1,2,B*%
%TO.N,Net-(JP1-Pad2)*%
X149860000Y-59690000D03*
%TD*%
D13*
%TO.P,R4,1*%
%TO.N,Net-(D5-Pad2)*%
X109855000Y-57150000D03*
D14*
%TO.P,R4,2*%
%TO.N,Net-(JP1-Pad2)*%
X109855000Y-59690000D03*
%TD*%
D13*
%TO.P,R11,1*%
%TO.N,Net-(D11-Pad2)*%
X62865000Y-49530000D03*
D14*
%TO.P,R11,2*%
%TO.N,Net-(JP1-Pad2)*%
X62865000Y-46990000D03*
%TD*%
D15*
%TO.P,D14,1,K*%
%TO.N,GND*%
X85090000Y-52070000D03*
D16*
%TO.P,D14,2,A*%
%TO.N,Net-(D14-Pad2)*%
X85090000Y-49530000D03*
%TD*%
D15*
%TO.P,D17,1,K*%
%TO.N,GND*%
X111760000Y-52070000D03*
D16*
%TO.P,D17,2,A*%
%TO.N,Net-(D17-Pad2)*%
X111760000Y-49530000D03*
%TD*%
D13*
%TO.P,R15,1*%
%TO.N,Net-(D15-Pad2)*%
X98425000Y-49530000D03*
D14*
%TO.P,R15,2*%
%TO.N,Net-(JP1-Pad2)*%
X98425000Y-46990000D03*
%TD*%
D13*
%TO.P,R19,1*%
%TO.N,Net-(D19-Pad2)*%
X133985000Y-49530000D03*
D14*
%TO.P,R19,2*%
%TO.N,Net-(JP1-Pad2)*%
X133985000Y-46990000D03*
%TD*%
D13*
%TO.P,R8,1*%
%TO.N,Net-(D9-Pad2)*%
X74295000Y-57150000D03*
D14*
%TO.P,R8,2*%
%TO.N,Net-(JP1-Pad2)*%
X74295000Y-59690000D03*
%TD*%
D13*
%TO.P,R10,1*%
%TO.N,Net-(D1-Pad2)*%
X145415000Y-57150000D03*
D14*
%TO.P,R10,2*%
%TO.N,Net-(JP1-Pad2)*%
X145415000Y-59690000D03*
%TD*%
D13*
%TO.P,R3,1*%
%TO.N,Net-(D4-Pad2)*%
X118745000Y-57150000D03*
D14*
%TO.P,R3,2*%
%TO.N,Net-(JP1-Pad2)*%
X118745000Y-59690000D03*
%TD*%
D15*
%TO.P,D4,1,K*%
%TO.N,GND*%
X114300000Y-54610000D03*
D16*
%TO.P,D4,2,A*%
%TO.N,Net-(D4-Pad2)*%
X114300000Y-57150000D03*
%TD*%
D13*
%TO.P,R6,1*%
%TO.N,Net-(D7-Pad2)*%
X92075000Y-57150000D03*
D14*
%TO.P,R6,2*%
%TO.N,Net-(JP1-Pad2)*%
X92075000Y-59690000D03*
%TD*%
D13*
%TO.P,R13,1*%
%TO.N,Net-(D13-Pad2)*%
X80645000Y-49530000D03*
D14*
%TO.P,R13,2*%
%TO.N,Net-(JP1-Pad2)*%
X80645000Y-46990000D03*
%TD*%
D13*
%TO.P,R17,1*%
%TO.N,Net-(D17-Pad2)*%
X116205000Y-49530000D03*
D14*
%TO.P,R17,2*%
%TO.N,Net-(JP1-Pad2)*%
X116205000Y-46990000D03*
%TD*%
D15*
%TO.P,D20,1,K*%
%TO.N,GND*%
X138430000Y-52070000D03*
D16*
%TO.P,D20,2,A*%
%TO.N,Net-(D20-Pad2)*%
X138430000Y-49530000D03*
%TD*%
D15*
%TO.P,D9,1,K*%
%TO.N,GND*%
X69850000Y-54610000D03*
D16*
%TO.P,D9,2,A*%
%TO.N,Net-(D9-Pad2)*%
X69850000Y-57150000D03*
%TD*%
D15*
%TO.P,D10,1,K*%
%TO.N,GND*%
X60960000Y-54610000D03*
D16*
%TO.P,D10,2,A*%
%TO.N,Net-(D10-Pad2)*%
X60960000Y-57150000D03*
%TD*%
D13*
%TO.P,R2,1*%
%TO.N,Net-(D3-Pad2)*%
X127635000Y-57150000D03*
D14*
%TO.P,R2,2*%
%TO.N,Net-(JP1-Pad2)*%
X127635000Y-59690000D03*
%TD*%
D15*
%TO.P,D8,1,K*%
%TO.N,GND*%
X78740000Y-54610000D03*
D16*
%TO.P,D8,2,A*%
%TO.N,Net-(D8-Pad2)*%
X78740000Y-57150000D03*
%TD*%
D13*
%TO.P,R7,1*%
%TO.N,Net-(D8-Pad2)*%
X83185000Y-57150000D03*
D14*
%TO.P,R7,2*%
%TO.N,Net-(JP1-Pad2)*%
X83185000Y-59690000D03*
%TD*%
D15*
%TO.P,D1,1,K*%
%TO.N,GND*%
X140970000Y-54610000D03*
D16*
%TO.P,D1,2,A*%
%TO.N,Net-(D1-Pad2)*%
X140970000Y-57150000D03*
%TD*%
D15*
%TO.P,D18,1,K*%
%TO.N,GND*%
X120650000Y-52070000D03*
D16*
%TO.P,D18,2,A*%
%TO.N,Net-(D18-Pad2)*%
X120650000Y-49530000D03*
%TD*%
D13*
%TO.P,R16,1*%
%TO.N,Net-(D16-Pad2)*%
X107315000Y-49530000D03*
D14*
%TO.P,R16,2*%
%TO.N,Net-(JP1-Pad2)*%
X107315000Y-46990000D03*
%TD*%
D13*
%TO.P,R5,1*%
%TO.N,Net-(D6-Pad2)*%
X100965000Y-57150000D03*
D14*
%TO.P,R5,2*%
%TO.N,Net-(JP1-Pad2)*%
X100965000Y-59690000D03*
%TD*%
D15*
%TO.P,D13,1,K*%
%TO.N,GND*%
X76200000Y-52070000D03*
D16*
%TO.P,D13,2,A*%
%TO.N,Net-(D13-Pad2)*%
X76200000Y-49530000D03*
%TD*%
D15*
%TO.P,D12,1,K*%
%TO.N,GND*%
X67310000Y-52070000D03*
D16*
%TO.P,D12,2,A*%
%TO.N,Net-(D12-Pad2)*%
X67310000Y-49530000D03*
%TD*%
D13*
%TO.P,R1,1*%
%TO.N,Net-(D2-Pad2)*%
X136525000Y-57150000D03*
D14*
%TO.P,R1,2*%
%TO.N,Net-(JP1-Pad2)*%
X136525000Y-59690000D03*
%TD*%
D20*
%TO.P,J1,1,Pin_1*%
%TO.N,GND*%
X170815000Y-51705000D03*
D21*
%TO.P,J1,2,Pin_2*%
%TO.N,Net-(J1-Pad2)*%
X170815000Y-53705000D03*
%TD*%
D22*
%TO.N,Net-(J1-Pad2)*%
X170815000Y-53705000D02*
X170815000Y-55880000D01*
X169545000Y-57150000D02*
X170815000Y-55880000D01*
X165827500Y-57150000D02*
X169545000Y-57150000D01*
X163145000Y-59832500D02*
X165827500Y-57150000D01*
%TO.N,GND*%
X149735000Y-54610000D02*
X149860000Y-54735000D01*
%TO.N,Net-(D1-Pad2)*%
X140970000Y-57150000D02*
X145415000Y-57150000D01*
%TO.N,Net-(D2-Pad2)*%
X132080000Y-57150000D02*
X136525000Y-57150000D01*
%TO.N,Net-(D3-Pad2)*%
X123190000Y-57150000D02*
X127635000Y-57150000D01*
%TO.N,Net-(D4-Pad2)*%
X114300000Y-57150000D02*
X118745000Y-57150000D01*
%TO.N,Net-(D5-Pad2)*%
X105410000Y-57150000D02*
X109855000Y-57150000D01*
%TO.N,Net-(D6-Pad2)*%
X96520000Y-57150000D02*
X100965000Y-57150000D01*
%TO.N,Net-(D7-Pad2)*%
X87630000Y-57150000D02*
X92075000Y-57150000D01*
%TO.N,Net-(D8-Pad2)*%
X78740000Y-57150000D02*
X83185000Y-57150000D01*
%TO.N,Net-(D9-Pad2)*%
X69850000Y-57150000D02*
X74295000Y-57150000D01*
%TO.N,Net-(D10-Pad2)*%
X60960000Y-57150000D02*
X65405000Y-57150000D01*
%TO.N,Net-(D11-Pad2)*%
X62865000Y-49530000D02*
X58420000Y-49530000D01*
%TO.N,Net-(D12-Pad2)*%
X71755000Y-49530000D02*
X67310000Y-49530000D01*
%TO.N,Net-(D13-Pad2)*%
X80645000Y-49530000D02*
X76200000Y-49530000D01*
%TO.N,Net-(D14-Pad2)*%
X89535000Y-49530000D02*
X85090000Y-49530000D01*
%TO.N,Net-(D15-Pad2)*%
X98425000Y-49530000D02*
X93980000Y-49530000D01*
%TO.N,Net-(D16-Pad2)*%
X107315000Y-49530000D02*
X102870000Y-49530000D01*
%TO.N,Net-(D17-Pad2)*%
X116205000Y-49530000D02*
X111760000Y-49530000D01*
%TO.N,Net-(D18-Pad2)*%
X125095000Y-49530000D02*
X120650000Y-49530000D01*
%TO.N,Net-(D19-Pad2)*%
X133985000Y-49530000D02*
X129540000Y-49530000D01*
%TO.N,Net-(D20-Pad2)*%
X142875000Y-49530000D02*
X138430000Y-49530000D01*
%TO.N,Net-(JP1-Pad1)*%
X154305000Y-49530000D02*
X150370000Y-45595000D01*
X152400000Y-57785000D02*
X154305000Y-55880000D01*
X152400000Y-59690000D02*
X152400000Y-57785000D01*
D23*
X150370000Y-45595000D02*
X149860000Y-45595000D01*
D22*
X154305000Y-55880000D02*
X154305000Y-49530000D01*
D23*
X151005000Y-45595000D02*
X149860000Y-45595000D01*
D22*
%TO.N,Net-(JP1-Pad2)*%
X118745000Y-59690000D02*
X127635000Y-59690000D01*
X133985000Y-46990000D02*
X125095000Y-46990000D01*
X92075000Y-59690000D02*
X100965000Y-59690000D01*
X136525000Y-59690000D02*
X145415000Y-59690000D01*
X100965000Y-59690000D02*
X109855000Y-59690000D01*
X98425000Y-46990000D02*
X89535000Y-46990000D01*
X145415000Y-59690000D02*
X149860000Y-59690000D01*
X125095000Y-46990000D02*
X116205000Y-46990000D01*
X74295000Y-59690000D02*
X83185000Y-59690000D01*
X127635000Y-59690000D02*
X136525000Y-59690000D01*
X138430000Y-46990000D02*
X133985000Y-46990000D01*
X109855000Y-59690000D02*
X118745000Y-59690000D01*
X146930000Y-47990000D02*
X145930000Y-46990000D01*
X80645000Y-46990000D02*
X71755000Y-46990000D01*
X150600000Y-47990000D02*
X146930000Y-47990000D01*
X139700000Y-46990000D02*
X138430000Y-46990000D01*
X74295000Y-59690000D02*
X65405000Y-59690000D01*
X62865000Y-46990000D02*
X71755000Y-46990000D01*
X152750000Y-55390000D02*
X152750000Y-50140000D01*
X116205000Y-46990000D02*
X107315000Y-46990000D01*
X89535000Y-46990000D02*
X80645000Y-46990000D01*
X139700000Y-46990000D02*
X142875000Y-46990000D01*
X107315000Y-46990000D02*
X98425000Y-46990000D01*
X145930000Y-46990000D02*
X142875000Y-46990000D01*
X152750000Y-50140000D02*
X150600000Y-47990000D01*
X149860000Y-58280000D02*
X152750000Y-55390000D01*
X83185000Y-59690000D02*
X92075000Y-59690000D01*
X149860000Y-59690000D02*
X149860000Y-58280000D01*
D23*
X137795000Y-46990000D02*
X139700000Y-46990000D01*
D22*
%TO.N,Net-(SW1-Pad1)*%
X160145000Y-50550000D02*
X165100000Y-45595000D01*
X160145000Y-59832500D02*
X160145000Y-50550000D01*
%TD*%
%TA.AperFunction,Conductor*%
%TO.N,GND*%
G36*
X148414931Y-44385502D02*
G01*
X148461424Y-44439158D01*
X148471528Y-44509432D01*
X148444175Y-44571476D01*
X148407105Y-44616606D01*
X148332666Y-44707230D01*
X148207160Y-44922872D01*
X148205347Y-44927595D01*
X148205346Y-44927597D01*
X148184924Y-44980798D01*
X148117745Y-45155805D01*
X148116712Y-45160751D01*
X148116710Y-45160757D01*
X148085023Y-45312436D01*
X148066722Y-45400039D01*
X148066493Y-45405088D01*
X148066492Y-45405094D01*
X148062557Y-45491757D01*
X148055404Y-45649288D01*
X148055985Y-45654308D01*
X148055985Y-45654312D01*
X148056222Y-45656361D01*
X148084081Y-45897140D01*
X148085460Y-45902011D01*
X148085460Y-45902014D01*
X148116645Y-46012218D01*
X148152017Y-46137219D01*
X148194623Y-46228589D01*
X148237692Y-46320950D01*
X148257462Y-46363348D01*
X148397706Y-46569710D01*
X148401190Y-46573394D01*
X148535424Y-46715342D01*
X148569138Y-46750994D01*
X148573164Y-46754072D01*
X148573165Y-46754073D01*
X148681927Y-46837228D01*
X148767349Y-46902538D01*
X148860445Y-46952456D01*
X148911028Y-47002274D01*
X148926647Y-47071532D01*
X148902343Y-47138239D01*
X148845833Y-47181217D01*
X148800903Y-47189500D01*
X147313768Y-47189500D01*
X147245647Y-47169498D01*
X147224673Y-47152595D01*
X146502519Y-46430441D01*
X146501590Y-46429503D01*
X146471910Y-46399195D01*
X146439141Y-46365732D01*
X146433221Y-46361917D01*
X146433215Y-46361912D01*
X146403109Y-46342510D01*
X146392755Y-46335070D01*
X146364774Y-46312733D01*
X146359266Y-46308336D01*
X146329441Y-46293918D01*
X146316025Y-46286389D01*
X146294109Y-46272265D01*
X146288183Y-46268446D01*
X146247909Y-46253787D01*
X146236169Y-46248828D01*
X146203916Y-46233237D01*
X146203917Y-46233237D01*
X146197578Y-46230173D01*
X146190723Y-46228590D01*
X146190719Y-46228589D01*
X146171757Y-46224212D01*
X146165302Y-46222721D01*
X146150554Y-46218352D01*
X146126045Y-46209432D01*
X146126041Y-46209431D01*
X146119422Y-46207022D01*
X146076882Y-46201648D01*
X146064363Y-46199418D01*
X146022589Y-46189774D01*
X146015548Y-46189749D01*
X146015545Y-46189749D01*
X145982418Y-46189633D01*
X145981545Y-46189604D01*
X145980717Y-46189500D01*
X145944262Y-46189500D01*
X145943822Y-46189499D01*
X145846493Y-46189159D01*
X145846490Y-46189159D01*
X145843000Y-46189147D01*
X145841812Y-46189413D01*
X145840200Y-46189500D01*
X144028731Y-46189500D01*
X143960610Y-46169498D01*
X143925521Y-46135773D01*
X143913495Y-46118599D01*
X143746401Y-45951505D01*
X143741893Y-45948348D01*
X143741890Y-45948346D01*
X143557339Y-45819122D01*
X143557336Y-45819120D01*
X143552830Y-45815965D01*
X143547848Y-45813642D01*
X143547843Y-45813639D01*
X143343645Y-45718420D01*
X143343644Y-45718419D01*
X143338663Y-45716097D01*
X143333355Y-45714675D01*
X143333353Y-45714674D01*
X143115723Y-45656361D01*
X143115722Y-45656361D01*
X143110408Y-45654937D01*
X142875000Y-45634341D01*
X142639592Y-45654937D01*
X142634278Y-45656361D01*
X142634277Y-45656361D01*
X142416647Y-45714674D01*
X142416645Y-45714675D01*
X142411337Y-45716097D01*
X142406357Y-45718419D01*
X142406355Y-45718420D01*
X142202152Y-45813642D01*
X142202149Y-45813644D01*
X142197171Y-45815965D01*
X142003599Y-45951505D01*
X141836505Y-46118599D01*
X141824480Y-46135772D01*
X141769026Y-46180099D01*
X141721269Y-46189500D01*
X135138731Y-46189500D01*
X135070610Y-46169498D01*
X135035521Y-46135773D01*
X135023495Y-46118599D01*
X134856401Y-45951505D01*
X134851893Y-45948348D01*
X134851890Y-45948346D01*
X134667339Y-45819122D01*
X134667336Y-45819120D01*
X134662830Y-45815965D01*
X134657848Y-45813642D01*
X134657843Y-45813639D01*
X134453645Y-45718420D01*
X134453644Y-45718419D01*
X134448663Y-45716097D01*
X134443355Y-45714675D01*
X134443353Y-45714674D01*
X134225723Y-45656361D01*
X134225722Y-45656361D01*
X134220408Y-45654937D01*
X133985000Y-45634341D01*
X133749592Y-45654937D01*
X133744278Y-45656361D01*
X133744277Y-45656361D01*
X133526647Y-45714674D01*
X133526645Y-45714675D01*
X133521337Y-45716097D01*
X133516357Y-45718419D01*
X133516355Y-45718420D01*
X133312152Y-45813642D01*
X133312149Y-45813644D01*
X133307171Y-45815965D01*
X133113599Y-45951505D01*
X132946505Y-46118599D01*
X132934480Y-46135772D01*
X132879026Y-46180099D01*
X132831269Y-46189500D01*
X126248731Y-46189500D01*
X126180610Y-46169498D01*
X126145521Y-46135773D01*
X126133495Y-46118599D01*
X125966401Y-45951505D01*
X125961893Y-45948348D01*
X125961890Y-45948346D01*
X125777339Y-45819122D01*
X125777336Y-45819120D01*
X125772830Y-45815965D01*
X125767848Y-45813642D01*
X125767843Y-45813639D01*
X125563645Y-45718420D01*
X125563644Y-45718419D01*
X125558663Y-45716097D01*
X125553355Y-45714675D01*
X125553353Y-45714674D01*
X125335723Y-45656361D01*
X125335722Y-45656361D01*
X125330408Y-45654937D01*
X125095000Y-45634341D01*
X124859592Y-45654937D01*
X124854278Y-45656361D01*
X124854277Y-45656361D01*
X124636647Y-45714674D01*
X124636645Y-45714675D01*
X124631337Y-45716097D01*
X124626357Y-45718419D01*
X124626355Y-45718420D01*
X124422152Y-45813642D01*
X124422149Y-45813644D01*
X124417171Y-45815965D01*
X124223599Y-45951505D01*
X124056505Y-46118599D01*
X124044480Y-46135772D01*
X123989026Y-46180099D01*
X123941269Y-46189500D01*
X117358731Y-46189500D01*
X117290610Y-46169498D01*
X117255521Y-46135773D01*
X117243495Y-46118599D01*
X117076401Y-45951505D01*
X117071893Y-45948348D01*
X117071890Y-45948346D01*
X116887339Y-45819122D01*
X116887336Y-45819120D01*
X116882830Y-45815965D01*
X116877848Y-45813642D01*
X116877843Y-45813639D01*
X116673645Y-45718420D01*
X116673644Y-45718419D01*
X116668663Y-45716097D01*
X116663355Y-45714675D01*
X116663353Y-45714674D01*
X116445723Y-45656361D01*
X116445722Y-45656361D01*
X116440408Y-45654937D01*
X116205000Y-45634341D01*
X115969592Y-45654937D01*
X115964278Y-45656361D01*
X115964277Y-45656361D01*
X115746647Y-45714674D01*
X115746645Y-45714675D01*
X115741337Y-45716097D01*
X115736357Y-45718419D01*
X115736355Y-45718420D01*
X115532152Y-45813642D01*
X115532149Y-45813644D01*
X115527171Y-45815965D01*
X115333599Y-45951505D01*
X115166505Y-46118599D01*
X115154480Y-46135772D01*
X115099026Y-46180099D01*
X115051269Y-46189500D01*
X108468731Y-46189500D01*
X108400610Y-46169498D01*
X108365521Y-46135773D01*
X108353495Y-46118599D01*
X108186401Y-45951505D01*
X108181893Y-45948348D01*
X108181890Y-45948346D01*
X107997339Y-45819122D01*
X107997336Y-45819120D01*
X107992830Y-45815965D01*
X107987848Y-45813642D01*
X107987843Y-45813639D01*
X107783645Y-45718420D01*
X107783644Y-45718419D01*
X107778663Y-45716097D01*
X107773355Y-45714675D01*
X107773353Y-45714674D01*
X107555723Y-45656361D01*
X107555722Y-45656361D01*
X107550408Y-45654937D01*
X107315000Y-45634341D01*
X107079592Y-45654937D01*
X107074278Y-45656361D01*
X107074277Y-45656361D01*
X106856647Y-45714674D01*
X106856645Y-45714675D01*
X106851337Y-45716097D01*
X106846357Y-45718419D01*
X106846355Y-45718420D01*
X106642152Y-45813642D01*
X106642149Y-45813644D01*
X106637171Y-45815965D01*
X106443599Y-45951505D01*
X106276505Y-46118599D01*
X106264480Y-46135772D01*
X106209026Y-46180099D01*
X106161269Y-46189500D01*
X99578731Y-46189500D01*
X99510610Y-46169498D01*
X99475521Y-46135773D01*
X99463495Y-46118599D01*
X99296401Y-45951505D01*
X99291893Y-45948348D01*
X99291890Y-45948346D01*
X99107339Y-45819122D01*
X99107336Y-45819120D01*
X99102830Y-45815965D01*
X99097848Y-45813642D01*
X99097843Y-45813639D01*
X98893645Y-45718420D01*
X98893644Y-45718419D01*
X98888663Y-45716097D01*
X98883355Y-45714675D01*
X98883353Y-45714674D01*
X98665723Y-45656361D01*
X98665722Y-45656361D01*
X98660408Y-45654937D01*
X98425000Y-45634341D01*
X98189592Y-45654937D01*
X98184278Y-45656361D01*
X98184277Y-45656361D01*
X97966647Y-45714674D01*
X97966645Y-45714675D01*
X97961337Y-45716097D01*
X97956357Y-45718419D01*
X97956355Y-45718420D01*
X97752152Y-45813642D01*
X97752149Y-45813644D01*
X97747171Y-45815965D01*
X97553599Y-45951505D01*
X97386505Y-46118599D01*
X97374480Y-46135772D01*
X97319026Y-46180099D01*
X97271269Y-46189500D01*
X90688731Y-46189500D01*
X90620610Y-46169498D01*
X90585521Y-46135773D01*
X90573495Y-46118599D01*
X90406401Y-45951505D01*
X90401893Y-45948348D01*
X90401890Y-45948346D01*
X90217339Y-45819122D01*
X90217336Y-45819120D01*
X90212830Y-45815965D01*
X90207848Y-45813642D01*
X90207843Y-45813639D01*
X90003645Y-45718420D01*
X90003644Y-45718419D01*
X89998663Y-45716097D01*
X89993355Y-45714675D01*
X89993353Y-45714674D01*
X89775723Y-45656361D01*
X89775722Y-45656361D01*
X89770408Y-45654937D01*
X89535000Y-45634341D01*
X89299592Y-45654937D01*
X89294278Y-45656361D01*
X89294277Y-45656361D01*
X89076647Y-45714674D01*
X89076645Y-45714675D01*
X89071337Y-45716097D01*
X89066357Y-45718419D01*
X89066355Y-45718420D01*
X88862152Y-45813642D01*
X88862149Y-45813644D01*
X88857171Y-45815965D01*
X88663599Y-45951505D01*
X88496505Y-46118599D01*
X88484480Y-46135772D01*
X88429026Y-46180099D01*
X88381269Y-46189500D01*
X81798731Y-46189500D01*
X81730610Y-46169498D01*
X81695521Y-46135773D01*
X81683495Y-46118599D01*
X81516401Y-45951505D01*
X81511893Y-45948348D01*
X81511890Y-45948346D01*
X81327339Y-45819122D01*
X81327336Y-45819120D01*
X81322830Y-45815965D01*
X81317848Y-45813642D01*
X81317843Y-45813639D01*
X81113645Y-45718420D01*
X81113644Y-45718419D01*
X81108663Y-45716097D01*
X81103355Y-45714675D01*
X81103353Y-45714674D01*
X80885723Y-45656361D01*
X80885722Y-45656361D01*
X80880408Y-45654937D01*
X80645000Y-45634341D01*
X80409592Y-45654937D01*
X80404278Y-45656361D01*
X80404277Y-45656361D01*
X80186647Y-45714674D01*
X80186645Y-45714675D01*
X80181337Y-45716097D01*
X80176357Y-45718419D01*
X80176355Y-45718420D01*
X79972152Y-45813642D01*
X79972149Y-45813644D01*
X79967171Y-45815965D01*
X79773599Y-45951505D01*
X79606505Y-46118599D01*
X79594480Y-46135772D01*
X79539026Y-46180099D01*
X79491269Y-46189500D01*
X72908731Y-46189500D01*
X72840610Y-46169498D01*
X72805521Y-46135773D01*
X72793495Y-46118599D01*
X72626401Y-45951505D01*
X72621893Y-45948348D01*
X72621890Y-45948346D01*
X72437339Y-45819122D01*
X72437336Y-45819120D01*
X72432830Y-45815965D01*
X72427848Y-45813642D01*
X72427843Y-45813639D01*
X72223645Y-45718420D01*
X72223644Y-45718419D01*
X72218663Y-45716097D01*
X72213355Y-45714675D01*
X72213353Y-45714674D01*
X71995723Y-45656361D01*
X71995722Y-45656361D01*
X71990408Y-45654937D01*
X71755000Y-45634341D01*
X71519592Y-45654937D01*
X71514278Y-45656361D01*
X71514277Y-45656361D01*
X71296647Y-45714674D01*
X71296645Y-45714675D01*
X71291337Y-45716097D01*
X71286357Y-45718419D01*
X71286355Y-45718420D01*
X71082152Y-45813642D01*
X71082149Y-45813644D01*
X71077171Y-45815965D01*
X70883599Y-45951505D01*
X70716505Y-46118599D01*
X70704480Y-46135772D01*
X70649026Y-46180099D01*
X70601269Y-46189500D01*
X64018731Y-46189500D01*
X63950610Y-46169498D01*
X63915521Y-46135773D01*
X63903495Y-46118599D01*
X63736401Y-45951505D01*
X63731893Y-45948348D01*
X63731890Y-45948346D01*
X63547339Y-45819122D01*
X63547336Y-45819120D01*
X63542830Y-45815965D01*
X63537848Y-45813642D01*
X63537843Y-45813639D01*
X63333645Y-45718420D01*
X63333644Y-45718419D01*
X63328663Y-45716097D01*
X63323355Y-45714675D01*
X63323353Y-45714674D01*
X63105723Y-45656361D01*
X63105722Y-45656361D01*
X63100408Y-45654937D01*
X62865000Y-45634341D01*
X62629592Y-45654937D01*
X62624278Y-45656361D01*
X62624277Y-45656361D01*
X62406647Y-45714674D01*
X62406645Y-45714675D01*
X62401337Y-45716097D01*
X62396357Y-45718419D01*
X62396355Y-45718420D01*
X62192152Y-45813642D01*
X62192149Y-45813644D01*
X62187171Y-45815965D01*
X61993599Y-45951505D01*
X61826505Y-46118599D01*
X61690965Y-46312171D01*
X61688644Y-46317149D01*
X61688642Y-46317152D01*
X61613451Y-46478399D01*
X61591097Y-46526337D01*
X61589675Y-46531645D01*
X61589674Y-46531647D01*
X61542724Y-46706868D01*
X61529937Y-46754592D01*
X61509341Y-46990000D01*
X61529937Y-47225408D01*
X61531361Y-47230722D01*
X61531361Y-47230723D01*
X61560517Y-47339534D01*
X61591097Y-47453663D01*
X61593419Y-47458643D01*
X61593420Y-47458645D01*
X61624827Y-47525996D01*
X61690965Y-47667829D01*
X61826505Y-47861401D01*
X61993599Y-48028495D01*
X61998107Y-48031652D01*
X61998110Y-48031654D01*
X62176820Y-48156788D01*
X62221148Y-48212245D01*
X62228457Y-48282865D01*
X62196426Y-48346225D01*
X62176822Y-48363211D01*
X61993599Y-48491505D01*
X61826505Y-48658599D01*
X61814480Y-48675772D01*
X61759026Y-48720099D01*
X61711269Y-48729500D01*
X59698348Y-48729500D01*
X59630227Y-48709498D01*
X59592556Y-48671941D01*
X59586839Y-48663103D01*
X59573155Y-48641951D01*
X59551442Y-48618088D01*
X59416107Y-48469358D01*
X59416105Y-48469357D01*
X59412629Y-48465536D01*
X59408578Y-48462337D01*
X59408574Y-48462333D01*
X59229500Y-48320909D01*
X59229496Y-48320907D01*
X59225445Y-48317707D01*
X59186125Y-48296001D01*
X59169682Y-48286924D01*
X59016631Y-48202436D01*
X59011762Y-48200712D01*
X59011758Y-48200710D01*
X58796663Y-48124541D01*
X58796661Y-48124540D01*
X58791794Y-48122817D01*
X58634146Y-48094735D01*
X58562060Y-48081894D01*
X58562056Y-48081894D01*
X58556972Y-48080988D01*
X58473140Y-48079964D01*
X58323640Y-48078137D01*
X58323638Y-48078137D01*
X58318471Y-48078074D01*
X58082698Y-48114153D01*
X57855982Y-48188255D01*
X57851394Y-48190643D01*
X57851390Y-48190645D01*
X57705407Y-48266639D01*
X57644414Y-48298390D01*
X57640281Y-48301493D01*
X57640278Y-48301495D01*
X57558077Y-48363214D01*
X57453675Y-48441602D01*
X57450103Y-48445340D01*
X57293482Y-48609234D01*
X57288887Y-48614042D01*
X57285973Y-48618314D01*
X57285972Y-48618315D01*
X57238953Y-48687242D01*
X57154475Y-48811082D01*
X57135402Y-48852171D01*
X57066269Y-49001107D01*
X57054051Y-49027428D01*
X56990309Y-49257272D01*
X56989760Y-49262409D01*
X56969110Y-49455640D01*
X56964963Y-49494440D01*
X56965260Y-49499592D01*
X56965260Y-49499596D01*
X56978396Y-49727403D01*
X56978397Y-49727409D01*
X56978694Y-49732562D01*
X57031131Y-49965245D01*
X57033075Y-49970032D01*
X57033076Y-49970036D01*
X57078642Y-50082251D01*
X57120867Y-50186239D01*
X57123572Y-50190654D01*
X57123573Y-50190655D01*
X57131045Y-50202848D01*
X57245493Y-50389609D01*
X57298283Y-50450552D01*
X57321083Y-50476873D01*
X57350565Y-50541458D01*
X57340450Y-50611731D01*
X57293949Y-50665379D01*
X57272228Y-50676522D01*
X57255453Y-50683163D01*
X57240620Y-50691522D01*
X57134275Y-50772243D01*
X57122243Y-50784275D01*
X57041522Y-50890620D01*
X57033165Y-50905451D01*
X56983834Y-51030047D01*
X56979881Y-51045612D01*
X56970456Y-51123502D01*
X56970000Y-51131057D01*
X56970000Y-51701885D01*
X56974475Y-51717124D01*
X56975865Y-51718329D01*
X56983548Y-51720000D01*
X59851885Y-51720000D01*
X59867124Y-51715525D01*
X59868329Y-51714135D01*
X59870000Y-51706452D01*
X59870000Y-51131057D01*
X59869544Y-51123502D01*
X59860119Y-51045612D01*
X59856166Y-51030047D01*
X59806835Y-50905451D01*
X59798478Y-50890620D01*
X59717757Y-50784275D01*
X59705725Y-50772243D01*
X59599380Y-50691522D01*
X59584549Y-50683165D01*
X59572189Y-50678271D01*
X59516215Y-50634596D01*
X59492739Y-50567593D01*
X59509215Y-50498535D01*
X59522618Y-50479457D01*
X59524735Y-50476969D01*
X59528397Y-50473320D01*
X59578050Y-50404220D01*
X59593317Y-50382974D01*
X59649312Y-50339326D01*
X59695640Y-50330500D01*
X61711269Y-50330500D01*
X61779390Y-50350502D01*
X61814479Y-50384227D01*
X61826505Y-50401401D01*
X61993599Y-50568495D01*
X61998107Y-50571652D01*
X61998110Y-50571654D01*
X62182661Y-50700878D01*
X62187170Y-50704035D01*
X62192152Y-50706358D01*
X62192157Y-50706361D01*
X62396355Y-50801580D01*
X62401337Y-50803903D01*
X62406645Y-50805325D01*
X62406647Y-50805326D01*
X62624277Y-50863639D01*
X62629592Y-50865063D01*
X62865000Y-50885659D01*
X63100408Y-50865063D01*
X63105723Y-50863639D01*
X63323353Y-50805326D01*
X63323355Y-50805325D01*
X63328663Y-50803903D01*
X63333645Y-50801580D01*
X63537843Y-50706361D01*
X63537848Y-50706358D01*
X63542830Y-50704035D01*
X63547339Y-50700878D01*
X63731890Y-50571654D01*
X63731893Y-50571652D01*
X63736401Y-50568495D01*
X63903495Y-50401401D01*
X64039035Y-50207829D01*
X64047044Y-50190655D01*
X64136580Y-49998645D01*
X64136581Y-49998643D01*
X64138903Y-49993663D01*
X64146518Y-49965245D01*
X64198639Y-49770723D01*
X64198639Y-49770722D01*
X64200063Y-49765408D01*
X64220659Y-49530000D01*
X64200063Y-49294592D01*
X64194293Y-49273058D01*
X64140326Y-49071647D01*
X64140325Y-49071645D01*
X64138903Y-49066337D01*
X64136580Y-49061355D01*
X64041358Y-48857152D01*
X64041356Y-48857149D01*
X64039035Y-48852171D01*
X63903495Y-48658599D01*
X63736401Y-48491505D01*
X63731893Y-48488348D01*
X63731890Y-48488346D01*
X63604408Y-48399082D01*
X63553181Y-48363213D01*
X63508853Y-48307756D01*
X63501544Y-48237137D01*
X63533575Y-48173776D01*
X63553181Y-48156787D01*
X63731890Y-48031654D01*
X63731893Y-48031652D01*
X63736401Y-48028495D01*
X63903495Y-47861401D01*
X63915520Y-47844228D01*
X63970974Y-47799901D01*
X64018731Y-47790500D01*
X70601269Y-47790500D01*
X70669390Y-47810502D01*
X70704479Y-47844227D01*
X70716505Y-47861401D01*
X70883599Y-48028495D01*
X70888107Y-48031652D01*
X70888110Y-48031654D01*
X71066820Y-48156788D01*
X71111148Y-48212245D01*
X71118457Y-48282865D01*
X71086426Y-48346225D01*
X71066822Y-48363211D01*
X70883599Y-48491505D01*
X70716505Y-48658599D01*
X70704480Y-48675772D01*
X70649026Y-48720099D01*
X70601269Y-48729500D01*
X68588348Y-48729500D01*
X68520227Y-48709498D01*
X68482556Y-48671941D01*
X68476839Y-48663103D01*
X68463155Y-48641951D01*
X68441442Y-48618088D01*
X68306107Y-48469358D01*
X68306105Y-48469357D01*
X68302629Y-48465536D01*
X68298578Y-48462337D01*
X68298574Y-48462333D01*
X68119500Y-48320909D01*
X68119496Y-48320907D01*
X68115445Y-48317707D01*
X68076125Y-48296001D01*
X68059682Y-48286924D01*
X67906631Y-48202436D01*
X67901762Y-48200712D01*
X67901758Y-48200710D01*
X67686663Y-48124541D01*
X67686661Y-48124540D01*
X67681794Y-48122817D01*
X67524146Y-48094735D01*
X67452060Y-48081894D01*
X67452056Y-48081894D01*
X67446972Y-48080988D01*
X67363140Y-48079964D01*
X67213640Y-48078137D01*
X67213638Y-48078137D01*
X67208471Y-48078074D01*
X66972698Y-48114153D01*
X66745982Y-48188255D01*
X66741394Y-48190643D01*
X66741390Y-48190645D01*
X66595407Y-48266639D01*
X66534414Y-48298390D01*
X66530281Y-48301493D01*
X66530278Y-48301495D01*
X66448077Y-48363214D01*
X66343675Y-48441602D01*
X66340103Y-48445340D01*
X66183482Y-48609234D01*
X66178887Y-48614042D01*
X66175973Y-48618314D01*
X66175972Y-48618315D01*
X66128953Y-48687242D01*
X66044475Y-48811082D01*
X66025402Y-48852171D01*
X65956269Y-49001107D01*
X65944051Y-49027428D01*
X65880309Y-49257272D01*
X65879760Y-49262409D01*
X65859110Y-49455640D01*
X65854963Y-49494440D01*
X65855260Y-49499592D01*
X65855260Y-49499596D01*
X65868396Y-49727403D01*
X65868397Y-49727409D01*
X65868694Y-49732562D01*
X65921131Y-49965245D01*
X65923075Y-49970032D01*
X65923076Y-49970036D01*
X65968642Y-50082251D01*
X66010867Y-50186239D01*
X66013572Y-50190654D01*
X66013573Y-50190655D01*
X66021045Y-50202848D01*
X66135493Y-50389609D01*
X66188283Y-50450552D01*
X66211083Y-50476873D01*
X66240565Y-50541458D01*
X66230450Y-50611731D01*
X66183949Y-50665379D01*
X66162228Y-50676522D01*
X66145453Y-50683163D01*
X66130620Y-50691522D01*
X66024275Y-50772243D01*
X66012243Y-50784275D01*
X65931522Y-50890620D01*
X65923165Y-50905451D01*
X65873834Y-51030047D01*
X65869881Y-51045612D01*
X65860456Y-51123502D01*
X65860000Y-51131057D01*
X65860000Y-51701885D01*
X65864475Y-51717124D01*
X65865865Y-51718329D01*
X65873548Y-51720000D01*
X68741885Y-51720000D01*
X68757124Y-51715525D01*
X68758329Y-51714135D01*
X68760000Y-51706452D01*
X68760000Y-51131057D01*
X68759544Y-51123502D01*
X68750119Y-51045612D01*
X68746166Y-51030047D01*
X68696835Y-50905451D01*
X68688478Y-50890620D01*
X68607757Y-50784275D01*
X68595725Y-50772243D01*
X68489380Y-50691522D01*
X68474549Y-50683165D01*
X68462189Y-50678271D01*
X68406215Y-50634596D01*
X68382739Y-50567593D01*
X68399215Y-50498535D01*
X68412618Y-50479457D01*
X68414735Y-50476969D01*
X68418397Y-50473320D01*
X68468050Y-50404220D01*
X68483317Y-50382974D01*
X68539312Y-50339326D01*
X68585640Y-50330500D01*
X70601269Y-50330500D01*
X70669390Y-50350502D01*
X70704479Y-50384227D01*
X70716505Y-50401401D01*
X70883599Y-50568495D01*
X70888107Y-50571652D01*
X70888110Y-50571654D01*
X71072661Y-50700878D01*
X71077170Y-50704035D01*
X71082152Y-50706358D01*
X71082157Y-50706361D01*
X71286355Y-50801580D01*
X71291337Y-50803903D01*
X71296645Y-50805325D01*
X71296647Y-50805326D01*
X71514277Y-50863639D01*
X71519592Y-50865063D01*
X71755000Y-50885659D01*
X71990408Y-50865063D01*
X71995723Y-50863639D01*
X72213353Y-50805326D01*
X72213355Y-50805325D01*
X72218663Y-50803903D01*
X72223645Y-50801580D01*
X72427843Y-50706361D01*
X72427848Y-50706358D01*
X72432830Y-50704035D01*
X72437339Y-50700878D01*
X72621890Y-50571654D01*
X72621893Y-50571652D01*
X72626401Y-50568495D01*
X72793495Y-50401401D01*
X72929035Y-50207829D01*
X72937044Y-50190655D01*
X73026580Y-49998645D01*
X73026581Y-49998643D01*
X73028903Y-49993663D01*
X73036518Y-49965245D01*
X73088639Y-49770723D01*
X73088639Y-49770722D01*
X73090063Y-49765408D01*
X73110659Y-49530000D01*
X73090063Y-49294592D01*
X73084293Y-49273058D01*
X73030326Y-49071647D01*
X73030325Y-49071645D01*
X73028903Y-49066337D01*
X73026580Y-49061355D01*
X72931358Y-48857152D01*
X72931356Y-48857149D01*
X72929035Y-48852171D01*
X72793495Y-48658599D01*
X72626401Y-48491505D01*
X72621893Y-48488348D01*
X72621890Y-48488346D01*
X72494408Y-48399082D01*
X72443181Y-48363213D01*
X72398853Y-48307756D01*
X72391544Y-48237137D01*
X72423575Y-48173776D01*
X72443181Y-48156787D01*
X72621890Y-48031654D01*
X72621893Y-48031652D01*
X72626401Y-48028495D01*
X72793495Y-47861401D01*
X72805520Y-47844228D01*
X72860974Y-47799901D01*
X72908731Y-47790500D01*
X79491269Y-47790500D01*
X79559390Y-47810502D01*
X79594479Y-47844227D01*
X79606505Y-47861401D01*
X79773599Y-48028495D01*
X79778107Y-48031652D01*
X79778110Y-48031654D01*
X79956820Y-48156788D01*
X80001148Y-48212245D01*
X80008457Y-48282865D01*
X79976426Y-48346225D01*
X79956822Y-48363211D01*
X79773599Y-48491505D01*
X79606505Y-48658599D01*
X79594480Y-48675772D01*
X79539026Y-48720099D01*
X79491269Y-48729500D01*
X77478348Y-48729500D01*
X77410227Y-48709498D01*
X77372556Y-48671941D01*
X77366839Y-48663103D01*
X77353155Y-48641951D01*
X77331442Y-48618088D01*
X77196107Y-48469358D01*
X77196105Y-48469357D01*
X77192629Y-48465536D01*
X77188578Y-48462337D01*
X77188574Y-48462333D01*
X77009500Y-48320909D01*
X77009496Y-48320907D01*
X77005445Y-48317707D01*
X76966125Y-48296001D01*
X76949682Y-48286924D01*
X76796631Y-48202436D01*
X76791762Y-48200712D01*
X76791758Y-48200710D01*
X76576663Y-48124541D01*
X76576661Y-48124540D01*
X76571794Y-48122817D01*
X76414146Y-48094735D01*
X76342060Y-48081894D01*
X76342056Y-48081894D01*
X76336972Y-48080988D01*
X76253140Y-48079964D01*
X76103640Y-48078137D01*
X76103638Y-48078137D01*
X76098471Y-48078074D01*
X75862698Y-48114153D01*
X75635982Y-48188255D01*
X75631394Y-48190643D01*
X75631390Y-48190645D01*
X75485407Y-48266639D01*
X75424414Y-48298390D01*
X75420281Y-48301493D01*
X75420278Y-48301495D01*
X75338077Y-48363214D01*
X75233675Y-48441602D01*
X75230103Y-48445340D01*
X75073482Y-48609234D01*
X75068887Y-48614042D01*
X75065973Y-48618314D01*
X75065972Y-48618315D01*
X75018953Y-48687242D01*
X74934475Y-48811082D01*
X74915402Y-48852171D01*
X74846269Y-49001107D01*
X74834051Y-49027428D01*
X74770309Y-49257272D01*
X74769760Y-49262409D01*
X74749110Y-49455640D01*
X74744963Y-49494440D01*
X74745260Y-49499592D01*
X74745260Y-49499596D01*
X74758396Y-49727403D01*
X74758397Y-49727409D01*
X74758694Y-49732562D01*
X74811131Y-49965245D01*
X74813075Y-49970032D01*
X74813076Y-49970036D01*
X74858642Y-50082251D01*
X74900867Y-50186239D01*
X74903572Y-50190654D01*
X74903573Y-50190655D01*
X74911045Y-50202848D01*
X75025493Y-50389609D01*
X75078283Y-50450552D01*
X75101083Y-50476873D01*
X75130565Y-50541458D01*
X75120450Y-50611731D01*
X75073949Y-50665379D01*
X75052228Y-50676522D01*
X75035453Y-50683163D01*
X75020620Y-50691522D01*
X74914275Y-50772243D01*
X74902243Y-50784275D01*
X74821522Y-50890620D01*
X74813165Y-50905451D01*
X74763834Y-51030047D01*
X74759881Y-51045612D01*
X74750456Y-51123502D01*
X74750000Y-51131057D01*
X74750000Y-51701885D01*
X74754475Y-51717124D01*
X74755865Y-51718329D01*
X74763548Y-51720000D01*
X77631885Y-51720000D01*
X77647124Y-51715525D01*
X77648329Y-51714135D01*
X77650000Y-51706452D01*
X77650000Y-51131057D01*
X77649544Y-51123502D01*
X77640119Y-51045612D01*
X77636166Y-51030047D01*
X77586835Y-50905451D01*
X77578478Y-50890620D01*
X77497757Y-50784275D01*
X77485725Y-50772243D01*
X77379380Y-50691522D01*
X77364549Y-50683165D01*
X77352189Y-50678271D01*
X77296215Y-50634596D01*
X77272739Y-50567593D01*
X77289215Y-50498535D01*
X77302618Y-50479457D01*
X77304735Y-50476969D01*
X77308397Y-50473320D01*
X77358050Y-50404220D01*
X77373317Y-50382974D01*
X77429312Y-50339326D01*
X77475640Y-50330500D01*
X79491269Y-50330500D01*
X79559390Y-50350502D01*
X79594479Y-50384227D01*
X79606505Y-50401401D01*
X79773599Y-50568495D01*
X79778107Y-50571652D01*
X79778110Y-50571654D01*
X79962661Y-50700878D01*
X79967170Y-50704035D01*
X79972152Y-50706358D01*
X79972157Y-50706361D01*
X80176355Y-50801580D01*
X80181337Y-50803903D01*
X80186645Y-50805325D01*
X80186647Y-50805326D01*
X80404277Y-50863639D01*
X80409592Y-50865063D01*
X80645000Y-50885659D01*
X80880408Y-50865063D01*
X80885723Y-50863639D01*
X81103353Y-50805326D01*
X81103355Y-50805325D01*
X81108663Y-50803903D01*
X81113645Y-50801580D01*
X81317843Y-50706361D01*
X81317848Y-50706358D01*
X81322830Y-50704035D01*
X81327339Y-50700878D01*
X81511890Y-50571654D01*
X81511893Y-50571652D01*
X81516401Y-50568495D01*
X81683495Y-50401401D01*
X81819035Y-50207829D01*
X81827044Y-50190655D01*
X81916580Y-49998645D01*
X81916581Y-49998643D01*
X81918903Y-49993663D01*
X81926518Y-49965245D01*
X81978639Y-49770723D01*
X81978639Y-49770722D01*
X81980063Y-49765408D01*
X82000659Y-49530000D01*
X81980063Y-49294592D01*
X81974293Y-49273058D01*
X81920326Y-49071647D01*
X81920325Y-49071645D01*
X81918903Y-49066337D01*
X81916580Y-49061355D01*
X81821358Y-48857152D01*
X81821356Y-48857149D01*
X81819035Y-48852171D01*
X81683495Y-48658599D01*
X81516401Y-48491505D01*
X81511893Y-48488348D01*
X81511890Y-48488346D01*
X81384408Y-48399082D01*
X81333181Y-48363213D01*
X81288853Y-48307756D01*
X81281544Y-48237137D01*
X81313575Y-48173776D01*
X81333181Y-48156787D01*
X81511890Y-48031654D01*
X81511893Y-48031652D01*
X81516401Y-48028495D01*
X81683495Y-47861401D01*
X81695520Y-47844228D01*
X81750974Y-47799901D01*
X81798731Y-47790500D01*
X88381269Y-47790500D01*
X88449390Y-47810502D01*
X88484479Y-47844227D01*
X88496505Y-47861401D01*
X88663599Y-48028495D01*
X88668107Y-48031652D01*
X88668110Y-48031654D01*
X88846820Y-48156788D01*
X88891148Y-48212245D01*
X88898457Y-48282865D01*
X88866426Y-48346225D01*
X88846822Y-48363211D01*
X88663599Y-48491505D01*
X88496505Y-48658599D01*
X88484480Y-48675772D01*
X88429026Y-48720099D01*
X88381269Y-48729500D01*
X86368348Y-48729500D01*
X86300227Y-48709498D01*
X86262556Y-48671941D01*
X86256839Y-48663103D01*
X86243155Y-48641951D01*
X86221442Y-48618088D01*
X86086107Y-48469358D01*
X86086105Y-48469357D01*
X86082629Y-48465536D01*
X86078578Y-48462337D01*
X86078574Y-48462333D01*
X85899500Y-48320909D01*
X85899496Y-48320907D01*
X85895445Y-48317707D01*
X85856125Y-48296001D01*
X85839682Y-48286924D01*
X85686631Y-48202436D01*
X85681762Y-48200712D01*
X85681758Y-48200710D01*
X85466663Y-48124541D01*
X85466661Y-48124540D01*
X85461794Y-48122817D01*
X85304146Y-48094735D01*
X85232060Y-48081894D01*
X85232056Y-48081894D01*
X85226972Y-48080988D01*
X85143140Y-48079964D01*
X84993640Y-48078137D01*
X84993638Y-48078137D01*
X84988471Y-48078074D01*
X84752698Y-48114153D01*
X84525982Y-48188255D01*
X84521394Y-48190643D01*
X84521390Y-48190645D01*
X84375407Y-48266639D01*
X84314414Y-48298390D01*
X84310281Y-48301493D01*
X84310278Y-48301495D01*
X84228077Y-48363214D01*
X84123675Y-48441602D01*
X84120103Y-48445340D01*
X83963482Y-48609234D01*
X83958887Y-48614042D01*
X83955973Y-48618314D01*
X83955972Y-48618315D01*
X83908953Y-48687242D01*
X83824475Y-48811082D01*
X83805402Y-48852171D01*
X83736269Y-49001107D01*
X83724051Y-49027428D01*
X83660309Y-49257272D01*
X83659760Y-49262409D01*
X83639110Y-49455640D01*
X83634963Y-49494440D01*
X83635260Y-49499592D01*
X83635260Y-49499596D01*
X83648396Y-49727403D01*
X83648397Y-49727409D01*
X83648694Y-49732562D01*
X83701131Y-49965245D01*
X83703075Y-49970032D01*
X83703076Y-49970036D01*
X83748642Y-50082251D01*
X83790867Y-50186239D01*
X83793572Y-50190654D01*
X83793573Y-50190655D01*
X83801045Y-50202848D01*
X83915493Y-50389609D01*
X83968283Y-50450552D01*
X83991083Y-50476873D01*
X84020565Y-50541458D01*
X84010450Y-50611731D01*
X83963949Y-50665379D01*
X83942228Y-50676522D01*
X83925453Y-50683163D01*
X83910620Y-50691522D01*
X83804275Y-50772243D01*
X83792243Y-50784275D01*
X83711522Y-50890620D01*
X83703165Y-50905451D01*
X83653834Y-51030047D01*
X83649881Y-51045612D01*
X83640456Y-51123502D01*
X83640000Y-51131057D01*
X83640000Y-51701885D01*
X83644475Y-51717124D01*
X83645865Y-51718329D01*
X83653548Y-51720000D01*
X86521885Y-51720000D01*
X86537124Y-51715525D01*
X86538329Y-51714135D01*
X86540000Y-51706452D01*
X86540000Y-51131057D01*
X86539544Y-51123502D01*
X86530119Y-51045612D01*
X86526166Y-51030047D01*
X86476835Y-50905451D01*
X86468478Y-50890620D01*
X86387757Y-50784275D01*
X86375725Y-50772243D01*
X86269380Y-50691522D01*
X86254549Y-50683165D01*
X86242189Y-50678271D01*
X86186215Y-50634596D01*
X86162739Y-50567593D01*
X86179215Y-50498535D01*
X86192618Y-50479457D01*
X86194735Y-50476969D01*
X86198397Y-50473320D01*
X86248050Y-50404220D01*
X86263317Y-50382974D01*
X86319312Y-50339326D01*
X86365640Y-50330500D01*
X88381269Y-50330500D01*
X88449390Y-50350502D01*
X88484479Y-50384227D01*
X88496505Y-50401401D01*
X88663599Y-50568495D01*
X88668107Y-50571652D01*
X88668110Y-50571654D01*
X88852661Y-50700878D01*
X88857170Y-50704035D01*
X88862152Y-50706358D01*
X88862157Y-50706361D01*
X89066355Y-50801580D01*
X89071337Y-50803903D01*
X89076645Y-50805325D01*
X89076647Y-50805326D01*
X89294277Y-50863639D01*
X89299592Y-50865063D01*
X89535000Y-50885659D01*
X89770408Y-50865063D01*
X89775723Y-50863639D01*
X89993353Y-50805326D01*
X89993355Y-50805325D01*
X89998663Y-50803903D01*
X90003645Y-50801580D01*
X90207843Y-50706361D01*
X90207848Y-50706358D01*
X90212830Y-50704035D01*
X90217339Y-50700878D01*
X90401890Y-50571654D01*
X90401893Y-50571652D01*
X90406401Y-50568495D01*
X90573495Y-50401401D01*
X90709035Y-50207829D01*
X90717044Y-50190655D01*
X90806580Y-49998645D01*
X90806581Y-49998643D01*
X90808903Y-49993663D01*
X90816518Y-49965245D01*
X90868639Y-49770723D01*
X90868639Y-49770722D01*
X90870063Y-49765408D01*
X90890659Y-49530000D01*
X90870063Y-49294592D01*
X90864293Y-49273058D01*
X90810326Y-49071647D01*
X90810325Y-49071645D01*
X90808903Y-49066337D01*
X90806580Y-49061355D01*
X90711358Y-48857152D01*
X90711356Y-48857149D01*
X90709035Y-48852171D01*
X90573495Y-48658599D01*
X90406401Y-48491505D01*
X90401893Y-48488348D01*
X90401890Y-48488346D01*
X90274408Y-48399082D01*
X90223181Y-48363213D01*
X90178853Y-48307756D01*
X90171544Y-48237137D01*
X90203575Y-48173776D01*
X90223181Y-48156787D01*
X90401890Y-48031654D01*
X90401893Y-48031652D01*
X90406401Y-48028495D01*
X90573495Y-47861401D01*
X90585520Y-47844228D01*
X90640974Y-47799901D01*
X90688731Y-47790500D01*
X97271269Y-47790500D01*
X97339390Y-47810502D01*
X97374479Y-47844227D01*
X97386505Y-47861401D01*
X97553599Y-48028495D01*
X97558107Y-48031652D01*
X97558110Y-48031654D01*
X97736820Y-48156788D01*
X97781148Y-48212245D01*
X97788457Y-48282865D01*
X97756426Y-48346225D01*
X97736822Y-48363211D01*
X97553599Y-48491505D01*
X97386505Y-48658599D01*
X97374480Y-48675772D01*
X97319026Y-48720099D01*
X97271269Y-48729500D01*
X95258348Y-48729500D01*
X95190227Y-48709498D01*
X95152556Y-48671941D01*
X95146839Y-48663103D01*
X95133155Y-48641951D01*
X95111442Y-48618088D01*
X94976107Y-48469358D01*
X94976105Y-48469357D01*
X94972629Y-48465536D01*
X94968578Y-48462337D01*
X94968574Y-48462333D01*
X94789500Y-48320909D01*
X94789496Y-48320907D01*
X94785445Y-48317707D01*
X94746125Y-48296001D01*
X94729682Y-48286924D01*
X94576631Y-48202436D01*
X94571762Y-48200712D01*
X94571758Y-48200710D01*
X94356663Y-48124541D01*
X94356661Y-48124540D01*
X94351794Y-48122817D01*
X94194146Y-48094735D01*
X94122060Y-48081894D01*
X94122056Y-48081894D01*
X94116972Y-48080988D01*
X94033140Y-48079964D01*
X93883640Y-48078137D01*
X93883638Y-48078137D01*
X93878471Y-48078074D01*
X93642698Y-48114153D01*
X93415982Y-48188255D01*
X93411394Y-48190643D01*
X93411390Y-48190645D01*
X93265407Y-48266639D01*
X93204414Y-48298390D01*
X93200281Y-48301493D01*
X93200278Y-48301495D01*
X93118077Y-48363214D01*
X93013675Y-48441602D01*
X93010103Y-48445340D01*
X92853482Y-48609234D01*
X92848887Y-48614042D01*
X92845973Y-48618314D01*
X92845972Y-48618315D01*
X92798953Y-48687242D01*
X92714475Y-48811082D01*
X92695402Y-48852171D01*
X92626269Y-49001107D01*
X92614051Y-49027428D01*
X92550309Y-49257272D01*
X92549760Y-49262409D01*
X92529110Y-49455640D01*
X92524963Y-49494440D01*
X92525260Y-49499592D01*
X92525260Y-49499596D01*
X92538396Y-49727403D01*
X92538397Y-49727409D01*
X92538694Y-49732562D01*
X92591131Y-49965245D01*
X92593075Y-49970032D01*
X92593076Y-49970036D01*
X92638642Y-50082251D01*
X92680867Y-50186239D01*
X92683572Y-50190654D01*
X92683573Y-50190655D01*
X92691045Y-50202848D01*
X92805493Y-50389609D01*
X92858283Y-50450552D01*
X92881083Y-50476873D01*
X92910565Y-50541458D01*
X92900450Y-50611731D01*
X92853949Y-50665379D01*
X92832228Y-50676522D01*
X92815453Y-50683163D01*
X92800620Y-50691522D01*
X92694275Y-50772243D01*
X92682243Y-50784275D01*
X92601522Y-50890620D01*
X92593165Y-50905451D01*
X92543834Y-51030047D01*
X92539881Y-51045612D01*
X92530456Y-51123502D01*
X92530000Y-51131057D01*
X92530000Y-51701885D01*
X92534475Y-51717124D01*
X92535865Y-51718329D01*
X92543548Y-51720000D01*
X95411885Y-51720000D01*
X95427124Y-51715525D01*
X95428329Y-51714135D01*
X95430000Y-51706452D01*
X95430000Y-51131057D01*
X95429544Y-51123502D01*
X95420119Y-51045612D01*
X95416166Y-51030047D01*
X95366835Y-50905451D01*
X95358478Y-50890620D01*
X95277757Y-50784275D01*
X95265725Y-50772243D01*
X95159380Y-50691522D01*
X95144549Y-50683165D01*
X95132189Y-50678271D01*
X95076215Y-50634596D01*
X95052739Y-50567593D01*
X95069215Y-50498535D01*
X95082618Y-50479457D01*
X95084735Y-50476969D01*
X95088397Y-50473320D01*
X95138050Y-50404220D01*
X95153317Y-50382974D01*
X95209312Y-50339326D01*
X95255640Y-50330500D01*
X97271269Y-50330500D01*
X97339390Y-50350502D01*
X97374479Y-50384227D01*
X97386505Y-50401401D01*
X97553599Y-50568495D01*
X97558107Y-50571652D01*
X97558110Y-50571654D01*
X97742661Y-50700878D01*
X97747170Y-50704035D01*
X97752152Y-50706358D01*
X97752157Y-50706361D01*
X97956355Y-50801580D01*
X97961337Y-50803903D01*
X97966645Y-50805325D01*
X97966647Y-50805326D01*
X98184277Y-50863639D01*
X98189592Y-50865063D01*
X98425000Y-50885659D01*
X98660408Y-50865063D01*
X98665723Y-50863639D01*
X98883353Y-50805326D01*
X98883355Y-50805325D01*
X98888663Y-50803903D01*
X98893645Y-50801580D01*
X99097843Y-50706361D01*
X99097848Y-50706358D01*
X99102830Y-50704035D01*
X99107339Y-50700878D01*
X99291890Y-50571654D01*
X99291893Y-50571652D01*
X99296401Y-50568495D01*
X99463495Y-50401401D01*
X99599035Y-50207829D01*
X99607044Y-50190655D01*
X99696580Y-49998645D01*
X99696581Y-49998643D01*
X99698903Y-49993663D01*
X99706518Y-49965245D01*
X99758639Y-49770723D01*
X99758639Y-49770722D01*
X99760063Y-49765408D01*
X99780659Y-49530000D01*
X99760063Y-49294592D01*
X99754293Y-49273058D01*
X99700326Y-49071647D01*
X99700325Y-49071645D01*
X99698903Y-49066337D01*
X99696580Y-49061355D01*
X99601358Y-48857152D01*
X99601356Y-48857149D01*
X99599035Y-48852171D01*
X99463495Y-48658599D01*
X99296401Y-48491505D01*
X99291893Y-48488348D01*
X99291890Y-48488346D01*
X99164408Y-48399082D01*
X99113181Y-48363213D01*
X99068853Y-48307756D01*
X99061544Y-48237137D01*
X99093575Y-48173776D01*
X99113181Y-48156787D01*
X99291890Y-48031654D01*
X99291893Y-48031652D01*
X99296401Y-48028495D01*
X99463495Y-47861401D01*
X99475520Y-47844228D01*
X99530974Y-47799901D01*
X99578731Y-47790500D01*
X106161269Y-47790500D01*
X106229390Y-47810502D01*
X106264479Y-47844227D01*
X106276505Y-47861401D01*
X106443599Y-48028495D01*
X106448107Y-48031652D01*
X106448110Y-48031654D01*
X106626820Y-48156788D01*
X106671148Y-48212245D01*
X106678457Y-48282865D01*
X106646426Y-48346225D01*
X106626822Y-48363211D01*
X106443599Y-48491505D01*
X106276505Y-48658599D01*
X106264480Y-48675772D01*
X106209026Y-48720099D01*
X106161269Y-48729500D01*
X104148348Y-48729500D01*
X104080227Y-48709498D01*
X104042556Y-48671941D01*
X104036839Y-48663103D01*
X104023155Y-48641951D01*
X104001442Y-48618088D01*
X103866107Y-48469358D01*
X103866105Y-48469357D01*
X103862629Y-48465536D01*
X103858578Y-48462337D01*
X103858574Y-48462333D01*
X103679500Y-48320909D01*
X103679496Y-48320907D01*
X103675445Y-48317707D01*
X103636125Y-48296001D01*
X103619682Y-48286924D01*
X103466631Y-48202436D01*
X103461762Y-48200712D01*
X103461758Y-48200710D01*
X103246663Y-48124541D01*
X103246661Y-48124540D01*
X103241794Y-48122817D01*
X103084146Y-48094735D01*
X103012060Y-48081894D01*
X103012056Y-48081894D01*
X103006972Y-48080988D01*
X102923140Y-48079964D01*
X102773640Y-48078137D01*
X102773638Y-48078137D01*
X102768471Y-48078074D01*
X102532698Y-48114153D01*
X102305982Y-48188255D01*
X102301394Y-48190643D01*
X102301390Y-48190645D01*
X102155407Y-48266639D01*
X102094414Y-48298390D01*
X102090281Y-48301493D01*
X102090278Y-48301495D01*
X102008077Y-48363214D01*
X101903675Y-48441602D01*
X101900103Y-48445340D01*
X101743482Y-48609234D01*
X101738887Y-48614042D01*
X101735973Y-48618314D01*
X101735972Y-48618315D01*
X101688953Y-48687242D01*
X101604475Y-48811082D01*
X101585402Y-48852171D01*
X101516269Y-49001107D01*
X101504051Y-49027428D01*
X101440309Y-49257272D01*
X101439760Y-49262409D01*
X101419110Y-49455640D01*
X101414963Y-49494440D01*
X101415260Y-49499592D01*
X101415260Y-49499596D01*
X101428396Y-49727403D01*
X101428397Y-49727409D01*
X101428694Y-49732562D01*
X101481131Y-49965245D01*
X101483075Y-49970032D01*
X101483076Y-49970036D01*
X101528642Y-50082251D01*
X101570867Y-50186239D01*
X101573572Y-50190654D01*
X101573573Y-50190655D01*
X101581045Y-50202848D01*
X101695493Y-50389609D01*
X101748283Y-50450552D01*
X101771083Y-50476873D01*
X101800565Y-50541458D01*
X101790450Y-50611731D01*
X101743949Y-50665379D01*
X101722228Y-50676522D01*
X101705453Y-50683163D01*
X101690620Y-50691522D01*
X101584275Y-50772243D01*
X101572243Y-50784275D01*
X101491522Y-50890620D01*
X101483165Y-50905451D01*
X101433834Y-51030047D01*
X101429881Y-51045612D01*
X101420456Y-51123502D01*
X101420000Y-51131057D01*
X101420000Y-51701885D01*
X101424475Y-51717124D01*
X101425865Y-51718329D01*
X101433548Y-51720000D01*
X104301885Y-51720000D01*
X104317124Y-51715525D01*
X104318329Y-51714135D01*
X104320000Y-51706452D01*
X104320000Y-51131057D01*
X104319544Y-51123502D01*
X104310119Y-51045612D01*
X104306166Y-51030047D01*
X104256835Y-50905451D01*
X104248478Y-50890620D01*
X104167757Y-50784275D01*
X104155725Y-50772243D01*
X104049380Y-50691522D01*
X104034549Y-50683165D01*
X104022189Y-50678271D01*
X103966215Y-50634596D01*
X103942739Y-50567593D01*
X103959215Y-50498535D01*
X103972618Y-50479457D01*
X103974735Y-50476969D01*
X103978397Y-50473320D01*
X104028050Y-50404220D01*
X104043317Y-50382974D01*
X104099312Y-50339326D01*
X104145640Y-50330500D01*
X106161269Y-50330500D01*
X106229390Y-50350502D01*
X106264479Y-50384227D01*
X106276505Y-50401401D01*
X106443599Y-50568495D01*
X106448107Y-50571652D01*
X106448110Y-50571654D01*
X106632661Y-50700878D01*
X106637170Y-50704035D01*
X106642152Y-50706358D01*
X106642157Y-50706361D01*
X106846355Y-50801580D01*
X106851337Y-50803903D01*
X106856645Y-50805325D01*
X106856647Y-50805326D01*
X107074277Y-50863639D01*
X107079592Y-50865063D01*
X107315000Y-50885659D01*
X107550408Y-50865063D01*
X107555723Y-50863639D01*
X107773353Y-50805326D01*
X107773355Y-50805325D01*
X107778663Y-50803903D01*
X107783645Y-50801580D01*
X107987843Y-50706361D01*
X107987848Y-50706358D01*
X107992830Y-50704035D01*
X107997339Y-50700878D01*
X108181890Y-50571654D01*
X108181893Y-50571652D01*
X108186401Y-50568495D01*
X108353495Y-50401401D01*
X108489035Y-50207829D01*
X108497044Y-50190655D01*
X108586580Y-49998645D01*
X108586581Y-49998643D01*
X108588903Y-49993663D01*
X108596518Y-49965245D01*
X108648639Y-49770723D01*
X108648639Y-49770722D01*
X108650063Y-49765408D01*
X108670659Y-49530000D01*
X108650063Y-49294592D01*
X108644293Y-49273058D01*
X108590326Y-49071647D01*
X108590325Y-49071645D01*
X108588903Y-49066337D01*
X108586580Y-49061355D01*
X108491358Y-48857152D01*
X108491356Y-48857149D01*
X108489035Y-48852171D01*
X108353495Y-48658599D01*
X108186401Y-48491505D01*
X108181893Y-48488348D01*
X108181890Y-48488346D01*
X108054408Y-48399082D01*
X108003181Y-48363213D01*
X107958853Y-48307756D01*
X107951544Y-48237137D01*
X107983575Y-48173776D01*
X108003181Y-48156787D01*
X108181890Y-48031654D01*
X108181893Y-48031652D01*
X108186401Y-48028495D01*
X108353495Y-47861401D01*
X108365520Y-47844228D01*
X108420974Y-47799901D01*
X108468731Y-47790500D01*
X115051269Y-47790500D01*
X115119390Y-47810502D01*
X115154479Y-47844227D01*
X115166505Y-47861401D01*
X115333599Y-48028495D01*
X115338107Y-48031652D01*
X115338110Y-48031654D01*
X115516820Y-48156788D01*
X115561148Y-48212245D01*
X115568457Y-48282865D01*
X115536426Y-48346225D01*
X115516822Y-48363211D01*
X115333599Y-48491505D01*
X115166505Y-48658599D01*
X115154480Y-48675772D01*
X115099026Y-48720099D01*
X115051269Y-48729500D01*
X113038348Y-48729500D01*
X112970227Y-48709498D01*
X112932556Y-48671941D01*
X112926839Y-48663103D01*
X112913155Y-48641951D01*
X112891442Y-48618088D01*
X112756107Y-48469358D01*
X112756105Y-48469357D01*
X112752629Y-48465536D01*
X112748578Y-48462337D01*
X112748574Y-48462333D01*
X112569500Y-48320909D01*
X112569496Y-48320907D01*
X112565445Y-48317707D01*
X112526125Y-48296001D01*
X112509682Y-48286924D01*
X112356631Y-48202436D01*
X112351762Y-48200712D01*
X112351758Y-48200710D01*
X112136663Y-48124541D01*
X112136661Y-48124540D01*
X112131794Y-48122817D01*
X111974146Y-48094735D01*
X111902060Y-48081894D01*
X111902056Y-48081894D01*
X111896972Y-48080988D01*
X111813140Y-48079964D01*
X111663640Y-48078137D01*
X111663638Y-48078137D01*
X111658471Y-48078074D01*
X111422698Y-48114153D01*
X111195982Y-48188255D01*
X111191394Y-48190643D01*
X111191390Y-48190645D01*
X111045407Y-48266639D01*
X110984414Y-48298390D01*
X110980281Y-48301493D01*
X110980278Y-48301495D01*
X110898077Y-48363214D01*
X110793675Y-48441602D01*
X110790103Y-48445340D01*
X110633482Y-48609234D01*
X110628887Y-48614042D01*
X110625973Y-48618314D01*
X110625972Y-48618315D01*
X110578953Y-48687242D01*
X110494475Y-48811082D01*
X110475402Y-48852171D01*
X110406269Y-49001107D01*
X110394051Y-49027428D01*
X110330309Y-49257272D01*
X110329760Y-49262409D01*
X110309110Y-49455640D01*
X110304963Y-49494440D01*
X110305260Y-49499592D01*
X110305260Y-49499596D01*
X110318396Y-49727403D01*
X110318397Y-49727409D01*
X110318694Y-49732562D01*
X110371131Y-49965245D01*
X110373075Y-49970032D01*
X110373076Y-49970036D01*
X110418642Y-50082251D01*
X110460867Y-50186239D01*
X110463572Y-50190654D01*
X110463573Y-50190655D01*
X110471045Y-50202848D01*
X110585493Y-50389609D01*
X110638283Y-50450552D01*
X110661083Y-50476873D01*
X110690565Y-50541458D01*
X110680450Y-50611731D01*
X110633949Y-50665379D01*
X110612228Y-50676522D01*
X110595453Y-50683163D01*
X110580620Y-50691522D01*
X110474275Y-50772243D01*
X110462243Y-50784275D01*
X110381522Y-50890620D01*
X110373165Y-50905451D01*
X110323834Y-51030047D01*
X110319881Y-51045612D01*
X110310456Y-51123502D01*
X110310000Y-51131057D01*
X110310000Y-51701885D01*
X110314475Y-51717124D01*
X110315865Y-51718329D01*
X110323548Y-51720000D01*
X113191885Y-51720000D01*
X113207124Y-51715525D01*
X113208329Y-51714135D01*
X113210000Y-51706452D01*
X113210000Y-51131057D01*
X113209544Y-51123502D01*
X113200119Y-51045612D01*
X113196166Y-51030047D01*
X113146835Y-50905451D01*
X113138478Y-50890620D01*
X113057757Y-50784275D01*
X113045725Y-50772243D01*
X112939380Y-50691522D01*
X112924549Y-50683165D01*
X112912189Y-50678271D01*
X112856215Y-50634596D01*
X112832739Y-50567593D01*
X112849215Y-50498535D01*
X112862618Y-50479457D01*
X112864735Y-50476969D01*
X112868397Y-50473320D01*
X112918050Y-50404220D01*
X112933317Y-50382974D01*
X112989312Y-50339326D01*
X113035640Y-50330500D01*
X115051269Y-50330500D01*
X115119390Y-50350502D01*
X115154479Y-50384227D01*
X115166505Y-50401401D01*
X115333599Y-50568495D01*
X115338107Y-50571652D01*
X115338110Y-50571654D01*
X115522661Y-50700878D01*
X115527170Y-50704035D01*
X115532152Y-50706358D01*
X115532157Y-50706361D01*
X115736355Y-50801580D01*
X115741337Y-50803903D01*
X115746645Y-50805325D01*
X115746647Y-50805326D01*
X115964277Y-50863639D01*
X115969592Y-50865063D01*
X116205000Y-50885659D01*
X116440408Y-50865063D01*
X116445723Y-50863639D01*
X116663353Y-50805326D01*
X116663355Y-50805325D01*
X116668663Y-50803903D01*
X116673645Y-50801580D01*
X116877843Y-50706361D01*
X116877848Y-50706358D01*
X116882830Y-50704035D01*
X116887339Y-50700878D01*
X117071890Y-50571654D01*
X117071893Y-50571652D01*
X117076401Y-50568495D01*
X117243495Y-50401401D01*
X117379035Y-50207829D01*
X117387044Y-50190655D01*
X117476580Y-49998645D01*
X117476581Y-49998643D01*
X117478903Y-49993663D01*
X117486518Y-49965245D01*
X117538639Y-49770723D01*
X117538639Y-49770722D01*
X117540063Y-49765408D01*
X117560659Y-49530000D01*
X117540063Y-49294592D01*
X117534293Y-49273058D01*
X117480326Y-49071647D01*
X117480325Y-49071645D01*
X117478903Y-49066337D01*
X117476580Y-49061355D01*
X117381358Y-48857152D01*
X117381356Y-48857149D01*
X117379035Y-48852171D01*
X117243495Y-48658599D01*
X117076401Y-48491505D01*
X117071893Y-48488348D01*
X117071890Y-48488346D01*
X116944408Y-48399082D01*
X116893181Y-48363213D01*
X116848853Y-48307756D01*
X116841544Y-48237137D01*
X116873575Y-48173776D01*
X116893181Y-48156787D01*
X117071890Y-48031654D01*
X117071893Y-48031652D01*
X117076401Y-48028495D01*
X117243495Y-47861401D01*
X117255520Y-47844228D01*
X117310974Y-47799901D01*
X117358731Y-47790500D01*
X123941269Y-47790500D01*
X124009390Y-47810502D01*
X124044479Y-47844227D01*
X124056505Y-47861401D01*
X124223599Y-48028495D01*
X124228107Y-48031652D01*
X124228110Y-48031654D01*
X124406820Y-48156788D01*
X124451148Y-48212245D01*
X124458457Y-48282865D01*
X124426426Y-48346225D01*
X124406822Y-48363211D01*
X124223599Y-48491505D01*
X124056505Y-48658599D01*
X124044480Y-48675772D01*
X123989026Y-48720099D01*
X123941269Y-48729500D01*
X121928348Y-48729500D01*
X121860227Y-48709498D01*
X121822556Y-48671941D01*
X121816839Y-48663103D01*
X121803155Y-48641951D01*
X121781442Y-48618088D01*
X121646107Y-48469358D01*
X121646105Y-48469357D01*
X121642629Y-48465536D01*
X121638578Y-48462337D01*
X121638574Y-48462333D01*
X121459500Y-48320909D01*
X121459496Y-48320907D01*
X121455445Y-48317707D01*
X121416125Y-48296001D01*
X121399682Y-48286924D01*
X121246631Y-48202436D01*
X121241762Y-48200712D01*
X121241758Y-48200710D01*
X121026663Y-48124541D01*
X121026661Y-48124540D01*
X121021794Y-48122817D01*
X120864146Y-48094735D01*
X120792060Y-48081894D01*
X120792056Y-48081894D01*
X120786972Y-48080988D01*
X120703140Y-48079964D01*
X120553640Y-48078137D01*
X120553638Y-48078137D01*
X120548471Y-48078074D01*
X120312698Y-48114153D01*
X120085982Y-48188255D01*
X120081394Y-48190643D01*
X120081390Y-48190645D01*
X119935407Y-48266639D01*
X119874414Y-48298390D01*
X119870281Y-48301493D01*
X119870278Y-48301495D01*
X119788077Y-48363214D01*
X119683675Y-48441602D01*
X119680103Y-48445340D01*
X119523482Y-48609234D01*
X119518887Y-48614042D01*
X119515973Y-48618314D01*
X119515972Y-48618315D01*
X119468953Y-48687242D01*
X119384475Y-48811082D01*
X119365402Y-48852171D01*
X119296269Y-49001107D01*
X119284051Y-49027428D01*
X119220309Y-49257272D01*
X119219760Y-49262409D01*
X119199110Y-49455640D01*
X119194963Y-49494440D01*
X119195260Y-49499592D01*
X119195260Y-49499596D01*
X119208396Y-49727403D01*
X119208397Y-49727409D01*
X119208694Y-49732562D01*
X119261131Y-49965245D01*
X119263075Y-49970032D01*
X119263076Y-49970036D01*
X119308642Y-50082251D01*
X119350867Y-50186239D01*
X119353572Y-50190654D01*
X119353573Y-50190655D01*
X119361045Y-50202848D01*
X119475493Y-50389609D01*
X119528283Y-50450552D01*
X119551083Y-50476873D01*
X119580565Y-50541458D01*
X119570450Y-50611731D01*
X119523949Y-50665379D01*
X119502228Y-50676522D01*
X119485453Y-50683163D01*
X119470620Y-50691522D01*
X119364275Y-50772243D01*
X119352243Y-50784275D01*
X119271522Y-50890620D01*
X119263165Y-50905451D01*
X119213834Y-51030047D01*
X119209881Y-51045612D01*
X119200456Y-51123502D01*
X119200000Y-51131057D01*
X119200000Y-51701885D01*
X119204475Y-51717124D01*
X119205865Y-51718329D01*
X119213548Y-51720000D01*
X122081885Y-51720000D01*
X122097124Y-51715525D01*
X122098329Y-51714135D01*
X122100000Y-51706452D01*
X122100000Y-51131057D01*
X122099544Y-51123502D01*
X122090119Y-51045612D01*
X122086166Y-51030047D01*
X122036835Y-50905451D01*
X122028478Y-50890620D01*
X121947757Y-50784275D01*
X121935725Y-50772243D01*
X121829380Y-50691522D01*
X121814549Y-50683165D01*
X121802189Y-50678271D01*
X121746215Y-50634596D01*
X121722739Y-50567593D01*
X121739215Y-50498535D01*
X121752618Y-50479457D01*
X121754735Y-50476969D01*
X121758397Y-50473320D01*
X121808050Y-50404220D01*
X121823317Y-50382974D01*
X121879312Y-50339326D01*
X121925640Y-50330500D01*
X123941269Y-50330500D01*
X124009390Y-50350502D01*
X124044479Y-50384227D01*
X124056505Y-50401401D01*
X124223599Y-50568495D01*
X124228107Y-50571652D01*
X124228110Y-50571654D01*
X124412661Y-50700878D01*
X124417170Y-50704035D01*
X124422152Y-50706358D01*
X124422157Y-50706361D01*
X124626355Y-50801580D01*
X124631337Y-50803903D01*
X124636645Y-50805325D01*
X124636647Y-50805326D01*
X124854277Y-50863639D01*
X124859592Y-50865063D01*
X125095000Y-50885659D01*
X125330408Y-50865063D01*
X125335723Y-50863639D01*
X125553353Y-50805326D01*
X125553355Y-50805325D01*
X125558663Y-50803903D01*
X125563645Y-50801580D01*
X125767843Y-50706361D01*
X125767848Y-50706358D01*
X125772830Y-50704035D01*
X125777339Y-50700878D01*
X125961890Y-50571654D01*
X125961893Y-50571652D01*
X125966401Y-50568495D01*
X126133495Y-50401401D01*
X126269035Y-50207829D01*
X126277044Y-50190655D01*
X126366580Y-49998645D01*
X126366581Y-49998643D01*
X126368903Y-49993663D01*
X126376518Y-49965245D01*
X126428639Y-49770723D01*
X126428639Y-49770722D01*
X126430063Y-49765408D01*
X126450659Y-49530000D01*
X126430063Y-49294592D01*
X126424293Y-49273058D01*
X126370326Y-49071647D01*
X126370325Y-49071645D01*
X126368903Y-49066337D01*
X126366580Y-49061355D01*
X126271358Y-48857152D01*
X126271356Y-48857149D01*
X126269035Y-48852171D01*
X126133495Y-48658599D01*
X125966401Y-48491505D01*
X125961893Y-48488348D01*
X125961890Y-48488346D01*
X125834408Y-48399082D01*
X125783181Y-48363213D01*
X125738853Y-48307756D01*
X125731544Y-48237137D01*
X125763575Y-48173776D01*
X125783181Y-48156787D01*
X125961890Y-48031654D01*
X125961893Y-48031652D01*
X125966401Y-48028495D01*
X126133495Y-47861401D01*
X126145520Y-47844228D01*
X126200974Y-47799901D01*
X126248731Y-47790500D01*
X132831269Y-47790500D01*
X132899390Y-47810502D01*
X132934479Y-47844227D01*
X132946505Y-47861401D01*
X133113599Y-48028495D01*
X133118107Y-48031652D01*
X133118110Y-48031654D01*
X133296820Y-48156788D01*
X133341148Y-48212245D01*
X133348457Y-48282865D01*
X133316426Y-48346225D01*
X133296822Y-48363211D01*
X133113599Y-48491505D01*
X132946505Y-48658599D01*
X132934480Y-48675772D01*
X132879026Y-48720099D01*
X132831269Y-48729500D01*
X130818348Y-48729500D01*
X130750227Y-48709498D01*
X130712556Y-48671941D01*
X130706839Y-48663103D01*
X130693155Y-48641951D01*
X130671442Y-48618088D01*
X130536107Y-48469358D01*
X130536105Y-48469357D01*
X130532629Y-48465536D01*
X130528578Y-48462337D01*
X130528574Y-48462333D01*
X130349500Y-48320909D01*
X130349496Y-48320907D01*
X130345445Y-48317707D01*
X130306125Y-48296001D01*
X130289682Y-48286924D01*
X130136631Y-48202436D01*
X130131762Y-48200712D01*
X130131758Y-48200710D01*
X129916663Y-48124541D01*
X129916661Y-48124540D01*
X129911794Y-48122817D01*
X129754146Y-48094735D01*
X129682060Y-48081894D01*
X129682056Y-48081894D01*
X129676972Y-48080988D01*
X129593140Y-48079964D01*
X129443640Y-48078137D01*
X129443638Y-48078137D01*
X129438471Y-48078074D01*
X129202698Y-48114153D01*
X128975982Y-48188255D01*
X128971394Y-48190643D01*
X128971390Y-48190645D01*
X128825407Y-48266639D01*
X128764414Y-48298390D01*
X128760281Y-48301493D01*
X128760278Y-48301495D01*
X128678077Y-48363214D01*
X128573675Y-48441602D01*
X128570103Y-48445340D01*
X128413482Y-48609234D01*
X128408887Y-48614042D01*
X128405973Y-48618314D01*
X128405972Y-48618315D01*
X128358953Y-48687242D01*
X128274475Y-48811082D01*
X128255402Y-48852171D01*
X128186269Y-49001107D01*
X128174051Y-49027428D01*
X128110309Y-49257272D01*
X128109760Y-49262409D01*
X128089110Y-49455640D01*
X128084963Y-49494440D01*
X128085260Y-49499592D01*
X128085260Y-49499596D01*
X128098396Y-49727403D01*
X128098397Y-49727409D01*
X128098694Y-49732562D01*
X128151131Y-49965245D01*
X128153075Y-49970032D01*
X128153076Y-49970036D01*
X128198642Y-50082251D01*
X128240867Y-50186239D01*
X128243572Y-50190654D01*
X128243573Y-50190655D01*
X128251045Y-50202848D01*
X128365493Y-50389609D01*
X128418283Y-50450552D01*
X128441083Y-50476873D01*
X128470565Y-50541458D01*
X128460450Y-50611731D01*
X128413949Y-50665379D01*
X128392228Y-50676522D01*
X128375453Y-50683163D01*
X128360620Y-50691522D01*
X128254275Y-50772243D01*
X128242243Y-50784275D01*
X128161522Y-50890620D01*
X128153165Y-50905451D01*
X128103834Y-51030047D01*
X128099881Y-51045612D01*
X128090456Y-51123502D01*
X128090000Y-51131057D01*
X128090000Y-51701885D01*
X128094475Y-51717124D01*
X128095865Y-51718329D01*
X128103548Y-51720000D01*
X130971885Y-51720000D01*
X130987124Y-51715525D01*
X130988329Y-51714135D01*
X130990000Y-51706452D01*
X130990000Y-51131057D01*
X130989544Y-51123502D01*
X130980119Y-51045612D01*
X130976166Y-51030047D01*
X130926835Y-50905451D01*
X130918478Y-50890620D01*
X130837757Y-50784275D01*
X130825725Y-50772243D01*
X130719380Y-50691522D01*
X130704549Y-50683165D01*
X130692189Y-50678271D01*
X130636215Y-50634596D01*
X130612739Y-50567593D01*
X130629215Y-50498535D01*
X130642618Y-50479457D01*
X130644735Y-50476969D01*
X130648397Y-50473320D01*
X130698050Y-50404220D01*
X130713317Y-50382974D01*
X130769312Y-50339326D01*
X130815640Y-50330500D01*
X132831269Y-50330500D01*
X132899390Y-50350502D01*
X132934479Y-50384227D01*
X132946505Y-50401401D01*
X133113599Y-50568495D01*
X133118107Y-50571652D01*
X133118110Y-50571654D01*
X133302661Y-50700878D01*
X133307170Y-50704035D01*
X133312152Y-50706358D01*
X133312157Y-50706361D01*
X133516355Y-50801580D01*
X133521337Y-50803903D01*
X133526645Y-50805325D01*
X133526647Y-50805326D01*
X133744277Y-50863639D01*
X133749592Y-50865063D01*
X133985000Y-50885659D01*
X134220408Y-50865063D01*
X134225723Y-50863639D01*
X134443353Y-50805326D01*
X134443355Y-50805325D01*
X134448663Y-50803903D01*
X134453645Y-50801580D01*
X134657843Y-50706361D01*
X134657848Y-50706358D01*
X134662830Y-50704035D01*
X134667339Y-50700878D01*
X134851890Y-50571654D01*
X134851893Y-50571652D01*
X134856401Y-50568495D01*
X135023495Y-50401401D01*
X135159035Y-50207829D01*
X135167044Y-50190655D01*
X135256580Y-49998645D01*
X135256581Y-49998643D01*
X135258903Y-49993663D01*
X135266518Y-49965245D01*
X135318639Y-49770723D01*
X135318639Y-49770722D01*
X135320063Y-49765408D01*
X135340659Y-49530000D01*
X135320063Y-49294592D01*
X135314293Y-49273058D01*
X135260326Y-49071647D01*
X135260325Y-49071645D01*
X135258903Y-49066337D01*
X135256580Y-49061355D01*
X135161358Y-48857152D01*
X135161356Y-48857149D01*
X135159035Y-48852171D01*
X135023495Y-48658599D01*
X134856401Y-48491505D01*
X134851893Y-48488348D01*
X134851890Y-48488346D01*
X134724408Y-48399082D01*
X134673181Y-48363213D01*
X134628853Y-48307756D01*
X134621544Y-48237137D01*
X134653575Y-48173776D01*
X134673181Y-48156787D01*
X134851890Y-48031654D01*
X134851893Y-48031652D01*
X134856401Y-48028495D01*
X135023495Y-47861401D01*
X135035520Y-47844228D01*
X135090974Y-47799901D01*
X135138731Y-47790500D01*
X141721269Y-47790500D01*
X141789390Y-47810502D01*
X141824479Y-47844227D01*
X141836505Y-47861401D01*
X142003599Y-48028495D01*
X142008107Y-48031652D01*
X142008110Y-48031654D01*
X142186820Y-48156788D01*
X142231148Y-48212245D01*
X142238457Y-48282865D01*
X142206426Y-48346225D01*
X142186822Y-48363211D01*
X142003599Y-48491505D01*
X141836505Y-48658599D01*
X141824480Y-48675772D01*
X141769026Y-48720099D01*
X141721269Y-48729500D01*
X139708348Y-48729500D01*
X139640227Y-48709498D01*
X139602556Y-48671941D01*
X139596839Y-48663103D01*
X139583155Y-48641951D01*
X139561442Y-48618088D01*
X139426107Y-48469358D01*
X139426105Y-48469357D01*
X139422629Y-48465536D01*
X139418578Y-48462337D01*
X139418574Y-48462333D01*
X139239500Y-48320909D01*
X139239496Y-48320907D01*
X139235445Y-48317707D01*
X139196125Y-48296001D01*
X139179682Y-48286924D01*
X139026631Y-48202436D01*
X139021762Y-48200712D01*
X139021758Y-48200710D01*
X138806663Y-48124541D01*
X138806661Y-48124540D01*
X138801794Y-48122817D01*
X138644146Y-48094735D01*
X138572060Y-48081894D01*
X138572056Y-48081894D01*
X138566972Y-48080988D01*
X138483140Y-48079964D01*
X138333640Y-48078137D01*
X138333638Y-48078137D01*
X138328471Y-48078074D01*
X138092698Y-48114153D01*
X137865982Y-48188255D01*
X137861394Y-48190643D01*
X137861390Y-48190645D01*
X137715407Y-48266639D01*
X137654414Y-48298390D01*
X137650281Y-48301493D01*
X137650278Y-48301495D01*
X137568077Y-48363214D01*
X137463675Y-48441602D01*
X137460103Y-48445340D01*
X137303482Y-48609234D01*
X137298887Y-48614042D01*
X137295973Y-48618314D01*
X137295972Y-48618315D01*
X137248953Y-48687242D01*
X137164475Y-48811082D01*
X137145402Y-48852171D01*
X137076269Y-49001107D01*
X137064051Y-49027428D01*
X137000309Y-49257272D01*
X136999760Y-49262409D01*
X136979110Y-49455640D01*
X136974963Y-49494440D01*
X136975260Y-49499592D01*
X136975260Y-49499596D01*
X136988396Y-49727403D01*
X136988397Y-49727409D01*
X136988694Y-49732562D01*
X137041131Y-49965245D01*
X137043075Y-49970032D01*
X137043076Y-49970036D01*
X137088642Y-50082251D01*
X137130867Y-50186239D01*
X137133572Y-50190654D01*
X137133573Y-50190655D01*
X137141045Y-50202848D01*
X137255493Y-50389609D01*
X137308283Y-50450552D01*
X137331083Y-50476873D01*
X137360565Y-50541458D01*
X137350450Y-50611731D01*
X137303949Y-50665379D01*
X137282228Y-50676522D01*
X137265453Y-50683163D01*
X137250620Y-50691522D01*
X137144275Y-50772243D01*
X137132243Y-50784275D01*
X137051522Y-50890620D01*
X137043165Y-50905451D01*
X136993834Y-51030047D01*
X136989881Y-51045612D01*
X136980456Y-51123502D01*
X136980000Y-51131057D01*
X136980000Y-51701885D01*
X136984475Y-51717124D01*
X136985865Y-51718329D01*
X136993548Y-51720000D01*
X139861885Y-51720000D01*
X139877124Y-51715525D01*
X139878329Y-51714135D01*
X139880000Y-51706452D01*
X139880000Y-51131057D01*
X139879544Y-51123502D01*
X139870119Y-51045612D01*
X139866166Y-51030047D01*
X139816835Y-50905451D01*
X139808478Y-50890620D01*
X139727757Y-50784275D01*
X139715725Y-50772243D01*
X139609380Y-50691522D01*
X139594549Y-50683165D01*
X139582189Y-50678271D01*
X139526215Y-50634596D01*
X139502739Y-50567593D01*
X139519215Y-50498535D01*
X139532618Y-50479457D01*
X139534735Y-50476969D01*
X139538397Y-50473320D01*
X139588050Y-50404220D01*
X139603317Y-50382974D01*
X139659312Y-50339326D01*
X139705640Y-50330500D01*
X141721269Y-50330500D01*
X141789390Y-50350502D01*
X141824479Y-50384227D01*
X141836505Y-50401401D01*
X142003599Y-50568495D01*
X142008107Y-50571652D01*
X142008110Y-50571654D01*
X142192661Y-50700878D01*
X142197170Y-50704035D01*
X142202152Y-50706358D01*
X142202157Y-50706361D01*
X142406355Y-50801580D01*
X142411337Y-50803903D01*
X142416645Y-50805325D01*
X142416647Y-50805326D01*
X142634277Y-50863639D01*
X142639592Y-50865063D01*
X142875000Y-50885659D01*
X143110408Y-50865063D01*
X143115723Y-50863639D01*
X143333353Y-50805326D01*
X143333355Y-50805325D01*
X143338663Y-50803903D01*
X143343645Y-50801580D01*
X143547843Y-50706361D01*
X143547848Y-50706358D01*
X143552830Y-50704035D01*
X143557339Y-50700878D01*
X143741890Y-50571654D01*
X143741893Y-50571652D01*
X143746401Y-50568495D01*
X143913495Y-50401401D01*
X144049035Y-50207829D01*
X144057044Y-50190655D01*
X144146580Y-49998645D01*
X144146581Y-49998643D01*
X144148903Y-49993663D01*
X144156518Y-49965245D01*
X144208639Y-49770723D01*
X144208639Y-49770722D01*
X144210063Y-49765408D01*
X144230659Y-49530000D01*
X144210063Y-49294592D01*
X144204293Y-49273058D01*
X144150326Y-49071647D01*
X144150325Y-49071645D01*
X144148903Y-49066337D01*
X144146580Y-49061355D01*
X144051358Y-48857152D01*
X144051356Y-48857149D01*
X144049035Y-48852171D01*
X143913495Y-48658599D01*
X143746401Y-48491505D01*
X143741893Y-48488348D01*
X143741890Y-48488346D01*
X143614408Y-48399082D01*
X143563181Y-48363213D01*
X143518853Y-48307756D01*
X143511544Y-48237137D01*
X143543575Y-48173776D01*
X143563181Y-48156787D01*
X143741890Y-48031654D01*
X143741893Y-48031652D01*
X143746401Y-48028495D01*
X143913495Y-47861401D01*
X143925520Y-47844228D01*
X143980974Y-47799901D01*
X144028731Y-47790500D01*
X145546232Y-47790500D01*
X145614353Y-47810502D01*
X145635327Y-47827405D01*
X146357481Y-48549559D01*
X146358410Y-48550497D01*
X146420859Y-48614268D01*
X146426779Y-48618083D01*
X146426785Y-48618088D01*
X146456891Y-48637490D01*
X146467245Y-48644930D01*
X146477060Y-48652765D01*
X146500734Y-48671664D01*
X146507072Y-48674728D01*
X146507077Y-48674731D01*
X146530553Y-48686079D01*
X146543973Y-48693610D01*
X146565891Y-48707736D01*
X146565899Y-48707740D01*
X146571817Y-48711554D01*
X146578437Y-48713964D01*
X146578438Y-48713964D01*
X146612088Y-48726212D01*
X146623832Y-48731173D01*
X146656081Y-48746763D01*
X146656087Y-48746765D01*
X146662423Y-48749828D01*
X146669278Y-48751411D01*
X146669282Y-48751412D01*
X146694710Y-48757282D01*
X146709460Y-48761652D01*
X146733955Y-48770568D01*
X146733960Y-48770569D01*
X146740578Y-48772978D01*
X146783112Y-48778351D01*
X146795628Y-48780581D01*
X146837411Y-48790227D01*
X146844449Y-48790251D01*
X146844454Y-48790252D01*
X146877593Y-48790367D01*
X146878460Y-48790396D01*
X146879283Y-48790500D01*
X146915579Y-48790500D01*
X146916018Y-48790501D01*
X147013509Y-48790841D01*
X147013512Y-48790841D01*
X147017001Y-48790853D01*
X147018189Y-48790587D01*
X147019802Y-48790500D01*
X150216232Y-48790500D01*
X150284353Y-48810502D01*
X150305327Y-48827405D01*
X151912595Y-50434673D01*
X151946621Y-50496985D01*
X151949500Y-50523768D01*
X151949500Y-55006232D01*
X151929498Y-55074353D01*
X151912595Y-55095327D01*
X151830981Y-55176941D01*
X151768669Y-55210967D01*
X151697854Y-55205902D01*
X151641018Y-55163355D01*
X151616286Y-55097873D01*
X151615552Y-55088676D01*
X151605442Y-55085000D01*
X150228115Y-55085000D01*
X150212876Y-55089475D01*
X150211671Y-55090865D01*
X150210000Y-55098548D01*
X150210000Y-56263882D01*
X150214334Y-56278644D01*
X150226057Y-56280705D01*
X150353580Y-56270445D01*
X150363533Y-56268833D01*
X150423116Y-56254198D01*
X150494042Y-56257374D01*
X150551991Y-56298391D01*
X150578566Y-56364226D01*
X150565328Y-56433978D01*
X150542266Y-56465656D01*
X149300441Y-57707481D01*
X149299503Y-57708410D01*
X149235732Y-57770859D01*
X149231917Y-57776779D01*
X149231912Y-57776785D01*
X149212510Y-57806891D01*
X149205070Y-57817245D01*
X149178336Y-57850734D01*
X149169702Y-57868594D01*
X149163918Y-57880559D01*
X149156389Y-57893974D01*
X149138446Y-57921817D01*
X149136036Y-57928437D01*
X149136036Y-57928438D01*
X149123788Y-57962089D01*
X149118828Y-57973831D01*
X149100173Y-58012422D01*
X149098590Y-58019277D01*
X149098589Y-58019281D01*
X149092722Y-58044696D01*
X149088352Y-58059446D01*
X149079432Y-58083955D01*
X149079431Y-58083959D01*
X149077022Y-58090578D01*
X149071648Y-58133118D01*
X149069418Y-58145637D01*
X149059774Y-58187411D01*
X149059749Y-58194452D01*
X149059749Y-58194455D01*
X149059633Y-58227582D01*
X149059604Y-58228455D01*
X149059500Y-58229283D01*
X149059500Y-58265738D01*
X149059499Y-58266178D01*
X149059168Y-58361079D01*
X149059147Y-58367000D01*
X149059413Y-58368188D01*
X149059500Y-58369800D01*
X149059500Y-58476664D01*
X149039498Y-58544785D01*
X149009153Y-58577424D01*
X148931125Y-58636009D01*
X148931119Y-58636015D01*
X148926984Y-58639119D01*
X148767877Y-58805616D01*
X148764963Y-58809888D01*
X148764962Y-58809889D01*
X148748171Y-58834504D01*
X148693260Y-58879507D01*
X148644083Y-58889500D01*
X146568731Y-58889500D01*
X146500610Y-58869498D01*
X146465521Y-58835773D01*
X146453495Y-58818599D01*
X146286401Y-58651505D01*
X146281893Y-58648348D01*
X146281890Y-58648346D01*
X146154408Y-58559082D01*
X146103181Y-58523213D01*
X146058853Y-58467756D01*
X146051544Y-58397137D01*
X146083575Y-58333776D01*
X146103181Y-58316787D01*
X146138614Y-58291977D01*
X146228150Y-58229283D01*
X146281890Y-58191654D01*
X146281893Y-58191652D01*
X146286401Y-58188495D01*
X146453495Y-58021401D01*
X146589035Y-57827829D01*
X146593971Y-57817245D01*
X146686580Y-57618645D01*
X146686581Y-57618643D01*
X146688903Y-57613663D01*
X146690750Y-57606772D01*
X146748639Y-57390723D01*
X146748639Y-57390722D01*
X146750063Y-57385408D01*
X146770659Y-57150000D01*
X146750063Y-56914592D01*
X146688903Y-56686337D01*
X146670759Y-56647428D01*
X146591358Y-56477152D01*
X146591356Y-56477149D01*
X146589035Y-56472171D01*
X146453495Y-56278599D01*
X146286401Y-56111505D01*
X146281893Y-56108348D01*
X146281890Y-56108346D01*
X146097339Y-55979122D01*
X146097336Y-55979120D01*
X146092830Y-55975965D01*
X146087848Y-55973642D01*
X146087843Y-55973639D01*
X145883645Y-55878420D01*
X145883644Y-55878419D01*
X145878663Y-55876097D01*
X145873355Y-55874675D01*
X145873353Y-55874674D01*
X145655723Y-55816361D01*
X145655722Y-55816361D01*
X145650408Y-55814937D01*
X145415000Y-55794341D01*
X145179592Y-55814937D01*
X145174278Y-55816361D01*
X145174277Y-55816361D01*
X144956647Y-55874674D01*
X144956645Y-55874675D01*
X144951337Y-55876097D01*
X144946357Y-55878419D01*
X144946355Y-55878420D01*
X144742152Y-55973642D01*
X144742149Y-55973644D01*
X144737171Y-55975965D01*
X144543599Y-56111505D01*
X144376505Y-56278599D01*
X144364480Y-56295772D01*
X144309026Y-56340099D01*
X144261269Y-56349500D01*
X142248348Y-56349500D01*
X142180227Y-56329498D01*
X142142556Y-56291941D01*
X142137305Y-56283823D01*
X142123155Y-56261951D01*
X142071522Y-56205207D01*
X142040470Y-56141362D01*
X142048866Y-56070863D01*
X142094043Y-56016095D01*
X142118332Y-56003256D01*
X142134549Y-55996835D01*
X142149380Y-55988478D01*
X142255725Y-55907757D01*
X142267757Y-55895725D01*
X142348478Y-55789380D01*
X142356835Y-55774549D01*
X142406166Y-55649953D01*
X142410119Y-55634388D01*
X142419544Y-55556498D01*
X142420000Y-55548943D01*
X142420000Y-55097081D01*
X148101562Y-55097081D01*
X148151110Y-55272182D01*
X148154622Y-55281626D01*
X148255761Y-55498518D01*
X148260740Y-55507284D01*
X148395248Y-55705205D01*
X148401580Y-55713080D01*
X148565991Y-55886940D01*
X148573500Y-55893701D01*
X148763600Y-56039044D01*
X148772079Y-56044508D01*
X148982979Y-56157591D01*
X148992225Y-56161630D01*
X149218495Y-56239541D01*
X149228261Y-56242049D01*
X149465156Y-56282968D01*
X149473022Y-56283823D01*
X149492830Y-56284722D01*
X149507124Y-56280525D01*
X149508329Y-56279135D01*
X149510000Y-56271452D01*
X149510000Y-55103115D01*
X149505525Y-55087876D01*
X149504135Y-55086671D01*
X149496452Y-55085000D01*
X148116258Y-55085000D01*
X148102727Y-55088973D01*
X148101562Y-55097081D01*
X142420000Y-55097081D01*
X142420000Y-54978115D01*
X142415525Y-54962876D01*
X142414135Y-54961671D01*
X142406452Y-54960000D01*
X139538115Y-54960000D01*
X139522876Y-54964475D01*
X139521671Y-54965865D01*
X139520000Y-54973548D01*
X139520000Y-55548943D01*
X139520456Y-55556498D01*
X139529881Y-55634388D01*
X139533834Y-55649953D01*
X139583165Y-55774549D01*
X139591522Y-55789380D01*
X139672243Y-55895725D01*
X139684275Y-55907757D01*
X139790620Y-55988478D01*
X139805453Y-55996837D01*
X139820152Y-56002656D01*
X139876126Y-56046330D01*
X139899602Y-56113332D01*
X139883128Y-56182391D01*
X139864864Y-56206858D01*
X139842459Y-56230304D01*
X139838887Y-56234042D01*
X139835973Y-56238314D01*
X139835972Y-56238315D01*
X139786583Y-56310716D01*
X139704475Y-56431082D01*
X139685402Y-56472171D01*
X139650667Y-56547003D01*
X139604051Y-56647428D01*
X139540309Y-56877272D01*
X139514963Y-57114440D01*
X139515260Y-57119592D01*
X139515260Y-57119596D01*
X139528396Y-57347403D01*
X139528397Y-57347409D01*
X139528694Y-57352562D01*
X139581131Y-57585245D01*
X139583075Y-57590032D01*
X139583076Y-57590036D01*
X139617681Y-57675257D01*
X139670867Y-57806239D01*
X139673572Y-57810654D01*
X139673573Y-57810655D01*
X139681045Y-57822848D01*
X139795493Y-58009609D01*
X139951660Y-58189894D01*
X140135176Y-58342252D01*
X140341112Y-58462591D01*
X140345937Y-58464433D01*
X140345938Y-58464434D01*
X140377965Y-58476664D01*
X140563937Y-58547680D01*
X140569005Y-58548711D01*
X140569008Y-58548712D01*
X140626344Y-58560377D01*
X140797666Y-58595233D01*
X140802839Y-58595423D01*
X140802842Y-58595423D01*
X141030861Y-58603784D01*
X141030865Y-58603784D01*
X141036025Y-58603973D01*
X141041146Y-58603317D01*
X141267489Y-58574321D01*
X141267490Y-58574321D01*
X141272609Y-58573665D01*
X141501068Y-58505125D01*
X141715264Y-58400191D01*
X141759583Y-58368579D01*
X141905242Y-58264681D01*
X141909445Y-58261683D01*
X141941959Y-58229283D01*
X142047088Y-58124520D01*
X142078397Y-58093320D01*
X142081413Y-58089123D01*
X142143317Y-58002974D01*
X142199312Y-57959326D01*
X142245640Y-57950500D01*
X144261269Y-57950500D01*
X144329390Y-57970502D01*
X144364479Y-58004227D01*
X144376505Y-58021401D01*
X144543599Y-58188495D01*
X144548107Y-58191652D01*
X144548110Y-58191654D01*
X144726820Y-58316788D01*
X144771148Y-58372245D01*
X144778457Y-58442865D01*
X144746426Y-58506225D01*
X144726822Y-58523211D01*
X144543599Y-58651505D01*
X144376505Y-58818599D01*
X144364480Y-58835772D01*
X144309026Y-58880099D01*
X144261269Y-58889500D01*
X137678731Y-58889500D01*
X137610610Y-58869498D01*
X137575521Y-58835773D01*
X137563495Y-58818599D01*
X137396401Y-58651505D01*
X137391893Y-58648348D01*
X137391890Y-58648346D01*
X137264408Y-58559082D01*
X137213181Y-58523213D01*
X137168853Y-58467756D01*
X137161544Y-58397137D01*
X137193575Y-58333776D01*
X137213181Y-58316787D01*
X137248614Y-58291977D01*
X137338150Y-58229283D01*
X137391890Y-58191654D01*
X137391893Y-58191652D01*
X137396401Y-58188495D01*
X137563495Y-58021401D01*
X137699035Y-57827829D01*
X137703971Y-57817245D01*
X137796580Y-57618645D01*
X137796581Y-57618643D01*
X137798903Y-57613663D01*
X137800750Y-57606772D01*
X137858639Y-57390723D01*
X137858639Y-57390722D01*
X137860063Y-57385408D01*
X137880659Y-57150000D01*
X137860063Y-56914592D01*
X137798903Y-56686337D01*
X137780759Y-56647428D01*
X137701358Y-56477152D01*
X137701356Y-56477149D01*
X137699035Y-56472171D01*
X137563495Y-56278599D01*
X137396401Y-56111505D01*
X137391893Y-56108348D01*
X137391890Y-56108346D01*
X137207339Y-55979122D01*
X137207336Y-55979120D01*
X137202830Y-55975965D01*
X137197848Y-55973642D01*
X137197843Y-55973639D01*
X136993645Y-55878420D01*
X136993644Y-55878419D01*
X136988663Y-55876097D01*
X136983355Y-55874675D01*
X136983353Y-55874674D01*
X136765723Y-55816361D01*
X136765722Y-55816361D01*
X136760408Y-55814937D01*
X136525000Y-55794341D01*
X136289592Y-55814937D01*
X136284278Y-55816361D01*
X136284277Y-55816361D01*
X136066647Y-55874674D01*
X136066645Y-55874675D01*
X136061337Y-55876097D01*
X136056357Y-55878419D01*
X136056355Y-55878420D01*
X135852152Y-55973642D01*
X135852149Y-55973644D01*
X135847171Y-55975965D01*
X135653599Y-56111505D01*
X135486505Y-56278599D01*
X135474480Y-56295772D01*
X135419026Y-56340099D01*
X135371269Y-56349500D01*
X133358348Y-56349500D01*
X133290227Y-56329498D01*
X133252556Y-56291941D01*
X133247305Y-56283823D01*
X133233155Y-56261951D01*
X133181522Y-56205207D01*
X133150470Y-56141362D01*
X133158866Y-56070863D01*
X133204043Y-56016095D01*
X133228332Y-56003256D01*
X133244549Y-55996835D01*
X133259380Y-55988478D01*
X133365725Y-55907757D01*
X133377757Y-55895725D01*
X133458478Y-55789380D01*
X133466835Y-55774549D01*
X133516166Y-55649953D01*
X133520119Y-55634388D01*
X133529544Y-55556498D01*
X133530000Y-55548943D01*
X133530000Y-54978115D01*
X133525525Y-54962876D01*
X133524135Y-54961671D01*
X133516452Y-54960000D01*
X130648115Y-54960000D01*
X130632876Y-54964475D01*
X130631671Y-54965865D01*
X130630000Y-54973548D01*
X130630000Y-55548943D01*
X130630456Y-55556498D01*
X130639881Y-55634388D01*
X130643834Y-55649953D01*
X130693165Y-55774549D01*
X130701522Y-55789380D01*
X130782243Y-55895725D01*
X130794275Y-55907757D01*
X130900620Y-55988478D01*
X130915453Y-55996837D01*
X130930152Y-56002656D01*
X130986126Y-56046330D01*
X131009602Y-56113332D01*
X130993128Y-56182391D01*
X130974864Y-56206858D01*
X130952459Y-56230304D01*
X130948887Y-56234042D01*
X130945973Y-56238314D01*
X130945972Y-56238315D01*
X130896583Y-56310716D01*
X130814475Y-56431082D01*
X130795402Y-56472171D01*
X130760667Y-56547003D01*
X130714051Y-56647428D01*
X130650309Y-56877272D01*
X130624963Y-57114440D01*
X130625260Y-57119592D01*
X130625260Y-57119596D01*
X130638396Y-57347403D01*
X130638397Y-57347409D01*
X130638694Y-57352562D01*
X130691131Y-57585245D01*
X130693075Y-57590032D01*
X130693076Y-57590036D01*
X130727681Y-57675257D01*
X130780867Y-57806239D01*
X130783572Y-57810654D01*
X130783573Y-57810655D01*
X130791045Y-57822848D01*
X130905493Y-58009609D01*
X131061660Y-58189894D01*
X131245176Y-58342252D01*
X131451112Y-58462591D01*
X131455937Y-58464433D01*
X131455938Y-58464434D01*
X131487965Y-58476664D01*
X131673937Y-58547680D01*
X131679005Y-58548711D01*
X131679008Y-58548712D01*
X131736344Y-58560377D01*
X131907666Y-58595233D01*
X131912839Y-58595423D01*
X131912842Y-58595423D01*
X132140861Y-58603784D01*
X132140865Y-58603784D01*
X132146025Y-58603973D01*
X132151146Y-58603317D01*
X132377489Y-58574321D01*
X132377490Y-58574321D01*
X132382609Y-58573665D01*
X132611068Y-58505125D01*
X132825264Y-58400191D01*
X132869583Y-58368579D01*
X133015242Y-58264681D01*
X133019445Y-58261683D01*
X133051959Y-58229283D01*
X133157088Y-58124520D01*
X133188397Y-58093320D01*
X133191413Y-58089123D01*
X133253317Y-58002974D01*
X133309312Y-57959326D01*
X133355640Y-57950500D01*
X135371269Y-57950500D01*
X135439390Y-57970502D01*
X135474479Y-58004227D01*
X135486505Y-58021401D01*
X135653599Y-58188495D01*
X135658107Y-58191652D01*
X135658110Y-58191654D01*
X135836820Y-58316788D01*
X135881148Y-58372245D01*
X135888457Y-58442865D01*
X135856426Y-58506225D01*
X135836822Y-58523211D01*
X135653599Y-58651505D01*
X135486505Y-58818599D01*
X135474480Y-58835772D01*
X135419026Y-58880099D01*
X135371269Y-58889500D01*
X128788731Y-58889500D01*
X128720610Y-58869498D01*
X128685521Y-58835773D01*
X128673495Y-58818599D01*
X128506401Y-58651505D01*
X128501893Y-58648348D01*
X128501890Y-58648346D01*
X128374408Y-58559082D01*
X128323181Y-58523213D01*
X128278853Y-58467756D01*
X128271544Y-58397137D01*
X128303575Y-58333776D01*
X128323181Y-58316787D01*
X128358614Y-58291977D01*
X128448150Y-58229283D01*
X128501890Y-58191654D01*
X128501893Y-58191652D01*
X128506401Y-58188495D01*
X128673495Y-58021401D01*
X128809035Y-57827829D01*
X128813971Y-57817245D01*
X128906580Y-57618645D01*
X128906581Y-57618643D01*
X128908903Y-57613663D01*
X128910750Y-57606772D01*
X128968639Y-57390723D01*
X128968639Y-57390722D01*
X128970063Y-57385408D01*
X128990659Y-57150000D01*
X128970063Y-56914592D01*
X128908903Y-56686337D01*
X128890759Y-56647428D01*
X128811358Y-56477152D01*
X128811356Y-56477149D01*
X128809035Y-56472171D01*
X128673495Y-56278599D01*
X128506401Y-56111505D01*
X128501893Y-56108348D01*
X128501890Y-56108346D01*
X128317339Y-55979122D01*
X128317336Y-55979120D01*
X128312830Y-55975965D01*
X128307848Y-55973642D01*
X128307843Y-55973639D01*
X128103645Y-55878420D01*
X128103644Y-55878419D01*
X128098663Y-55876097D01*
X128093355Y-55874675D01*
X128093353Y-55874674D01*
X127875723Y-55816361D01*
X127875722Y-55816361D01*
X127870408Y-55814937D01*
X127635000Y-55794341D01*
X127399592Y-55814937D01*
X127394278Y-55816361D01*
X127394277Y-55816361D01*
X127176647Y-55874674D01*
X127176645Y-55874675D01*
X127171337Y-55876097D01*
X127166357Y-55878419D01*
X127166355Y-55878420D01*
X126962152Y-55973642D01*
X126962149Y-55973644D01*
X126957171Y-55975965D01*
X126763599Y-56111505D01*
X126596505Y-56278599D01*
X126584480Y-56295772D01*
X126529026Y-56340099D01*
X126481269Y-56349500D01*
X124468348Y-56349500D01*
X124400227Y-56329498D01*
X124362556Y-56291941D01*
X124357305Y-56283823D01*
X124343155Y-56261951D01*
X124291522Y-56205207D01*
X124260470Y-56141362D01*
X124268866Y-56070863D01*
X124314043Y-56016095D01*
X124338332Y-56003256D01*
X124354549Y-55996835D01*
X124369380Y-55988478D01*
X124475725Y-55907757D01*
X124487757Y-55895725D01*
X124568478Y-55789380D01*
X124576835Y-55774549D01*
X124626166Y-55649953D01*
X124630119Y-55634388D01*
X124639544Y-55556498D01*
X124640000Y-55548943D01*
X124640000Y-54978115D01*
X124635525Y-54962876D01*
X124634135Y-54961671D01*
X124626452Y-54960000D01*
X121758115Y-54960000D01*
X121742876Y-54964475D01*
X121741671Y-54965865D01*
X121740000Y-54973548D01*
X121740000Y-55548943D01*
X121740456Y-55556498D01*
X121749881Y-55634388D01*
X121753834Y-55649953D01*
X121803165Y-55774549D01*
X121811522Y-55789380D01*
X121892243Y-55895725D01*
X121904275Y-55907757D01*
X122010620Y-55988478D01*
X122025453Y-55996837D01*
X122040152Y-56002656D01*
X122096126Y-56046330D01*
X122119602Y-56113332D01*
X122103128Y-56182391D01*
X122084864Y-56206858D01*
X122062459Y-56230304D01*
X122058887Y-56234042D01*
X122055973Y-56238314D01*
X122055972Y-56238315D01*
X122006583Y-56310716D01*
X121924475Y-56431082D01*
X121905402Y-56472171D01*
X121870667Y-56547003D01*
X121824051Y-56647428D01*
X121760309Y-56877272D01*
X121734963Y-57114440D01*
X121735260Y-57119592D01*
X121735260Y-57119596D01*
X121748396Y-57347403D01*
X121748397Y-57347409D01*
X121748694Y-57352562D01*
X121801131Y-57585245D01*
X121803075Y-57590032D01*
X121803076Y-57590036D01*
X121837681Y-57675257D01*
X121890867Y-57806239D01*
X121893572Y-57810654D01*
X121893573Y-57810655D01*
X121901045Y-57822848D01*
X122015493Y-58009609D01*
X122171660Y-58189894D01*
X122355176Y-58342252D01*
X122561112Y-58462591D01*
X122565937Y-58464433D01*
X122565938Y-58464434D01*
X122597965Y-58476664D01*
X122783937Y-58547680D01*
X122789005Y-58548711D01*
X122789008Y-58548712D01*
X122846344Y-58560377D01*
X123017666Y-58595233D01*
X123022839Y-58595423D01*
X123022842Y-58595423D01*
X123250861Y-58603784D01*
X123250865Y-58603784D01*
X123256025Y-58603973D01*
X123261146Y-58603317D01*
X123487489Y-58574321D01*
X123487490Y-58574321D01*
X123492609Y-58573665D01*
X123721068Y-58505125D01*
X123935264Y-58400191D01*
X123979583Y-58368579D01*
X124125242Y-58264681D01*
X124129445Y-58261683D01*
X124161959Y-58229283D01*
X124267088Y-58124520D01*
X124298397Y-58093320D01*
X124301413Y-58089123D01*
X124363317Y-58002974D01*
X124419312Y-57959326D01*
X124465640Y-57950500D01*
X126481269Y-57950500D01*
X126549390Y-57970502D01*
X126584479Y-58004227D01*
X126596505Y-58021401D01*
X126763599Y-58188495D01*
X126768107Y-58191652D01*
X126768110Y-58191654D01*
X126946820Y-58316788D01*
X126991148Y-58372245D01*
X126998457Y-58442865D01*
X126966426Y-58506225D01*
X126946822Y-58523211D01*
X126763599Y-58651505D01*
X126596505Y-58818599D01*
X126584480Y-58835772D01*
X126529026Y-58880099D01*
X126481269Y-58889500D01*
X119898731Y-58889500D01*
X119830610Y-58869498D01*
X119795521Y-58835773D01*
X119783495Y-58818599D01*
X119616401Y-58651505D01*
X119611893Y-58648348D01*
X119611890Y-58648346D01*
X119484408Y-58559082D01*
X119433181Y-58523213D01*
X119388853Y-58467756D01*
X119381544Y-58397137D01*
X119413575Y-58333776D01*
X119433181Y-58316787D01*
X119468614Y-58291977D01*
X119558150Y-58229283D01*
X119611890Y-58191654D01*
X119611893Y-58191652D01*
X119616401Y-58188495D01*
X119783495Y-58021401D01*
X119919035Y-57827829D01*
X119923971Y-57817245D01*
X120016580Y-57618645D01*
X120016581Y-57618643D01*
X120018903Y-57613663D01*
X120020750Y-57606772D01*
X120078639Y-57390723D01*
X120078639Y-57390722D01*
X120080063Y-57385408D01*
X120100659Y-57150000D01*
X120080063Y-56914592D01*
X120018903Y-56686337D01*
X120000759Y-56647428D01*
X119921358Y-56477152D01*
X119921356Y-56477149D01*
X119919035Y-56472171D01*
X119783495Y-56278599D01*
X119616401Y-56111505D01*
X119611893Y-56108348D01*
X119611890Y-56108346D01*
X119427339Y-55979122D01*
X119427336Y-55979120D01*
X119422830Y-55975965D01*
X119417848Y-55973642D01*
X119417843Y-55973639D01*
X119213645Y-55878420D01*
X119213644Y-55878419D01*
X119208663Y-55876097D01*
X119203355Y-55874675D01*
X119203353Y-55874674D01*
X118985723Y-55816361D01*
X118985722Y-55816361D01*
X118980408Y-55814937D01*
X118745000Y-55794341D01*
X118509592Y-55814937D01*
X118504278Y-55816361D01*
X118504277Y-55816361D01*
X118286647Y-55874674D01*
X118286645Y-55874675D01*
X118281337Y-55876097D01*
X118276357Y-55878419D01*
X118276355Y-55878420D01*
X118072152Y-55973642D01*
X118072149Y-55973644D01*
X118067171Y-55975965D01*
X117873599Y-56111505D01*
X117706505Y-56278599D01*
X117694480Y-56295772D01*
X117639026Y-56340099D01*
X117591269Y-56349500D01*
X115578348Y-56349500D01*
X115510227Y-56329498D01*
X115472556Y-56291941D01*
X115467305Y-56283823D01*
X115453155Y-56261951D01*
X115401522Y-56205207D01*
X115370470Y-56141362D01*
X115378866Y-56070863D01*
X115424043Y-56016095D01*
X115448332Y-56003256D01*
X115464549Y-55996835D01*
X115479380Y-55988478D01*
X115585725Y-55907757D01*
X115597757Y-55895725D01*
X115678478Y-55789380D01*
X115686835Y-55774549D01*
X115736166Y-55649953D01*
X115740119Y-55634388D01*
X115749544Y-55556498D01*
X115750000Y-55548943D01*
X115750000Y-54978115D01*
X115745525Y-54962876D01*
X115744135Y-54961671D01*
X115736452Y-54960000D01*
X112868115Y-54960000D01*
X112852876Y-54964475D01*
X112851671Y-54965865D01*
X112850000Y-54973548D01*
X112850000Y-55548943D01*
X112850456Y-55556498D01*
X112859881Y-55634388D01*
X112863834Y-55649953D01*
X112913165Y-55774549D01*
X112921522Y-55789380D01*
X113002243Y-55895725D01*
X113014275Y-55907757D01*
X113120620Y-55988478D01*
X113135453Y-55996837D01*
X113150152Y-56002656D01*
X113206126Y-56046330D01*
X113229602Y-56113332D01*
X113213128Y-56182391D01*
X113194864Y-56206858D01*
X113172459Y-56230304D01*
X113168887Y-56234042D01*
X113165973Y-56238314D01*
X113165972Y-56238315D01*
X113116583Y-56310716D01*
X113034475Y-56431082D01*
X113015402Y-56472171D01*
X112980667Y-56547003D01*
X112934051Y-56647428D01*
X112870309Y-56877272D01*
X112844963Y-57114440D01*
X112845260Y-57119592D01*
X112845260Y-57119596D01*
X112858396Y-57347403D01*
X112858397Y-57347409D01*
X112858694Y-57352562D01*
X112911131Y-57585245D01*
X112913075Y-57590032D01*
X112913076Y-57590036D01*
X112947681Y-57675257D01*
X113000867Y-57806239D01*
X113003572Y-57810654D01*
X113003573Y-57810655D01*
X113011045Y-57822848D01*
X113125493Y-58009609D01*
X113281660Y-58189894D01*
X113465176Y-58342252D01*
X113671112Y-58462591D01*
X113675937Y-58464433D01*
X113675938Y-58464434D01*
X113707965Y-58476664D01*
X113893937Y-58547680D01*
X113899005Y-58548711D01*
X113899008Y-58548712D01*
X113956344Y-58560377D01*
X114127666Y-58595233D01*
X114132839Y-58595423D01*
X114132842Y-58595423D01*
X114360861Y-58603784D01*
X114360865Y-58603784D01*
X114366025Y-58603973D01*
X114371146Y-58603317D01*
X114597489Y-58574321D01*
X114597490Y-58574321D01*
X114602609Y-58573665D01*
X114831068Y-58505125D01*
X115045264Y-58400191D01*
X115089583Y-58368579D01*
X115235242Y-58264681D01*
X115239445Y-58261683D01*
X115271959Y-58229283D01*
X115377088Y-58124520D01*
X115408397Y-58093320D01*
X115411413Y-58089123D01*
X115473317Y-58002974D01*
X115529312Y-57959326D01*
X115575640Y-57950500D01*
X117591269Y-57950500D01*
X117659390Y-57970502D01*
X117694479Y-58004227D01*
X117706505Y-58021401D01*
X117873599Y-58188495D01*
X117878107Y-58191652D01*
X117878110Y-58191654D01*
X118056820Y-58316788D01*
X118101148Y-58372245D01*
X118108457Y-58442865D01*
X118076426Y-58506225D01*
X118056822Y-58523211D01*
X117873599Y-58651505D01*
X117706505Y-58818599D01*
X117694480Y-58835772D01*
X117639026Y-58880099D01*
X117591269Y-58889500D01*
X111008731Y-58889500D01*
X110940610Y-58869498D01*
X110905521Y-58835773D01*
X110893495Y-58818599D01*
X110726401Y-58651505D01*
X110721893Y-58648348D01*
X110721890Y-58648346D01*
X110594408Y-58559082D01*
X110543181Y-58523213D01*
X110498853Y-58467756D01*
X110491544Y-58397137D01*
X110523575Y-58333776D01*
X110543181Y-58316787D01*
X110578614Y-58291977D01*
X110668150Y-58229283D01*
X110721890Y-58191654D01*
X110721893Y-58191652D01*
X110726401Y-58188495D01*
X110893495Y-58021401D01*
X111029035Y-57827829D01*
X111033971Y-57817245D01*
X111126580Y-57618645D01*
X111126581Y-57618643D01*
X111128903Y-57613663D01*
X111130750Y-57606772D01*
X111188639Y-57390723D01*
X111188639Y-57390722D01*
X111190063Y-57385408D01*
X111210659Y-57150000D01*
X111190063Y-56914592D01*
X111128903Y-56686337D01*
X111110759Y-56647428D01*
X111031358Y-56477152D01*
X111031356Y-56477149D01*
X111029035Y-56472171D01*
X110893495Y-56278599D01*
X110726401Y-56111505D01*
X110721893Y-56108348D01*
X110721890Y-56108346D01*
X110537339Y-55979122D01*
X110537336Y-55979120D01*
X110532830Y-55975965D01*
X110527848Y-55973642D01*
X110527843Y-55973639D01*
X110323645Y-55878420D01*
X110323644Y-55878419D01*
X110318663Y-55876097D01*
X110313355Y-55874675D01*
X110313353Y-55874674D01*
X110095723Y-55816361D01*
X110095722Y-55816361D01*
X110090408Y-55814937D01*
X109855000Y-55794341D01*
X109619592Y-55814937D01*
X109614278Y-55816361D01*
X109614277Y-55816361D01*
X109396647Y-55874674D01*
X109396645Y-55874675D01*
X109391337Y-55876097D01*
X109386357Y-55878419D01*
X109386355Y-55878420D01*
X109182152Y-55973642D01*
X109182149Y-55973644D01*
X109177171Y-55975965D01*
X108983599Y-56111505D01*
X108816505Y-56278599D01*
X108804480Y-56295772D01*
X108749026Y-56340099D01*
X108701269Y-56349500D01*
X106688348Y-56349500D01*
X106620227Y-56329498D01*
X106582556Y-56291941D01*
X106577305Y-56283823D01*
X106563155Y-56261951D01*
X106511522Y-56205207D01*
X106480470Y-56141362D01*
X106488866Y-56070863D01*
X106534043Y-56016095D01*
X106558332Y-56003256D01*
X106574549Y-55996835D01*
X106589380Y-55988478D01*
X106695725Y-55907757D01*
X106707757Y-55895725D01*
X106788478Y-55789380D01*
X106796835Y-55774549D01*
X106846166Y-55649953D01*
X106850119Y-55634388D01*
X106859544Y-55556498D01*
X106860000Y-55548943D01*
X106860000Y-54978115D01*
X106855525Y-54962876D01*
X106854135Y-54961671D01*
X106846452Y-54960000D01*
X103978115Y-54960000D01*
X103962876Y-54964475D01*
X103961671Y-54965865D01*
X103960000Y-54973548D01*
X103960000Y-55548943D01*
X103960456Y-55556498D01*
X103969881Y-55634388D01*
X103973834Y-55649953D01*
X104023165Y-55774549D01*
X104031522Y-55789380D01*
X104112243Y-55895725D01*
X104124275Y-55907757D01*
X104230620Y-55988478D01*
X104245453Y-55996837D01*
X104260152Y-56002656D01*
X104316126Y-56046330D01*
X104339602Y-56113332D01*
X104323128Y-56182391D01*
X104304864Y-56206858D01*
X104282459Y-56230304D01*
X104278887Y-56234042D01*
X104275973Y-56238314D01*
X104275972Y-56238315D01*
X104226583Y-56310716D01*
X104144475Y-56431082D01*
X104125402Y-56472171D01*
X104090667Y-56547003D01*
X104044051Y-56647428D01*
X103980309Y-56877272D01*
X103954963Y-57114440D01*
X103955260Y-57119592D01*
X103955260Y-57119596D01*
X103968396Y-57347403D01*
X103968397Y-57347409D01*
X103968694Y-57352562D01*
X104021131Y-57585245D01*
X104023075Y-57590032D01*
X104023076Y-57590036D01*
X104057681Y-57675257D01*
X104110867Y-57806239D01*
X104113572Y-57810654D01*
X104113573Y-57810655D01*
X104121045Y-57822848D01*
X104235493Y-58009609D01*
X104391660Y-58189894D01*
X104575176Y-58342252D01*
X104781112Y-58462591D01*
X104785937Y-58464433D01*
X104785938Y-58464434D01*
X104817965Y-58476664D01*
X105003937Y-58547680D01*
X105009005Y-58548711D01*
X105009008Y-58548712D01*
X105066344Y-58560377D01*
X105237666Y-58595233D01*
X105242839Y-58595423D01*
X105242842Y-58595423D01*
X105470861Y-58603784D01*
X105470865Y-58603784D01*
X105476025Y-58603973D01*
X105481146Y-58603317D01*
X105707489Y-58574321D01*
X105707490Y-58574321D01*
X105712609Y-58573665D01*
X105941068Y-58505125D01*
X106155264Y-58400191D01*
X106199583Y-58368579D01*
X106345242Y-58264681D01*
X106349445Y-58261683D01*
X106381959Y-58229283D01*
X106487088Y-58124520D01*
X106518397Y-58093320D01*
X106521413Y-58089123D01*
X106583317Y-58002974D01*
X106639312Y-57959326D01*
X106685640Y-57950500D01*
X108701269Y-57950500D01*
X108769390Y-57970502D01*
X108804479Y-58004227D01*
X108816505Y-58021401D01*
X108983599Y-58188495D01*
X108988107Y-58191652D01*
X108988110Y-58191654D01*
X109166820Y-58316788D01*
X109211148Y-58372245D01*
X109218457Y-58442865D01*
X109186426Y-58506225D01*
X109166822Y-58523211D01*
X108983599Y-58651505D01*
X108816505Y-58818599D01*
X108804480Y-58835772D01*
X108749026Y-58880099D01*
X108701269Y-58889500D01*
X102118731Y-58889500D01*
X102050610Y-58869498D01*
X102015521Y-58835773D01*
X102003495Y-58818599D01*
X101836401Y-58651505D01*
X101831893Y-58648348D01*
X101831890Y-58648346D01*
X101704408Y-58559082D01*
X101653181Y-58523213D01*
X101608853Y-58467756D01*
X101601544Y-58397137D01*
X101633575Y-58333776D01*
X101653181Y-58316787D01*
X101688614Y-58291977D01*
X101778150Y-58229283D01*
X101831890Y-58191654D01*
X101831893Y-58191652D01*
X101836401Y-58188495D01*
X102003495Y-58021401D01*
X102139035Y-57827829D01*
X102143971Y-57817245D01*
X102236580Y-57618645D01*
X102236581Y-57618643D01*
X102238903Y-57613663D01*
X102240750Y-57606772D01*
X102298639Y-57390723D01*
X102298639Y-57390722D01*
X102300063Y-57385408D01*
X102320659Y-57150000D01*
X102300063Y-56914592D01*
X102238903Y-56686337D01*
X102220759Y-56647428D01*
X102141358Y-56477152D01*
X102141356Y-56477149D01*
X102139035Y-56472171D01*
X102003495Y-56278599D01*
X101836401Y-56111505D01*
X101831893Y-56108348D01*
X101831890Y-56108346D01*
X101647339Y-55979122D01*
X101647336Y-55979120D01*
X101642830Y-55975965D01*
X101637848Y-55973642D01*
X101637843Y-55973639D01*
X101433645Y-55878420D01*
X101433644Y-55878419D01*
X101428663Y-55876097D01*
X101423355Y-55874675D01*
X101423353Y-55874674D01*
X101205723Y-55816361D01*
X101205722Y-55816361D01*
X101200408Y-55814937D01*
X100965000Y-55794341D01*
X100729592Y-55814937D01*
X100724278Y-55816361D01*
X100724277Y-55816361D01*
X100506647Y-55874674D01*
X100506645Y-55874675D01*
X100501337Y-55876097D01*
X100496357Y-55878419D01*
X100496355Y-55878420D01*
X100292152Y-55973642D01*
X100292149Y-55973644D01*
X100287171Y-55975965D01*
X100093599Y-56111505D01*
X99926505Y-56278599D01*
X99914480Y-56295772D01*
X99859026Y-56340099D01*
X99811269Y-56349500D01*
X97798348Y-56349500D01*
X97730227Y-56329498D01*
X97692556Y-56291941D01*
X97687305Y-56283823D01*
X97673155Y-56261951D01*
X97621522Y-56205207D01*
X97590470Y-56141362D01*
X97598866Y-56070863D01*
X97644043Y-56016095D01*
X97668332Y-56003256D01*
X97684549Y-55996835D01*
X97699380Y-55988478D01*
X97805725Y-55907757D01*
X97817757Y-55895725D01*
X97898478Y-55789380D01*
X97906835Y-55774549D01*
X97956166Y-55649953D01*
X97960119Y-55634388D01*
X97969544Y-55556498D01*
X97970000Y-55548943D01*
X97970000Y-54978115D01*
X97965525Y-54962876D01*
X97964135Y-54961671D01*
X97956452Y-54960000D01*
X95088115Y-54960000D01*
X95072876Y-54964475D01*
X95071671Y-54965865D01*
X95070000Y-54973548D01*
X95070000Y-55548943D01*
X95070456Y-55556498D01*
X95079881Y-55634388D01*
X95083834Y-55649953D01*
X95133165Y-55774549D01*
X95141522Y-55789380D01*
X95222243Y-55895725D01*
X95234275Y-55907757D01*
X95340620Y-55988478D01*
X95355453Y-55996837D01*
X95370152Y-56002656D01*
X95426126Y-56046330D01*
X95449602Y-56113332D01*
X95433128Y-56182391D01*
X95414864Y-56206858D01*
X95392459Y-56230304D01*
X95388887Y-56234042D01*
X95385973Y-56238314D01*
X95385972Y-56238315D01*
X95336583Y-56310716D01*
X95254475Y-56431082D01*
X95235402Y-56472171D01*
X95200667Y-56547003D01*
X95154051Y-56647428D01*
X95090309Y-56877272D01*
X95064963Y-57114440D01*
X95065260Y-57119592D01*
X95065260Y-57119596D01*
X95078396Y-57347403D01*
X95078397Y-57347409D01*
X95078694Y-57352562D01*
X95131131Y-57585245D01*
X95133075Y-57590032D01*
X95133076Y-57590036D01*
X95167681Y-57675257D01*
X95220867Y-57806239D01*
X95223572Y-57810654D01*
X95223573Y-57810655D01*
X95231045Y-57822848D01*
X95345493Y-58009609D01*
X95501660Y-58189894D01*
X95685176Y-58342252D01*
X95891112Y-58462591D01*
X95895937Y-58464433D01*
X95895938Y-58464434D01*
X95927965Y-58476664D01*
X96113937Y-58547680D01*
X96119005Y-58548711D01*
X96119008Y-58548712D01*
X96176344Y-58560377D01*
X96347666Y-58595233D01*
X96352839Y-58595423D01*
X96352842Y-58595423D01*
X96580861Y-58603784D01*
X96580865Y-58603784D01*
X96586025Y-58603973D01*
X96591146Y-58603317D01*
X96817489Y-58574321D01*
X96817490Y-58574321D01*
X96822609Y-58573665D01*
X97051068Y-58505125D01*
X97265264Y-58400191D01*
X97309583Y-58368579D01*
X97455242Y-58264681D01*
X97459445Y-58261683D01*
X97491959Y-58229283D01*
X97597088Y-58124520D01*
X97628397Y-58093320D01*
X97631413Y-58089123D01*
X97693317Y-58002974D01*
X97749312Y-57959326D01*
X97795640Y-57950500D01*
X99811269Y-57950500D01*
X99879390Y-57970502D01*
X99914479Y-58004227D01*
X99926505Y-58021401D01*
X100093599Y-58188495D01*
X100098107Y-58191652D01*
X100098110Y-58191654D01*
X100276820Y-58316788D01*
X100321148Y-58372245D01*
X100328457Y-58442865D01*
X100296426Y-58506225D01*
X100276822Y-58523211D01*
X100093599Y-58651505D01*
X99926505Y-58818599D01*
X99914480Y-58835772D01*
X99859026Y-58880099D01*
X99811269Y-58889500D01*
X93228731Y-58889500D01*
X93160610Y-58869498D01*
X93125521Y-58835773D01*
X93113495Y-58818599D01*
X92946401Y-58651505D01*
X92941893Y-58648348D01*
X92941890Y-58648346D01*
X92814408Y-58559082D01*
X92763181Y-58523213D01*
X92718853Y-58467756D01*
X92711544Y-58397137D01*
X92743575Y-58333776D01*
X92763181Y-58316787D01*
X92798614Y-58291977D01*
X92888150Y-58229283D01*
X92941890Y-58191654D01*
X92941893Y-58191652D01*
X92946401Y-58188495D01*
X93113495Y-58021401D01*
X93249035Y-57827829D01*
X93253971Y-57817245D01*
X93346580Y-57618645D01*
X93346581Y-57618643D01*
X93348903Y-57613663D01*
X93350750Y-57606772D01*
X93408639Y-57390723D01*
X93408639Y-57390722D01*
X93410063Y-57385408D01*
X93430659Y-57150000D01*
X93410063Y-56914592D01*
X93348903Y-56686337D01*
X93330759Y-56647428D01*
X93251358Y-56477152D01*
X93251356Y-56477149D01*
X93249035Y-56472171D01*
X93113495Y-56278599D01*
X92946401Y-56111505D01*
X92941893Y-56108348D01*
X92941890Y-56108346D01*
X92757339Y-55979122D01*
X92757336Y-55979120D01*
X92752830Y-55975965D01*
X92747848Y-55973642D01*
X92747843Y-55973639D01*
X92543645Y-55878420D01*
X92543644Y-55878419D01*
X92538663Y-55876097D01*
X92533355Y-55874675D01*
X92533353Y-55874674D01*
X92315723Y-55816361D01*
X92315722Y-55816361D01*
X92310408Y-55814937D01*
X92075000Y-55794341D01*
X91839592Y-55814937D01*
X91834278Y-55816361D01*
X91834277Y-55816361D01*
X91616647Y-55874674D01*
X91616645Y-55874675D01*
X91611337Y-55876097D01*
X91606357Y-55878419D01*
X91606355Y-55878420D01*
X91402152Y-55973642D01*
X91402149Y-55973644D01*
X91397171Y-55975965D01*
X91203599Y-56111505D01*
X91036505Y-56278599D01*
X91024480Y-56295772D01*
X90969026Y-56340099D01*
X90921269Y-56349500D01*
X88908348Y-56349500D01*
X88840227Y-56329498D01*
X88802556Y-56291941D01*
X88797305Y-56283823D01*
X88783155Y-56261951D01*
X88731522Y-56205207D01*
X88700470Y-56141362D01*
X88708866Y-56070863D01*
X88754043Y-56016095D01*
X88778332Y-56003256D01*
X88794549Y-55996835D01*
X88809380Y-55988478D01*
X88915725Y-55907757D01*
X88927757Y-55895725D01*
X89008478Y-55789380D01*
X89016835Y-55774549D01*
X89066166Y-55649953D01*
X89070119Y-55634388D01*
X89079544Y-55556498D01*
X89080000Y-55548943D01*
X89080000Y-54978115D01*
X89075525Y-54962876D01*
X89074135Y-54961671D01*
X89066452Y-54960000D01*
X86198115Y-54960000D01*
X86182876Y-54964475D01*
X86181671Y-54965865D01*
X86180000Y-54973548D01*
X86180000Y-55548943D01*
X86180456Y-55556498D01*
X86189881Y-55634388D01*
X86193834Y-55649953D01*
X86243165Y-55774549D01*
X86251522Y-55789380D01*
X86332243Y-55895725D01*
X86344275Y-55907757D01*
X86450620Y-55988478D01*
X86465453Y-55996837D01*
X86480152Y-56002656D01*
X86536126Y-56046330D01*
X86559602Y-56113332D01*
X86543128Y-56182391D01*
X86524864Y-56206858D01*
X86502459Y-56230304D01*
X86498887Y-56234042D01*
X86495973Y-56238314D01*
X86495972Y-56238315D01*
X86446583Y-56310716D01*
X86364475Y-56431082D01*
X86345402Y-56472171D01*
X86310667Y-56547003D01*
X86264051Y-56647428D01*
X86200309Y-56877272D01*
X86174963Y-57114440D01*
X86175260Y-57119592D01*
X86175260Y-57119596D01*
X86188396Y-57347403D01*
X86188397Y-57347409D01*
X86188694Y-57352562D01*
X86241131Y-57585245D01*
X86243075Y-57590032D01*
X86243076Y-57590036D01*
X86277681Y-57675257D01*
X86330867Y-57806239D01*
X86333572Y-57810654D01*
X86333573Y-57810655D01*
X86341045Y-57822848D01*
X86455493Y-58009609D01*
X86611660Y-58189894D01*
X86795176Y-58342252D01*
X87001112Y-58462591D01*
X87005937Y-58464433D01*
X87005938Y-58464434D01*
X87037965Y-58476664D01*
X87223937Y-58547680D01*
X87229005Y-58548711D01*
X87229008Y-58548712D01*
X87286344Y-58560377D01*
X87457666Y-58595233D01*
X87462839Y-58595423D01*
X87462842Y-58595423D01*
X87690861Y-58603784D01*
X87690865Y-58603784D01*
X87696025Y-58603973D01*
X87701146Y-58603317D01*
X87927489Y-58574321D01*
X87927490Y-58574321D01*
X87932609Y-58573665D01*
X88161068Y-58505125D01*
X88375264Y-58400191D01*
X88419583Y-58368579D01*
X88565242Y-58264681D01*
X88569445Y-58261683D01*
X88601959Y-58229283D01*
X88707088Y-58124520D01*
X88738397Y-58093320D01*
X88741413Y-58089123D01*
X88803317Y-58002974D01*
X88859312Y-57959326D01*
X88905640Y-57950500D01*
X90921269Y-57950500D01*
X90989390Y-57970502D01*
X91024479Y-58004227D01*
X91036505Y-58021401D01*
X91203599Y-58188495D01*
X91208107Y-58191652D01*
X91208110Y-58191654D01*
X91386820Y-58316788D01*
X91431148Y-58372245D01*
X91438457Y-58442865D01*
X91406426Y-58506225D01*
X91386822Y-58523211D01*
X91203599Y-58651505D01*
X91036505Y-58818599D01*
X91024480Y-58835772D01*
X90969026Y-58880099D01*
X90921269Y-58889500D01*
X84338731Y-58889500D01*
X84270610Y-58869498D01*
X84235521Y-58835773D01*
X84223495Y-58818599D01*
X84056401Y-58651505D01*
X84051893Y-58648348D01*
X84051890Y-58648346D01*
X83924408Y-58559082D01*
X83873181Y-58523213D01*
X83828853Y-58467756D01*
X83821544Y-58397137D01*
X83853575Y-58333776D01*
X83873181Y-58316787D01*
X83908614Y-58291977D01*
X83998150Y-58229283D01*
X84051890Y-58191654D01*
X84051893Y-58191652D01*
X84056401Y-58188495D01*
X84223495Y-58021401D01*
X84359035Y-57827829D01*
X84363971Y-57817245D01*
X84456580Y-57618645D01*
X84456581Y-57618643D01*
X84458903Y-57613663D01*
X84460750Y-57606772D01*
X84518639Y-57390723D01*
X84518639Y-57390722D01*
X84520063Y-57385408D01*
X84540659Y-57150000D01*
X84520063Y-56914592D01*
X84458903Y-56686337D01*
X84440759Y-56647428D01*
X84361358Y-56477152D01*
X84361356Y-56477149D01*
X84359035Y-56472171D01*
X84223495Y-56278599D01*
X84056401Y-56111505D01*
X84051893Y-56108348D01*
X84051890Y-56108346D01*
X83867339Y-55979122D01*
X83867336Y-55979120D01*
X83862830Y-55975965D01*
X83857848Y-55973642D01*
X83857843Y-55973639D01*
X83653645Y-55878420D01*
X83653644Y-55878419D01*
X83648663Y-55876097D01*
X83643355Y-55874675D01*
X83643353Y-55874674D01*
X83425723Y-55816361D01*
X83425722Y-55816361D01*
X83420408Y-55814937D01*
X83185000Y-55794341D01*
X82949592Y-55814937D01*
X82944278Y-55816361D01*
X82944277Y-55816361D01*
X82726647Y-55874674D01*
X82726645Y-55874675D01*
X82721337Y-55876097D01*
X82716357Y-55878419D01*
X82716355Y-55878420D01*
X82512152Y-55973642D01*
X82512149Y-55973644D01*
X82507171Y-55975965D01*
X82313599Y-56111505D01*
X82146505Y-56278599D01*
X82134480Y-56295772D01*
X82079026Y-56340099D01*
X82031269Y-56349500D01*
X80018348Y-56349500D01*
X79950227Y-56329498D01*
X79912556Y-56291941D01*
X79907305Y-56283823D01*
X79893155Y-56261951D01*
X79841522Y-56205207D01*
X79810470Y-56141362D01*
X79818866Y-56070863D01*
X79864043Y-56016095D01*
X79888332Y-56003256D01*
X79904549Y-55996835D01*
X79919380Y-55988478D01*
X80025725Y-55907757D01*
X80037757Y-55895725D01*
X80118478Y-55789380D01*
X80126835Y-55774549D01*
X80176166Y-55649953D01*
X80180119Y-55634388D01*
X80189544Y-55556498D01*
X80190000Y-55548943D01*
X80190000Y-54978115D01*
X80185525Y-54962876D01*
X80184135Y-54961671D01*
X80176452Y-54960000D01*
X77308115Y-54960000D01*
X77292876Y-54964475D01*
X77291671Y-54965865D01*
X77290000Y-54973548D01*
X77290000Y-55548943D01*
X77290456Y-55556498D01*
X77299881Y-55634388D01*
X77303834Y-55649953D01*
X77353165Y-55774549D01*
X77361522Y-55789380D01*
X77442243Y-55895725D01*
X77454275Y-55907757D01*
X77560620Y-55988478D01*
X77575453Y-55996837D01*
X77590152Y-56002656D01*
X77646126Y-56046330D01*
X77669602Y-56113332D01*
X77653128Y-56182391D01*
X77634864Y-56206858D01*
X77612459Y-56230304D01*
X77608887Y-56234042D01*
X77605973Y-56238314D01*
X77605972Y-56238315D01*
X77556583Y-56310716D01*
X77474475Y-56431082D01*
X77455402Y-56472171D01*
X77420667Y-56547003D01*
X77374051Y-56647428D01*
X77310309Y-56877272D01*
X77284963Y-57114440D01*
X77285260Y-57119592D01*
X77285260Y-57119596D01*
X77298396Y-57347403D01*
X77298397Y-57347409D01*
X77298694Y-57352562D01*
X77351131Y-57585245D01*
X77353075Y-57590032D01*
X77353076Y-57590036D01*
X77387681Y-57675257D01*
X77440867Y-57806239D01*
X77443572Y-57810654D01*
X77443573Y-57810655D01*
X77451045Y-57822848D01*
X77565493Y-58009609D01*
X77721660Y-58189894D01*
X77905176Y-58342252D01*
X78111112Y-58462591D01*
X78115937Y-58464433D01*
X78115938Y-58464434D01*
X78147965Y-58476664D01*
X78333937Y-58547680D01*
X78339005Y-58548711D01*
X78339008Y-58548712D01*
X78396344Y-58560377D01*
X78567666Y-58595233D01*
X78572839Y-58595423D01*
X78572842Y-58595423D01*
X78800861Y-58603784D01*
X78800865Y-58603784D01*
X78806025Y-58603973D01*
X78811146Y-58603317D01*
X79037489Y-58574321D01*
X79037490Y-58574321D01*
X79042609Y-58573665D01*
X79271068Y-58505125D01*
X79485264Y-58400191D01*
X79529583Y-58368579D01*
X79675242Y-58264681D01*
X79679445Y-58261683D01*
X79711959Y-58229283D01*
X79817088Y-58124520D01*
X79848397Y-58093320D01*
X79851413Y-58089123D01*
X79913317Y-58002974D01*
X79969312Y-57959326D01*
X80015640Y-57950500D01*
X82031269Y-57950500D01*
X82099390Y-57970502D01*
X82134479Y-58004227D01*
X82146505Y-58021401D01*
X82313599Y-58188495D01*
X82318107Y-58191652D01*
X82318110Y-58191654D01*
X82496820Y-58316788D01*
X82541148Y-58372245D01*
X82548457Y-58442865D01*
X82516426Y-58506225D01*
X82496822Y-58523211D01*
X82313599Y-58651505D01*
X82146505Y-58818599D01*
X82134480Y-58835772D01*
X82079026Y-58880099D01*
X82031269Y-58889500D01*
X75448731Y-58889500D01*
X75380610Y-58869498D01*
X75345521Y-58835773D01*
X75333495Y-58818599D01*
X75166401Y-58651505D01*
X75161893Y-58648348D01*
X75161890Y-58648346D01*
X75034408Y-58559082D01*
X74983181Y-58523213D01*
X74938853Y-58467756D01*
X74931544Y-58397137D01*
X74963575Y-58333776D01*
X74983181Y-58316787D01*
X75018614Y-58291977D01*
X75108150Y-58229283D01*
X75161890Y-58191654D01*
X75161893Y-58191652D01*
X75166401Y-58188495D01*
X75333495Y-58021401D01*
X75469035Y-57827829D01*
X75473971Y-57817245D01*
X75566580Y-57618645D01*
X75566581Y-57618643D01*
X75568903Y-57613663D01*
X75570750Y-57606772D01*
X75628639Y-57390723D01*
X75628639Y-57390722D01*
X75630063Y-57385408D01*
X75650659Y-57150000D01*
X75630063Y-56914592D01*
X75568903Y-56686337D01*
X75550759Y-56647428D01*
X75471358Y-56477152D01*
X75471356Y-56477149D01*
X75469035Y-56472171D01*
X75333495Y-56278599D01*
X75166401Y-56111505D01*
X75161893Y-56108348D01*
X75161890Y-56108346D01*
X74977339Y-55979122D01*
X74977336Y-55979120D01*
X74972830Y-55975965D01*
X74967848Y-55973642D01*
X74967843Y-55973639D01*
X74763645Y-55878420D01*
X74763644Y-55878419D01*
X74758663Y-55876097D01*
X74753355Y-55874675D01*
X74753353Y-55874674D01*
X74535723Y-55816361D01*
X74535722Y-55816361D01*
X74530408Y-55814937D01*
X74295000Y-55794341D01*
X74059592Y-55814937D01*
X74054278Y-55816361D01*
X74054277Y-55816361D01*
X73836647Y-55874674D01*
X73836645Y-55874675D01*
X73831337Y-55876097D01*
X73826357Y-55878419D01*
X73826355Y-55878420D01*
X73622152Y-55973642D01*
X73622149Y-55973644D01*
X73617171Y-55975965D01*
X73423599Y-56111505D01*
X73256505Y-56278599D01*
X73244480Y-56295772D01*
X73189026Y-56340099D01*
X73141269Y-56349500D01*
X71128348Y-56349500D01*
X71060227Y-56329498D01*
X71022556Y-56291941D01*
X71017305Y-56283823D01*
X71003155Y-56261951D01*
X70951522Y-56205207D01*
X70920470Y-56141362D01*
X70928866Y-56070863D01*
X70974043Y-56016095D01*
X70998332Y-56003256D01*
X71014549Y-55996835D01*
X71029380Y-55988478D01*
X71135725Y-55907757D01*
X71147757Y-55895725D01*
X71228478Y-55789380D01*
X71236835Y-55774549D01*
X71286166Y-55649953D01*
X71290119Y-55634388D01*
X71299544Y-55556498D01*
X71300000Y-55548943D01*
X71300000Y-54978115D01*
X71295525Y-54962876D01*
X71294135Y-54961671D01*
X71286452Y-54960000D01*
X68418115Y-54960000D01*
X68402876Y-54964475D01*
X68401671Y-54965865D01*
X68400000Y-54973548D01*
X68400000Y-55548943D01*
X68400456Y-55556498D01*
X68409881Y-55634388D01*
X68413834Y-55649953D01*
X68463165Y-55774549D01*
X68471522Y-55789380D01*
X68552243Y-55895725D01*
X68564275Y-55907757D01*
X68670620Y-55988478D01*
X68685453Y-55996837D01*
X68700152Y-56002656D01*
X68756126Y-56046330D01*
X68779602Y-56113332D01*
X68763128Y-56182391D01*
X68744864Y-56206858D01*
X68722459Y-56230304D01*
X68718887Y-56234042D01*
X68715973Y-56238314D01*
X68715972Y-56238315D01*
X68666583Y-56310716D01*
X68584475Y-56431082D01*
X68565402Y-56472171D01*
X68530667Y-56547003D01*
X68484051Y-56647428D01*
X68420309Y-56877272D01*
X68394963Y-57114440D01*
X68395260Y-57119592D01*
X68395260Y-57119596D01*
X68408396Y-57347403D01*
X68408397Y-57347409D01*
X68408694Y-57352562D01*
X68461131Y-57585245D01*
X68463075Y-57590032D01*
X68463076Y-57590036D01*
X68497681Y-57675257D01*
X68550867Y-57806239D01*
X68553572Y-57810654D01*
X68553573Y-57810655D01*
X68561045Y-57822848D01*
X68675493Y-58009609D01*
X68831660Y-58189894D01*
X69015176Y-58342252D01*
X69221112Y-58462591D01*
X69225937Y-58464433D01*
X69225938Y-58464434D01*
X69257965Y-58476664D01*
X69443937Y-58547680D01*
X69449005Y-58548711D01*
X69449008Y-58548712D01*
X69506344Y-58560377D01*
X69677666Y-58595233D01*
X69682839Y-58595423D01*
X69682842Y-58595423D01*
X69910861Y-58603784D01*
X69910865Y-58603784D01*
X69916025Y-58603973D01*
X69921146Y-58603317D01*
X70147489Y-58574321D01*
X70147490Y-58574321D01*
X70152609Y-58573665D01*
X70381068Y-58505125D01*
X70595264Y-58400191D01*
X70639583Y-58368579D01*
X70785242Y-58264681D01*
X70789445Y-58261683D01*
X70821959Y-58229283D01*
X70927088Y-58124520D01*
X70958397Y-58093320D01*
X70961413Y-58089123D01*
X71023317Y-58002974D01*
X71079312Y-57959326D01*
X71125640Y-57950500D01*
X73141269Y-57950500D01*
X73209390Y-57970502D01*
X73244479Y-58004227D01*
X73256505Y-58021401D01*
X73423599Y-58188495D01*
X73428107Y-58191652D01*
X73428110Y-58191654D01*
X73606820Y-58316788D01*
X73651148Y-58372245D01*
X73658457Y-58442865D01*
X73626426Y-58506225D01*
X73606822Y-58523211D01*
X73423599Y-58651505D01*
X73256505Y-58818599D01*
X73244480Y-58835772D01*
X73189026Y-58880099D01*
X73141269Y-58889500D01*
X66558731Y-58889500D01*
X66490610Y-58869498D01*
X66455521Y-58835773D01*
X66443495Y-58818599D01*
X66276401Y-58651505D01*
X66271893Y-58648348D01*
X66271890Y-58648346D01*
X66144408Y-58559082D01*
X66093181Y-58523213D01*
X66048853Y-58467756D01*
X66041544Y-58397137D01*
X66073575Y-58333776D01*
X66093181Y-58316787D01*
X66128614Y-58291977D01*
X66218150Y-58229283D01*
X66271890Y-58191654D01*
X66271893Y-58191652D01*
X66276401Y-58188495D01*
X66443495Y-58021401D01*
X66579035Y-57827829D01*
X66583971Y-57817245D01*
X66676580Y-57618645D01*
X66676581Y-57618643D01*
X66678903Y-57613663D01*
X66680750Y-57606772D01*
X66738639Y-57390723D01*
X66738639Y-57390722D01*
X66740063Y-57385408D01*
X66760659Y-57150000D01*
X66740063Y-56914592D01*
X66678903Y-56686337D01*
X66660759Y-56647428D01*
X66581358Y-56477152D01*
X66581356Y-56477149D01*
X66579035Y-56472171D01*
X66443495Y-56278599D01*
X66276401Y-56111505D01*
X66271893Y-56108348D01*
X66271890Y-56108346D01*
X66087339Y-55979122D01*
X66087336Y-55979120D01*
X66082830Y-55975965D01*
X66077848Y-55973642D01*
X66077843Y-55973639D01*
X65873645Y-55878420D01*
X65873644Y-55878419D01*
X65868663Y-55876097D01*
X65863355Y-55874675D01*
X65863353Y-55874674D01*
X65645723Y-55816361D01*
X65645722Y-55816361D01*
X65640408Y-55814937D01*
X65405000Y-55794341D01*
X65169592Y-55814937D01*
X65164278Y-55816361D01*
X65164277Y-55816361D01*
X64946647Y-55874674D01*
X64946645Y-55874675D01*
X64941337Y-55876097D01*
X64936357Y-55878419D01*
X64936355Y-55878420D01*
X64732152Y-55973642D01*
X64732149Y-55973644D01*
X64727171Y-55975965D01*
X64533599Y-56111505D01*
X64366505Y-56278599D01*
X64354480Y-56295772D01*
X64299026Y-56340099D01*
X64251269Y-56349500D01*
X62238348Y-56349500D01*
X62170227Y-56329498D01*
X62132556Y-56291941D01*
X62127305Y-56283823D01*
X62113155Y-56261951D01*
X62061522Y-56205207D01*
X62030470Y-56141362D01*
X62038866Y-56070863D01*
X62084043Y-56016095D01*
X62108332Y-56003256D01*
X62124549Y-55996835D01*
X62139380Y-55988478D01*
X62245725Y-55907757D01*
X62257757Y-55895725D01*
X62338478Y-55789380D01*
X62346835Y-55774549D01*
X62396166Y-55649953D01*
X62400119Y-55634388D01*
X62409544Y-55556498D01*
X62410000Y-55548943D01*
X62410000Y-54978115D01*
X62405525Y-54962876D01*
X62404135Y-54961671D01*
X62396452Y-54960000D01*
X59528115Y-54960000D01*
X59512876Y-54964475D01*
X59511671Y-54965865D01*
X59510000Y-54973548D01*
X59510000Y-55548943D01*
X59510456Y-55556498D01*
X59519881Y-55634388D01*
X59523834Y-55649953D01*
X59573165Y-55774549D01*
X59581522Y-55789380D01*
X59662243Y-55895725D01*
X59674275Y-55907757D01*
X59780620Y-55988478D01*
X59795453Y-55996837D01*
X59810152Y-56002656D01*
X59866126Y-56046330D01*
X59889602Y-56113332D01*
X59873128Y-56182391D01*
X59854864Y-56206858D01*
X59832459Y-56230304D01*
X59828887Y-56234042D01*
X59825973Y-56238314D01*
X59825972Y-56238315D01*
X59776583Y-56310716D01*
X59694475Y-56431082D01*
X59675402Y-56472171D01*
X59640667Y-56547003D01*
X59594051Y-56647428D01*
X59530309Y-56877272D01*
X59504963Y-57114440D01*
X59505260Y-57119592D01*
X59505260Y-57119596D01*
X59518396Y-57347403D01*
X59518397Y-57347409D01*
X59518694Y-57352562D01*
X59571131Y-57585245D01*
X59573075Y-57590032D01*
X59573076Y-57590036D01*
X59607681Y-57675257D01*
X59660867Y-57806239D01*
X59663572Y-57810654D01*
X59663573Y-57810655D01*
X59671045Y-57822848D01*
X59785493Y-58009609D01*
X59941660Y-58189894D01*
X60125176Y-58342252D01*
X60331112Y-58462591D01*
X60335937Y-58464433D01*
X60335938Y-58464434D01*
X60367965Y-58476664D01*
X60553937Y-58547680D01*
X60559005Y-58548711D01*
X60559008Y-58548712D01*
X60616344Y-58560377D01*
X60787666Y-58595233D01*
X60792839Y-58595423D01*
X60792842Y-58595423D01*
X61020861Y-58603784D01*
X61020865Y-58603784D01*
X61026025Y-58603973D01*
X61031146Y-58603317D01*
X61257489Y-58574321D01*
X61257490Y-58574321D01*
X61262609Y-58573665D01*
X61491068Y-58505125D01*
X61705264Y-58400191D01*
X61749583Y-58368579D01*
X61895242Y-58264681D01*
X61899445Y-58261683D01*
X61931959Y-58229283D01*
X62037088Y-58124520D01*
X62068397Y-58093320D01*
X62071413Y-58089123D01*
X62133317Y-58002974D01*
X62189312Y-57959326D01*
X62235640Y-57950500D01*
X64251269Y-57950500D01*
X64319390Y-57970502D01*
X64354479Y-58004227D01*
X64366505Y-58021401D01*
X64533599Y-58188495D01*
X64538107Y-58191652D01*
X64538110Y-58191654D01*
X64716820Y-58316788D01*
X64761148Y-58372245D01*
X64768457Y-58442865D01*
X64736426Y-58506225D01*
X64716822Y-58523211D01*
X64533599Y-58651505D01*
X64366505Y-58818599D01*
X64230965Y-59012171D01*
X64228644Y-59017149D01*
X64228642Y-59017152D01*
X64133420Y-59221355D01*
X64131097Y-59226337D01*
X64129675Y-59231645D01*
X64129674Y-59231647D01*
X64098699Y-59347250D01*
X64069937Y-59454592D01*
X64049341Y-59690000D01*
X64069937Y-59925408D01*
X64071361Y-59930722D01*
X64071361Y-59930723D01*
X64100517Y-60039534D01*
X64131097Y-60153663D01*
X64133419Y-60158643D01*
X64133420Y-60158645D01*
X64190385Y-60280805D01*
X64230965Y-60367829D01*
X64366505Y-60561401D01*
X64533599Y-60728495D01*
X64538107Y-60731652D01*
X64538110Y-60731654D01*
X64698220Y-60843764D01*
X64727170Y-60864035D01*
X64732152Y-60866358D01*
X64732157Y-60866361D01*
X64936355Y-60961580D01*
X64941337Y-60963903D01*
X64946645Y-60965325D01*
X64946647Y-60965326D01*
X65164277Y-61023639D01*
X65169592Y-61025063D01*
X65405000Y-61045659D01*
X65640408Y-61025063D01*
X65645723Y-61023639D01*
X65863353Y-60965326D01*
X65863355Y-60965325D01*
X65868663Y-60963903D01*
X65873645Y-60961580D01*
X66077843Y-60866361D01*
X66077848Y-60866358D01*
X66082830Y-60864035D01*
X66111780Y-60843764D01*
X66271890Y-60731654D01*
X66271893Y-60731652D01*
X66276401Y-60728495D01*
X66443495Y-60561401D01*
X66455520Y-60544228D01*
X66510974Y-60499901D01*
X66558731Y-60490500D01*
X73141269Y-60490500D01*
X73209390Y-60510502D01*
X73244479Y-60544227D01*
X73256505Y-60561401D01*
X73423599Y-60728495D01*
X73428107Y-60731652D01*
X73428110Y-60731654D01*
X73588220Y-60843764D01*
X73617170Y-60864035D01*
X73622152Y-60866358D01*
X73622157Y-60866361D01*
X73826355Y-60961580D01*
X73831337Y-60963903D01*
X73836645Y-60965325D01*
X73836647Y-60965326D01*
X74054277Y-61023639D01*
X74059592Y-61025063D01*
X74295000Y-61045659D01*
X74530408Y-61025063D01*
X74535723Y-61023639D01*
X74753353Y-60965326D01*
X74753355Y-60965325D01*
X74758663Y-60963903D01*
X74763645Y-60961580D01*
X74967843Y-60866361D01*
X74967848Y-60866358D01*
X74972830Y-60864035D01*
X75001780Y-60843764D01*
X75161890Y-60731654D01*
X75161893Y-60731652D01*
X75166401Y-60728495D01*
X75333495Y-60561401D01*
X75345520Y-60544228D01*
X75400974Y-60499901D01*
X75448731Y-60490500D01*
X82031269Y-60490500D01*
X82099390Y-60510502D01*
X82134479Y-60544227D01*
X82146505Y-60561401D01*
X82313599Y-60728495D01*
X82318107Y-60731652D01*
X82318110Y-60731654D01*
X82478220Y-60843764D01*
X82507170Y-60864035D01*
X82512152Y-60866358D01*
X82512157Y-60866361D01*
X82716355Y-60961580D01*
X82721337Y-60963903D01*
X82726645Y-60965325D01*
X82726647Y-60965326D01*
X82944277Y-61023639D01*
X82949592Y-61025063D01*
X83185000Y-61045659D01*
X83420408Y-61025063D01*
X83425723Y-61023639D01*
X83643353Y-60965326D01*
X83643355Y-60965325D01*
X83648663Y-60963903D01*
X83653645Y-60961580D01*
X83857843Y-60866361D01*
X83857848Y-60866358D01*
X83862830Y-60864035D01*
X83891780Y-60843764D01*
X84051890Y-60731654D01*
X84051893Y-60731652D01*
X84056401Y-60728495D01*
X84223495Y-60561401D01*
X84235520Y-60544228D01*
X84290974Y-60499901D01*
X84338731Y-60490500D01*
X90921269Y-60490500D01*
X90989390Y-60510502D01*
X91024479Y-60544227D01*
X91036505Y-60561401D01*
X91203599Y-60728495D01*
X91208107Y-60731652D01*
X91208110Y-60731654D01*
X91368220Y-60843764D01*
X91397170Y-60864035D01*
X91402152Y-60866358D01*
X91402157Y-60866361D01*
X91606355Y-60961580D01*
X91611337Y-60963903D01*
X91616645Y-60965325D01*
X91616647Y-60965326D01*
X91834277Y-61023639D01*
X91839592Y-61025063D01*
X92075000Y-61045659D01*
X92310408Y-61025063D01*
X92315723Y-61023639D01*
X92533353Y-60965326D01*
X92533355Y-60965325D01*
X92538663Y-60963903D01*
X92543645Y-60961580D01*
X92747843Y-60866361D01*
X92747848Y-60866358D01*
X92752830Y-60864035D01*
X92781780Y-60843764D01*
X92941890Y-60731654D01*
X92941893Y-60731652D01*
X92946401Y-60728495D01*
X93113495Y-60561401D01*
X93125520Y-60544228D01*
X93180974Y-60499901D01*
X93228731Y-60490500D01*
X99811269Y-60490500D01*
X99879390Y-60510502D01*
X99914479Y-60544227D01*
X99926505Y-60561401D01*
X100093599Y-60728495D01*
X100098107Y-60731652D01*
X100098110Y-60731654D01*
X100258220Y-60843764D01*
X100287170Y-60864035D01*
X100292152Y-60866358D01*
X100292157Y-60866361D01*
X100496355Y-60961580D01*
X100501337Y-60963903D01*
X100506645Y-60965325D01*
X100506647Y-60965326D01*
X100724277Y-61023639D01*
X100729592Y-61025063D01*
X100965000Y-61045659D01*
X101200408Y-61025063D01*
X101205723Y-61023639D01*
X101423353Y-60965326D01*
X101423355Y-60965325D01*
X101428663Y-60963903D01*
X101433645Y-60961580D01*
X101637843Y-60866361D01*
X101637848Y-60866358D01*
X101642830Y-60864035D01*
X101671780Y-60843764D01*
X101831890Y-60731654D01*
X101831893Y-60731652D01*
X101836401Y-60728495D01*
X102003495Y-60561401D01*
X102015520Y-60544228D01*
X102070974Y-60499901D01*
X102118731Y-60490500D01*
X108701269Y-60490500D01*
X108769390Y-60510502D01*
X108804479Y-60544227D01*
X108816505Y-60561401D01*
X108983599Y-60728495D01*
X108988107Y-60731652D01*
X108988110Y-60731654D01*
X109148220Y-60843764D01*
X109177170Y-60864035D01*
X109182152Y-60866358D01*
X109182157Y-60866361D01*
X109386355Y-60961580D01*
X109391337Y-60963903D01*
X109396645Y-60965325D01*
X109396647Y-60965326D01*
X109614277Y-61023639D01*
X109619592Y-61025063D01*
X109855000Y-61045659D01*
X110090408Y-61025063D01*
X110095723Y-61023639D01*
X110313353Y-60965326D01*
X110313355Y-60965325D01*
X110318663Y-60963903D01*
X110323645Y-60961580D01*
X110527843Y-60866361D01*
X110527848Y-60866358D01*
X110532830Y-60864035D01*
X110561780Y-60843764D01*
X110721890Y-60731654D01*
X110721893Y-60731652D01*
X110726401Y-60728495D01*
X110893495Y-60561401D01*
X110905520Y-60544228D01*
X110960974Y-60499901D01*
X111008731Y-60490500D01*
X117591269Y-60490500D01*
X117659390Y-60510502D01*
X117694479Y-60544227D01*
X117706505Y-60561401D01*
X117873599Y-60728495D01*
X117878107Y-60731652D01*
X117878110Y-60731654D01*
X118038220Y-60843764D01*
X118067170Y-60864035D01*
X118072152Y-60866358D01*
X118072157Y-60866361D01*
X118276355Y-60961580D01*
X118281337Y-60963903D01*
X118286645Y-60965325D01*
X118286647Y-60965326D01*
X118504277Y-61023639D01*
X118509592Y-61025063D01*
X118745000Y-61045659D01*
X118980408Y-61025063D01*
X118985723Y-61023639D01*
X119203353Y-60965326D01*
X119203355Y-60965325D01*
X119208663Y-60963903D01*
X119213645Y-60961580D01*
X119417843Y-60866361D01*
X119417848Y-60866358D01*
X119422830Y-60864035D01*
X119451780Y-60843764D01*
X119611890Y-60731654D01*
X119611893Y-60731652D01*
X119616401Y-60728495D01*
X119783495Y-60561401D01*
X119795520Y-60544228D01*
X119850974Y-60499901D01*
X119898731Y-60490500D01*
X126481269Y-60490500D01*
X126549390Y-60510502D01*
X126584479Y-60544227D01*
X126596505Y-60561401D01*
X126763599Y-60728495D01*
X126768107Y-60731652D01*
X126768110Y-60731654D01*
X126928220Y-60843764D01*
X126957170Y-60864035D01*
X126962152Y-60866358D01*
X126962157Y-60866361D01*
X127166355Y-60961580D01*
X127171337Y-60963903D01*
X127176645Y-60965325D01*
X127176647Y-60965326D01*
X127394277Y-61023639D01*
X127399592Y-61025063D01*
X127635000Y-61045659D01*
X127870408Y-61025063D01*
X127875723Y-61023639D01*
X128093353Y-60965326D01*
X128093355Y-60965325D01*
X128098663Y-60963903D01*
X128103645Y-60961580D01*
X128307843Y-60866361D01*
X128307848Y-60866358D01*
X128312830Y-60864035D01*
X128341780Y-60843764D01*
X128501890Y-60731654D01*
X128501893Y-60731652D01*
X128506401Y-60728495D01*
X128673495Y-60561401D01*
X128685520Y-60544228D01*
X128740974Y-60499901D01*
X128788731Y-60490500D01*
X135371269Y-60490500D01*
X135439390Y-60510502D01*
X135474479Y-60544227D01*
X135486505Y-60561401D01*
X135653599Y-60728495D01*
X135658107Y-60731652D01*
X135658110Y-60731654D01*
X135818220Y-60843764D01*
X135847170Y-60864035D01*
X135852152Y-60866358D01*
X135852157Y-60866361D01*
X136056355Y-60961580D01*
X136061337Y-60963903D01*
X136066645Y-60965325D01*
X136066647Y-60965326D01*
X136284277Y-61023639D01*
X136289592Y-61025063D01*
X136525000Y-61045659D01*
X136760408Y-61025063D01*
X136765723Y-61023639D01*
X136983353Y-60965326D01*
X136983355Y-60965325D01*
X136988663Y-60963903D01*
X136993645Y-60961580D01*
X137197843Y-60866361D01*
X137197848Y-60866358D01*
X137202830Y-60864035D01*
X137231780Y-60843764D01*
X137391890Y-60731654D01*
X137391893Y-60731652D01*
X137396401Y-60728495D01*
X137563495Y-60561401D01*
X137575520Y-60544228D01*
X137630974Y-60499901D01*
X137678731Y-60490500D01*
X144261269Y-60490500D01*
X144329390Y-60510502D01*
X144364479Y-60544227D01*
X144376505Y-60561401D01*
X144543599Y-60728495D01*
X144548107Y-60731652D01*
X144548110Y-60731654D01*
X144708220Y-60843764D01*
X144737170Y-60864035D01*
X144742152Y-60866358D01*
X144742157Y-60866361D01*
X144946355Y-60961580D01*
X144951337Y-60963903D01*
X144956645Y-60965325D01*
X144956647Y-60965326D01*
X145174277Y-61023639D01*
X145179592Y-61025063D01*
X145415000Y-61045659D01*
X145650408Y-61025063D01*
X145655723Y-61023639D01*
X145873353Y-60965326D01*
X145873355Y-60965325D01*
X145878663Y-60963903D01*
X145883645Y-60961580D01*
X146087843Y-60866361D01*
X146087848Y-60866358D01*
X146092830Y-60864035D01*
X146121780Y-60843764D01*
X146281890Y-60731654D01*
X146281893Y-60731652D01*
X146286401Y-60728495D01*
X146453495Y-60561401D01*
X146465520Y-60544228D01*
X146520974Y-60499901D01*
X146568731Y-60490500D01*
X148642890Y-60490500D01*
X148711011Y-60510502D01*
X148738127Y-60534002D01*
X148876763Y-60694048D01*
X149053953Y-60841154D01*
X149252790Y-60957345D01*
X149257615Y-60959187D01*
X149257616Y-60959188D01*
X149273690Y-60965326D01*
X149467934Y-61039501D01*
X149473000Y-61040532D01*
X149473001Y-61040532D01*
X149498202Y-61045659D01*
X149693607Y-61085414D01*
X149819873Y-61090044D01*
X149918585Y-61093664D01*
X149918589Y-61093664D01*
X149923749Y-61093853D01*
X149928869Y-61093197D01*
X149928871Y-61093197D01*
X150027136Y-61080609D01*
X150152178Y-61064591D01*
X150157126Y-61063106D01*
X150157133Y-61063105D01*
X150367811Y-60999898D01*
X150367810Y-60999898D01*
X150372761Y-60998413D01*
X150579574Y-60897096D01*
X150767062Y-60763363D01*
X150831699Y-60698951D01*
X150894070Y-60665035D01*
X150964877Y-60670223D01*
X151021639Y-60712869D01*
X151037789Y-60741816D01*
X151065887Y-60812783D01*
X151157078Y-60932922D01*
X151277217Y-61024113D01*
X151311423Y-61037656D01*
X151409923Y-61076655D01*
X151409925Y-61076656D01*
X151417453Y-61079636D01*
X151507228Y-61090500D01*
X153292772Y-61090500D01*
X153382547Y-61079636D01*
X153390075Y-61076656D01*
X153390077Y-61076655D01*
X153488577Y-61037656D01*
X153522783Y-61024113D01*
X153642922Y-60932922D01*
X153734113Y-60812783D01*
X153762338Y-60741494D01*
X153786655Y-60680077D01*
X153786656Y-60680075D01*
X153789636Y-60672547D01*
X153800500Y-60582772D01*
X153800500Y-58797228D01*
X153789636Y-58707453D01*
X153776891Y-58675261D01*
X153748591Y-58603784D01*
X153734113Y-58567217D01*
X153642922Y-58447078D01*
X153522783Y-58355887D01*
X153442334Y-58324035D01*
X153390077Y-58303345D01*
X153390075Y-58303344D01*
X153382547Y-58300364D01*
X153313241Y-58291977D01*
X153248016Y-58263936D01*
X153208306Y-58205084D01*
X153206718Y-58134105D01*
X153239283Y-58077795D01*
X154864559Y-56452519D01*
X154865497Y-56451590D01*
X154886439Y-56431082D01*
X154929268Y-56389141D01*
X154933083Y-56383221D01*
X154933088Y-56383215D01*
X154952490Y-56353109D01*
X154959930Y-56342755D01*
X154982267Y-56314774D01*
X154986664Y-56309266D01*
X155001082Y-56279441D01*
X155008611Y-56266025D01*
X155022735Y-56244109D01*
X155026554Y-56238183D01*
X155041213Y-56197909D01*
X155046172Y-56186169D01*
X155061763Y-56153916D01*
X155064827Y-56147578D01*
X155072279Y-56115302D01*
X155076648Y-56100554D01*
X155085568Y-56076045D01*
X155085569Y-56076041D01*
X155087978Y-56069422D01*
X155093352Y-56026882D01*
X155095582Y-56014363D01*
X155105226Y-55972589D01*
X155105367Y-55932418D01*
X155105396Y-55931545D01*
X155105500Y-55930717D01*
X155105500Y-55894108D01*
X155105764Y-55818572D01*
X155105841Y-55796493D01*
X155105841Y-55796490D01*
X155105853Y-55793000D01*
X155105587Y-55791812D01*
X155105500Y-55790200D01*
X155105500Y-49539083D01*
X155105507Y-49537763D01*
X155105961Y-49494440D01*
X155106441Y-49448593D01*
X155097384Y-49406704D01*
X155095324Y-49394126D01*
X155091331Y-49358524D01*
X155091330Y-49358522D01*
X155090546Y-49351528D01*
X155079650Y-49320241D01*
X155075489Y-49305436D01*
X155069978Y-49279944D01*
X155069977Y-49279942D01*
X155068489Y-49273058D01*
X155065513Y-49266676D01*
X155065511Y-49266670D01*
X155050379Y-49234219D01*
X155045583Y-49222408D01*
X155033803Y-49188580D01*
X155033799Y-49188571D01*
X155031485Y-49181927D01*
X155013925Y-49153824D01*
X155006594Y-49140323D01*
X154992590Y-49110292D01*
X154966323Y-49076429D01*
X154959029Y-49065973D01*
X154940049Y-49035599D01*
X154936316Y-49029625D01*
X154907997Y-49001107D01*
X154907415Y-49000485D01*
X154906901Y-48999823D01*
X154881041Y-48973963D01*
X154809770Y-48902193D01*
X154808743Y-48901541D01*
X154807535Y-48900457D01*
X151711989Y-45804911D01*
X151677963Y-45742599D01*
X151678718Y-45695370D01*
X151677292Y-45695190D01*
X151678244Y-45687652D01*
X151680095Y-45680284D01*
X151680951Y-45516790D01*
X151672170Y-45480212D01*
X151654135Y-45405094D01*
X151645809Y-45370410D01*
X151643164Y-45355484D01*
X151642342Y-45348373D01*
X151638184Y-45312436D01*
X151636501Y-45297887D01*
X151636500Y-45297882D01*
X151635919Y-45292860D01*
X151567983Y-45052781D01*
X151462538Y-44826652D01*
X151322294Y-44620290D01*
X151282371Y-44578072D01*
X151250099Y-44514836D01*
X151257139Y-44444189D01*
X151301255Y-44388563D01*
X151373919Y-44365500D01*
X163586810Y-44365500D01*
X163654931Y-44385502D01*
X163701424Y-44439158D01*
X163711528Y-44509432D01*
X163684175Y-44571476D01*
X163647105Y-44616606D01*
X163572666Y-44707230D01*
X163447160Y-44922872D01*
X163445347Y-44927595D01*
X163445346Y-44927597D01*
X163424924Y-44980798D01*
X163357745Y-45155805D01*
X163356712Y-45160751D01*
X163356710Y-45160757D01*
X163325023Y-45312436D01*
X163306722Y-45400039D01*
X163306493Y-45405088D01*
X163306492Y-45405094D01*
X163302557Y-45491757D01*
X163295404Y-45649288D01*
X163295985Y-45654308D01*
X163295985Y-45654312D01*
X163296222Y-45656361D01*
X163324081Y-45897140D01*
X163325460Y-45902011D01*
X163325460Y-45902014D01*
X163379319Y-46092344D01*
X163378621Y-46163337D01*
X163347175Y-46215747D01*
X159585441Y-49977481D01*
X159584503Y-49978410D01*
X159520732Y-50040859D01*
X159516917Y-50046779D01*
X159516912Y-50046785D01*
X159497510Y-50076891D01*
X159490070Y-50087245D01*
X159463336Y-50120734D01*
X159460269Y-50127079D01*
X159448918Y-50150559D01*
X159441389Y-50163974D01*
X159423446Y-50191817D01*
X159421036Y-50198437D01*
X159421036Y-50198438D01*
X159408788Y-50232089D01*
X159403828Y-50243831D01*
X159385173Y-50282422D01*
X159383590Y-50289277D01*
X159383589Y-50289281D01*
X159377722Y-50314696D01*
X159373352Y-50329446D01*
X159364432Y-50353955D01*
X159364431Y-50353959D01*
X159362022Y-50360578D01*
X159356648Y-50403118D01*
X159354418Y-50415637D01*
X159344774Y-50457411D01*
X159344749Y-50464452D01*
X159344749Y-50464455D01*
X159344633Y-50497582D01*
X159344604Y-50498455D01*
X159344500Y-50499283D01*
X159344500Y-50535738D01*
X159344499Y-50536178D01*
X159344164Y-50632243D01*
X159344147Y-50637000D01*
X159344413Y-50638188D01*
X159344500Y-50639800D01*
X159344500Y-57925095D01*
X159324498Y-57993216D01*
X159270842Y-58039709D01*
X159262383Y-58042687D01*
X159262453Y-58042864D01*
X159122217Y-58098387D01*
X159002078Y-58189578D01*
X158910887Y-58309717D01*
X158889590Y-58363507D01*
X158861108Y-58435446D01*
X158855364Y-58449953D01*
X158844500Y-58539728D01*
X158844500Y-61125272D01*
X158855364Y-61215047D01*
X158858344Y-61222575D01*
X158858345Y-61222577D01*
X158864589Y-61238348D01*
X158910887Y-61355283D01*
X159002078Y-61475422D01*
X159122217Y-61566613D01*
X159185832Y-61591800D01*
X159254923Y-61619155D01*
X159254925Y-61619156D01*
X159262453Y-61622136D01*
X159352228Y-61633000D01*
X160937772Y-61633000D01*
X161027547Y-61622136D01*
X161035075Y-61619156D01*
X161035077Y-61619155D01*
X161104168Y-61591800D01*
X161167783Y-61566613D01*
X161287922Y-61475422D01*
X161379113Y-61355283D01*
X161425411Y-61238348D01*
X161431655Y-61222577D01*
X161431656Y-61222575D01*
X161434636Y-61215047D01*
X161445500Y-61125272D01*
X161445500Y-58539728D01*
X161434636Y-58449953D01*
X161428893Y-58435446D01*
X161400410Y-58363507D01*
X161379113Y-58309717D01*
X161287922Y-58189578D01*
X161167783Y-58098387D01*
X161027547Y-58042864D01*
X161028606Y-58040188D01*
X160979388Y-58011068D01*
X160947530Y-57947621D01*
X160945500Y-57925095D01*
X160945500Y-55097081D01*
X163341562Y-55097081D01*
X163391110Y-55272182D01*
X163394622Y-55281626D01*
X163495761Y-55498518D01*
X163500740Y-55507284D01*
X163635248Y-55705205D01*
X163641580Y-55713080D01*
X163805991Y-55886940D01*
X163813500Y-55893701D01*
X164003600Y-56039044D01*
X164012079Y-56044508D01*
X164222979Y-56157591D01*
X164232225Y-56161630D01*
X164458495Y-56239541D01*
X164468261Y-56242049D01*
X164705156Y-56282968D01*
X164713022Y-56283823D01*
X164732830Y-56284722D01*
X164747124Y-56280525D01*
X164748329Y-56279135D01*
X164750000Y-56271452D01*
X164750000Y-55103115D01*
X164745525Y-55087876D01*
X164744135Y-55086671D01*
X164736452Y-55085000D01*
X163356258Y-55085000D01*
X163342727Y-55088973D01*
X163341562Y-55097081D01*
X160945500Y-55097081D01*
X160945500Y-54367264D01*
X163343327Y-54367264D01*
X163344450Y-54381325D01*
X163354558Y-54385000D01*
X164731885Y-54385000D01*
X164747124Y-54380525D01*
X164748329Y-54379135D01*
X164750000Y-54371452D01*
X164750000Y-54366885D01*
X165450000Y-54366885D01*
X165454475Y-54382124D01*
X165455865Y-54383329D01*
X165463548Y-54385000D01*
X166843742Y-54385000D01*
X166857273Y-54381027D01*
X166858438Y-54372919D01*
X166808890Y-54197818D01*
X166805378Y-54188374D01*
X166704239Y-53971482D01*
X166699260Y-53962716D01*
X166564752Y-53764795D01*
X166558420Y-53756920D01*
X166394009Y-53583060D01*
X166386500Y-53576299D01*
X166196400Y-53430956D01*
X166187921Y-53425492D01*
X165977021Y-53312409D01*
X165967775Y-53308370D01*
X165741505Y-53230459D01*
X165731739Y-53227951D01*
X165494844Y-53187032D01*
X165486978Y-53186177D01*
X165467170Y-53185278D01*
X165452876Y-53189475D01*
X165451671Y-53190865D01*
X165450000Y-53198548D01*
X165450000Y-54366885D01*
X164750000Y-54366885D01*
X164750000Y-53206118D01*
X164745666Y-53191356D01*
X164733943Y-53189295D01*
X164606420Y-53199555D01*
X164596467Y-53201167D01*
X164364066Y-53258250D01*
X164354496Y-53261433D01*
X164134210Y-53354939D01*
X164125271Y-53359613D01*
X163922775Y-53487132D01*
X163914699Y-53493173D01*
X163735193Y-53651428D01*
X163728185Y-53658685D01*
X163576286Y-53843610D01*
X163570536Y-53851884D01*
X163450154Y-54058720D01*
X163445799Y-54067811D01*
X163360041Y-54291218D01*
X163357190Y-54300907D01*
X163343327Y-54367264D01*
X160945500Y-54367264D01*
X160945500Y-51336885D01*
X169590000Y-51336885D01*
X169594475Y-51352124D01*
X169595865Y-51353329D01*
X169603548Y-51355000D01*
X170446885Y-51355000D01*
X170462124Y-51350525D01*
X170463329Y-51349135D01*
X170465000Y-51341452D01*
X170465000Y-51336885D01*
X171165000Y-51336885D01*
X171169475Y-51352124D01*
X171170865Y-51353329D01*
X171178548Y-51355000D01*
X172021885Y-51355000D01*
X172037124Y-51350525D01*
X172038329Y-51349135D01*
X172040000Y-51341452D01*
X172040000Y-50991057D01*
X172039544Y-50983502D01*
X172030119Y-50905612D01*
X172026166Y-50890047D01*
X171976835Y-50765451D01*
X171968478Y-50750620D01*
X171887757Y-50644275D01*
X171875725Y-50632243D01*
X171769380Y-50551522D01*
X171754549Y-50543165D01*
X171629953Y-50493834D01*
X171614388Y-50489881D01*
X171536498Y-50480456D01*
X171528943Y-50480000D01*
X171183115Y-50480000D01*
X171167876Y-50484475D01*
X171166671Y-50485865D01*
X171165000Y-50493548D01*
X171165000Y-51336885D01*
X170465000Y-51336885D01*
X170465000Y-50498115D01*
X170460525Y-50482876D01*
X170459135Y-50481671D01*
X170451452Y-50480000D01*
X170101057Y-50480000D01*
X170093502Y-50480456D01*
X170015612Y-50489881D01*
X170000047Y-50493834D01*
X169875451Y-50543165D01*
X169860620Y-50551522D01*
X169754275Y-50632243D01*
X169742243Y-50644275D01*
X169661522Y-50750620D01*
X169653165Y-50765451D01*
X169603834Y-50890047D01*
X169599881Y-50905612D01*
X169590456Y-50983502D01*
X169590000Y-50991057D01*
X169590000Y-51336885D01*
X160945500Y-51336885D01*
X160945500Y-50933768D01*
X160965502Y-50865647D01*
X160982405Y-50844673D01*
X164644788Y-47182290D01*
X164707100Y-47148264D01*
X164736758Y-47145418D01*
X164737478Y-47145434D01*
X164738922Y-47145500D01*
X165412691Y-47145500D01*
X165415199Y-47145298D01*
X165415204Y-47145298D01*
X165593661Y-47130940D01*
X165593666Y-47130939D01*
X165598702Y-47130534D01*
X165603610Y-47129329D01*
X165603613Y-47129328D01*
X165836092Y-47072225D01*
X165841006Y-47071018D01*
X165845658Y-47069043D01*
X165845662Y-47069042D01*
X166066022Y-46975505D01*
X166066023Y-46975505D01*
X166070677Y-46973529D01*
X166078699Y-46968477D01*
X171299822Y-46968477D01*
X171300069Y-46972758D01*
X171300069Y-46972763D01*
X171300228Y-46975505D01*
X171300299Y-46976743D01*
X171315916Y-47247596D01*
X171369741Y-47521948D01*
X171460303Y-47786457D01*
X171480898Y-47827405D01*
X171583625Y-48031654D01*
X171585925Y-48036228D01*
X171744282Y-48266639D01*
X171747169Y-48269812D01*
X171747170Y-48269813D01*
X171929564Y-48470262D01*
X171932444Y-48473427D01*
X171958726Y-48495402D01*
X172143638Y-48650013D01*
X172143643Y-48650017D01*
X172146930Y-48652765D01*
X172200037Y-48686079D01*
X172380131Y-48799052D01*
X172380135Y-48799054D01*
X172383771Y-48801335D01*
X172387681Y-48803100D01*
X172387682Y-48803101D01*
X172634671Y-48914621D01*
X172634675Y-48914623D01*
X172638583Y-48916387D01*
X172642702Y-48917607D01*
X172902539Y-48994575D01*
X172902544Y-48994576D01*
X172906652Y-48995793D01*
X172910886Y-48996441D01*
X172910891Y-48996442D01*
X173113387Y-49027428D01*
X173183018Y-49038083D01*
X173325396Y-49040319D01*
X173458275Y-49042407D01*
X173458281Y-49042407D01*
X173462566Y-49042474D01*
X173740123Y-49008886D01*
X174010554Y-48937940D01*
X174014514Y-48936300D01*
X174014519Y-48936298D01*
X174228494Y-48847666D01*
X174268855Y-48830948D01*
X174394919Y-48757282D01*
X174506542Y-48692055D01*
X174506543Y-48692054D01*
X174510245Y-48689891D01*
X174730258Y-48517379D01*
X174772851Y-48473427D01*
X174921840Y-48319681D01*
X174924823Y-48316603D01*
X175090340Y-48091280D01*
X175097510Y-48078074D01*
X175221695Y-47849354D01*
X175221696Y-47849352D01*
X175223745Y-47845578D01*
X175322570Y-47584044D01*
X175370174Y-47376196D01*
X175384030Y-47315698D01*
X175384031Y-47315693D01*
X175384987Y-47311518D01*
X175409840Y-47033043D01*
X175410291Y-46990000D01*
X175409387Y-46976743D01*
X175391567Y-46715342D01*
X175391566Y-46715336D01*
X175391275Y-46711065D01*
X175387747Y-46694026D01*
X175335450Y-46441498D01*
X175334579Y-46437292D01*
X175331975Y-46429937D01*
X175242684Y-46177787D01*
X175241253Y-46173746D01*
X175113022Y-45925304D01*
X174992909Y-45754400D01*
X174954724Y-45700067D01*
X174954721Y-45700064D01*
X174952261Y-45696563D01*
X174936785Y-45679908D01*
X174764861Y-45494896D01*
X174764860Y-45494895D01*
X174761944Y-45491757D01*
X174545591Y-45314675D01*
X174307208Y-45168594D01*
X174289355Y-45160757D01*
X174055133Y-45057940D01*
X174055129Y-45057939D01*
X174051205Y-45056216D01*
X173782319Y-44979622D01*
X173576307Y-44950302D01*
X173509778Y-44940834D01*
X173509776Y-44940834D01*
X173505526Y-44940229D01*
X173358177Y-44939457D01*
X173230233Y-44938787D01*
X173230226Y-44938787D01*
X173225947Y-44938765D01*
X173221703Y-44939324D01*
X173221699Y-44939324D01*
X173100358Y-44955299D01*
X172948757Y-44975257D01*
X172944617Y-44976390D01*
X172944615Y-44976390D01*
X172683228Y-45047898D01*
X172679083Y-45049032D01*
X172421917Y-45158722D01*
X172299992Y-45231693D01*
X172185700Y-45300095D01*
X172185696Y-45300098D01*
X172182018Y-45302299D01*
X171963823Y-45477106D01*
X171771371Y-45679908D01*
X171608223Y-45906952D01*
X171477398Y-46154038D01*
X171475926Y-46158061D01*
X171475924Y-46158065D01*
X171399929Y-46365732D01*
X171381317Y-46416592D01*
X171321757Y-46689757D01*
X171321421Y-46694026D01*
X171305254Y-46899460D01*
X171299822Y-46968477D01*
X166078699Y-46968477D01*
X166281808Y-46840573D01*
X166373119Y-46760072D01*
X166465168Y-46678920D01*
X166465171Y-46678917D01*
X166468965Y-46675572D01*
X166627334Y-46482770D01*
X166752840Y-46267128D01*
X166771564Y-46218352D01*
X166840443Y-46038915D01*
X166842255Y-46034195D01*
X166865004Y-45925304D01*
X166892243Y-45794915D01*
X166893278Y-45789961D01*
X166904596Y-45540712D01*
X166875919Y-45292860D01*
X166807983Y-45052781D01*
X166702538Y-44826652D01*
X166562294Y-44620290D01*
X166522371Y-44578072D01*
X166490099Y-44514836D01*
X166497139Y-44444189D01*
X166541255Y-44388563D01*
X166613919Y-44365500D01*
X173310662Y-44365500D01*
X173327109Y-44366578D01*
X173355000Y-44370250D01*
X173363187Y-44369172D01*
X173363195Y-44369172D01*
X173368581Y-44368463D01*
X173392089Y-44367583D01*
X173553914Y-44376670D01*
X173641790Y-44381605D01*
X173655822Y-44383186D01*
X173793929Y-44406652D01*
X173932030Y-44430117D01*
X173945805Y-44433261D01*
X174215019Y-44510820D01*
X174228356Y-44515487D01*
X174363527Y-44571476D01*
X174487195Y-44622701D01*
X174499918Y-44628828D01*
X174604401Y-44686574D01*
X174745122Y-44764348D01*
X174757086Y-44771865D01*
X174985580Y-44933990D01*
X174996627Y-44942800D01*
X175205526Y-45129483D01*
X175215517Y-45139474D01*
X175402200Y-45348373D01*
X175411010Y-45359420D01*
X175573135Y-45587914D01*
X175580652Y-45599878D01*
X175633429Y-45695370D01*
X175701825Y-45819122D01*
X175716170Y-45845078D01*
X175722299Y-45857805D01*
X175750258Y-45925304D01*
X175829513Y-46116644D01*
X175834180Y-46129981D01*
X175911739Y-46399195D01*
X175914883Y-46412970D01*
X175933299Y-46521355D01*
X175951449Y-46628174D01*
X175961813Y-46689173D01*
X175963395Y-46703214D01*
X175977417Y-46952911D01*
X175976537Y-46976419D01*
X175975828Y-46981805D01*
X175975828Y-46981813D01*
X175974750Y-46990000D01*
X175975828Y-46998188D01*
X175978422Y-47017891D01*
X175979500Y-47034338D01*
X175979500Y-59645662D01*
X175978422Y-59662109D01*
X175974750Y-59690000D01*
X175975828Y-59698187D01*
X175975828Y-59698195D01*
X175976537Y-59703581D01*
X175977417Y-59727089D01*
X175963395Y-59976786D01*
X175961814Y-59990822D01*
X175958297Y-60011518D01*
X175914883Y-60267030D01*
X175911739Y-60280805D01*
X175834180Y-60550019D01*
X175829513Y-60563356D01*
X175775379Y-60694048D01*
X175723365Y-60819623D01*
X175722301Y-60822191D01*
X175716172Y-60834918D01*
X175700080Y-60864035D01*
X175580652Y-61080122D01*
X175573135Y-61092086D01*
X175411010Y-61320580D01*
X175402200Y-61331627D01*
X175215517Y-61540526D01*
X175205527Y-61550516D01*
X175183976Y-61569775D01*
X174996627Y-61737200D01*
X174985580Y-61746010D01*
X174757086Y-61908135D01*
X174745122Y-61915652D01*
X174673805Y-61955068D01*
X174499918Y-62051172D01*
X174487195Y-62057299D01*
X174466235Y-62065981D01*
X174228356Y-62164513D01*
X174215019Y-62169180D01*
X173945805Y-62246739D01*
X173932030Y-62249883D01*
X173793928Y-62273348D01*
X173655822Y-62296814D01*
X173641790Y-62298395D01*
X173553914Y-62303330D01*
X173392089Y-62312417D01*
X173368581Y-62311537D01*
X173363195Y-62310828D01*
X173363187Y-62310828D01*
X173355000Y-62309750D01*
X173346812Y-62310828D01*
X173327109Y-62313422D01*
X173310662Y-62314500D01*
X169948920Y-62314500D01*
X169880799Y-62294498D01*
X169834306Y-62240842D01*
X169824202Y-62170568D01*
X169853696Y-62105988D01*
X169919506Y-62065981D01*
X169926937Y-62064197D01*
X169956610Y-62057073D01*
X169961183Y-62055179D01*
X170192054Y-61959549D01*
X170192058Y-61959547D01*
X170196628Y-61957654D01*
X170418140Y-61821912D01*
X170615689Y-61653189D01*
X170784412Y-61455640D01*
X170920154Y-61234128D01*
X170931389Y-61207006D01*
X171017679Y-60998683D01*
X171017680Y-60998681D01*
X171019573Y-60994110D01*
X171050243Y-60866361D01*
X171079066Y-60746307D01*
X171079067Y-60746301D01*
X171080221Y-60741494D01*
X171089991Y-60617350D01*
X171095307Y-60549810D01*
X171095307Y-60549801D01*
X171095500Y-60547353D01*
X171095500Y-60120826D01*
X171115502Y-60052705D01*
X171169158Y-60006212D01*
X171239432Y-59996108D01*
X171304012Y-60025602D01*
X171342396Y-60085328D01*
X171345143Y-60096568D01*
X171369741Y-60221948D01*
X171371127Y-60225996D01*
X171387565Y-60274006D01*
X171460303Y-60486457D01*
X171495727Y-60556889D01*
X171583625Y-60731654D01*
X171585925Y-60736228D01*
X171744282Y-60966639D01*
X171747169Y-60969812D01*
X171747170Y-60969813D01*
X171859865Y-61093664D01*
X171932444Y-61173427D01*
X171935725Y-61176170D01*
X172143638Y-61350013D01*
X172143643Y-61350017D01*
X172146930Y-61352765D01*
X172161848Y-61362123D01*
X172380131Y-61499052D01*
X172380135Y-61499054D01*
X172383771Y-61501335D01*
X172387681Y-61503100D01*
X172387682Y-61503101D01*
X172634671Y-61614621D01*
X172634675Y-61614623D01*
X172638583Y-61616387D01*
X172647928Y-61619155D01*
X172902539Y-61694575D01*
X172902544Y-61694576D01*
X172906652Y-61695793D01*
X172910886Y-61696441D01*
X172910891Y-61696442D01*
X173153904Y-61733628D01*
X173183018Y-61738083D01*
X173325396Y-61740319D01*
X173458275Y-61742407D01*
X173458281Y-61742407D01*
X173462566Y-61742474D01*
X173740123Y-61708886D01*
X174010554Y-61637940D01*
X174014514Y-61636300D01*
X174014519Y-61636298D01*
X174139705Y-61584444D01*
X174268855Y-61530948D01*
X174510245Y-61389891D01*
X174730258Y-61217379D01*
X174772851Y-61173427D01*
X174877683Y-61065248D01*
X174924823Y-61016603D01*
X175090340Y-60791280D01*
X175117372Y-60741494D01*
X175221695Y-60549354D01*
X175221696Y-60549352D01*
X175223745Y-60545578D01*
X175322570Y-60284044D01*
X175375554Y-60052705D01*
X175384030Y-60015698D01*
X175384031Y-60015693D01*
X175384987Y-60011518D01*
X175409840Y-59733043D01*
X175410291Y-59690000D01*
X175409387Y-59676743D01*
X175391567Y-59415342D01*
X175391566Y-59415336D01*
X175391275Y-59411065D01*
X175387747Y-59394026D01*
X175335450Y-59141498D01*
X175334579Y-59137292D01*
X175328734Y-59120784D01*
X175242684Y-58877787D01*
X175241253Y-58873746D01*
X175113022Y-58625304D01*
X175026960Y-58502850D01*
X174954724Y-58400067D01*
X174954721Y-58400064D01*
X174952261Y-58396563D01*
X174936785Y-58379908D01*
X174764861Y-58194896D01*
X174764860Y-58194895D01*
X174761944Y-58191757D01*
X174756635Y-58187411D01*
X174586659Y-58048289D01*
X174545591Y-58014675D01*
X174307208Y-57868594D01*
X174289738Y-57860925D01*
X174055133Y-57757940D01*
X174055129Y-57757939D01*
X174051205Y-57756216D01*
X173782319Y-57679622D01*
X173576307Y-57650302D01*
X173509778Y-57640834D01*
X173509776Y-57640834D01*
X173505526Y-57640229D01*
X173358177Y-57639457D01*
X173230233Y-57638787D01*
X173230226Y-57638787D01*
X173225947Y-57638765D01*
X173221703Y-57639324D01*
X173221699Y-57639324D01*
X173114750Y-57653404D01*
X172948757Y-57675257D01*
X172944617Y-57676390D01*
X172944615Y-57676390D01*
X172829124Y-57707985D01*
X172679083Y-57749032D01*
X172421917Y-57858722D01*
X172277110Y-57945388D01*
X172185700Y-58000095D01*
X172185696Y-58000098D01*
X172182018Y-58002299D01*
X171963823Y-58177106D01*
X171771371Y-58379908D01*
X171608223Y-58606952D01*
X171477398Y-58854038D01*
X171475926Y-58858061D01*
X171475924Y-58858065D01*
X171417707Y-59017152D01*
X171381317Y-59116592D01*
X171350461Y-59258112D01*
X171344608Y-59284954D01*
X171310553Y-59347250D01*
X171248225Y-59381245D01*
X171177411Y-59376147D01*
X171120596Y-59333573D01*
X171095817Y-59267041D01*
X171095500Y-59258112D01*
X171095500Y-59117647D01*
X171094569Y-59105808D01*
X171080609Y-58928440D01*
X171080221Y-58923506D01*
X171079067Y-58918699D01*
X171079066Y-58918693D01*
X171036290Y-58740523D01*
X171019573Y-58670890D01*
X171017679Y-58666317D01*
X170922049Y-58435446D01*
X170922047Y-58435442D01*
X170920154Y-58430872D01*
X170784412Y-58209360D01*
X170615689Y-58011811D01*
X170610690Y-58007541D01*
X170518072Y-57928438D01*
X170418140Y-57843088D01*
X170309943Y-57776785D01*
X170285227Y-57761639D01*
X170237596Y-57708991D01*
X170225989Y-57638950D01*
X170254092Y-57573752D01*
X170261967Y-57565111D01*
X171374559Y-56452519D01*
X171375497Y-56451590D01*
X171396439Y-56431082D01*
X171439268Y-56389141D01*
X171443083Y-56383221D01*
X171443088Y-56383215D01*
X171462490Y-56353109D01*
X171469930Y-56342755D01*
X171492267Y-56314774D01*
X171496664Y-56309266D01*
X171511082Y-56279441D01*
X171518611Y-56266025D01*
X171532735Y-56244109D01*
X171536554Y-56238183D01*
X171551213Y-56197909D01*
X171556172Y-56186169D01*
X171571763Y-56153916D01*
X171574827Y-56147578D01*
X171582279Y-56115302D01*
X171586648Y-56100554D01*
X171595568Y-56076045D01*
X171595569Y-56076041D01*
X171597978Y-56069422D01*
X171603352Y-56026882D01*
X171605582Y-56014363D01*
X171615226Y-55972589D01*
X171615367Y-55932418D01*
X171615396Y-55931545D01*
X171615500Y-55930717D01*
X171615500Y-55894108D01*
X171615764Y-55818572D01*
X171615841Y-55796493D01*
X171615841Y-55796490D01*
X171615853Y-55793000D01*
X171615587Y-55791812D01*
X171615500Y-55790200D01*
X171615500Y-54689808D01*
X171635502Y-54621687D01*
X171652405Y-54600713D01*
X171757373Y-54495745D01*
X171836932Y-54382124D01*
X171877211Y-54324599D01*
X171877212Y-54324597D01*
X171880368Y-54320090D01*
X171882691Y-54315108D01*
X171882694Y-54315103D01*
X171968669Y-54130729D01*
X171968670Y-54130727D01*
X171970992Y-54125747D01*
X172026492Y-53918619D01*
X172045181Y-53705000D01*
X172026492Y-53491381D01*
X171981716Y-53324275D01*
X171972415Y-53289563D01*
X171972414Y-53289561D01*
X171970992Y-53284253D01*
X171958867Y-53258250D01*
X171882694Y-53094897D01*
X171882691Y-53094892D01*
X171880368Y-53089910D01*
X171828965Y-53016498D01*
X171805586Y-52983110D01*
X171782898Y-52915836D01*
X171800183Y-52846975D01*
X171832618Y-52810477D01*
X171875728Y-52777754D01*
X171887757Y-52765725D01*
X171968478Y-52659380D01*
X171976835Y-52644549D01*
X172026166Y-52519953D01*
X172030119Y-52504388D01*
X172039544Y-52426498D01*
X172040000Y-52418943D01*
X172040000Y-52073115D01*
X172035525Y-52057876D01*
X172034135Y-52056671D01*
X172026452Y-52055000D01*
X169608115Y-52055000D01*
X169592876Y-52059475D01*
X169591671Y-52060865D01*
X169590000Y-52068548D01*
X169590000Y-52418943D01*
X169590456Y-52426498D01*
X169599881Y-52504388D01*
X169603834Y-52519953D01*
X169653165Y-52644549D01*
X169661522Y-52659380D01*
X169742243Y-52765725D01*
X169754272Y-52777754D01*
X169797382Y-52810477D01*
X169839548Y-52867596D01*
X169844140Y-52938444D01*
X169824414Y-52983110D01*
X169801036Y-53016498D01*
X169749632Y-53089910D01*
X169747309Y-53094892D01*
X169747306Y-53094897D01*
X169671133Y-53258250D01*
X169659008Y-53284253D01*
X169657586Y-53289561D01*
X169657585Y-53289563D01*
X169648284Y-53324275D01*
X169603508Y-53491381D01*
X169584819Y-53705000D01*
X169603508Y-53918619D01*
X169659008Y-54125747D01*
X169661330Y-54130727D01*
X169661331Y-54130729D01*
X169747306Y-54315103D01*
X169747309Y-54315108D01*
X169749632Y-54320090D01*
X169752788Y-54324597D01*
X169752789Y-54324599D01*
X169793069Y-54382124D01*
X169872627Y-54495745D01*
X169977595Y-54600713D01*
X170011621Y-54663025D01*
X170014500Y-54689808D01*
X170014500Y-55496232D01*
X169994498Y-55564353D01*
X169977595Y-55585327D01*
X169250327Y-56312595D01*
X169188015Y-56346621D01*
X169161232Y-56349500D01*
X166130329Y-56349500D01*
X166062208Y-56329498D01*
X166015715Y-56275842D01*
X166005611Y-56205568D01*
X166035105Y-56140988D01*
X166071946Y-56111842D01*
X166074732Y-56110385D01*
X166277225Y-55982868D01*
X166285301Y-55976827D01*
X166464807Y-55818572D01*
X166471815Y-55811315D01*
X166623714Y-55626390D01*
X166629464Y-55618116D01*
X166749846Y-55411280D01*
X166754201Y-55402189D01*
X166839959Y-55178782D01*
X166842810Y-55169093D01*
X166856673Y-55102736D01*
X166855550Y-55088675D01*
X166845442Y-55085000D01*
X165468115Y-55085000D01*
X165452876Y-55089475D01*
X165451671Y-55090865D01*
X165450000Y-55098548D01*
X165450000Y-56263882D01*
X165463752Y-56310716D01*
X165467963Y-56317268D01*
X165467969Y-56388264D01*
X165429590Y-56447994D01*
X165413517Y-56459740D01*
X165407793Y-56462409D01*
X165388787Y-56477152D01*
X165373933Y-56488674D01*
X165363476Y-56495969D01*
X165333100Y-56514950D01*
X165333097Y-56514952D01*
X165327125Y-56518684D01*
X165322128Y-56523646D01*
X165322127Y-56523647D01*
X165298607Y-56547003D01*
X165297985Y-56547585D01*
X165297323Y-56548099D01*
X165271463Y-56573959D01*
X165199693Y-56645230D01*
X165199041Y-56646257D01*
X165197957Y-56647465D01*
X163754928Y-58090494D01*
X163692616Y-58124520D01*
X163621801Y-58119455D01*
X163612583Y-58115594D01*
X163596478Y-58108084D01*
X163596476Y-58108083D01*
X163591496Y-58105761D01*
X163586188Y-58104339D01*
X163586186Y-58104338D01*
X163377007Y-58048289D01*
X163377005Y-58048289D01*
X163371692Y-58046865D01*
X163145000Y-58027032D01*
X162918308Y-58046865D01*
X162912995Y-58048289D01*
X162912993Y-58048289D01*
X162703814Y-58104338D01*
X162703812Y-58104339D01*
X162698504Y-58105761D01*
X162693524Y-58108083D01*
X162693522Y-58108084D01*
X162497247Y-58199609D01*
X162497244Y-58199611D01*
X162492266Y-58201932D01*
X162305861Y-58332453D01*
X162144953Y-58493361D01*
X162014432Y-58679766D01*
X162012111Y-58684744D01*
X162012109Y-58684747D01*
X161920584Y-58881022D01*
X161918261Y-58886004D01*
X161916839Y-58891312D01*
X161916838Y-58891314D01*
X161860789Y-59100493D01*
X161859365Y-59105808D01*
X161858055Y-59120784D01*
X161848356Y-59231647D01*
X161844500Y-59275716D01*
X161844500Y-60389284D01*
X161859365Y-60559192D01*
X161860789Y-60564505D01*
X161860789Y-60564507D01*
X161908300Y-60741819D01*
X161918261Y-60778996D01*
X161920583Y-60783976D01*
X161920584Y-60783978D01*
X162005149Y-60965326D01*
X162014432Y-60985234D01*
X162144953Y-61171639D01*
X162305861Y-61332547D01*
X162492266Y-61463068D01*
X162497244Y-61465389D01*
X162497247Y-61465391D01*
X162693522Y-61556916D01*
X162698504Y-61559239D01*
X162703812Y-61560661D01*
X162703814Y-61560662D01*
X162912993Y-61616711D01*
X162912995Y-61616711D01*
X162918308Y-61618135D01*
X163145000Y-61637968D01*
X163371692Y-61618135D01*
X163377005Y-61616711D01*
X163377007Y-61616711D01*
X163586186Y-61560662D01*
X163586188Y-61560661D01*
X163591496Y-61559239D01*
X163596478Y-61556916D01*
X163792753Y-61465391D01*
X163792756Y-61465389D01*
X163797734Y-61463068D01*
X163984139Y-61332547D01*
X164145047Y-61171639D01*
X164275568Y-60985234D01*
X164284852Y-60965326D01*
X164369416Y-60783978D01*
X164369417Y-60783976D01*
X164371739Y-60778996D01*
X164381701Y-60741819D01*
X164429211Y-60564507D01*
X164429211Y-60564505D01*
X164430635Y-60559192D01*
X164445500Y-60389284D01*
X164445500Y-59716268D01*
X164465502Y-59648147D01*
X164482405Y-59627173D01*
X164629405Y-59480173D01*
X164691717Y-59446147D01*
X164762532Y-59451212D01*
X164819368Y-59493759D01*
X164844179Y-59560279D01*
X164844500Y-59569268D01*
X164844500Y-60389284D01*
X164859365Y-60559192D01*
X164860789Y-60564505D01*
X164860789Y-60564507D01*
X164908300Y-60741819D01*
X164918261Y-60778996D01*
X164920583Y-60783976D01*
X164920584Y-60783978D01*
X165005149Y-60965326D01*
X165014432Y-60985234D01*
X165144953Y-61171639D01*
X165305861Y-61332547D01*
X165492266Y-61463068D01*
X165497244Y-61465389D01*
X165497247Y-61465391D01*
X165693522Y-61556916D01*
X165698504Y-61559239D01*
X165703812Y-61560661D01*
X165703814Y-61560662D01*
X165912993Y-61616711D01*
X165912995Y-61616711D01*
X165918308Y-61618135D01*
X166145000Y-61637968D01*
X166371692Y-61618135D01*
X166377005Y-61616711D01*
X166377007Y-61616711D01*
X166586186Y-61560662D01*
X166586188Y-61560661D01*
X166591496Y-61559239D01*
X166596478Y-61556916D01*
X166792753Y-61465391D01*
X166792756Y-61465389D01*
X166797734Y-61463068D01*
X166984139Y-61332547D01*
X167145047Y-61171639D01*
X167275568Y-60985234D01*
X167284852Y-60965326D01*
X167369416Y-60783978D01*
X167369417Y-60783976D01*
X167371739Y-60778996D01*
X167381701Y-60741819D01*
X167429211Y-60564507D01*
X167429211Y-60564505D01*
X167430635Y-60559192D01*
X167445500Y-60389284D01*
X167445500Y-59275716D01*
X167441645Y-59231647D01*
X167431945Y-59120784D01*
X167430635Y-59105808D01*
X167429211Y-59100493D01*
X167373162Y-58891314D01*
X167373161Y-58891312D01*
X167371739Y-58886004D01*
X167369416Y-58881022D01*
X167277891Y-58684747D01*
X167277889Y-58684744D01*
X167275568Y-58679766D01*
X167145047Y-58493361D01*
X166984139Y-58332453D01*
X166797734Y-58201932D01*
X166792756Y-58199611D01*
X166792753Y-58199609D01*
X166773636Y-58190695D01*
X166720351Y-58143778D01*
X166700890Y-58075501D01*
X166721432Y-58007541D01*
X166775454Y-57961475D01*
X166826886Y-57950500D01*
X168053360Y-57950500D01*
X168121481Y-57970502D01*
X168167974Y-58024158D01*
X168178078Y-58094432D01*
X168149171Y-58158331D01*
X168105588Y-58209360D01*
X167969846Y-58430872D01*
X167967953Y-58435442D01*
X167967951Y-58435446D01*
X167872321Y-58666317D01*
X167870427Y-58670890D01*
X167853710Y-58740523D01*
X167810934Y-58918693D01*
X167810933Y-58918699D01*
X167809779Y-58923506D01*
X167809391Y-58928440D01*
X167795432Y-59105808D01*
X167794500Y-59117647D01*
X167794500Y-60547353D01*
X167794693Y-60549801D01*
X167794693Y-60549810D01*
X167800009Y-60617350D01*
X167809779Y-60741494D01*
X167810933Y-60746301D01*
X167810934Y-60746307D01*
X167839757Y-60866361D01*
X167870427Y-60994110D01*
X167872320Y-60998681D01*
X167872321Y-60998683D01*
X167958612Y-61207006D01*
X167969846Y-61234128D01*
X168105588Y-61455640D01*
X168274311Y-61653189D01*
X168471860Y-61821912D01*
X168693372Y-61957654D01*
X168697942Y-61959547D01*
X168697946Y-61959549D01*
X168928817Y-62055179D01*
X168933390Y-62057073D01*
X168963063Y-62064197D01*
X168970494Y-62065981D01*
X169032064Y-62101334D01*
X169064746Y-62164360D01*
X169058165Y-62235051D01*
X169014411Y-62290963D01*
X168941080Y-62314500D01*
X157348920Y-62314500D01*
X157280799Y-62294498D01*
X157234306Y-62240842D01*
X157224202Y-62170568D01*
X157253696Y-62105988D01*
X157319506Y-62065981D01*
X157326937Y-62064197D01*
X157356610Y-62057073D01*
X157361183Y-62055179D01*
X157592054Y-61959549D01*
X157592058Y-61959547D01*
X157596628Y-61957654D01*
X157818140Y-61821912D01*
X158015689Y-61653189D01*
X158184412Y-61455640D01*
X158320154Y-61234128D01*
X158331389Y-61207006D01*
X158417679Y-60998683D01*
X158417680Y-60998681D01*
X158419573Y-60994110D01*
X158450243Y-60866361D01*
X158479066Y-60746307D01*
X158479067Y-60746301D01*
X158480221Y-60741494D01*
X158489991Y-60617350D01*
X158495307Y-60549810D01*
X158495307Y-60549801D01*
X158495500Y-60547353D01*
X158495500Y-59117647D01*
X158494569Y-59105808D01*
X158480609Y-58928440D01*
X158480221Y-58923506D01*
X158479067Y-58918699D01*
X158479066Y-58918693D01*
X158436290Y-58740523D01*
X158419573Y-58670890D01*
X158417679Y-58666317D01*
X158322049Y-58435446D01*
X158322047Y-58435442D01*
X158320154Y-58430872D01*
X158184412Y-58209360D01*
X158015689Y-58011811D01*
X158010690Y-58007541D01*
X157918072Y-57928438D01*
X157818140Y-57843088D01*
X157596628Y-57707346D01*
X157592058Y-57705453D01*
X157592054Y-57705451D01*
X157361183Y-57609821D01*
X157361181Y-57609820D01*
X157356610Y-57607927D01*
X157214262Y-57573752D01*
X157108807Y-57548434D01*
X157108801Y-57548433D01*
X157103994Y-57547279D01*
X156845000Y-57526896D01*
X156586006Y-57547279D01*
X156581199Y-57548433D01*
X156581193Y-57548434D01*
X156475738Y-57573752D01*
X156333390Y-57607927D01*
X156328819Y-57609820D01*
X156328817Y-57609821D01*
X156097946Y-57705451D01*
X156097942Y-57705453D01*
X156093372Y-57707346D01*
X155871860Y-57843088D01*
X155771928Y-57928438D01*
X155679311Y-58007541D01*
X155674311Y-58011811D01*
X155505588Y-58209360D01*
X155369846Y-58430872D01*
X155367953Y-58435442D01*
X155367951Y-58435446D01*
X155272321Y-58666317D01*
X155270427Y-58670890D01*
X155253710Y-58740523D01*
X155210934Y-58918693D01*
X155210933Y-58918699D01*
X155209779Y-58923506D01*
X155209391Y-58928440D01*
X155195432Y-59105808D01*
X155194500Y-59117647D01*
X155194500Y-60547353D01*
X155194693Y-60549801D01*
X155194693Y-60549810D01*
X155200009Y-60617350D01*
X155209779Y-60741494D01*
X155210933Y-60746301D01*
X155210934Y-60746307D01*
X155239757Y-60866361D01*
X155270427Y-60994110D01*
X155272320Y-60998681D01*
X155272321Y-60998683D01*
X155358612Y-61207006D01*
X155369846Y-61234128D01*
X155505588Y-61455640D01*
X155674311Y-61653189D01*
X155871860Y-61821912D01*
X156093372Y-61957654D01*
X156097942Y-61959547D01*
X156097946Y-61959549D01*
X156328817Y-62055179D01*
X156333390Y-62057073D01*
X156363063Y-62064197D01*
X156370494Y-62065981D01*
X156432064Y-62101334D01*
X156464746Y-62164360D01*
X156458165Y-62235051D01*
X156414411Y-62290963D01*
X156341080Y-62314500D01*
X55289338Y-62314500D01*
X55272891Y-62313422D01*
X55253188Y-62310828D01*
X55245000Y-62309750D01*
X55236813Y-62310828D01*
X55236805Y-62310828D01*
X55231419Y-62311537D01*
X55207911Y-62312417D01*
X55046086Y-62303330D01*
X54958210Y-62298395D01*
X54944178Y-62296814D01*
X54806071Y-62273348D01*
X54667970Y-62249883D01*
X54654195Y-62246739D01*
X54384981Y-62169180D01*
X54371644Y-62164513D01*
X54133765Y-62065981D01*
X54112805Y-62057299D01*
X54100082Y-62051172D01*
X53926195Y-61955068D01*
X53854878Y-61915652D01*
X53842914Y-61908135D01*
X53614420Y-61746010D01*
X53603373Y-61737200D01*
X53416024Y-61569775D01*
X53394473Y-61550516D01*
X53384483Y-61540526D01*
X53197800Y-61331627D01*
X53188990Y-61320580D01*
X53026865Y-61092086D01*
X53019348Y-61080122D01*
X52899920Y-60864035D01*
X52883828Y-60834918D01*
X52877699Y-60822191D01*
X52876636Y-60819623D01*
X52824621Y-60694048D01*
X52770487Y-60563356D01*
X52765820Y-60550019D01*
X52688261Y-60280805D01*
X52685117Y-60267030D01*
X52641703Y-60011518D01*
X52638186Y-59990822D01*
X52636605Y-59976786D01*
X52622583Y-59727089D01*
X52623463Y-59703581D01*
X52624172Y-59698195D01*
X52624172Y-59698187D01*
X52625250Y-59690000D01*
X52622416Y-59668477D01*
X53189822Y-59668477D01*
X53190299Y-59676743D01*
X53205916Y-59947596D01*
X53259741Y-60221948D01*
X53261127Y-60225996D01*
X53277565Y-60274006D01*
X53350303Y-60486457D01*
X53385727Y-60556889D01*
X53473625Y-60731654D01*
X53475925Y-60736228D01*
X53634282Y-60966639D01*
X53637169Y-60969812D01*
X53637170Y-60969813D01*
X53749865Y-61093664D01*
X53822444Y-61173427D01*
X53825725Y-61176170D01*
X54033638Y-61350013D01*
X54033643Y-61350017D01*
X54036930Y-61352765D01*
X54051848Y-61362123D01*
X54270131Y-61499052D01*
X54270135Y-61499054D01*
X54273771Y-61501335D01*
X54277681Y-61503100D01*
X54277682Y-61503101D01*
X54524671Y-61614621D01*
X54524675Y-61614623D01*
X54528583Y-61616387D01*
X54537928Y-61619155D01*
X54792539Y-61694575D01*
X54792544Y-61694576D01*
X54796652Y-61695793D01*
X54800886Y-61696441D01*
X54800891Y-61696442D01*
X55043904Y-61733628D01*
X55073018Y-61738083D01*
X55215396Y-61740319D01*
X55348275Y-61742407D01*
X55348281Y-61742407D01*
X55352566Y-61742474D01*
X55630123Y-61708886D01*
X55900554Y-61637940D01*
X55904514Y-61636300D01*
X55904519Y-61636298D01*
X56029705Y-61584444D01*
X56158855Y-61530948D01*
X56400245Y-61389891D01*
X56620258Y-61217379D01*
X56662851Y-61173427D01*
X56767683Y-61065248D01*
X56814823Y-61016603D01*
X56980340Y-60791280D01*
X57007372Y-60741494D01*
X57111695Y-60549354D01*
X57111696Y-60549352D01*
X57113745Y-60545578D01*
X57212570Y-60284044D01*
X57265554Y-60052705D01*
X57274030Y-60015698D01*
X57274031Y-60015693D01*
X57274987Y-60011518D01*
X57299840Y-59733043D01*
X57300291Y-59690000D01*
X57299387Y-59676743D01*
X57281567Y-59415342D01*
X57281566Y-59415336D01*
X57281275Y-59411065D01*
X57277747Y-59394026D01*
X57225450Y-59141498D01*
X57224579Y-59137292D01*
X57218734Y-59120784D01*
X57132684Y-58877787D01*
X57131253Y-58873746D01*
X57003022Y-58625304D01*
X56916960Y-58502850D01*
X56844724Y-58400067D01*
X56844721Y-58400064D01*
X56842261Y-58396563D01*
X56826785Y-58379908D01*
X56654861Y-58194896D01*
X56654860Y-58194895D01*
X56651944Y-58191757D01*
X56646635Y-58187411D01*
X56476659Y-58048289D01*
X56435591Y-58014675D01*
X56197208Y-57868594D01*
X56179738Y-57860925D01*
X55945133Y-57757940D01*
X55945129Y-57757939D01*
X55941205Y-57756216D01*
X55672319Y-57679622D01*
X55466307Y-57650302D01*
X55399778Y-57640834D01*
X55399776Y-57640834D01*
X55395526Y-57640229D01*
X55248177Y-57639457D01*
X55120233Y-57638787D01*
X55120226Y-57638787D01*
X55115947Y-57638765D01*
X55111703Y-57639324D01*
X55111699Y-57639324D01*
X55004750Y-57653404D01*
X54838757Y-57675257D01*
X54834617Y-57676390D01*
X54834615Y-57676390D01*
X54719124Y-57707985D01*
X54569083Y-57749032D01*
X54311917Y-57858722D01*
X54167110Y-57945388D01*
X54075700Y-58000095D01*
X54075696Y-58000098D01*
X54072018Y-58002299D01*
X53853823Y-58177106D01*
X53661371Y-58379908D01*
X53498223Y-58606952D01*
X53367398Y-58854038D01*
X53365926Y-58858061D01*
X53365924Y-58858065D01*
X53307707Y-59017152D01*
X53271317Y-59116592D01*
X53211757Y-59389757D01*
X53211421Y-59394026D01*
X53190968Y-59653921D01*
X53189822Y-59668477D01*
X52622416Y-59668477D01*
X52621578Y-59662109D01*
X52620500Y-59645662D01*
X52620500Y-54367264D01*
X148103327Y-54367264D01*
X148104450Y-54381325D01*
X148114558Y-54385000D01*
X149491885Y-54385000D01*
X149507124Y-54380525D01*
X149508329Y-54379135D01*
X149510000Y-54371452D01*
X149510000Y-54366885D01*
X150210000Y-54366885D01*
X150214475Y-54382124D01*
X150215865Y-54383329D01*
X150223548Y-54385000D01*
X151603742Y-54385000D01*
X151617273Y-54381027D01*
X151618438Y-54372919D01*
X151568890Y-54197818D01*
X151565378Y-54188374D01*
X151464239Y-53971482D01*
X151459260Y-53962716D01*
X151324752Y-53764795D01*
X151318420Y-53756920D01*
X151154009Y-53583060D01*
X151146500Y-53576299D01*
X150956400Y-53430956D01*
X150947921Y-53425492D01*
X150737021Y-53312409D01*
X150727775Y-53308370D01*
X150501505Y-53230459D01*
X150491739Y-53227951D01*
X150254844Y-53187032D01*
X150246978Y-53186177D01*
X150227170Y-53185278D01*
X150212876Y-53189475D01*
X150211671Y-53190865D01*
X150210000Y-53198548D01*
X150210000Y-54366885D01*
X149510000Y-54366885D01*
X149510000Y-53206118D01*
X149505666Y-53191356D01*
X149493943Y-53189295D01*
X149366420Y-53199555D01*
X149356467Y-53201167D01*
X149124066Y-53258250D01*
X149114496Y-53261433D01*
X148894210Y-53354939D01*
X148885271Y-53359613D01*
X148682775Y-53487132D01*
X148674699Y-53493173D01*
X148495193Y-53651428D01*
X148488185Y-53658685D01*
X148336286Y-53843610D01*
X148330536Y-53851884D01*
X148210154Y-54058720D01*
X148205799Y-54067811D01*
X148120041Y-54291218D01*
X148117190Y-54300907D01*
X148103327Y-54367264D01*
X52620500Y-54367264D01*
X52620500Y-53008943D01*
X56970000Y-53008943D01*
X56970456Y-53016498D01*
X56979881Y-53094388D01*
X56983834Y-53109953D01*
X57033165Y-53234549D01*
X57041522Y-53249380D01*
X57122243Y-53355725D01*
X57134275Y-53367757D01*
X57240620Y-53448478D01*
X57255451Y-53456835D01*
X57380047Y-53506166D01*
X57395612Y-53510119D01*
X57473502Y-53519544D01*
X57481057Y-53520000D01*
X58051885Y-53520000D01*
X58067124Y-53515525D01*
X58068329Y-53514135D01*
X58070000Y-53506452D01*
X58070000Y-53501885D01*
X58770000Y-53501885D01*
X58774475Y-53517124D01*
X58775865Y-53518329D01*
X58783548Y-53520000D01*
X59358943Y-53520000D01*
X59366490Y-53519545D01*
X59370743Y-53519030D01*
X59440773Y-53530702D01*
X59493377Y-53578382D01*
X59511852Y-53646933D01*
X59510970Y-53659257D01*
X59510455Y-53663510D01*
X59510000Y-53671057D01*
X59510000Y-54241885D01*
X59514475Y-54257124D01*
X59515865Y-54258329D01*
X59523548Y-54260000D01*
X60591885Y-54260000D01*
X60607124Y-54255525D01*
X60608329Y-54254135D01*
X60610000Y-54246452D01*
X60610000Y-54241885D01*
X61310000Y-54241885D01*
X61314475Y-54257124D01*
X61315865Y-54258329D01*
X61323548Y-54260000D01*
X62391885Y-54260000D01*
X62407124Y-54255525D01*
X62408329Y-54254135D01*
X62410000Y-54246452D01*
X62410000Y-53671057D01*
X62409544Y-53663502D01*
X62400119Y-53585612D01*
X62396166Y-53570047D01*
X62346835Y-53445451D01*
X62338478Y-53430620D01*
X62257757Y-53324275D01*
X62245725Y-53312243D01*
X62139380Y-53231522D01*
X62124549Y-53223165D01*
X61999953Y-53173834D01*
X61984388Y-53169881D01*
X61906498Y-53160456D01*
X61898943Y-53160000D01*
X61328115Y-53160000D01*
X61312876Y-53164475D01*
X61311671Y-53165865D01*
X61310000Y-53173548D01*
X61310000Y-54241885D01*
X60610000Y-54241885D01*
X60610000Y-53178115D01*
X60605525Y-53162876D01*
X60604135Y-53161671D01*
X60596452Y-53160000D01*
X60021057Y-53160000D01*
X60013510Y-53160455D01*
X60009257Y-53160970D01*
X59939227Y-53149298D01*
X59886623Y-53101618D01*
X59868148Y-53033067D01*
X59869030Y-53020743D01*
X59869545Y-53016490D01*
X59870000Y-53008943D01*
X65860000Y-53008943D01*
X65860456Y-53016498D01*
X65869881Y-53094388D01*
X65873834Y-53109953D01*
X65923165Y-53234549D01*
X65931522Y-53249380D01*
X66012243Y-53355725D01*
X66024275Y-53367757D01*
X66130620Y-53448478D01*
X66145451Y-53456835D01*
X66270047Y-53506166D01*
X66285612Y-53510119D01*
X66363502Y-53519544D01*
X66371057Y-53520000D01*
X66941885Y-53520000D01*
X66957124Y-53515525D01*
X66958329Y-53514135D01*
X66960000Y-53506452D01*
X66960000Y-53501885D01*
X67660000Y-53501885D01*
X67664475Y-53517124D01*
X67665865Y-53518329D01*
X67673548Y-53520000D01*
X68248943Y-53520000D01*
X68256490Y-53519545D01*
X68260743Y-53519030D01*
X68330773Y-53530702D01*
X68383377Y-53578382D01*
X68401852Y-53646933D01*
X68400970Y-53659257D01*
X68400455Y-53663510D01*
X68400000Y-53671057D01*
X68400000Y-54241885D01*
X68404475Y-54257124D01*
X68405865Y-54258329D01*
X68413548Y-54260000D01*
X69481885Y-54260000D01*
X69497124Y-54255525D01*
X69498329Y-54254135D01*
X69500000Y-54246452D01*
X69500000Y-54241885D01*
X70200000Y-54241885D01*
X70204475Y-54257124D01*
X70205865Y-54258329D01*
X70213548Y-54260000D01*
X71281885Y-54260000D01*
X71297124Y-54255525D01*
X71298329Y-54254135D01*
X71300000Y-54246452D01*
X71300000Y-53671057D01*
X71299544Y-53663502D01*
X71290119Y-53585612D01*
X71286166Y-53570047D01*
X71236835Y-53445451D01*
X71228478Y-53430620D01*
X71147757Y-53324275D01*
X71135725Y-53312243D01*
X71029380Y-53231522D01*
X71014549Y-53223165D01*
X70889953Y-53173834D01*
X70874388Y-53169881D01*
X70796498Y-53160456D01*
X70788943Y-53160000D01*
X70218115Y-53160000D01*
X70202876Y-53164475D01*
X70201671Y-53165865D01*
X70200000Y-53173548D01*
X70200000Y-54241885D01*
X69500000Y-54241885D01*
X69500000Y-53178115D01*
X69495525Y-53162876D01*
X69494135Y-53161671D01*
X69486452Y-53160000D01*
X68911057Y-53160000D01*
X68903510Y-53160455D01*
X68899257Y-53160970D01*
X68829227Y-53149298D01*
X68776623Y-53101618D01*
X68758148Y-53033067D01*
X68759030Y-53020743D01*
X68759545Y-53016490D01*
X68760000Y-53008943D01*
X74750000Y-53008943D01*
X74750456Y-53016498D01*
X74759881Y-53094388D01*
X74763834Y-53109953D01*
X74813165Y-53234549D01*
X74821522Y-53249380D01*
X74902243Y-53355725D01*
X74914275Y-53367757D01*
X75020620Y-53448478D01*
X75035451Y-53456835D01*
X75160047Y-53506166D01*
X75175612Y-53510119D01*
X75253502Y-53519544D01*
X75261057Y-53520000D01*
X75831885Y-53520000D01*
X75847124Y-53515525D01*
X75848329Y-53514135D01*
X75850000Y-53506452D01*
X75850000Y-53501885D01*
X76550000Y-53501885D01*
X76554475Y-53517124D01*
X76555865Y-53518329D01*
X76563548Y-53520000D01*
X77138943Y-53520000D01*
X77146490Y-53519545D01*
X77150743Y-53519030D01*
X77220773Y-53530702D01*
X77273377Y-53578382D01*
X77291852Y-53646933D01*
X77290970Y-53659257D01*
X77290455Y-53663510D01*
X77290000Y-53671057D01*
X77290000Y-54241885D01*
X77294475Y-54257124D01*
X77295865Y-54258329D01*
X77303548Y-54260000D01*
X78371885Y-54260000D01*
X78387124Y-54255525D01*
X78388329Y-54254135D01*
X78390000Y-54246452D01*
X78390000Y-54241885D01*
X79090000Y-54241885D01*
X79094475Y-54257124D01*
X79095865Y-54258329D01*
X79103548Y-54260000D01*
X80171885Y-54260000D01*
X80187124Y-54255525D01*
X80188329Y-54254135D01*
X80190000Y-54246452D01*
X80190000Y-53671057D01*
X80189544Y-53663502D01*
X80180119Y-53585612D01*
X80176166Y-53570047D01*
X80126835Y-53445451D01*
X80118478Y-53430620D01*
X80037757Y-53324275D01*
X80025725Y-53312243D01*
X79919380Y-53231522D01*
X79904549Y-53223165D01*
X79779953Y-53173834D01*
X79764388Y-53169881D01*
X79686498Y-53160456D01*
X79678943Y-53160000D01*
X79108115Y-53160000D01*
X79092876Y-53164475D01*
X79091671Y-53165865D01*
X79090000Y-53173548D01*
X79090000Y-54241885D01*
X78390000Y-54241885D01*
X78390000Y-53178115D01*
X78385525Y-53162876D01*
X78384135Y-53161671D01*
X78376452Y-53160000D01*
X77801057Y-53160000D01*
X77793510Y-53160455D01*
X77789257Y-53160970D01*
X77719227Y-53149298D01*
X77666623Y-53101618D01*
X77648148Y-53033067D01*
X77649030Y-53020743D01*
X77649545Y-53016490D01*
X77650000Y-53008943D01*
X83640000Y-53008943D01*
X83640456Y-53016498D01*
X83649881Y-53094388D01*
X83653834Y-53109953D01*
X83703165Y-53234549D01*
X83711522Y-53249380D01*
X83792243Y-53355725D01*
X83804275Y-53367757D01*
X83910620Y-53448478D01*
X83925451Y-53456835D01*
X84050047Y-53506166D01*
X84065612Y-53510119D01*
X84143502Y-53519544D01*
X84151057Y-53520000D01*
X84721885Y-53520000D01*
X84737124Y-53515525D01*
X84738329Y-53514135D01*
X84740000Y-53506452D01*
X84740000Y-53501885D01*
X85440000Y-53501885D01*
X85444475Y-53517124D01*
X85445865Y-53518329D01*
X85453548Y-53520000D01*
X86028943Y-53520000D01*
X86036490Y-53519545D01*
X86040743Y-53519030D01*
X86110773Y-53530702D01*
X86163377Y-53578382D01*
X86181852Y-53646933D01*
X86180970Y-53659257D01*
X86180455Y-53663510D01*
X86180000Y-53671057D01*
X86180000Y-54241885D01*
X86184475Y-54257124D01*
X86185865Y-54258329D01*
X86193548Y-54260000D01*
X87261885Y-54260000D01*
X87277124Y-54255525D01*
X87278329Y-54254135D01*
X87280000Y-54246452D01*
X87280000Y-54241885D01*
X87980000Y-54241885D01*
X87984475Y-54257124D01*
X87985865Y-54258329D01*
X87993548Y-54260000D01*
X89061885Y-54260000D01*
X89077124Y-54255525D01*
X89078329Y-54254135D01*
X89080000Y-54246452D01*
X89080000Y-53671057D01*
X89079544Y-53663502D01*
X89070119Y-53585612D01*
X89066166Y-53570047D01*
X89016835Y-53445451D01*
X89008478Y-53430620D01*
X88927757Y-53324275D01*
X88915725Y-53312243D01*
X88809380Y-53231522D01*
X88794549Y-53223165D01*
X88669953Y-53173834D01*
X88654388Y-53169881D01*
X88576498Y-53160456D01*
X88568943Y-53160000D01*
X87998115Y-53160000D01*
X87982876Y-53164475D01*
X87981671Y-53165865D01*
X87980000Y-53173548D01*
X87980000Y-54241885D01*
X87280000Y-54241885D01*
X87280000Y-53178115D01*
X87275525Y-53162876D01*
X87274135Y-53161671D01*
X87266452Y-53160000D01*
X86691057Y-53160000D01*
X86683510Y-53160455D01*
X86679257Y-53160970D01*
X86609227Y-53149298D01*
X86556623Y-53101618D01*
X86538148Y-53033067D01*
X86539030Y-53020743D01*
X86539545Y-53016490D01*
X86540000Y-53008943D01*
X92530000Y-53008943D01*
X92530456Y-53016498D01*
X92539881Y-53094388D01*
X92543834Y-53109953D01*
X92593165Y-53234549D01*
X92601522Y-53249380D01*
X92682243Y-53355725D01*
X92694275Y-53367757D01*
X92800620Y-53448478D01*
X92815451Y-53456835D01*
X92940047Y-53506166D01*
X92955612Y-53510119D01*
X93033502Y-53519544D01*
X93041057Y-53520000D01*
X93611885Y-53520000D01*
X93627124Y-53515525D01*
X93628329Y-53514135D01*
X93630000Y-53506452D01*
X93630000Y-53501885D01*
X94330000Y-53501885D01*
X94334475Y-53517124D01*
X94335865Y-53518329D01*
X94343548Y-53520000D01*
X94918943Y-53520000D01*
X94926490Y-53519545D01*
X94930743Y-53519030D01*
X95000773Y-53530702D01*
X95053377Y-53578382D01*
X95071852Y-53646933D01*
X95070970Y-53659257D01*
X95070455Y-53663510D01*
X95070000Y-53671057D01*
X95070000Y-54241885D01*
X95074475Y-54257124D01*
X95075865Y-54258329D01*
X95083548Y-54260000D01*
X96151885Y-54260000D01*
X96167124Y-54255525D01*
X96168329Y-54254135D01*
X96170000Y-54246452D01*
X96170000Y-54241885D01*
X96870000Y-54241885D01*
X96874475Y-54257124D01*
X96875865Y-54258329D01*
X96883548Y-54260000D01*
X97951885Y-54260000D01*
X97967124Y-54255525D01*
X97968329Y-54254135D01*
X97970000Y-54246452D01*
X97970000Y-53671057D01*
X97969544Y-53663502D01*
X97960119Y-53585612D01*
X97956166Y-53570047D01*
X97906835Y-53445451D01*
X97898478Y-53430620D01*
X97817757Y-53324275D01*
X97805725Y-53312243D01*
X97699380Y-53231522D01*
X97684549Y-53223165D01*
X97559953Y-53173834D01*
X97544388Y-53169881D01*
X97466498Y-53160456D01*
X97458943Y-53160000D01*
X96888115Y-53160000D01*
X96872876Y-53164475D01*
X96871671Y-53165865D01*
X96870000Y-53173548D01*
X96870000Y-54241885D01*
X96170000Y-54241885D01*
X96170000Y-53178115D01*
X96165525Y-53162876D01*
X96164135Y-53161671D01*
X96156452Y-53160000D01*
X95581057Y-53160000D01*
X95573510Y-53160455D01*
X95569257Y-53160970D01*
X95499227Y-53149298D01*
X95446623Y-53101618D01*
X95428148Y-53033067D01*
X95429030Y-53020743D01*
X95429545Y-53016490D01*
X95430000Y-53008943D01*
X101420000Y-53008943D01*
X101420456Y-53016498D01*
X101429881Y-53094388D01*
X101433834Y-53109953D01*
X101483165Y-53234549D01*
X101491522Y-53249380D01*
X101572243Y-53355725D01*
X101584275Y-53367757D01*
X101690620Y-53448478D01*
X101705451Y-53456835D01*
X101830047Y-53506166D01*
X101845612Y-53510119D01*
X101923502Y-53519544D01*
X101931057Y-53520000D01*
X102501885Y-53520000D01*
X102517124Y-53515525D01*
X102518329Y-53514135D01*
X102520000Y-53506452D01*
X102520000Y-53501885D01*
X103220000Y-53501885D01*
X103224475Y-53517124D01*
X103225865Y-53518329D01*
X103233548Y-53520000D01*
X103808943Y-53520000D01*
X103816490Y-53519545D01*
X103820743Y-53519030D01*
X103890773Y-53530702D01*
X103943377Y-53578382D01*
X103961852Y-53646933D01*
X103960970Y-53659257D01*
X103960455Y-53663510D01*
X103960000Y-53671057D01*
X103960000Y-54241885D01*
X103964475Y-54257124D01*
X103965865Y-54258329D01*
X103973548Y-54260000D01*
X105041885Y-54260000D01*
X105057124Y-54255525D01*
X105058329Y-54254135D01*
X105060000Y-54246452D01*
X105060000Y-54241885D01*
X105760000Y-54241885D01*
X105764475Y-54257124D01*
X105765865Y-54258329D01*
X105773548Y-54260000D01*
X106841885Y-54260000D01*
X106857124Y-54255525D01*
X106858329Y-54254135D01*
X106860000Y-54246452D01*
X106860000Y-53671057D01*
X106859544Y-53663502D01*
X106850119Y-53585612D01*
X106846166Y-53570047D01*
X106796835Y-53445451D01*
X106788478Y-53430620D01*
X106707757Y-53324275D01*
X106695725Y-53312243D01*
X106589380Y-53231522D01*
X106574549Y-53223165D01*
X106449953Y-53173834D01*
X106434388Y-53169881D01*
X106356498Y-53160456D01*
X106348943Y-53160000D01*
X105778115Y-53160000D01*
X105762876Y-53164475D01*
X105761671Y-53165865D01*
X105760000Y-53173548D01*
X105760000Y-54241885D01*
X105060000Y-54241885D01*
X105060000Y-53178115D01*
X105055525Y-53162876D01*
X105054135Y-53161671D01*
X105046452Y-53160000D01*
X104471057Y-53160000D01*
X104463510Y-53160455D01*
X104459257Y-53160970D01*
X104389227Y-53149298D01*
X104336623Y-53101618D01*
X104318148Y-53033067D01*
X104319030Y-53020743D01*
X104319545Y-53016490D01*
X104320000Y-53008943D01*
X110310000Y-53008943D01*
X110310456Y-53016498D01*
X110319881Y-53094388D01*
X110323834Y-53109953D01*
X110373165Y-53234549D01*
X110381522Y-53249380D01*
X110462243Y-53355725D01*
X110474275Y-53367757D01*
X110580620Y-53448478D01*
X110595451Y-53456835D01*
X110720047Y-53506166D01*
X110735612Y-53510119D01*
X110813502Y-53519544D01*
X110821057Y-53520000D01*
X111391885Y-53520000D01*
X111407124Y-53515525D01*
X111408329Y-53514135D01*
X111410000Y-53506452D01*
X111410000Y-53501885D01*
X112110000Y-53501885D01*
X112114475Y-53517124D01*
X112115865Y-53518329D01*
X112123548Y-53520000D01*
X112698943Y-53520000D01*
X112706490Y-53519545D01*
X112710743Y-53519030D01*
X112780773Y-53530702D01*
X112833377Y-53578382D01*
X112851852Y-53646933D01*
X112850970Y-53659257D01*
X112850455Y-53663510D01*
X112850000Y-53671057D01*
X112850000Y-54241885D01*
X112854475Y-54257124D01*
X112855865Y-54258329D01*
X112863548Y-54260000D01*
X113931885Y-54260000D01*
X113947124Y-54255525D01*
X113948329Y-54254135D01*
X113950000Y-54246452D01*
X113950000Y-54241885D01*
X114650000Y-54241885D01*
X114654475Y-54257124D01*
X114655865Y-54258329D01*
X114663548Y-54260000D01*
X115731885Y-54260000D01*
X115747124Y-54255525D01*
X115748329Y-54254135D01*
X115750000Y-54246452D01*
X115750000Y-53671057D01*
X115749544Y-53663502D01*
X115740119Y-53585612D01*
X115736166Y-53570047D01*
X115686835Y-53445451D01*
X115678478Y-53430620D01*
X115597757Y-53324275D01*
X115585725Y-53312243D01*
X115479380Y-53231522D01*
X115464549Y-53223165D01*
X115339953Y-53173834D01*
X115324388Y-53169881D01*
X115246498Y-53160456D01*
X115238943Y-53160000D01*
X114668115Y-53160000D01*
X114652876Y-53164475D01*
X114651671Y-53165865D01*
X114650000Y-53173548D01*
X114650000Y-54241885D01*
X113950000Y-54241885D01*
X113950000Y-53178115D01*
X113945525Y-53162876D01*
X113944135Y-53161671D01*
X113936452Y-53160000D01*
X113361057Y-53160000D01*
X113353510Y-53160455D01*
X113349257Y-53160970D01*
X113279227Y-53149298D01*
X113226623Y-53101618D01*
X113208148Y-53033067D01*
X113209030Y-53020743D01*
X113209545Y-53016490D01*
X113210000Y-53008943D01*
X119200000Y-53008943D01*
X119200456Y-53016498D01*
X119209881Y-53094388D01*
X119213834Y-53109953D01*
X119263165Y-53234549D01*
X119271522Y-53249380D01*
X119352243Y-53355725D01*
X119364275Y-53367757D01*
X119470620Y-53448478D01*
X119485451Y-53456835D01*
X119610047Y-53506166D01*
X119625612Y-53510119D01*
X119703502Y-53519544D01*
X119711057Y-53520000D01*
X120281885Y-53520000D01*
X120297124Y-53515525D01*
X120298329Y-53514135D01*
X120300000Y-53506452D01*
X120300000Y-53501885D01*
X121000000Y-53501885D01*
X121004475Y-53517124D01*
X121005865Y-53518329D01*
X121013548Y-53520000D01*
X121588943Y-53520000D01*
X121596490Y-53519545D01*
X121600743Y-53519030D01*
X121670773Y-53530702D01*
X121723377Y-53578382D01*
X121741852Y-53646933D01*
X121740970Y-53659257D01*
X121740455Y-53663510D01*
X121740000Y-53671057D01*
X121740000Y-54241885D01*
X121744475Y-54257124D01*
X121745865Y-54258329D01*
X121753548Y-54260000D01*
X122821885Y-54260000D01*
X122837124Y-54255525D01*
X122838329Y-54254135D01*
X122840000Y-54246452D01*
X122840000Y-54241885D01*
X123540000Y-54241885D01*
X123544475Y-54257124D01*
X123545865Y-54258329D01*
X123553548Y-54260000D01*
X124621885Y-54260000D01*
X124637124Y-54255525D01*
X124638329Y-54254135D01*
X124640000Y-54246452D01*
X124640000Y-53671057D01*
X124639544Y-53663502D01*
X124630119Y-53585612D01*
X124626166Y-53570047D01*
X124576835Y-53445451D01*
X124568478Y-53430620D01*
X124487757Y-53324275D01*
X124475725Y-53312243D01*
X124369380Y-53231522D01*
X124354549Y-53223165D01*
X124229953Y-53173834D01*
X124214388Y-53169881D01*
X124136498Y-53160456D01*
X124128943Y-53160000D01*
X123558115Y-53160000D01*
X123542876Y-53164475D01*
X123541671Y-53165865D01*
X123540000Y-53173548D01*
X123540000Y-54241885D01*
X122840000Y-54241885D01*
X122840000Y-53178115D01*
X122835525Y-53162876D01*
X122834135Y-53161671D01*
X122826452Y-53160000D01*
X122251057Y-53160000D01*
X122243510Y-53160455D01*
X122239257Y-53160970D01*
X122169227Y-53149298D01*
X122116623Y-53101618D01*
X122098148Y-53033067D01*
X122099030Y-53020743D01*
X122099545Y-53016490D01*
X122100000Y-53008943D01*
X128090000Y-53008943D01*
X128090456Y-53016498D01*
X128099881Y-53094388D01*
X128103834Y-53109953D01*
X128153165Y-53234549D01*
X128161522Y-53249380D01*
X128242243Y-53355725D01*
X128254275Y-53367757D01*
X128360620Y-53448478D01*
X128375451Y-53456835D01*
X128500047Y-53506166D01*
X128515612Y-53510119D01*
X128593502Y-53519544D01*
X128601057Y-53520000D01*
X129171885Y-53520000D01*
X129187124Y-53515525D01*
X129188329Y-53514135D01*
X129190000Y-53506452D01*
X129190000Y-53501885D01*
X129890000Y-53501885D01*
X129894475Y-53517124D01*
X129895865Y-53518329D01*
X129903548Y-53520000D01*
X130478943Y-53520000D01*
X130486490Y-53519545D01*
X130490743Y-53519030D01*
X130560773Y-53530702D01*
X130613377Y-53578382D01*
X130631852Y-53646933D01*
X130630970Y-53659257D01*
X130630455Y-53663510D01*
X130630000Y-53671057D01*
X130630000Y-54241885D01*
X130634475Y-54257124D01*
X130635865Y-54258329D01*
X130643548Y-54260000D01*
X131711885Y-54260000D01*
X131727124Y-54255525D01*
X131728329Y-54254135D01*
X131730000Y-54246452D01*
X131730000Y-54241885D01*
X132430000Y-54241885D01*
X132434475Y-54257124D01*
X132435865Y-54258329D01*
X132443548Y-54260000D01*
X133511885Y-54260000D01*
X133527124Y-54255525D01*
X133528329Y-54254135D01*
X133530000Y-54246452D01*
X133530000Y-53671057D01*
X133529544Y-53663502D01*
X133520119Y-53585612D01*
X133516166Y-53570047D01*
X133466835Y-53445451D01*
X133458478Y-53430620D01*
X133377757Y-53324275D01*
X133365725Y-53312243D01*
X133259380Y-53231522D01*
X133244549Y-53223165D01*
X133119953Y-53173834D01*
X133104388Y-53169881D01*
X133026498Y-53160456D01*
X133018943Y-53160000D01*
X132448115Y-53160000D01*
X132432876Y-53164475D01*
X132431671Y-53165865D01*
X132430000Y-53173548D01*
X132430000Y-54241885D01*
X131730000Y-54241885D01*
X131730000Y-53178115D01*
X131725525Y-53162876D01*
X131724135Y-53161671D01*
X131716452Y-53160000D01*
X131141057Y-53160000D01*
X131133510Y-53160455D01*
X131129257Y-53160970D01*
X131059227Y-53149298D01*
X131006623Y-53101618D01*
X130988148Y-53033067D01*
X130989030Y-53020743D01*
X130989545Y-53016490D01*
X130990000Y-53008943D01*
X136980000Y-53008943D01*
X136980456Y-53016498D01*
X136989881Y-53094388D01*
X136993834Y-53109953D01*
X137043165Y-53234549D01*
X137051522Y-53249380D01*
X137132243Y-53355725D01*
X137144275Y-53367757D01*
X137250620Y-53448478D01*
X137265451Y-53456835D01*
X137390047Y-53506166D01*
X137405612Y-53510119D01*
X137483502Y-53519544D01*
X137491057Y-53520000D01*
X138061885Y-53520000D01*
X138077124Y-53515525D01*
X138078329Y-53514135D01*
X138080000Y-53506452D01*
X138080000Y-53501885D01*
X138780000Y-53501885D01*
X138784475Y-53517124D01*
X138785865Y-53518329D01*
X138793548Y-53520000D01*
X139368943Y-53520000D01*
X139376490Y-53519545D01*
X139380743Y-53519030D01*
X139450773Y-53530702D01*
X139503377Y-53578382D01*
X139521852Y-53646933D01*
X139520970Y-53659257D01*
X139520455Y-53663510D01*
X139520000Y-53671057D01*
X139520000Y-54241885D01*
X139524475Y-54257124D01*
X139525865Y-54258329D01*
X139533548Y-54260000D01*
X140601885Y-54260000D01*
X140617124Y-54255525D01*
X140618329Y-54254135D01*
X140620000Y-54246452D01*
X140620000Y-54241885D01*
X141320000Y-54241885D01*
X141324475Y-54257124D01*
X141325865Y-54258329D01*
X141333548Y-54260000D01*
X142401885Y-54260000D01*
X142417124Y-54255525D01*
X142418329Y-54254135D01*
X142420000Y-54246452D01*
X142420000Y-53671057D01*
X142419544Y-53663502D01*
X142410119Y-53585612D01*
X142406166Y-53570047D01*
X142356835Y-53445451D01*
X142348478Y-53430620D01*
X142267757Y-53324275D01*
X142255725Y-53312243D01*
X142149380Y-53231522D01*
X142134549Y-53223165D01*
X142009953Y-53173834D01*
X141994388Y-53169881D01*
X141916498Y-53160456D01*
X141908943Y-53160000D01*
X141338115Y-53160000D01*
X141322876Y-53164475D01*
X141321671Y-53165865D01*
X141320000Y-53173548D01*
X141320000Y-54241885D01*
X140620000Y-54241885D01*
X140620000Y-53178115D01*
X140615525Y-53162876D01*
X140614135Y-53161671D01*
X140606452Y-53160000D01*
X140031057Y-53160000D01*
X140023510Y-53160455D01*
X140019257Y-53160970D01*
X139949227Y-53149298D01*
X139896623Y-53101618D01*
X139878148Y-53033067D01*
X139879030Y-53020743D01*
X139879545Y-53016490D01*
X139880000Y-53008943D01*
X139880000Y-52438115D01*
X139875525Y-52422876D01*
X139874135Y-52421671D01*
X139866452Y-52420000D01*
X138798115Y-52420000D01*
X138782876Y-52424475D01*
X138781671Y-52425865D01*
X138780000Y-52433548D01*
X138780000Y-53501885D01*
X138080000Y-53501885D01*
X138080000Y-52438115D01*
X138075525Y-52422876D01*
X138074135Y-52421671D01*
X138066452Y-52420000D01*
X136998115Y-52420000D01*
X136982876Y-52424475D01*
X136981671Y-52425865D01*
X136980000Y-52433548D01*
X136980000Y-53008943D01*
X130990000Y-53008943D01*
X130990000Y-52438115D01*
X130985525Y-52422876D01*
X130984135Y-52421671D01*
X130976452Y-52420000D01*
X129908115Y-52420000D01*
X129892876Y-52424475D01*
X129891671Y-52425865D01*
X129890000Y-52433548D01*
X129890000Y-53501885D01*
X129190000Y-53501885D01*
X129190000Y-52438115D01*
X129185525Y-52422876D01*
X129184135Y-52421671D01*
X129176452Y-52420000D01*
X128108115Y-52420000D01*
X128092876Y-52424475D01*
X128091671Y-52425865D01*
X128090000Y-52433548D01*
X128090000Y-53008943D01*
X122100000Y-53008943D01*
X122100000Y-52438115D01*
X122095525Y-52422876D01*
X122094135Y-52421671D01*
X122086452Y-52420000D01*
X121018115Y-52420000D01*
X121002876Y-52424475D01*
X121001671Y-52425865D01*
X121000000Y-52433548D01*
X121000000Y-53501885D01*
X120300000Y-53501885D01*
X120300000Y-52438115D01*
X120295525Y-52422876D01*
X120294135Y-52421671D01*
X120286452Y-52420000D01*
X119218115Y-52420000D01*
X119202876Y-52424475D01*
X119201671Y-52425865D01*
X119200000Y-52433548D01*
X119200000Y-53008943D01*
X113210000Y-53008943D01*
X113210000Y-52438115D01*
X113205525Y-52422876D01*
X113204135Y-52421671D01*
X113196452Y-52420000D01*
X112128115Y-52420000D01*
X112112876Y-52424475D01*
X112111671Y-52425865D01*
X112110000Y-52433548D01*
X112110000Y-53501885D01*
X111410000Y-53501885D01*
X111410000Y-52438115D01*
X111405525Y-52422876D01*
X111404135Y-52421671D01*
X111396452Y-52420000D01*
X110328115Y-52420000D01*
X110312876Y-52424475D01*
X110311671Y-52425865D01*
X110310000Y-52433548D01*
X110310000Y-53008943D01*
X104320000Y-53008943D01*
X104320000Y-52438115D01*
X104315525Y-52422876D01*
X104314135Y-52421671D01*
X104306452Y-52420000D01*
X103238115Y-52420000D01*
X103222876Y-52424475D01*
X103221671Y-52425865D01*
X103220000Y-52433548D01*
X103220000Y-53501885D01*
X102520000Y-53501885D01*
X102520000Y-52438115D01*
X102515525Y-52422876D01*
X102514135Y-52421671D01*
X102506452Y-52420000D01*
X101438115Y-52420000D01*
X101422876Y-52424475D01*
X101421671Y-52425865D01*
X101420000Y-52433548D01*
X101420000Y-53008943D01*
X95430000Y-53008943D01*
X95430000Y-52438115D01*
X95425525Y-52422876D01*
X95424135Y-52421671D01*
X95416452Y-52420000D01*
X94348115Y-52420000D01*
X94332876Y-52424475D01*
X94331671Y-52425865D01*
X94330000Y-52433548D01*
X94330000Y-53501885D01*
X93630000Y-53501885D01*
X93630000Y-52438115D01*
X93625525Y-52422876D01*
X93624135Y-52421671D01*
X93616452Y-52420000D01*
X92548115Y-52420000D01*
X92532876Y-52424475D01*
X92531671Y-52425865D01*
X92530000Y-52433548D01*
X92530000Y-53008943D01*
X86540000Y-53008943D01*
X86540000Y-52438115D01*
X86535525Y-52422876D01*
X86534135Y-52421671D01*
X86526452Y-52420000D01*
X85458115Y-52420000D01*
X85442876Y-52424475D01*
X85441671Y-52425865D01*
X85440000Y-52433548D01*
X85440000Y-53501885D01*
X84740000Y-53501885D01*
X84740000Y-52438115D01*
X84735525Y-52422876D01*
X84734135Y-52421671D01*
X84726452Y-52420000D01*
X83658115Y-52420000D01*
X83642876Y-52424475D01*
X83641671Y-52425865D01*
X83640000Y-52433548D01*
X83640000Y-53008943D01*
X77650000Y-53008943D01*
X77650000Y-52438115D01*
X77645525Y-52422876D01*
X77644135Y-52421671D01*
X77636452Y-52420000D01*
X76568115Y-52420000D01*
X76552876Y-52424475D01*
X76551671Y-52425865D01*
X76550000Y-52433548D01*
X76550000Y-53501885D01*
X75850000Y-53501885D01*
X75850000Y-52438115D01*
X75845525Y-52422876D01*
X75844135Y-52421671D01*
X75836452Y-52420000D01*
X74768115Y-52420000D01*
X74752876Y-52424475D01*
X74751671Y-52425865D01*
X74750000Y-52433548D01*
X74750000Y-53008943D01*
X68760000Y-53008943D01*
X68760000Y-52438115D01*
X68755525Y-52422876D01*
X68754135Y-52421671D01*
X68746452Y-52420000D01*
X67678115Y-52420000D01*
X67662876Y-52424475D01*
X67661671Y-52425865D01*
X67660000Y-52433548D01*
X67660000Y-53501885D01*
X66960000Y-53501885D01*
X66960000Y-52438115D01*
X66955525Y-52422876D01*
X66954135Y-52421671D01*
X66946452Y-52420000D01*
X65878115Y-52420000D01*
X65862876Y-52424475D01*
X65861671Y-52425865D01*
X65860000Y-52433548D01*
X65860000Y-53008943D01*
X59870000Y-53008943D01*
X59870000Y-52438115D01*
X59865525Y-52422876D01*
X59864135Y-52421671D01*
X59856452Y-52420000D01*
X58788115Y-52420000D01*
X58772876Y-52424475D01*
X58771671Y-52425865D01*
X58770000Y-52433548D01*
X58770000Y-53501885D01*
X58070000Y-53501885D01*
X58070000Y-52438115D01*
X58065525Y-52422876D01*
X58064135Y-52421671D01*
X58056452Y-52420000D01*
X56988115Y-52420000D01*
X56972876Y-52424475D01*
X56971671Y-52425865D01*
X56970000Y-52433548D01*
X56970000Y-53008943D01*
X52620500Y-53008943D01*
X52620500Y-47034338D01*
X52621578Y-47017891D01*
X52624172Y-46998188D01*
X52625250Y-46990000D01*
X52624172Y-46981813D01*
X52624172Y-46981805D01*
X52623463Y-46976419D01*
X52623166Y-46968477D01*
X53189822Y-46968477D01*
X53190069Y-46972758D01*
X53190069Y-46972763D01*
X53190228Y-46975505D01*
X53190299Y-46976743D01*
X53205916Y-47247596D01*
X53259741Y-47521948D01*
X53350303Y-47786457D01*
X53370898Y-47827405D01*
X53473625Y-48031654D01*
X53475925Y-48036228D01*
X53634282Y-48266639D01*
X53637169Y-48269812D01*
X53637170Y-48269813D01*
X53819564Y-48470262D01*
X53822444Y-48473427D01*
X53848726Y-48495402D01*
X54033638Y-48650013D01*
X54033643Y-48650017D01*
X54036930Y-48652765D01*
X54090037Y-48686079D01*
X54270131Y-48799052D01*
X54270135Y-48799054D01*
X54273771Y-48801335D01*
X54277681Y-48803100D01*
X54277682Y-48803101D01*
X54524671Y-48914621D01*
X54524675Y-48914623D01*
X54528583Y-48916387D01*
X54532702Y-48917607D01*
X54792539Y-48994575D01*
X54792544Y-48994576D01*
X54796652Y-48995793D01*
X54800886Y-48996441D01*
X54800891Y-48996442D01*
X55003387Y-49027428D01*
X55073018Y-49038083D01*
X55215396Y-49040319D01*
X55348275Y-49042407D01*
X55348281Y-49042407D01*
X55352566Y-49042474D01*
X55630123Y-49008886D01*
X55900554Y-48937940D01*
X55904514Y-48936300D01*
X55904519Y-48936298D01*
X56118494Y-48847666D01*
X56158855Y-48830948D01*
X56284919Y-48757282D01*
X56396542Y-48692055D01*
X56396543Y-48692054D01*
X56400245Y-48689891D01*
X56620258Y-48517379D01*
X56662851Y-48473427D01*
X56811840Y-48319681D01*
X56814823Y-48316603D01*
X56980340Y-48091280D01*
X56987510Y-48078074D01*
X57111695Y-47849354D01*
X57111696Y-47849352D01*
X57113745Y-47845578D01*
X57212570Y-47584044D01*
X57260174Y-47376196D01*
X57274030Y-47315698D01*
X57274031Y-47315693D01*
X57274987Y-47311518D01*
X57299840Y-47033043D01*
X57300291Y-46990000D01*
X57299387Y-46976743D01*
X57281567Y-46715342D01*
X57281566Y-46715336D01*
X57281275Y-46711065D01*
X57277747Y-46694026D01*
X57225450Y-46441498D01*
X57224579Y-46437292D01*
X57221975Y-46429937D01*
X57132684Y-46177787D01*
X57131253Y-46173746D01*
X57003022Y-45925304D01*
X56882909Y-45754400D01*
X56844724Y-45700067D01*
X56844721Y-45700064D01*
X56842261Y-45696563D01*
X56826785Y-45679908D01*
X56654861Y-45494896D01*
X56654860Y-45494895D01*
X56651944Y-45491757D01*
X56435591Y-45314675D01*
X56197208Y-45168594D01*
X56179355Y-45160757D01*
X55945133Y-45057940D01*
X55945129Y-45057939D01*
X55941205Y-45056216D01*
X55672319Y-44979622D01*
X55466307Y-44950302D01*
X55399778Y-44940834D01*
X55399776Y-44940834D01*
X55395526Y-44940229D01*
X55248177Y-44939457D01*
X55120233Y-44938787D01*
X55120226Y-44938787D01*
X55115947Y-44938765D01*
X55111703Y-44939324D01*
X55111699Y-44939324D01*
X54990358Y-44955299D01*
X54838757Y-44975257D01*
X54834617Y-44976390D01*
X54834615Y-44976390D01*
X54573228Y-45047898D01*
X54569083Y-45049032D01*
X54311917Y-45158722D01*
X54189992Y-45231693D01*
X54075700Y-45300095D01*
X54075696Y-45300098D01*
X54072018Y-45302299D01*
X53853823Y-45477106D01*
X53661371Y-45679908D01*
X53498223Y-45906952D01*
X53367398Y-46154038D01*
X53365926Y-46158061D01*
X53365924Y-46158065D01*
X53289929Y-46365732D01*
X53271317Y-46416592D01*
X53211757Y-46689757D01*
X53211421Y-46694026D01*
X53195254Y-46899460D01*
X53189822Y-46968477D01*
X52623166Y-46968477D01*
X52622583Y-46952911D01*
X52636605Y-46703214D01*
X52638187Y-46689173D01*
X52648552Y-46628174D01*
X52666701Y-46521355D01*
X52685117Y-46412970D01*
X52688261Y-46399195D01*
X52765820Y-46129981D01*
X52770487Y-46116644D01*
X52849742Y-45925304D01*
X52877701Y-45857805D01*
X52883830Y-45845078D01*
X52898176Y-45819122D01*
X52966571Y-45695370D01*
X53019348Y-45599878D01*
X53026865Y-45587914D01*
X53188990Y-45359420D01*
X53197800Y-45348373D01*
X53384483Y-45139474D01*
X53394474Y-45129483D01*
X53603373Y-44942800D01*
X53614420Y-44933990D01*
X53842914Y-44771865D01*
X53854878Y-44764348D01*
X53995599Y-44686574D01*
X54100082Y-44628828D01*
X54112805Y-44622701D01*
X54236473Y-44571476D01*
X54371644Y-44515487D01*
X54384981Y-44510820D01*
X54654195Y-44433261D01*
X54667970Y-44430117D01*
X54806072Y-44406652D01*
X54944178Y-44383186D01*
X54958210Y-44381605D01*
X55046086Y-44376670D01*
X55207911Y-44367583D01*
X55231419Y-44368463D01*
X55236805Y-44369172D01*
X55236813Y-44369172D01*
X55245000Y-44370250D01*
X55253188Y-44369172D01*
X55272891Y-44366578D01*
X55289338Y-44365500D01*
X148346810Y-44365500D01*
X148414931Y-44385502D01*
G37*
%TD.AperFunction*%
%TD*%
M02*
