%TF.GenerationSoftware,KiCad,Pcbnew,(6.0.8)*%
%TF.CreationDate,2023-01-17T19:39:46+02:00*%
%TF.ProjectId,doom_day_lamp,646f6f6d-5f64-4617-995f-6c616d702e6b,rev?*%
%TF.SameCoordinates,Original*%
%TF.FileFunction,Plated,1,2,PTH,Drill*%
%TF.FilePolarity,Positive*%
%FSLAX46Y46*%
G04 Gerber Fmt 4.6, Leading zero omitted, Abs format (unit mm)*
G04 Created by KiCad (PCBNEW (6.0.8)) date 2023-01-17 19:39:46*
%MOMM*%
%LPD*%
G01*
G04 APERTURE LIST*
%TA.AperFunction,ComponentDrill*%
%ADD10C,0.762000*%
%TD*%
%TA.AperFunction,ComponentDrill*%
%ADD11C,0.800000*%
%TD*%
%TA.AperFunction,ComponentDrill*%
%ADD12C,0.900000*%
%TD*%
%TA.AperFunction,ComponentDrill*%
%ADD13C,1.000000*%
%TD*%
%TA.AperFunction,ComponentDrill*%
%ADD14C,1.500000*%
%TD*%
G04 APERTURE END LIST*
D10*
%TO.C,U1*%
X149860000Y-45595000D03*
X149860000Y-54735000D03*
X165100000Y-45595000D03*
X165100000Y-54735000D03*
D11*
%TO.C,R11*%
X62865000Y-46990000D03*
X62865000Y-49530000D03*
%TO.C,R9*%
X65405000Y-57150000D03*
X65405000Y-59690000D03*
%TO.C,R12*%
X71755000Y-46990000D03*
X71755000Y-49530000D03*
%TO.C,R8*%
X74295000Y-57150000D03*
X74295000Y-59690000D03*
%TO.C,R13*%
X80645000Y-46990000D03*
X80645000Y-49530000D03*
%TO.C,R7*%
X83185000Y-57150000D03*
X83185000Y-59690000D03*
%TO.C,R14*%
X89535000Y-46990000D03*
X89535000Y-49530000D03*
%TO.C,R6*%
X92075000Y-57150000D03*
X92075000Y-59690000D03*
%TO.C,R15*%
X98425000Y-46990000D03*
X98425000Y-49530000D03*
%TO.C,R5*%
X100965000Y-57150000D03*
X100965000Y-59690000D03*
%TO.C,R16*%
X107315000Y-46990000D03*
X107315000Y-49530000D03*
%TO.C,R4*%
X109855000Y-57150000D03*
X109855000Y-59690000D03*
%TO.C,R17*%
X116205000Y-46990000D03*
X116205000Y-49530000D03*
%TO.C,R3*%
X118745000Y-57150000D03*
X118745000Y-59690000D03*
%TO.C,R18*%
X125095000Y-46990000D03*
X125095000Y-49530000D03*
%TO.C,R2*%
X127635000Y-57150000D03*
X127635000Y-59690000D03*
%TO.C,R19*%
X133985000Y-46990000D03*
X133985000Y-49530000D03*
%TO.C,R1*%
X136525000Y-57150000D03*
X136525000Y-59690000D03*
%TO.C,R20*%
X142875000Y-46990000D03*
X142875000Y-49530000D03*
%TO.C,R10*%
X145415000Y-57150000D03*
X145415000Y-59690000D03*
%TO.C,J1*%
X170815000Y-51705000D03*
X170815000Y-53705000D03*
D12*
%TO.C,D11*%
X58420000Y-49530000D03*
X58420000Y-52070000D03*
%TO.C,D10*%
X60960000Y-54610000D03*
X60960000Y-57150000D03*
%TO.C,D12*%
X67310000Y-49530000D03*
X67310000Y-52070000D03*
%TO.C,D9*%
X69850000Y-54610000D03*
X69850000Y-57150000D03*
%TO.C,D13*%
X76200000Y-49530000D03*
X76200000Y-52070000D03*
%TO.C,D8*%
X78740000Y-54610000D03*
X78740000Y-57150000D03*
%TO.C,D14*%
X85090000Y-49530000D03*
X85090000Y-52070000D03*
%TO.C,D7*%
X87630000Y-54610000D03*
X87630000Y-57150000D03*
%TO.C,D15*%
X93980000Y-49530000D03*
X93980000Y-52070000D03*
%TO.C,D6*%
X96520000Y-54610000D03*
X96520000Y-57150000D03*
%TO.C,D16*%
X102870000Y-49530000D03*
X102870000Y-52070000D03*
%TO.C,D5*%
X105410000Y-54610000D03*
X105410000Y-57150000D03*
%TO.C,D17*%
X111760000Y-49530000D03*
X111760000Y-52070000D03*
%TO.C,D4*%
X114300000Y-54610000D03*
X114300000Y-57150000D03*
%TO.C,D18*%
X120650000Y-49530000D03*
X120650000Y-52070000D03*
%TO.C,D3*%
X123190000Y-54610000D03*
X123190000Y-57150000D03*
%TO.C,D19*%
X129540000Y-49530000D03*
X129540000Y-52070000D03*
%TO.C,D2*%
X132080000Y-54610000D03*
X132080000Y-57150000D03*
%TO.C,D20*%
X138430000Y-49530000D03*
X138430000Y-52070000D03*
%TO.C,D1*%
X140970000Y-54610000D03*
X140970000Y-57150000D03*
%TO.C,SW1*%
X160145000Y-59832500D03*
X163145000Y-59832500D03*
X166145000Y-59832500D03*
D13*
%TO.C,JP1*%
X149860000Y-59690000D03*
X152400000Y-59690000D03*
D14*
%TO.C,SW1*%
X156845000Y-59832500D03*
X169445000Y-59832500D03*
M02*
