M48
; DRILL file {KiCad (6.0.5)} date Fri Jan 13 02:50:49 2023
; FORMAT={-:-/ absolute / inch / decimal}
; #@! TF.CreationDate,2023-01-13T02:50:49+02:00
; #@! TF.GenerationSoftware,Kicad,Pcbnew,(6.0.5)
; #@! TF.FileFunction,MixedPlating,1,2
FMAT,2
INCH
; #@! TA.AperFunction,Plated,PTH,ComponentDrill
T1C0.0300
; #@! TA.AperFunction,Plated,PTH,ComponentDrill
T2C0.0315
; #@! TA.AperFunction,Plated,PTH,ComponentDrill
T3C0.0354
; #@! TA.AperFunction,Plated,PTH,ComponentDrill
T4C0.0394
; #@! TA.AperFunction,Plated,PTH,ComponentDrill
T5C0.0591
; #@! TA.AperFunction,Plated,PTH,ViaDrill
T6C0.1181
%
G90
G05
T1
X5.9Y-1.7951
X5.9Y-2.1549
X6.5Y-1.7951
X6.5Y-2.1549
T2
X2.475Y-1.85
X2.475Y-1.95
X2.575Y-2.25
X2.575Y-2.35
X2.825Y-1.85
X2.825Y-1.95
X2.925Y-2.25
X2.925Y-2.35
X3.175Y-1.85
X3.175Y-1.95
X3.275Y-2.25
X3.275Y-2.35
X3.525Y-1.85
X3.525Y-1.95
X3.625Y-2.25
X3.625Y-2.35
X3.875Y-1.85
X3.875Y-1.95
X3.975Y-2.25
X3.975Y-2.35
X4.225Y-1.85
X4.225Y-1.95
X4.325Y-2.25
X4.325Y-2.35
X4.575Y-1.85
X4.575Y-1.95
X4.675Y-2.25
X4.675Y-2.35
X4.925Y-1.85
X4.925Y-1.95
X5.025Y-2.25
X5.025Y-2.35
X5.275Y-1.85
X5.275Y-1.95
X5.375Y-2.25
X5.375Y-2.35
X5.625Y-1.85
X5.625Y-1.95
X5.725Y-2.25
X5.725Y-2.35
X6.875Y-2.0606
X6.875Y-2.1394
T3
X2.3Y-1.95
X2.3Y-2.05
X2.4Y-2.15
X2.4Y-2.25
X2.65Y-1.95
X2.65Y-2.05
X2.75Y-2.15
X2.75Y-2.25
X3.0Y-1.95
X3.0Y-2.05
X3.1Y-2.15
X3.1Y-2.25
X3.35Y-1.95
X3.35Y-2.05
X3.45Y-2.15
X3.45Y-2.25
X3.7Y-1.95
X3.7Y-2.05
X3.8Y-2.15
X3.8Y-2.25
X4.05Y-1.95
X4.05Y-2.05
X4.15Y-2.15
X4.15Y-2.25
X4.4Y-1.95
X4.4Y-2.05
X4.5Y-2.15
X4.5Y-2.25
X4.75Y-1.95
X4.75Y-2.05
X4.85Y-2.15
X4.85Y-2.25
X5.1Y-1.95
X5.1Y-2.05
X5.2Y-2.15
X5.2Y-2.25
X5.45Y-1.95
X5.45Y-2.05
X5.55Y-2.15
X5.55Y-2.25
X6.3049Y-2.3556
X6.423Y-2.3556
X6.5411Y-2.3556
T4
X5.9Y-2.35
X6.0Y-2.35
T5
X6.175Y-2.3556
X6.6711Y-2.3556
T6
X2.0Y-1.85
X2.0Y-2.35
X6.925Y-1.85
X6.925Y-2.35
T0
M30
