%TF.GenerationSoftware,KiCad,Pcbnew,(6.0.8)*%
%TF.CreationDate,2023-01-13T10:11:11+02:00*%
%TF.ProjectId,xt60_adapter,78743630-5f61-4646-9170-7465722e6b69,rev?*%
%TF.SameCoordinates,Original*%
%TF.FileFunction,Copper,L2,Bot*%
%TF.FilePolarity,Positive*%
%FSLAX46Y46*%
G04 Gerber Fmt 4.6, Leading zero omitted, Abs format (unit mm)*
G04 Created by KiCad (PCBNEW (6.0.8)) date 2023-01-13 10:11:11*
%MOMM*%
%LPD*%
G01*
G04 APERTURE LIST*
G04 Aperture macros list*
%AMRoundRect*
0 Rectangle with rounded corners*
0 $1 Rounding radius*
0 $2 $3 $4 $5 $6 $7 $8 $9 X,Y pos of 4 corners*
0 Add a 4 corners polygon primitive as box body*
4,1,4,$2,$3,$4,$5,$6,$7,$8,$9,$2,$3,0*
0 Add four circle primitives for the rounded corners*
1,1,$1+$1,$2,$3*
1,1,$1+$1,$4,$5*
1,1,$1+$1,$6,$7*
1,1,$1+$1,$8,$9*
0 Add four rect primitives between the rounded corners*
20,1,$1+$1,$2,$3,$4,$5,0*
20,1,$1+$1,$4,$5,$6,$7,0*
20,1,$1+$1,$6,$7,$8,$9,0*
20,1,$1+$1,$8,$9,$2,$3,0*%
G04 Aperture macros list end*
%TA.AperFunction,ComponentPad*%
%ADD10R,5.000000X4.000000*%
%TD*%
%TA.AperFunction,ComponentPad*%
%ADD11O,5.000000X4.000000*%
%TD*%
%TA.AperFunction,ComponentPad*%
%ADD12O,3.000000X5.500000*%
%TD*%
%TA.AperFunction,ComponentPad*%
%ADD13R,5.000000X5.000000*%
%TD*%
%TA.AperFunction,ComponentPad*%
%ADD14C,5.000000*%
%TD*%
%TA.AperFunction,ComponentPad*%
%ADD15RoundRect,1.500000X1.500000X1.500000X-1.500000X1.500000X-1.500000X-1.500000X1.500000X-1.500000X0*%
%TD*%
%TA.AperFunction,ComponentPad*%
%ADD16C,6.000000*%
%TD*%
%TA.AperFunction,ViaPad*%
%ADD17C,4.000000*%
%TD*%
%TA.AperFunction,Conductor*%
%ADD18C,2.000000*%
%TD*%
%TA.AperFunction,Conductor*%
%ADD19C,0.250000*%
%TD*%
G04 APERTURE END LIST*
D10*
%TO.P,J1,1*%
%TO.N,Net-(C1-Pad1)*%
X103520000Y-59690000D03*
D11*
%TO.P,J1,2*%
%TO.N,GND*%
X103520000Y-53390000D03*
D12*
%TO.P,J1,3*%
%TO.N,unconnected-(J1-Pad3)*%
X98720000Y-56790000D03*
%TD*%
D13*
%TO.P,C1,1*%
%TO.N,Net-(C1-Pad1)*%
X100627246Y-76200000D03*
D14*
%TO.P,C1,2*%
%TO.N,GND*%
X108127246Y-76200000D03*
%TD*%
D15*
%TO.P,J2,1,Pin_1*%
%TO.N,GND*%
X107740000Y-106680000D03*
D16*
%TO.P,J2,2,Pin_2*%
%TO.N,Net-(C1-Pad1)*%
X100540000Y-106680000D03*
%TD*%
D17*
%TO.N,*%
X115000000Y-51000000D03*
X93000000Y-51000000D03*
X93000000Y-109220000D03*
X115000000Y-109220000D03*
%TD*%
D18*
%TO.N,Net-(C1-Pad1)*%
X100627246Y-76200000D02*
X100627246Y-106592754D01*
X103520000Y-64280000D02*
X100627246Y-67172754D01*
X100627246Y-67172754D02*
X100627246Y-76200000D01*
X103520000Y-59690000D02*
X103520000Y-64280000D01*
D19*
X100627246Y-106592754D02*
X100540000Y-106680000D01*
%TO.N,GND*%
X109550000Y-53350000D02*
X109510000Y-53390000D01*
X110000000Y-53800000D02*
X109550000Y-53350000D01*
X108127246Y-106292754D02*
X107740000Y-106680000D01*
%TD*%
%TA.AperFunction,Conductor*%
%TO.N,GND*%
G36*
X114738004Y-48082102D02*
G01*
X114784497Y-48135758D01*
X114794601Y-48206032D01*
X114765107Y-48270612D01*
X114705381Y-48308996D01*
X114689014Y-48312321D01*
X114689045Y-48312494D01*
X114368429Y-48369315D01*
X114364804Y-48370420D01*
X114364799Y-48370421D01*
X114163196Y-48431866D01*
X114056961Y-48464244D01*
X114053497Y-48465775D01*
X114053490Y-48465778D01*
X113869938Y-48546926D01*
X113759153Y-48595903D01*
X113755899Y-48597839D01*
X113755893Y-48597842D01*
X113733780Y-48610998D01*
X113479319Y-48762386D01*
X113221513Y-48961282D01*
X113218812Y-48963941D01*
X113218805Y-48963947D01*
X112992177Y-49187044D01*
X112989469Y-49189710D01*
X112987105Y-49192677D01*
X112987102Y-49192680D01*
X112830191Y-49389591D01*
X112786548Y-49444360D01*
X112615690Y-49721544D01*
X112479369Y-50017247D01*
X112478210Y-50020848D01*
X112478207Y-50020854D01*
X112469682Y-50047327D01*
X112379560Y-50327185D01*
X112378841Y-50330901D01*
X112378839Y-50330909D01*
X112318428Y-50643151D01*
X112318427Y-50643160D01*
X112317709Y-50646870D01*
X112317442Y-50650646D01*
X112317441Y-50650651D01*
X112299956Y-50897600D01*
X112294712Y-50971669D01*
X112310902Y-51296879D01*
X112311543Y-51300610D01*
X112311544Y-51300618D01*
X112356291Y-51561023D01*
X112366045Y-51617789D01*
X112367133Y-51621428D01*
X112367134Y-51621431D01*
X112390697Y-51700218D01*
X112459341Y-51929749D01*
X112589439Y-52228242D01*
X112754455Y-52508944D01*
X112756756Y-52511959D01*
X112949698Y-52764775D01*
X112949703Y-52764781D01*
X112951998Y-52767788D01*
X112954642Y-52770502D01*
X113163612Y-52985015D01*
X113179208Y-53001025D01*
X113432792Y-53205276D01*
X113436020Y-53207289D01*
X113683210Y-53361450D01*
X113709078Y-53377583D01*
X114004063Y-53515451D01*
X114039879Y-53527192D01*
X114307236Y-53614836D01*
X114313474Y-53616881D01*
X114632830Y-53680405D01*
X114636602Y-53680692D01*
X114636610Y-53680693D01*
X114953728Y-53704815D01*
X114953733Y-53704815D01*
X114957505Y-53705102D01*
X115282795Y-53690615D01*
X115603989Y-53637154D01*
X115916434Y-53545493D01*
X116215604Y-53416959D01*
X116218882Y-53415055D01*
X116218888Y-53415052D01*
X116382708Y-53319897D01*
X116497165Y-53253415D01*
X116757040Y-53057230D01*
X116926053Y-52894302D01*
X116988978Y-52861424D01*
X117059689Y-52867786D01*
X117115735Y-52911367D01*
X117139500Y-52985015D01*
X117139500Y-107236243D01*
X117119498Y-107304364D01*
X117065842Y-107350857D01*
X116995568Y-107360961D01*
X116930988Y-107331467D01*
X116924172Y-107325105D01*
X116802410Y-107202704D01*
X116799738Y-107200018D01*
X116631435Y-107067338D01*
X116547010Y-107000783D01*
X116544029Y-106998433D01*
X116265954Y-106829029D01*
X116147453Y-106775150D01*
X115972994Y-106695827D01*
X115972986Y-106695824D01*
X115969542Y-106694258D01*
X115659085Y-106596073D01*
X115517071Y-106569368D01*
X115342805Y-106536597D01*
X115342800Y-106536596D01*
X115339081Y-106535897D01*
X115014166Y-106514601D01*
X115010386Y-106514809D01*
X115010385Y-106514809D01*
X114913156Y-106520160D01*
X114689045Y-106532494D01*
X114685318Y-106533155D01*
X114685314Y-106533155D01*
X114426625Y-106579001D01*
X114368429Y-106589315D01*
X114364804Y-106590420D01*
X114364799Y-106590421D01*
X114163196Y-106651866D01*
X114056961Y-106684244D01*
X114053497Y-106685775D01*
X114053490Y-106685778D01*
X113869938Y-106766926D01*
X113759153Y-106815903D01*
X113755899Y-106817839D01*
X113755893Y-106817842D01*
X113530200Y-106952115D01*
X113479319Y-106982386D01*
X113221513Y-107181282D01*
X113218812Y-107183941D01*
X113218805Y-107183947D01*
X112992177Y-107407044D01*
X112989469Y-107409710D01*
X112987105Y-107412677D01*
X112987102Y-107412680D01*
X112830191Y-107609591D01*
X112786548Y-107664360D01*
X112615690Y-107941544D01*
X112479369Y-108237247D01*
X112478210Y-108240848D01*
X112478207Y-108240854D01*
X112442462Y-108351855D01*
X112379560Y-108547185D01*
X112378841Y-108550901D01*
X112378839Y-108550909D01*
X112318428Y-108863151D01*
X112318427Y-108863160D01*
X112317709Y-108866870D01*
X112317442Y-108870646D01*
X112317441Y-108870651D01*
X112294980Y-109187880D01*
X112294712Y-109191669D01*
X112310902Y-109516879D01*
X112311543Y-109520610D01*
X112311544Y-109520618D01*
X112338876Y-109679676D01*
X112366045Y-109837789D01*
X112367133Y-109841428D01*
X112367134Y-109841431D01*
X112434414Y-110066398D01*
X112459341Y-110149749D01*
X112460854Y-110153220D01*
X112460856Y-110153226D01*
X112527058Y-110305118D01*
X112589439Y-110448242D01*
X112754455Y-110728944D01*
X112756756Y-110731959D01*
X112949698Y-110984775D01*
X112949703Y-110984781D01*
X112951998Y-110987788D01*
X112954642Y-110990502D01*
X113163612Y-111205015D01*
X113179208Y-111221025D01*
X113432792Y-111425276D01*
X113709078Y-111597583D01*
X114004063Y-111735451D01*
X114007672Y-111736634D01*
X114242971Y-111813769D01*
X114301471Y-111853996D01*
X114328937Y-111919465D01*
X114316647Y-111989390D01*
X114268504Y-112041570D01*
X114203721Y-112059500D01*
X93791346Y-112059500D01*
X93723225Y-112039498D01*
X93676732Y-111985842D01*
X93666628Y-111915568D01*
X93696122Y-111850988D01*
X93755877Y-111812595D01*
X93916434Y-111765493D01*
X94215604Y-111636959D01*
X94218882Y-111635055D01*
X94218888Y-111635052D01*
X94382708Y-111539897D01*
X94497165Y-111473415D01*
X94757040Y-111277230D01*
X94926052Y-111114302D01*
X94988730Y-111053881D01*
X94988733Y-111053877D01*
X94991464Y-111051245D01*
X94993862Y-111048300D01*
X95194643Y-110801678D01*
X95194647Y-110801672D01*
X95197040Y-110798733D01*
X95370792Y-110523354D01*
X95510202Y-110229095D01*
X95613251Y-109920218D01*
X95678446Y-109601199D01*
X95704843Y-109276658D01*
X95705436Y-109220000D01*
X95701635Y-109156941D01*
X95686069Y-108898755D01*
X95686069Y-108898751D01*
X95685841Y-108894977D01*
X95681399Y-108870651D01*
X95628025Y-108578404D01*
X95627342Y-108574663D01*
X95530784Y-108263696D01*
X95397567Y-107966582D01*
X95229621Y-107687624D01*
X95227294Y-107684640D01*
X95227289Y-107684633D01*
X95031713Y-107433858D01*
X95031711Y-107433856D01*
X95029377Y-107430863D01*
X94799738Y-107200018D01*
X94631435Y-107067338D01*
X94547010Y-107000783D01*
X94544029Y-106998433D01*
X94265954Y-106829029D01*
X94147453Y-106775150D01*
X93972994Y-106695827D01*
X93972986Y-106695824D01*
X93969542Y-106694258D01*
X93659085Y-106596073D01*
X93517071Y-106569368D01*
X93342805Y-106536597D01*
X93342800Y-106536596D01*
X93339081Y-106535897D01*
X93014166Y-106514601D01*
X93010386Y-106514809D01*
X93010385Y-106514809D01*
X92913156Y-106520160D01*
X92689045Y-106532494D01*
X92685318Y-106533155D01*
X92685314Y-106533155D01*
X92426625Y-106579001D01*
X92368429Y-106589315D01*
X92364804Y-106590420D01*
X92364799Y-106590421D01*
X92163196Y-106651866D01*
X92056961Y-106684244D01*
X92053497Y-106685775D01*
X92053490Y-106685778D01*
X91869938Y-106766926D01*
X91759153Y-106815903D01*
X91755899Y-106817839D01*
X91755893Y-106817842D01*
X91530200Y-106952115D01*
X91479319Y-106982386D01*
X91221513Y-107181282D01*
X91218812Y-107183941D01*
X91218805Y-107183947D01*
X90992177Y-107407044D01*
X90989469Y-107409710D01*
X90987105Y-107412677D01*
X90987102Y-107412680D01*
X90865040Y-107565859D01*
X90806945Y-107606668D01*
X90736008Y-107609591D01*
X90674753Y-107573698D01*
X90642626Y-107510386D01*
X90640500Y-107487336D01*
X90640500Y-58114151D01*
X96519500Y-58114151D01*
X96533948Y-58331682D01*
X96591728Y-58618239D01*
X96686900Y-58894637D01*
X96817791Y-59156020D01*
X96982101Y-59397795D01*
X97176945Y-59615716D01*
X97398898Y-59805953D01*
X97402400Y-59808227D01*
X97402401Y-59808228D01*
X97575090Y-59920373D01*
X97644062Y-59965164D01*
X97908129Y-60090552D01*
X97912112Y-60091831D01*
X97912115Y-60091832D01*
X98072373Y-60143285D01*
X98186459Y-60179914D01*
X98312148Y-60202529D01*
X98470060Y-60230943D01*
X98470066Y-60230944D01*
X98474164Y-60231681D01*
X98636515Y-60239053D01*
X98762017Y-60244752D01*
X98762022Y-60244752D01*
X98766187Y-60244941D01*
X98770335Y-60244578D01*
X98770340Y-60244578D01*
X98887410Y-60234336D01*
X99057399Y-60219464D01*
X99247144Y-60177051D01*
X99338595Y-60156609D01*
X99338598Y-60156608D01*
X99342683Y-60155695D01*
X99346608Y-60154251D01*
X99346611Y-60154250D01*
X99519736Y-60090552D01*
X99617027Y-60054756D01*
X99620715Y-60052812D01*
X99620723Y-60052808D01*
X99871908Y-59920373D01*
X99871909Y-59920372D01*
X99875612Y-59918420D01*
X100113893Y-59749082D01*
X100114568Y-59748453D01*
X100179293Y-59721195D01*
X100249234Y-59733388D01*
X100301481Y-59781459D01*
X100319500Y-59846391D01*
X100319501Y-61745992D01*
X100319764Y-61748850D01*
X100319764Y-61748859D01*
X100323015Y-61784243D01*
X100326171Y-61818594D01*
X100376873Y-61980383D01*
X100464703Y-62125408D01*
X100584592Y-62245297D01*
X100729617Y-62333127D01*
X100736864Y-62335398D01*
X100736866Y-62335399D01*
X100802106Y-62355844D01*
X100891406Y-62383829D01*
X100964007Y-62390500D01*
X101693500Y-62390500D01*
X101761621Y-62410502D01*
X101808114Y-62464158D01*
X101819500Y-62516500D01*
X101819500Y-63523440D01*
X101799498Y-63591561D01*
X101782595Y-63612535D01*
X99450875Y-65944255D01*
X99336188Y-66058343D01*
X99333346Y-66062191D01*
X99333345Y-66062192D01*
X99299127Y-66108520D01*
X99293372Y-66115742D01*
X99252732Y-66163073D01*
X99250207Y-66167122D01*
X99250198Y-66167134D01*
X99222249Y-66211950D01*
X99216698Y-66220120D01*
X99182476Y-66266452D01*
X99180250Y-66270683D01*
X99180245Y-66270691D01*
X99153433Y-66321654D01*
X99148846Y-66329648D01*
X99115822Y-66382600D01*
X99113932Y-66386998D01*
X99113932Y-66386999D01*
X99093083Y-66435527D01*
X99088823Y-66444458D01*
X99062012Y-66495417D01*
X99060453Y-66499933D01*
X99060450Y-66499939D01*
X99041658Y-66554362D01*
X99038327Y-66562974D01*
X99013693Y-66620311D01*
X99012490Y-66624946D01*
X99012489Y-66624949D01*
X98999223Y-66676064D01*
X98996363Y-66685536D01*
X98977567Y-66739969D01*
X98976708Y-66744675D01*
X98976707Y-66744677D01*
X98966358Y-66801342D01*
X98964367Y-66810357D01*
X98950721Y-66862936D01*
X98948697Y-66870735D01*
X98948210Y-66875489D01*
X98942828Y-66928020D01*
X98941434Y-66937814D01*
X98931085Y-66994480D01*
X98926746Y-67077273D01*
X98926746Y-67078945D01*
X98926703Y-67080578D01*
X98926642Y-67080576D01*
X98926090Y-67091380D01*
X98922327Y-67128109D01*
X98922565Y-67132890D01*
X98922565Y-67132891D01*
X98926590Y-67213747D01*
X98926746Y-67220011D01*
X98926746Y-72873501D01*
X98906744Y-72941622D01*
X98853088Y-72988115D01*
X98800746Y-72999501D01*
X98071254Y-72999501D01*
X98068396Y-72999764D01*
X98068387Y-72999764D01*
X98033003Y-73003015D01*
X97998652Y-73006171D01*
X97992274Y-73008170D01*
X97992273Y-73008170D01*
X97844112Y-73054601D01*
X97844110Y-73054602D01*
X97836863Y-73056873D01*
X97691838Y-73144703D01*
X97571949Y-73264592D01*
X97484119Y-73409617D01*
X97433417Y-73571406D01*
X97426746Y-73644007D01*
X97426747Y-78755992D01*
X97427010Y-78758850D01*
X97427010Y-78758859D01*
X97430261Y-78794243D01*
X97433417Y-78828594D01*
X97435416Y-78834972D01*
X97435416Y-78834973D01*
X97459237Y-78910984D01*
X97484119Y-78990383D01*
X97571949Y-79135408D01*
X97691838Y-79255297D01*
X97836863Y-79343127D01*
X97844110Y-79345398D01*
X97844112Y-79345399D01*
X97909352Y-79365844D01*
X97998652Y-79393829D01*
X98071253Y-79400500D01*
X98800746Y-79400500D01*
X98868867Y-79420502D01*
X98915360Y-79474158D01*
X98926746Y-79526500D01*
X98926746Y-103271613D01*
X98906744Y-103339734D01*
X98857950Y-103383879D01*
X98687211Y-103470875D01*
X98361916Y-103682124D01*
X98060484Y-103926219D01*
X97786219Y-104200484D01*
X97542124Y-104501916D01*
X97330875Y-104827211D01*
X97154786Y-105172806D01*
X97015786Y-105534913D01*
X96915398Y-105909567D01*
X96854722Y-106292662D01*
X96834422Y-106680000D01*
X96854722Y-107067338D01*
X96915398Y-107450433D01*
X97015786Y-107825087D01*
X97016971Y-107828175D01*
X97016972Y-107828177D01*
X97059250Y-107938314D01*
X97154786Y-108187194D01*
X97330875Y-108532789D01*
X97542124Y-108858084D01*
X97786219Y-109159516D01*
X98060484Y-109433781D01*
X98361916Y-109677876D01*
X98687211Y-109889125D01*
X99032806Y-110065214D01*
X99227687Y-110140022D01*
X99352672Y-110187999D01*
X99394913Y-110204214D01*
X99769567Y-110304602D01*
X99973201Y-110336854D01*
X100149414Y-110364764D01*
X100149422Y-110364765D01*
X100152662Y-110365278D01*
X100540000Y-110385578D01*
X100927338Y-110365278D01*
X100930578Y-110364765D01*
X100930586Y-110364764D01*
X101106799Y-110336854D01*
X101310433Y-110304602D01*
X101685087Y-110204214D01*
X101727329Y-110187999D01*
X101852313Y-110140022D01*
X102047194Y-110065214D01*
X102392789Y-109889125D01*
X102718084Y-109677876D01*
X103019516Y-109433781D01*
X103293781Y-109159516D01*
X103537876Y-108858084D01*
X103749125Y-108532789D01*
X103925214Y-108187194D01*
X103988370Y-108022667D01*
X104031456Y-107966239D01*
X104098209Y-107942062D01*
X104167436Y-107957813D01*
X104217158Y-108008491D01*
X104232001Y-108067821D01*
X104232001Y-108290915D01*
X104232061Y-108293672D01*
X104234601Y-108351855D01*
X104235317Y-108358972D01*
X104277999Y-108628453D01*
X104279978Y-108637023D01*
X104359504Y-108897143D01*
X104362655Y-108905353D01*
X104477613Y-109151882D01*
X104481876Y-109159572D01*
X104630024Y-109387700D01*
X104635314Y-109394719D01*
X104813783Y-109600024D01*
X104819976Y-109606217D01*
X105025281Y-109784686D01*
X105032300Y-109789976D01*
X105260428Y-109938124D01*
X105268118Y-109942387D01*
X105514647Y-110057345D01*
X105522857Y-110060496D01*
X105782977Y-110140022D01*
X105791547Y-110142001D01*
X106061044Y-110184685D01*
X106068128Y-110185399D01*
X106126331Y-110187940D01*
X106129083Y-110188000D01*
X107467885Y-110188000D01*
X107483124Y-110183525D01*
X107484329Y-110182135D01*
X107486000Y-110174452D01*
X107486000Y-110169884D01*
X107994000Y-110169884D01*
X107998475Y-110185123D01*
X107999865Y-110186328D01*
X108007548Y-110187999D01*
X109350915Y-110187999D01*
X109353672Y-110187939D01*
X109411855Y-110185399D01*
X109418972Y-110184683D01*
X109688453Y-110142001D01*
X109697023Y-110140022D01*
X109957143Y-110060496D01*
X109965353Y-110057345D01*
X110211882Y-109942387D01*
X110219572Y-109938124D01*
X110447700Y-109789976D01*
X110454719Y-109784686D01*
X110660024Y-109606217D01*
X110666217Y-109600024D01*
X110844686Y-109394719D01*
X110849976Y-109387700D01*
X110998124Y-109159572D01*
X111002387Y-109151882D01*
X111117345Y-108905353D01*
X111120496Y-108897143D01*
X111200022Y-108637023D01*
X111202001Y-108628453D01*
X111244685Y-108358956D01*
X111245399Y-108351872D01*
X111247940Y-108293669D01*
X111248000Y-108290917D01*
X111248000Y-106952115D01*
X111243525Y-106936876D01*
X111242135Y-106935671D01*
X111234452Y-106934000D01*
X108012115Y-106934000D01*
X107996876Y-106938475D01*
X107995671Y-106939865D01*
X107994000Y-106947548D01*
X107994000Y-110169884D01*
X107486000Y-110169884D01*
X107486000Y-106407885D01*
X107994000Y-106407885D01*
X107998475Y-106423124D01*
X107999865Y-106424329D01*
X108007548Y-106426000D01*
X111229884Y-106426000D01*
X111245123Y-106421525D01*
X111246328Y-106420135D01*
X111247999Y-106412452D01*
X111247999Y-105069086D01*
X111247939Y-105066328D01*
X111245399Y-105008145D01*
X111244683Y-105001028D01*
X111202001Y-104731547D01*
X111200022Y-104722977D01*
X111120496Y-104462857D01*
X111117345Y-104454647D01*
X111002387Y-104208118D01*
X110998124Y-104200428D01*
X110849976Y-103972300D01*
X110844686Y-103965281D01*
X110666217Y-103759976D01*
X110660024Y-103753783D01*
X110454719Y-103575314D01*
X110447700Y-103570024D01*
X110219572Y-103421876D01*
X110211882Y-103417613D01*
X109965353Y-103302655D01*
X109957143Y-103299504D01*
X109697023Y-103219978D01*
X109688453Y-103217999D01*
X109418956Y-103175315D01*
X109411872Y-103174601D01*
X109353669Y-103172060D01*
X109350917Y-103172000D01*
X108012115Y-103172000D01*
X107996876Y-103176475D01*
X107995671Y-103177865D01*
X107994000Y-103185548D01*
X107994000Y-106407885D01*
X107486000Y-106407885D01*
X107486000Y-103190116D01*
X107481525Y-103174877D01*
X107480135Y-103173672D01*
X107472452Y-103172001D01*
X106129086Y-103172001D01*
X106126328Y-103172061D01*
X106068145Y-103174601D01*
X106061028Y-103175317D01*
X105791547Y-103217999D01*
X105782977Y-103219978D01*
X105522857Y-103299504D01*
X105514647Y-103302655D01*
X105268118Y-103417613D01*
X105260428Y-103421876D01*
X105032300Y-103570024D01*
X105025281Y-103575314D01*
X104819976Y-103753783D01*
X104813783Y-103759976D01*
X104635314Y-103965281D01*
X104630024Y-103972300D01*
X104481876Y-104200428D01*
X104477613Y-104208118D01*
X104362655Y-104454647D01*
X104359504Y-104462857D01*
X104279978Y-104722977D01*
X104277999Y-104731547D01*
X104235315Y-105001044D01*
X104234601Y-105008128D01*
X104232060Y-105066331D01*
X104232000Y-105069083D01*
X104232000Y-105292176D01*
X104211998Y-105360297D01*
X104158342Y-105406790D01*
X104088068Y-105416894D01*
X104023488Y-105387400D01*
X103988369Y-105337330D01*
X103926398Y-105175891D01*
X103925214Y-105172806D01*
X103749125Y-104827211D01*
X103537876Y-104501916D01*
X103293781Y-104200484D01*
X103019516Y-103926219D01*
X102718084Y-103682124D01*
X102545465Y-103570024D01*
X102395563Y-103472676D01*
X102395557Y-103472672D01*
X102392789Y-103470875D01*
X102390633Y-103469776D01*
X102341753Y-103418514D01*
X102327746Y-103360776D01*
X102327746Y-79526499D01*
X102347748Y-79458378D01*
X102401404Y-79411885D01*
X102453746Y-79400499D01*
X103183238Y-79400499D01*
X103186096Y-79400236D01*
X103186105Y-79400236D01*
X103221489Y-79396985D01*
X103255840Y-79393829D01*
X103262225Y-79391828D01*
X103410380Y-79345399D01*
X103410382Y-79345398D01*
X103417629Y-79343127D01*
X103562654Y-79255297D01*
X103682543Y-79135408D01*
X103770373Y-78990383D01*
X103821075Y-78828594D01*
X103827746Y-78755993D01*
X103827746Y-78501681D01*
X106191106Y-78501681D01*
X106191124Y-78501933D01*
X106197039Y-78510677D01*
X106228357Y-78539174D01*
X106233994Y-78543738D01*
X106509790Y-78741918D01*
X106515928Y-78745813D01*
X106812681Y-78910984D01*
X106819201Y-78914136D01*
X107132984Y-79044109D01*
X107139835Y-79046495D01*
X107466458Y-79139536D01*
X107473547Y-79141120D01*
X107808711Y-79196006D01*
X107815917Y-79196763D01*
X108155172Y-79212762D01*
X108162422Y-79212686D01*
X108501256Y-79189587D01*
X108508465Y-79188676D01*
X108842406Y-79126784D01*
X108849436Y-79125057D01*
X109174065Y-79025187D01*
X109180843Y-79022667D01*
X109491849Y-78886145D01*
X109498289Y-78882864D01*
X109791539Y-78711502D01*
X109797572Y-78707493D01*
X110056074Y-78513405D01*
X110064528Y-78502078D01*
X110057783Y-78489748D01*
X108140056Y-76572020D01*
X108126115Y-76564408D01*
X108124280Y-76564539D01*
X108117666Y-76568790D01*
X106198720Y-78487737D01*
X106191106Y-78501681D01*
X103827746Y-78501681D01*
X103827745Y-76108987D01*
X105115730Y-76108987D01*
X105124620Y-76448505D01*
X105125226Y-76455721D01*
X105173081Y-76791963D01*
X105174515Y-76799074D01*
X105260701Y-77127595D01*
X105262938Y-77134478D01*
X105386310Y-77450914D01*
X105389327Y-77457503D01*
X105548248Y-77757652D01*
X105552007Y-77763860D01*
X105744375Y-78043757D01*
X105748820Y-78049486D01*
X105815989Y-78126484D01*
X105829163Y-78134888D01*
X105839015Y-78129020D01*
X107755226Y-76212810D01*
X107761603Y-76201131D01*
X108491654Y-76201131D01*
X108491785Y-76202966D01*
X108496036Y-76209580D01*
X110413514Y-78127057D01*
X110426868Y-78134349D01*
X110436840Y-78127295D01*
X110543887Y-77999267D01*
X110548203Y-77993456D01*
X110734678Y-77709575D01*
X110738292Y-77703313D01*
X110890904Y-77399882D01*
X110893776Y-77393244D01*
X111010495Y-77074293D01*
X111012591Y-77067351D01*
X111091877Y-76737103D01*
X111093161Y-76729964D01*
X111134062Y-76391973D01*
X111134486Y-76386403D01*
X111140256Y-76202797D01*
X111140183Y-76197204D01*
X111120584Y-75857303D01*
X111119752Y-75850113D01*
X111061359Y-75515529D01*
X111059704Y-75508474D01*
X110963244Y-75182834D01*
X110960786Y-75176006D01*
X110827536Y-74863608D01*
X110824319Y-74857125D01*
X110656034Y-74562089D01*
X110652102Y-74556034D01*
X110451020Y-74282295D01*
X110446412Y-74276726D01*
X110441076Y-74270984D01*
X110427424Y-74262866D01*
X110426816Y-74262887D01*
X110418338Y-74268119D01*
X108499266Y-76187190D01*
X108491654Y-76201131D01*
X107761603Y-76201131D01*
X107762838Y-76198869D01*
X107762707Y-76197034D01*
X107758456Y-76190420D01*
X105839620Y-74271585D01*
X105826827Y-74264599D01*
X105816073Y-74272464D01*
X105655283Y-74477527D01*
X105651148Y-74483476D01*
X105473686Y-74773068D01*
X105470265Y-74779447D01*
X105327262Y-75087522D01*
X105324602Y-75094241D01*
X105217957Y-75416707D01*
X105216080Y-75423711D01*
X105147207Y-75756288D01*
X105146150Y-75763449D01*
X105115958Y-76101735D01*
X105115730Y-76108987D01*
X103827745Y-76108987D01*
X103827745Y-73901048D01*
X106192378Y-73901048D01*
X106198773Y-73912316D01*
X108114436Y-75827980D01*
X108128377Y-75835592D01*
X108130212Y-75835461D01*
X108136826Y-75831210D01*
X110054320Y-73913716D01*
X110061712Y-73900179D01*
X110054925Y-73890479D01*
X109951722Y-73802335D01*
X109945950Y-73797953D01*
X109664042Y-73608519D01*
X109657821Y-73604839D01*
X109356003Y-73449060D01*
X109349392Y-73446116D01*
X109031685Y-73326065D01*
X109024759Y-73323894D01*
X108695358Y-73241155D01*
X108688251Y-73239799D01*
X108351524Y-73195468D01*
X108344282Y-73194937D01*
X108004713Y-73189602D01*
X107997451Y-73189906D01*
X107659502Y-73223638D01*
X107652354Y-73224770D01*
X107320509Y-73297124D01*
X107313531Y-73299072D01*
X106992206Y-73409086D01*
X106985499Y-73411823D01*
X106678953Y-73558039D01*
X106672595Y-73561534D01*
X106384900Y-73742005D01*
X106378977Y-73746214D01*
X106200847Y-73888923D01*
X106192378Y-73901048D01*
X103827745Y-73901048D01*
X103827745Y-73644008D01*
X103827480Y-73641116D01*
X103821686Y-73578060D01*
X103821075Y-73571406D01*
X103770373Y-73409617D01*
X103682543Y-73264592D01*
X103562654Y-73144703D01*
X103417629Y-73056873D01*
X103410382Y-73054602D01*
X103410380Y-73054601D01*
X103345140Y-73034156D01*
X103255840Y-73006171D01*
X103183239Y-72999500D01*
X102453746Y-72999500D01*
X102385625Y-72979498D01*
X102339132Y-72925842D01*
X102327746Y-72873500D01*
X102327746Y-67929314D01*
X102347748Y-67861193D01*
X102364651Y-67840219D01*
X104696371Y-65508499D01*
X104807663Y-65397788D01*
X104811058Y-65394411D01*
X104848120Y-65344233D01*
X104853875Y-65337011D01*
X104891401Y-65293307D01*
X104891403Y-65293304D01*
X104894514Y-65289681D01*
X104897039Y-65285632D01*
X104897048Y-65285620D01*
X104924997Y-65240804D01*
X104930548Y-65232634D01*
X104964770Y-65186302D01*
X104966996Y-65182071D01*
X104967001Y-65182063D01*
X104993813Y-65131100D01*
X104998400Y-65123106D01*
X105031424Y-65070154D01*
X105054163Y-65017226D01*
X105058423Y-65008296D01*
X105083007Y-64961570D01*
X105083007Y-64961569D01*
X105085234Y-64957337D01*
X105086793Y-64952821D01*
X105086796Y-64952815D01*
X105105588Y-64898392D01*
X105108919Y-64889780D01*
X105131663Y-64836841D01*
X105133553Y-64832443D01*
X105148023Y-64776689D01*
X105150883Y-64767217D01*
X105168115Y-64717313D01*
X105169679Y-64712785D01*
X105180888Y-64651412D01*
X105182879Y-64642397D01*
X105197347Y-64586650D01*
X105198549Y-64582019D01*
X105204418Y-64524731D01*
X105205812Y-64514938D01*
X105215436Y-64462241D01*
X105216161Y-64458274D01*
X105220500Y-64375481D01*
X105220500Y-64373809D01*
X105220543Y-64372176D01*
X105220604Y-64372178D01*
X105221156Y-64361371D01*
X105224431Y-64329404D01*
X105224919Y-64324645D01*
X105220656Y-64239007D01*
X105220500Y-64232743D01*
X105220500Y-62516499D01*
X105240502Y-62448378D01*
X105294158Y-62401885D01*
X105346500Y-62390499D01*
X106075992Y-62390499D01*
X106078850Y-62390236D01*
X106078859Y-62390236D01*
X106114243Y-62386985D01*
X106148594Y-62383829D01*
X106154979Y-62381828D01*
X106303134Y-62335399D01*
X106303136Y-62335398D01*
X106310383Y-62333127D01*
X106455408Y-62245297D01*
X106575297Y-62125408D01*
X106663127Y-61980383D01*
X106713829Y-61818594D01*
X106720500Y-61745993D01*
X106720499Y-57634008D01*
X106713829Y-57561406D01*
X106663127Y-57399617D01*
X106575297Y-57254592D01*
X106455408Y-57134703D01*
X106310383Y-57046873D01*
X106303136Y-57044602D01*
X106303134Y-57044601D01*
X106237894Y-57024156D01*
X106148594Y-56996171D01*
X106075993Y-56989500D01*
X105902500Y-56989500D01*
X101046500Y-56989501D01*
X100978379Y-56969499D01*
X100931886Y-56915843D01*
X100920500Y-56863501D01*
X100920500Y-55465849D01*
X100918128Y-55430128D01*
X100906329Y-55252489D01*
X100906052Y-55248318D01*
X100879037Y-55114339D01*
X100885180Y-55043610D01*
X100928587Y-54987429D01*
X100995477Y-54963634D01*
X101064614Y-54979780D01*
X101094401Y-55003182D01*
X101297046Y-55218977D01*
X101302813Y-55224393D01*
X101539868Y-55420502D01*
X101546271Y-55425153D01*
X101806026Y-55589999D01*
X101812959Y-55593811D01*
X102091328Y-55724801D01*
X102098691Y-55727716D01*
X102391277Y-55822783D01*
X102398954Y-55824754D01*
X102701145Y-55882400D01*
X102709006Y-55883393D01*
X102939180Y-55897874D01*
X102943171Y-55898000D01*
X103247885Y-55898000D01*
X103263124Y-55893525D01*
X103264329Y-55892135D01*
X103266000Y-55884452D01*
X103266000Y-55879885D01*
X103774000Y-55879885D01*
X103778475Y-55895124D01*
X103779865Y-55896329D01*
X103787548Y-55898000D01*
X104096829Y-55898000D01*
X104100820Y-55897874D01*
X104330994Y-55883393D01*
X104338855Y-55882400D01*
X104641046Y-55824754D01*
X104648723Y-55822783D01*
X104941309Y-55727716D01*
X104948672Y-55724801D01*
X105227041Y-55593811D01*
X105233974Y-55589999D01*
X105493729Y-55425153D01*
X105500132Y-55420502D01*
X105737187Y-55224393D01*
X105742954Y-55218977D01*
X105953557Y-54994707D01*
X105958596Y-54988616D01*
X106139430Y-54739719D01*
X106143670Y-54733039D01*
X106291890Y-54463428D01*
X106295247Y-54456293D01*
X106408508Y-54170230D01*
X106410953Y-54162704D01*
X106487462Y-53864721D01*
X106488945Y-53856950D01*
X106513575Y-53661974D01*
X106511272Y-53647694D01*
X106498280Y-53644000D01*
X103792115Y-53644000D01*
X103776876Y-53648475D01*
X103775671Y-53649865D01*
X103774000Y-53657548D01*
X103774000Y-55879885D01*
X103266000Y-55879885D01*
X103266000Y-53662115D01*
X103261525Y-53646876D01*
X103260135Y-53645671D01*
X103252452Y-53644000D01*
X100542269Y-53644000D01*
X100528392Y-53648075D01*
X100526355Y-53661426D01*
X100551055Y-53856950D01*
X100552535Y-53864706D01*
X100576478Y-53957959D01*
X100574045Y-54028914D01*
X100533637Y-54087290D01*
X100468084Y-54114553D01*
X100398197Y-54102047D01*
X100360506Y-54073277D01*
X100265840Y-53967399D01*
X100263055Y-53964284D01*
X100041102Y-53774047D01*
X99871652Y-53664005D01*
X99799437Y-53617108D01*
X99799434Y-53617106D01*
X99795938Y-53614836D01*
X99531871Y-53489448D01*
X99527888Y-53488169D01*
X99527885Y-53488168D01*
X99328974Y-53424305D01*
X99253541Y-53400086D01*
X99117289Y-53375570D01*
X98969940Y-53349057D01*
X98969934Y-53349056D01*
X98965836Y-53348319D01*
X98803485Y-53340947D01*
X98677983Y-53335248D01*
X98677978Y-53335248D01*
X98673813Y-53335059D01*
X98669665Y-53335422D01*
X98669660Y-53335422D01*
X98552590Y-53345664D01*
X98382601Y-53360536D01*
X98208972Y-53399347D01*
X98101405Y-53423391D01*
X98101402Y-53423392D01*
X98097317Y-53424305D01*
X98093392Y-53425749D01*
X98093389Y-53425750D01*
X97975111Y-53469268D01*
X97822973Y-53525244D01*
X97819285Y-53527188D01*
X97819277Y-53527192D01*
X97572035Y-53657548D01*
X97564388Y-53661580D01*
X97326107Y-53830918D01*
X97112314Y-54030283D01*
X96926767Y-54256171D01*
X96772725Y-54504616D01*
X96652895Y-54771250D01*
X96651701Y-54775256D01*
X96570572Y-55047394D01*
X96570570Y-55047402D01*
X96569381Y-55051391D01*
X96568729Y-55055508D01*
X96568728Y-55055512D01*
X96524201Y-55336649D01*
X96523652Y-55340117D01*
X96523493Y-55343629D01*
X96520002Y-55420502D01*
X96519500Y-55431547D01*
X96519500Y-58114151D01*
X90640500Y-58114151D01*
X90640500Y-52732414D01*
X90660502Y-52664293D01*
X90714158Y-52617800D01*
X90784432Y-52607696D01*
X90849012Y-52637190D01*
X90866663Y-52655972D01*
X90951998Y-52767788D01*
X90954642Y-52770502D01*
X91163612Y-52985015D01*
X91179208Y-53001025D01*
X91432792Y-53205276D01*
X91436020Y-53207289D01*
X91683210Y-53361450D01*
X91709078Y-53377583D01*
X92004063Y-53515451D01*
X92039879Y-53527192D01*
X92307236Y-53614836D01*
X92313474Y-53616881D01*
X92632830Y-53680405D01*
X92636602Y-53680692D01*
X92636610Y-53680693D01*
X92953728Y-53704815D01*
X92953733Y-53704815D01*
X92957505Y-53705102D01*
X93282795Y-53690615D01*
X93603989Y-53637154D01*
X93916434Y-53545493D01*
X94215604Y-53416959D01*
X94218882Y-53415055D01*
X94218888Y-53415052D01*
X94382708Y-53319897D01*
X94497165Y-53253415D01*
X94676507Y-53118026D01*
X100526425Y-53118026D01*
X100528728Y-53132306D01*
X100541720Y-53136000D01*
X103247885Y-53136000D01*
X103263124Y-53131525D01*
X103264329Y-53130135D01*
X103266000Y-53122452D01*
X103266000Y-53117885D01*
X103774000Y-53117885D01*
X103778475Y-53133124D01*
X103779865Y-53134329D01*
X103787548Y-53136000D01*
X106497731Y-53136000D01*
X106511608Y-53131925D01*
X106513645Y-53118574D01*
X106488945Y-52923050D01*
X106487462Y-52915279D01*
X106410953Y-52617296D01*
X106408508Y-52609770D01*
X106295247Y-52323707D01*
X106291890Y-52316572D01*
X106143670Y-52046961D01*
X106139430Y-52040281D01*
X105958596Y-51791384D01*
X105953557Y-51785293D01*
X105742954Y-51561023D01*
X105737187Y-51555607D01*
X105500132Y-51359498D01*
X105493729Y-51354847D01*
X105233974Y-51190001D01*
X105227041Y-51186189D01*
X104948672Y-51055199D01*
X104941309Y-51052284D01*
X104648723Y-50957217D01*
X104641046Y-50955246D01*
X104338855Y-50897600D01*
X104330994Y-50896607D01*
X104100820Y-50882126D01*
X104096829Y-50882000D01*
X103792115Y-50882000D01*
X103776876Y-50886475D01*
X103775671Y-50887865D01*
X103774000Y-50895548D01*
X103774000Y-53117885D01*
X103266000Y-53117885D01*
X103266000Y-50900115D01*
X103261525Y-50884876D01*
X103260135Y-50883671D01*
X103252452Y-50882000D01*
X102943171Y-50882000D01*
X102939180Y-50882126D01*
X102709006Y-50896607D01*
X102701145Y-50897600D01*
X102398954Y-50955246D01*
X102391277Y-50957217D01*
X102098691Y-51052284D01*
X102091328Y-51055199D01*
X101812959Y-51186189D01*
X101806026Y-51190001D01*
X101546271Y-51354847D01*
X101539868Y-51359498D01*
X101302813Y-51555607D01*
X101297046Y-51561023D01*
X101086443Y-51785293D01*
X101081404Y-51791384D01*
X100900570Y-52040281D01*
X100896330Y-52046961D01*
X100748110Y-52316572D01*
X100744753Y-52323707D01*
X100631492Y-52609770D01*
X100629047Y-52617296D01*
X100552538Y-52915279D01*
X100551055Y-52923050D01*
X100526425Y-53118026D01*
X94676507Y-53118026D01*
X94757040Y-53057230D01*
X94926052Y-52894302D01*
X94988730Y-52833881D01*
X94988733Y-52833877D01*
X94991464Y-52831245D01*
X94993862Y-52828300D01*
X95194643Y-52581678D01*
X95194647Y-52581672D01*
X95197040Y-52578733D01*
X95370792Y-52303354D01*
X95510202Y-52009095D01*
X95613251Y-51700218D01*
X95678446Y-51381199D01*
X95704843Y-51056658D01*
X95705436Y-51000000D01*
X95698496Y-50884876D01*
X95686069Y-50678755D01*
X95686069Y-50678751D01*
X95685841Y-50674977D01*
X95681399Y-50650651D01*
X95628025Y-50358404D01*
X95627342Y-50354663D01*
X95530784Y-50043696D01*
X95397567Y-49746582D01*
X95229621Y-49467624D01*
X95227294Y-49464640D01*
X95227289Y-49464633D01*
X95031713Y-49213858D01*
X95031711Y-49213856D01*
X95029377Y-49210863D01*
X94799738Y-48980018D01*
X94544029Y-48778433D01*
X94265954Y-48609029D01*
X94147453Y-48555150D01*
X93972994Y-48475827D01*
X93972986Y-48475824D01*
X93969542Y-48474258D01*
X93659085Y-48376073D01*
X93517071Y-48349368D01*
X93342805Y-48316597D01*
X93342800Y-48316596D01*
X93339081Y-48315897D01*
X93307545Y-48313830D01*
X93240878Y-48289416D01*
X93197994Y-48232834D01*
X93192508Y-48162050D01*
X93226162Y-48099536D01*
X93288271Y-48065141D01*
X93315786Y-48062100D01*
X114669883Y-48062100D01*
X114738004Y-48082102D01*
G37*
%TD.AperFunction*%
%TD*%
M02*
