%TF.GenerationSoftware,KiCad,Pcbnew,(6.0.8)*%
%TF.CreationDate,2023-02-02T02:04:23+02:00*%
%TF.ProjectId,dc_ph2_converter,64635f70-6832-45f6-936f-6e7665727465,rev?*%
%TF.SameCoordinates,Original*%
%TF.FileFunction,Copper,L2,Bot*%
%TF.FilePolarity,Positive*%
%FSLAX46Y46*%
G04 Gerber Fmt 4.6, Leading zero omitted, Abs format (unit mm)*
G04 Created by KiCad (PCBNEW (6.0.8)) date 2023-02-02 02:04:23*
%MOMM*%
%LPD*%
G01*
G04 APERTURE LIST*
G04 Aperture macros list*
%AMRoundRect*
0 Rectangle with rounded corners*
0 $1 Rounding radius*
0 $2 $3 $4 $5 $6 $7 $8 $9 X,Y pos of 4 corners*
0 Add a 4 corners polygon primitive as box body*
4,1,4,$2,$3,$4,$5,$6,$7,$8,$9,$2,$3,0*
0 Add four circle primitives for the rounded corners*
1,1,$1+$1,$2,$3*
1,1,$1+$1,$4,$5*
1,1,$1+$1,$6,$7*
1,1,$1+$1,$8,$9*
0 Add four rect primitives between the rounded corners*
20,1,$1+$1,$2,$3,$4,$5,0*
20,1,$1+$1,$4,$5,$6,$7,0*
20,1,$1+$1,$6,$7,$8,$9,0*
20,1,$1+$1,$8,$9,$2,$3,0*%
G04 Aperture macros list end*
%TA.AperFunction,ComponentPad*%
%ADD10C,5.500000*%
%TD*%
%TA.AperFunction,ComponentPad*%
%ADD11RoundRect,0.312500X-0.562500X0.437500X-0.562500X-0.437500X0.562500X-0.437500X0.562500X0.437500X0*%
%TD*%
%TA.AperFunction,ComponentPad*%
%ADD12O,1.750000X1.500000*%
%TD*%
%TA.AperFunction,ComponentPad*%
%ADD13R,2.500000X5.000000*%
%TD*%
%TA.AperFunction,ComponentPad*%
%ADD14O,2.500000X5.000000*%
%TD*%
%TA.AperFunction,ComponentPad*%
%ADD15O,5.000000X2.500000*%
%TD*%
%TA.AperFunction,Conductor*%
%ADD16C,0.800000*%
%TD*%
%TA.AperFunction,Conductor*%
%ADD17C,0.250000*%
%TD*%
G04 APERTURE END LIST*
D10*
%TO.P,,1*%
%TO.N,N/C*%
X93345000Y-78740000D03*
%TD*%
%TO.P,,1*%
%TO.N,N/C*%
X116840000Y-58420000D03*
%TD*%
%TO.P,,1*%
%TO.N,N/C*%
X116840000Y-78740000D03*
%TD*%
%TO.P,REF\u002A\u002A,1*%
%TO.N,N/C*%
X93345000Y-58420000D03*
%TD*%
D11*
%TO.P,J2,1,Pin_1*%
%TO.N,GND*%
X112395000Y-63500000D03*
D12*
%TO.P,J2,2,Pin_2*%
%TO.N,Net-(J1-Pad1)*%
X112395000Y-65500000D03*
%TD*%
D13*
%TO.P,J1,1*%
%TO.N,Net-(J1-Pad1)*%
X99060000Y-67930000D03*
D14*
%TO.P,J1,2*%
%TO.N,GND*%
X92760000Y-67930000D03*
D15*
%TO.P,J1,3*%
%TO.N,N/C*%
X96160000Y-72730000D03*
%TD*%
D11*
%TO.P,J3,1,Pin_1*%
%TO.N,GND*%
X112310000Y-71660000D03*
D12*
%TO.P,J3,2,Pin_2*%
%TO.N,Net-(J1-Pad1)*%
X112310000Y-73660000D03*
%TD*%
D11*
%TO.P,J4,1,Pin_1*%
%TO.N,GND*%
X105325000Y-71660000D03*
D12*
%TO.P,J4,2,Pin_2*%
%TO.N,Net-(J1-Pad1)*%
X105325000Y-73660000D03*
%TD*%
D11*
%TO.P,J5,1,Pin_1*%
%TO.N,GND*%
X105410000Y-63500000D03*
D12*
%TO.P,J5,2,Pin_2*%
%TO.N,Net-(J1-Pad1)*%
X105410000Y-65500000D03*
%TD*%
D16*
%TO.N,Net-(J1-Pad1)*%
X105325000Y-73660000D02*
X112310000Y-73660000D01*
X102980000Y-67930000D02*
X105410000Y-65500000D01*
X105410000Y-65500000D02*
X112395000Y-65500000D01*
X102870000Y-73660000D02*
X105325000Y-73660000D01*
X99060000Y-67930000D02*
X102980000Y-67930000D01*
X99060000Y-69850000D02*
X102870000Y-73660000D01*
D17*
X99060000Y-67930000D02*
X99060000Y-69850000D01*
%TD*%
%TA.AperFunction,Conductor*%
%TO.N,GND*%
G36*
X114571062Y-55095502D02*
G01*
X114617555Y-55149158D01*
X114627659Y-55219432D01*
X114598165Y-55284012D01*
X114574671Y-55305089D01*
X114487617Y-55365368D01*
X114190970Y-55618729D01*
X113921445Y-55900771D01*
X113919488Y-55903285D01*
X113919487Y-55903286D01*
X113695902Y-56190494D01*
X113681802Y-56208606D01*
X113474494Y-56539082D01*
X113473084Y-56541934D01*
X113473080Y-56541942D01*
X113303311Y-56885446D01*
X113301645Y-56888817D01*
X113165023Y-57254229D01*
X113066028Y-57631576D01*
X113065535Y-57634725D01*
X113065533Y-57634734D01*
X113063964Y-57644755D01*
X113005673Y-58016996D01*
X112984575Y-58406542D01*
X113002953Y-58796226D01*
X113003424Y-58799379D01*
X113003425Y-58799387D01*
X113029922Y-58976684D01*
X113060615Y-59182058D01*
X113156974Y-59560087D01*
X113291041Y-59926444D01*
X113461445Y-60277376D01*
X113463117Y-60280083D01*
X113463118Y-60280085D01*
X113484903Y-60315357D01*
X113666441Y-60609292D01*
X113668373Y-60611810D01*
X113668380Y-60611820D01*
X113901988Y-60916264D01*
X113903929Y-60918793D01*
X114171478Y-61202709D01*
X114173883Y-61204793D01*
X114173889Y-61204798D01*
X114463942Y-61456049D01*
X114466349Y-61458134D01*
X114785523Y-61682454D01*
X115125732Y-61873370D01*
X115128646Y-61874637D01*
X115128650Y-61874639D01*
X115275286Y-61938398D01*
X115483493Y-62028929D01*
X115486539Y-62029901D01*
X115852098Y-62146566D01*
X115852106Y-62146568D01*
X115855142Y-62147537D01*
X116062519Y-62191238D01*
X116233756Y-62227324D01*
X116233761Y-62227325D01*
X116236875Y-62227981D01*
X116624783Y-62269436D01*
X116627971Y-62269453D01*
X116627976Y-62269453D01*
X116804869Y-62270379D01*
X117014895Y-62271479D01*
X117162498Y-62257266D01*
X117400051Y-62234393D01*
X117400056Y-62234392D01*
X117403216Y-62234088D01*
X117406335Y-62233465D01*
X117406340Y-62233464D01*
X117594846Y-62195796D01*
X117785770Y-62157646D01*
X118072494Y-62069438D01*
X118155599Y-62043872D01*
X118155602Y-62043871D01*
X118158641Y-62042936D01*
X118161569Y-62041699D01*
X118161575Y-62041697D01*
X118323300Y-61973381D01*
X118518011Y-61891132D01*
X118520814Y-61889598D01*
X118520819Y-61889595D01*
X118668215Y-61808898D01*
X118860200Y-61703789D01*
X119181706Y-61482824D01*
X119184145Y-61480756D01*
X119184151Y-61480751D01*
X119476795Y-61232571D01*
X119479236Y-61230501D01*
X119481442Y-61228209D01*
X119481448Y-61228203D01*
X119747537Y-60951694D01*
X119749744Y-60949401D01*
X119959346Y-60682086D01*
X120017120Y-60640822D01*
X120088031Y-60637342D01*
X120149566Y-60672753D01*
X120182189Y-60735811D01*
X120184500Y-60759833D01*
X120184500Y-76401662D01*
X120164498Y-76469783D01*
X120110842Y-76516276D01*
X120040568Y-76526380D01*
X119975988Y-76496886D01*
X119958806Y-76478714D01*
X119769283Y-76233499D01*
X119769278Y-76233494D01*
X119767331Y-76230974D01*
X119498792Y-75947993D01*
X119203031Y-75693598D01*
X118883076Y-75470395D01*
X118542203Y-75280667D01*
X118539283Y-75279409D01*
X118539278Y-75279407D01*
X118186835Y-75127621D01*
X118186825Y-75127617D01*
X118183901Y-75126358D01*
X117811840Y-75009048D01*
X117539552Y-74952660D01*
X117432954Y-74930584D01*
X117432951Y-74930584D01*
X117429829Y-74929937D01*
X117130771Y-74899032D01*
X117044935Y-74890162D01*
X117044932Y-74890162D01*
X117041779Y-74889836D01*
X117038612Y-74889830D01*
X117038603Y-74889830D01*
X116846353Y-74889495D01*
X116651662Y-74889155D01*
X116480511Y-74906238D01*
X116266658Y-74927583D01*
X116266654Y-74927584D01*
X116263474Y-74927901D01*
X116260334Y-74928540D01*
X116260333Y-74928540D01*
X115884323Y-75005040D01*
X115884316Y-75005042D01*
X115881189Y-75005678D01*
X115878143Y-75006627D01*
X115878142Y-75006627D01*
X115864259Y-75010951D01*
X115508721Y-75121689D01*
X115437613Y-75152019D01*
X115152813Y-75273496D01*
X115152809Y-75273498D01*
X115149883Y-75274746D01*
X115147104Y-75276280D01*
X115147098Y-75276283D01*
X114965230Y-75376680D01*
X114808349Y-75463283D01*
X114805727Y-75465098D01*
X114805723Y-75465101D01*
X114490241Y-75683551D01*
X114487617Y-75685368D01*
X114190970Y-75938729D01*
X113921445Y-76220771D01*
X113919488Y-76223285D01*
X113919487Y-76223286D01*
X113688645Y-76519816D01*
X113681802Y-76528606D01*
X113474494Y-76859082D01*
X113473084Y-76861934D01*
X113473080Y-76861942D01*
X113303311Y-77205446D01*
X113301645Y-77208817D01*
X113165023Y-77574229D01*
X113066028Y-77951576D01*
X113065535Y-77954725D01*
X113065533Y-77954734D01*
X113063964Y-77964755D01*
X113005673Y-78336996D01*
X112984575Y-78726542D01*
X112984725Y-78729723D01*
X112985291Y-78741714D01*
X113002953Y-79116226D01*
X113003424Y-79119379D01*
X113003425Y-79119387D01*
X113015224Y-79198335D01*
X113060615Y-79502058D01*
X113061401Y-79505140D01*
X113061401Y-79505142D01*
X113099228Y-79653540D01*
X113156974Y-79880087D01*
X113291041Y-80246444D01*
X113461445Y-80597376D01*
X113463117Y-80600083D01*
X113463118Y-80600085D01*
X113484903Y-80635357D01*
X113666441Y-80929292D01*
X113668373Y-80931810D01*
X113668380Y-80931820D01*
X113901988Y-81236264D01*
X113903929Y-81238793D01*
X114171478Y-81522709D01*
X114173883Y-81524793D01*
X114173889Y-81524798D01*
X114463532Y-81775694D01*
X114466349Y-81778134D01*
X114575235Y-81854660D01*
X114576306Y-81855413D01*
X114620537Y-81910948D01*
X114627723Y-81981580D01*
X114595582Y-82044884D01*
X114534318Y-82080762D01*
X114503855Y-82084500D01*
X95682651Y-82084500D01*
X95614530Y-82064498D01*
X95568037Y-82010842D01*
X95557933Y-81940568D01*
X95587427Y-81875988D01*
X95611284Y-81854660D01*
X95684068Y-81804637D01*
X95684067Y-81804637D01*
X95686706Y-81802824D01*
X95689145Y-81800756D01*
X95689151Y-81800751D01*
X95981795Y-81552571D01*
X95984236Y-81550501D01*
X95986442Y-81548209D01*
X95986448Y-81548203D01*
X96252537Y-81271694D01*
X96254744Y-81269401D01*
X96495460Y-80962405D01*
X96518109Y-80926579D01*
X96702211Y-80635357D01*
X96703920Y-80632654D01*
X96705340Y-80629806D01*
X96705345Y-80629797D01*
X96876569Y-80286373D01*
X96877989Y-80283525D01*
X97015885Y-79918592D01*
X97026131Y-79880087D01*
X97115376Y-79544678D01*
X97116197Y-79541593D01*
X97122036Y-79505142D01*
X97177392Y-79159537D01*
X97177897Y-79156386D01*
X97180031Y-79119387D01*
X97200256Y-78768610D01*
X97200354Y-78766916D01*
X97200448Y-78740000D01*
X97200363Y-78738317D01*
X97180872Y-78353556D01*
X97180871Y-78353551D01*
X97180711Y-78350383D01*
X97121701Y-77964755D01*
X97024024Y-77587064D01*
X96888679Y-77221177D01*
X96717051Y-76870842D01*
X96510898Y-76539644D01*
X96272331Y-76230974D01*
X96003792Y-75947993D01*
X95708031Y-75693598D01*
X95388076Y-75470395D01*
X95219704Y-75376680D01*
X95111753Y-75316595D01*
X95061958Y-75265988D01*
X95047429Y-75196494D01*
X95072777Y-75130177D01*
X95129955Y-75088092D01*
X95173031Y-75080500D01*
X97486941Y-75080500D01*
X97488981Y-75080366D01*
X97488990Y-75080366D01*
X97713345Y-75065661D01*
X97713349Y-75065660D01*
X97717460Y-75065391D01*
X97721500Y-75064587D01*
X97721503Y-75064587D01*
X98015614Y-75006085D01*
X98015620Y-75006083D01*
X98019659Y-75005280D01*
X98023563Y-75003955D01*
X98023566Y-75003954D01*
X98307521Y-74907564D01*
X98307522Y-74907564D01*
X98311427Y-74906238D01*
X98465811Y-74830104D01*
X98584067Y-74771787D01*
X98584072Y-74771784D01*
X98587771Y-74769960D01*
X98843964Y-74598778D01*
X98847058Y-74596064D01*
X98847064Y-74596060D01*
X99072531Y-74398329D01*
X99075620Y-74395620D01*
X99078329Y-74392531D01*
X99276060Y-74167064D01*
X99276064Y-74167058D01*
X99278778Y-74163964D01*
X99291369Y-74145121D01*
X99447666Y-73911205D01*
X99447667Y-73911204D01*
X99449960Y-73907772D01*
X99458432Y-73890594D01*
X99584414Y-73635125D01*
X99586238Y-73631427D01*
X99592375Y-73613349D01*
X99683954Y-73343566D01*
X99683955Y-73343563D01*
X99685280Y-73339659D01*
X99745391Y-73037460D01*
X99750580Y-72958286D01*
X99774994Y-72891620D01*
X99831575Y-72848736D01*
X99902360Y-72843249D01*
X99965405Y-72877432D01*
X101727147Y-74639174D01*
X101738812Y-74652616D01*
X101744083Y-74659636D01*
X101747825Y-74663212D01*
X101747826Y-74663213D01*
X101822516Y-74734588D01*
X101824560Y-74736587D01*
X101853219Y-74765246D01*
X101855187Y-74766915D01*
X101862621Y-74773220D01*
X101868174Y-74778220D01*
X101922468Y-74830104D01*
X101926734Y-74833014D01*
X101926735Y-74833015D01*
X101953964Y-74851590D01*
X101964452Y-74859580D01*
X101993531Y-74884240D01*
X101997971Y-74886897D01*
X101997972Y-74886898D01*
X102057969Y-74922806D01*
X102064267Y-74926834D01*
X102122017Y-74966228D01*
X102122023Y-74966231D01*
X102126300Y-74969149D01*
X102130994Y-74971328D01*
X102130996Y-74971329D01*
X102144809Y-74977740D01*
X102160878Y-74985199D01*
X102172533Y-74991370D01*
X102200816Y-75008298D01*
X102200823Y-75008301D01*
X102205250Y-75010951D01*
X102210052Y-75012843D01*
X102210053Y-75012843D01*
X102275135Y-75038479D01*
X102282007Y-75041425D01*
X102345407Y-75070855D01*
X102345410Y-75070856D01*
X102350104Y-75073035D01*
X102355090Y-75074418D01*
X102355096Y-75074420D01*
X102386836Y-75083222D01*
X102399331Y-75087402D01*
X102434822Y-75101382D01*
X102508263Y-75117127D01*
X102515512Y-75118908D01*
X102582886Y-75137592D01*
X102582891Y-75137593D01*
X102587871Y-75138974D01*
X102593000Y-75139522D01*
X102593015Y-75139525D01*
X102625783Y-75143027D01*
X102638802Y-75145112D01*
X102671020Y-75152019D01*
X102671029Y-75152020D01*
X102676080Y-75153103D01*
X102681243Y-75153346D01*
X102681247Y-75153347D01*
X102746113Y-75156405D01*
X102751094Y-75156640D01*
X102758548Y-75157214D01*
X102789292Y-75160500D01*
X102829968Y-75160500D01*
X102835903Y-75160640D01*
X102917387Y-75164483D01*
X102917391Y-75164483D01*
X102922547Y-75164726D01*
X102927671Y-75164124D01*
X102927674Y-75164124D01*
X102951201Y-75161360D01*
X102965901Y-75160500D01*
X104076878Y-75160500D01*
X104148698Y-75182973D01*
X104251746Y-75254461D01*
X104251751Y-75254464D01*
X104255499Y-75257064D01*
X104259584Y-75259096D01*
X104259587Y-75259098D01*
X104375162Y-75316595D01*
X104495938Y-75376680D01*
X104500272Y-75378101D01*
X104500275Y-75378102D01*
X104746793Y-75458915D01*
X104746798Y-75458916D01*
X104751126Y-75460335D01*
X104755617Y-75461115D01*
X104755618Y-75461115D01*
X105011936Y-75505620D01*
X105011944Y-75505621D01*
X105015717Y-75506276D01*
X105019554Y-75506467D01*
X105098996Y-75510422D01*
X105099004Y-75510422D01*
X105100567Y-75510500D01*
X105518223Y-75510500D01*
X105520491Y-75510335D01*
X105520503Y-75510335D01*
X105650823Y-75500879D01*
X105717846Y-75496016D01*
X105722301Y-75495032D01*
X105722304Y-75495032D01*
X105975620Y-75439105D01*
X105975624Y-75439104D01*
X105980080Y-75438120D01*
X106147617Y-75374646D01*
X106226941Y-75344593D01*
X106226944Y-75344592D01*
X106231211Y-75342975D01*
X106465976Y-75212574D01*
X106500354Y-75186337D01*
X106566643Y-75160910D01*
X106576797Y-75160500D01*
X111061878Y-75160500D01*
X111133698Y-75182973D01*
X111236746Y-75254461D01*
X111236751Y-75254464D01*
X111240499Y-75257064D01*
X111244584Y-75259096D01*
X111244587Y-75259098D01*
X111360162Y-75316595D01*
X111480938Y-75376680D01*
X111485272Y-75378101D01*
X111485275Y-75378102D01*
X111731793Y-75458915D01*
X111731798Y-75458916D01*
X111736126Y-75460335D01*
X111740617Y-75461115D01*
X111740618Y-75461115D01*
X111996936Y-75505620D01*
X111996944Y-75505621D01*
X112000717Y-75506276D01*
X112004554Y-75506467D01*
X112083996Y-75510422D01*
X112084004Y-75510422D01*
X112085567Y-75510500D01*
X112503223Y-75510500D01*
X112505491Y-75510335D01*
X112505503Y-75510335D01*
X112635823Y-75500879D01*
X112702846Y-75496016D01*
X112707301Y-75495032D01*
X112707304Y-75495032D01*
X112960620Y-75439105D01*
X112960624Y-75439104D01*
X112965080Y-75438120D01*
X113132617Y-75374646D01*
X113211941Y-75344593D01*
X113211944Y-75344592D01*
X113216211Y-75342975D01*
X113450976Y-75212574D01*
X113539373Y-75145112D01*
X113660833Y-75052417D01*
X113660837Y-75052413D01*
X113664458Y-75049650D01*
X113672499Y-75041425D01*
X113848999Y-74860873D01*
X113852185Y-74857614D01*
X113905839Y-74783902D01*
X114007538Y-74644183D01*
X114007540Y-74644180D01*
X114010225Y-74640491D01*
X114069659Y-74527525D01*
X114133140Y-74406868D01*
X114133143Y-74406862D01*
X114135265Y-74402828D01*
X114137811Y-74395620D01*
X114223165Y-74153916D01*
X114223165Y-74153915D01*
X114224688Y-74149603D01*
X114249778Y-74022306D01*
X114275739Y-73890594D01*
X114275740Y-73890588D01*
X114276620Y-73886122D01*
X114289299Y-73631427D01*
X114289745Y-73622474D01*
X114289745Y-73622468D01*
X114289972Y-73617905D01*
X114264466Y-73350569D01*
X114262753Y-73343566D01*
X114201721Y-73094149D01*
X114200636Y-73089715D01*
X114179471Y-73037460D01*
X114101531Y-72845037D01*
X114101531Y-72845036D01*
X114099818Y-72840808D01*
X113964125Y-72609062D01*
X113909664Y-72540962D01*
X113882740Y-72475269D01*
X113890605Y-72421626D01*
X113889320Y-72421233D01*
X113894707Y-72403610D01*
X113933750Y-72209980D01*
X113934912Y-72200722D01*
X113934920Y-72200565D01*
X113935000Y-72197380D01*
X113935000Y-71932115D01*
X113930525Y-71916876D01*
X113929135Y-71915671D01*
X113921452Y-71914000D01*
X113069749Y-71914000D01*
X113030499Y-71907731D01*
X112995135Y-71896138D01*
X112883874Y-71859665D01*
X112879382Y-71858885D01*
X112623064Y-71814380D01*
X112623056Y-71814379D01*
X112619283Y-71813724D01*
X112610622Y-71813293D01*
X112536004Y-71809578D01*
X112535996Y-71809578D01*
X112534433Y-71809500D01*
X112116777Y-71809500D01*
X112114509Y-71809665D01*
X112114497Y-71809665D01*
X111984177Y-71819121D01*
X111917154Y-71823984D01*
X111912699Y-71824968D01*
X111912696Y-71824968D01*
X111659380Y-71880895D01*
X111659376Y-71880896D01*
X111654920Y-71881880D01*
X111591713Y-71905827D01*
X111547072Y-71914000D01*
X110703116Y-71914000D01*
X110687877Y-71918475D01*
X110686672Y-71919865D01*
X110685001Y-71927548D01*
X110685001Y-72033500D01*
X110664999Y-72101621D01*
X110611343Y-72148114D01*
X110559001Y-72159500D01*
X107076000Y-72159500D01*
X107007879Y-72139498D01*
X106961386Y-72085842D01*
X106950000Y-72033500D01*
X106950000Y-71932115D01*
X106945525Y-71916876D01*
X106944135Y-71915671D01*
X106936452Y-71914000D01*
X106084749Y-71914000D01*
X106045499Y-71907731D01*
X106010135Y-71896138D01*
X105898874Y-71859665D01*
X105894382Y-71858885D01*
X105638064Y-71814380D01*
X105638056Y-71814379D01*
X105634283Y-71813724D01*
X105625622Y-71813293D01*
X105551004Y-71809578D01*
X105550996Y-71809578D01*
X105549433Y-71809500D01*
X105131777Y-71809500D01*
X105129509Y-71809665D01*
X105129497Y-71809665D01*
X104999177Y-71819121D01*
X104932154Y-71823984D01*
X104927699Y-71824968D01*
X104927696Y-71824968D01*
X104674380Y-71880895D01*
X104674376Y-71880896D01*
X104669920Y-71881880D01*
X104606713Y-71905827D01*
X104562072Y-71914000D01*
X103718116Y-71914000D01*
X103702877Y-71918475D01*
X103701672Y-71919865D01*
X103700001Y-71927548D01*
X103700001Y-72033500D01*
X103679999Y-72101621D01*
X103626343Y-72148114D01*
X103574001Y-72159500D01*
X103543717Y-72159500D01*
X103475596Y-72139498D01*
X103454622Y-72122595D01*
X102719912Y-71387885D01*
X103700000Y-71387885D01*
X103704475Y-71403124D01*
X103705865Y-71404329D01*
X103713548Y-71406000D01*
X105052885Y-71406000D01*
X105068124Y-71401525D01*
X105069329Y-71400135D01*
X105071000Y-71392452D01*
X105071000Y-71387885D01*
X105579000Y-71387885D01*
X105583475Y-71403124D01*
X105584865Y-71404329D01*
X105592548Y-71406000D01*
X106931884Y-71406000D01*
X106947123Y-71401525D01*
X106948328Y-71400135D01*
X106949999Y-71392452D01*
X106949999Y-71387885D01*
X110685000Y-71387885D01*
X110689475Y-71403124D01*
X110690865Y-71404329D01*
X110698548Y-71406000D01*
X112037885Y-71406000D01*
X112053124Y-71401525D01*
X112054329Y-71400135D01*
X112056000Y-71392452D01*
X112056000Y-71387885D01*
X112564000Y-71387885D01*
X112568475Y-71403124D01*
X112569865Y-71404329D01*
X112577548Y-71406000D01*
X113916884Y-71406000D01*
X113932123Y-71401525D01*
X113933328Y-71400135D01*
X113934999Y-71392452D01*
X113934999Y-71122606D01*
X113934920Y-71119451D01*
X113934911Y-71119278D01*
X113933750Y-71110020D01*
X113894707Y-70916390D01*
X113891124Y-70904668D01*
X113815783Y-70723672D01*
X113809989Y-70712866D01*
X113700928Y-70549954D01*
X113693143Y-70540477D01*
X113554523Y-70401857D01*
X113545046Y-70394072D01*
X113382134Y-70285011D01*
X113371328Y-70279217D01*
X113190332Y-70203876D01*
X113178610Y-70200293D01*
X112984980Y-70161250D01*
X112975722Y-70160088D01*
X112975565Y-70160080D01*
X112972380Y-70160000D01*
X112582115Y-70160000D01*
X112566876Y-70164475D01*
X112565671Y-70165865D01*
X112564000Y-70173548D01*
X112564000Y-71387885D01*
X112056000Y-71387885D01*
X112056000Y-70178116D01*
X112051525Y-70162877D01*
X112050135Y-70161672D01*
X112042452Y-70160001D01*
X111647606Y-70160001D01*
X111644451Y-70160080D01*
X111644278Y-70160089D01*
X111635020Y-70161250D01*
X111441390Y-70200293D01*
X111429668Y-70203876D01*
X111248672Y-70279217D01*
X111237866Y-70285011D01*
X111074954Y-70394072D01*
X111065477Y-70401857D01*
X110926857Y-70540477D01*
X110919072Y-70549954D01*
X110810011Y-70712866D01*
X110804217Y-70723672D01*
X110728876Y-70904668D01*
X110725293Y-70916390D01*
X110686250Y-71110020D01*
X110685088Y-71119278D01*
X110685080Y-71119435D01*
X110685000Y-71122620D01*
X110685000Y-71387885D01*
X106949999Y-71387885D01*
X106949999Y-71122606D01*
X106949920Y-71119451D01*
X106949911Y-71119278D01*
X106948750Y-71110020D01*
X106909707Y-70916390D01*
X106906124Y-70904668D01*
X106830783Y-70723672D01*
X106824989Y-70712866D01*
X106715928Y-70549954D01*
X106708143Y-70540477D01*
X106569523Y-70401857D01*
X106560046Y-70394072D01*
X106397134Y-70285011D01*
X106386328Y-70279217D01*
X106205332Y-70203876D01*
X106193610Y-70200293D01*
X105999980Y-70161250D01*
X105990722Y-70160088D01*
X105990565Y-70160080D01*
X105987380Y-70160000D01*
X105597115Y-70160000D01*
X105581876Y-70164475D01*
X105580671Y-70165865D01*
X105579000Y-70173548D01*
X105579000Y-71387885D01*
X105071000Y-71387885D01*
X105071000Y-70178116D01*
X105066525Y-70162877D01*
X105065135Y-70161672D01*
X105057452Y-70160001D01*
X104662606Y-70160001D01*
X104659451Y-70160080D01*
X104659278Y-70160089D01*
X104650020Y-70161250D01*
X104456390Y-70200293D01*
X104444668Y-70203876D01*
X104263672Y-70279217D01*
X104252866Y-70285011D01*
X104089954Y-70394072D01*
X104080477Y-70401857D01*
X103941857Y-70540477D01*
X103934072Y-70549954D01*
X103825011Y-70712866D01*
X103819217Y-70723672D01*
X103743876Y-70904668D01*
X103740293Y-70916390D01*
X103701250Y-71110020D01*
X103700088Y-71119278D01*
X103700080Y-71119435D01*
X103700000Y-71122620D01*
X103700000Y-71387885D01*
X102719912Y-71387885D01*
X101447405Y-70115378D01*
X101413379Y-70053066D01*
X101410500Y-70026283D01*
X101410500Y-69556500D01*
X101430502Y-69488379D01*
X101484158Y-69441886D01*
X101536500Y-69430500D01*
X102864268Y-69430500D01*
X102882021Y-69431757D01*
X102885588Y-69432265D01*
X102885593Y-69432265D01*
X102890706Y-69432993D01*
X102895868Y-69432876D01*
X102895871Y-69432876D01*
X102999150Y-69430532D01*
X103002009Y-69430500D01*
X103042554Y-69430500D01*
X103045109Y-69430290D01*
X103045133Y-69430289D01*
X103054839Y-69429491D01*
X103062298Y-69429099D01*
X103137382Y-69427395D01*
X103142454Y-69426437D01*
X103142460Y-69426436D01*
X103174847Y-69420316D01*
X103187916Y-69418549D01*
X103220759Y-69415849D01*
X103220764Y-69415848D01*
X103225911Y-69415425D01*
X103259273Y-69407045D01*
X103298746Y-69397131D01*
X103306045Y-69395526D01*
X103374753Y-69382543D01*
X103374754Y-69382543D01*
X103379833Y-69381583D01*
X103384684Y-69379808D01*
X103384687Y-69379807D01*
X103402414Y-69373320D01*
X103415637Y-69368481D01*
X103428236Y-69364605D01*
X103439657Y-69361736D01*
X103460206Y-69356575D01*
X103460210Y-69356574D01*
X103465217Y-69355316D01*
X103500267Y-69340076D01*
X103534087Y-69325371D01*
X103541027Y-69322595D01*
X103611545Y-69296789D01*
X103644723Y-69278017D01*
X103656528Y-69272131D01*
X103656998Y-69271927D01*
X103691493Y-69256928D01*
X103695828Y-69254124D01*
X103695831Y-69254122D01*
X103719841Y-69238589D01*
X103754545Y-69216138D01*
X103760927Y-69212273D01*
X103821795Y-69177836D01*
X103821803Y-69177831D01*
X103826297Y-69175288D01*
X103830319Y-69172043D01*
X103830326Y-69172038D01*
X103855977Y-69151341D01*
X103866651Y-69143614D01*
X103898661Y-69122905D01*
X103954203Y-69072365D01*
X103959871Y-69067508D01*
X103981326Y-69050197D01*
X103981334Y-69050190D01*
X103983945Y-69048083D01*
X104012702Y-69019326D01*
X104016998Y-69015227D01*
X104077333Y-68960327D01*
X104077336Y-68960324D01*
X104081158Y-68956846D01*
X104099043Y-68934199D01*
X104108822Y-68923205D01*
X105654473Y-67377554D01*
X105716785Y-67343528D01*
X105734449Y-67340979D01*
X105780937Y-67337606D01*
X105802846Y-67336016D01*
X105807301Y-67335032D01*
X105807304Y-67335032D01*
X106060620Y-67279105D01*
X106060624Y-67279104D01*
X106065080Y-67278120D01*
X106232617Y-67214646D01*
X106311941Y-67184593D01*
X106311944Y-67184592D01*
X106316211Y-67182975D01*
X106550976Y-67052574D01*
X106585354Y-67026337D01*
X106651643Y-67000910D01*
X106661797Y-67000500D01*
X111146878Y-67000500D01*
X111218698Y-67022973D01*
X111321746Y-67094461D01*
X111321751Y-67094464D01*
X111325499Y-67097064D01*
X111329584Y-67099096D01*
X111329587Y-67099098D01*
X111445719Y-67156872D01*
X111565938Y-67216680D01*
X111570272Y-67218101D01*
X111570275Y-67218102D01*
X111816793Y-67298915D01*
X111816798Y-67298916D01*
X111821126Y-67300335D01*
X111825617Y-67301115D01*
X111825618Y-67301115D01*
X112081936Y-67345620D01*
X112081944Y-67345621D01*
X112085717Y-67346276D01*
X112089554Y-67346467D01*
X112168996Y-67350422D01*
X112169004Y-67350422D01*
X112170567Y-67350500D01*
X112588223Y-67350500D01*
X112590491Y-67350335D01*
X112590503Y-67350335D01*
X112720823Y-67340879D01*
X112787846Y-67336016D01*
X112792301Y-67335032D01*
X112792304Y-67335032D01*
X113045620Y-67279105D01*
X113045624Y-67279104D01*
X113050080Y-67278120D01*
X113217617Y-67214646D01*
X113296941Y-67184593D01*
X113296944Y-67184592D01*
X113301211Y-67182975D01*
X113535976Y-67052574D01*
X113604209Y-67000500D01*
X113745833Y-66892417D01*
X113745837Y-66892413D01*
X113749458Y-66889650D01*
X113937185Y-66697614D01*
X113988147Y-66627600D01*
X114092538Y-66484183D01*
X114092540Y-66484180D01*
X114095225Y-66480491D01*
X114188344Y-66303500D01*
X114218140Y-66246868D01*
X114218143Y-66246862D01*
X114220265Y-66242828D01*
X114309688Y-65989603D01*
X114361620Y-65726122D01*
X114361847Y-65721566D01*
X114374745Y-65462474D01*
X114374745Y-65462468D01*
X114374972Y-65457905D01*
X114349466Y-65190569D01*
X114346667Y-65179127D01*
X114286721Y-64934149D01*
X114285636Y-64929715D01*
X114273926Y-64900803D01*
X114186531Y-64685037D01*
X114186531Y-64685036D01*
X114184818Y-64680808D01*
X114049125Y-64449062D01*
X113994664Y-64380962D01*
X113967740Y-64315269D01*
X113975605Y-64261626D01*
X113974320Y-64261233D01*
X113979707Y-64243610D01*
X114018750Y-64049980D01*
X114019912Y-64040722D01*
X114019920Y-64040565D01*
X114020000Y-64037380D01*
X114020000Y-63772115D01*
X114015525Y-63756876D01*
X114014135Y-63755671D01*
X114006452Y-63754000D01*
X113154749Y-63754000D01*
X113115499Y-63747731D01*
X113080135Y-63736138D01*
X112968874Y-63699665D01*
X112964382Y-63698885D01*
X112708064Y-63654380D01*
X112708056Y-63654379D01*
X112704283Y-63653724D01*
X112695622Y-63653293D01*
X112621004Y-63649578D01*
X112620996Y-63649578D01*
X112619433Y-63649500D01*
X112201777Y-63649500D01*
X112199509Y-63649665D01*
X112199497Y-63649665D01*
X112069177Y-63659121D01*
X112002154Y-63663984D01*
X111997699Y-63664968D01*
X111997696Y-63664968D01*
X111744380Y-63720895D01*
X111744376Y-63720896D01*
X111739920Y-63721880D01*
X111676713Y-63745827D01*
X111632072Y-63754000D01*
X110788116Y-63754000D01*
X110772877Y-63758475D01*
X110771672Y-63759865D01*
X110770001Y-63767548D01*
X110770001Y-63873500D01*
X110749999Y-63941621D01*
X110696343Y-63988114D01*
X110644001Y-63999500D01*
X107161000Y-63999500D01*
X107092879Y-63979498D01*
X107046386Y-63925842D01*
X107035000Y-63873500D01*
X107035000Y-63772115D01*
X107030525Y-63756876D01*
X107029135Y-63755671D01*
X107021452Y-63754000D01*
X106169749Y-63754000D01*
X106130499Y-63747731D01*
X106095135Y-63736138D01*
X105983874Y-63699665D01*
X105979382Y-63698885D01*
X105723064Y-63654380D01*
X105723056Y-63654379D01*
X105719283Y-63653724D01*
X105710622Y-63653293D01*
X105636004Y-63649578D01*
X105635996Y-63649578D01*
X105634433Y-63649500D01*
X105216777Y-63649500D01*
X105214509Y-63649665D01*
X105214497Y-63649665D01*
X105084177Y-63659121D01*
X105017154Y-63663984D01*
X105012699Y-63664968D01*
X105012696Y-63664968D01*
X104759380Y-63720895D01*
X104759376Y-63720896D01*
X104754920Y-63721880D01*
X104691713Y-63745827D01*
X104647072Y-63754000D01*
X103803116Y-63754000D01*
X103787877Y-63758475D01*
X103786672Y-63759865D01*
X103785001Y-63767548D01*
X103785001Y-64037394D01*
X103785080Y-64040549D01*
X103785089Y-64040722D01*
X103786250Y-64049980D01*
X103825293Y-64243610D01*
X103830680Y-64261233D01*
X103829148Y-64261701D01*
X103836016Y-64324527D01*
X103813849Y-64376526D01*
X103750413Y-64463678D01*
X103709775Y-64519509D01*
X103707651Y-64523547D01*
X103586860Y-64753132D01*
X103586857Y-64753138D01*
X103584735Y-64757172D01*
X103583215Y-64761477D01*
X103583213Y-64761481D01*
X103498298Y-65001940D01*
X103495312Y-65010397D01*
X103443380Y-65273878D01*
X103443153Y-65278432D01*
X103443153Y-65278434D01*
X103442089Y-65299804D01*
X103418724Y-65366846D01*
X103405340Y-65382632D01*
X102395378Y-66392595D01*
X102333066Y-66426620D01*
X102306283Y-66429500D01*
X101536499Y-66429500D01*
X101468378Y-66409498D01*
X101421885Y-66355842D01*
X101410499Y-66303500D01*
X101410499Y-65345744D01*
X101407499Y-65297188D01*
X101402396Y-65273878D01*
X101363867Y-65097907D01*
X101363867Y-65097906D01*
X101362585Y-65092052D01*
X101279690Y-64899110D01*
X101161807Y-64725324D01*
X101147172Y-64710714D01*
X101087188Y-64650835D01*
X101013188Y-64576964D01*
X101008221Y-64573607D01*
X101008218Y-64573605D01*
X100922704Y-64515817D01*
X100839197Y-64459385D01*
X100824283Y-64453008D01*
X100779299Y-64433775D01*
X100646110Y-64376827D01*
X100557557Y-64357600D01*
X100445659Y-64333305D01*
X100445657Y-64333305D01*
X100440896Y-64332271D01*
X100430031Y-64331625D01*
X100396113Y-64329610D01*
X100396104Y-64329610D01*
X100394257Y-64329500D01*
X99092270Y-64329500D01*
X97725744Y-64329501D01*
X97723806Y-64329621D01*
X97723797Y-64329621D01*
X97692464Y-64331557D01*
X97677188Y-64332501D01*
X97672455Y-64333537D01*
X97672450Y-64333538D01*
X97480547Y-64375555D01*
X97472052Y-64377415D01*
X97342624Y-64433022D01*
X97286754Y-64457026D01*
X97279110Y-64460310D01*
X97105324Y-64578193D01*
X96956964Y-64726812D01*
X96953607Y-64731779D01*
X96953605Y-64731782D01*
X96931067Y-64765134D01*
X96839385Y-64900803D01*
X96756827Y-65093890D01*
X96712271Y-65299104D01*
X96711982Y-65303969D01*
X96709616Y-65343797D01*
X96709500Y-65345743D01*
X96709500Y-65347599D01*
X96709501Y-70253500D01*
X96689499Y-70321621D01*
X96635843Y-70368114D01*
X96583501Y-70379500D01*
X94833059Y-70379500D01*
X94831019Y-70379634D01*
X94831010Y-70379634D01*
X94632487Y-70392646D01*
X94602540Y-70394609D01*
X94601368Y-70394842D01*
X94531892Y-70384004D01*
X94478795Y-70336874D01*
X94459608Y-70268519D01*
X94476645Y-70206738D01*
X94558412Y-70065966D01*
X94562313Y-70058003D01*
X94665301Y-69803739D01*
X94668045Y-69795295D01*
X94734179Y-69529058D01*
X94735706Y-69520307D01*
X94759672Y-69286393D01*
X94760000Y-69279977D01*
X94760000Y-68202115D01*
X94755525Y-68186876D01*
X94754135Y-68185671D01*
X94746452Y-68184000D01*
X93032115Y-68184000D01*
X93016876Y-68188475D01*
X93015671Y-68189865D01*
X93014000Y-68197548D01*
X93014000Y-71150647D01*
X93023891Y-71184333D01*
X93042328Y-71213021D01*
X93042328Y-71284017D01*
X93026197Y-71318522D01*
X92969668Y-71403124D01*
X92870040Y-71552228D01*
X92733762Y-71828573D01*
X92732436Y-71832478D01*
X92732436Y-71832479D01*
X92641075Y-72101621D01*
X92634720Y-72120341D01*
X92633917Y-72124380D01*
X92633915Y-72124386D01*
X92578374Y-72403610D01*
X92574609Y-72422540D01*
X92554457Y-72730000D01*
X92554727Y-72734119D01*
X92561462Y-72836869D01*
X92574609Y-73037460D01*
X92634720Y-73339659D01*
X92636045Y-73343563D01*
X92636046Y-73343566D01*
X92727625Y-73613349D01*
X92733762Y-73631427D01*
X92870040Y-73907771D01*
X93041222Y-74163964D01*
X93043936Y-74167058D01*
X93043940Y-74167064D01*
X93241671Y-74392531D01*
X93244380Y-74395620D01*
X93247469Y-74398329D01*
X93472936Y-74596060D01*
X93472942Y-74596064D01*
X93476036Y-74598778D01*
X93532421Y-74636453D01*
X93566138Y-74658982D01*
X93611666Y-74713459D01*
X93620514Y-74783902D01*
X93589873Y-74847946D01*
X93529471Y-74885257D01*
X93495916Y-74889747D01*
X93388953Y-74889560D01*
X93156662Y-74889155D01*
X92985511Y-74906238D01*
X92771658Y-74927583D01*
X92771654Y-74927584D01*
X92768474Y-74927901D01*
X92765334Y-74928540D01*
X92765333Y-74928540D01*
X92389323Y-75005040D01*
X92389316Y-75005042D01*
X92386189Y-75005678D01*
X92383143Y-75006627D01*
X92383142Y-75006627D01*
X92369259Y-75010951D01*
X92013721Y-75121689D01*
X91942613Y-75152019D01*
X91657813Y-75273496D01*
X91657809Y-75273498D01*
X91654883Y-75274746D01*
X91652104Y-75276280D01*
X91652098Y-75276283D01*
X91470230Y-75376680D01*
X91313349Y-75463283D01*
X91310727Y-75465098D01*
X91310723Y-75465101D01*
X90995241Y-75683551D01*
X90992617Y-75685368D01*
X90695970Y-75938729D01*
X90426445Y-76220771D01*
X90424488Y-76223285D01*
X90424487Y-76223286D01*
X90225925Y-76478350D01*
X90168296Y-76519816D01*
X90097397Y-76523543D01*
X90035738Y-76488347D01*
X90002896Y-76425404D01*
X90000500Y-76400950D01*
X90000500Y-69249931D01*
X90760000Y-69249931D01*
X90760158Y-69254381D01*
X90774580Y-69458070D01*
X90775833Y-69466880D01*
X90833570Y-69735061D01*
X90836046Y-69743582D01*
X90930996Y-70000954D01*
X90934651Y-70009049D01*
X91064917Y-70250475D01*
X91069676Y-70257973D01*
X91232650Y-70478622D01*
X91238435Y-70485396D01*
X91430867Y-70680873D01*
X91437545Y-70686761D01*
X91655608Y-70853183D01*
X91663034Y-70858060D01*
X91902387Y-70992104D01*
X91910413Y-70995881D01*
X92166274Y-71094866D01*
X92174747Y-71097473D01*
X92441994Y-71159417D01*
X92450771Y-71160807D01*
X92487954Y-71164028D01*
X92502915Y-71161008D01*
X92506000Y-71149286D01*
X92506000Y-68202115D01*
X92501525Y-68186876D01*
X92500135Y-68185671D01*
X92492452Y-68184000D01*
X90778115Y-68184000D01*
X90762876Y-68188475D01*
X90761671Y-68189865D01*
X90760000Y-68197548D01*
X90760000Y-69249931D01*
X90000500Y-69249931D01*
X90000500Y-67657885D01*
X90760000Y-67657885D01*
X90764475Y-67673124D01*
X90765865Y-67674329D01*
X90773548Y-67676000D01*
X92487885Y-67676000D01*
X92503124Y-67671525D01*
X92504329Y-67670135D01*
X92506000Y-67662452D01*
X92506000Y-67657885D01*
X93014000Y-67657885D01*
X93018475Y-67673124D01*
X93019865Y-67674329D01*
X93027548Y-67676000D01*
X94741885Y-67676000D01*
X94757124Y-67671525D01*
X94758329Y-67670135D01*
X94760000Y-67662452D01*
X94760000Y-66610069D01*
X94759842Y-66605619D01*
X94745420Y-66401930D01*
X94744167Y-66393120D01*
X94686430Y-66124939D01*
X94683954Y-66116418D01*
X94589004Y-65859046D01*
X94585349Y-65850951D01*
X94455083Y-65609525D01*
X94450324Y-65602027D01*
X94287350Y-65381378D01*
X94281565Y-65374604D01*
X94089133Y-65179127D01*
X94082455Y-65173239D01*
X93864392Y-65006817D01*
X93856966Y-65001940D01*
X93617613Y-64867896D01*
X93609587Y-64864119D01*
X93353726Y-64765134D01*
X93345253Y-64762527D01*
X93078006Y-64700583D01*
X93069229Y-64699193D01*
X93032046Y-64695972D01*
X93017085Y-64698992D01*
X93014000Y-64710714D01*
X93014000Y-67657885D01*
X92506000Y-67657885D01*
X92506000Y-64709353D01*
X92502359Y-64696952D01*
X92486540Y-64695109D01*
X92235269Y-64745089D01*
X92226712Y-64747430D01*
X91967865Y-64838331D01*
X91959731Y-64841851D01*
X91716284Y-64968312D01*
X91708712Y-64972951D01*
X91485516Y-65132449D01*
X91478675Y-65138109D01*
X91280180Y-65327465D01*
X91274202Y-65334034D01*
X91104369Y-65549466D01*
X91099376Y-65556814D01*
X90961591Y-65794027D01*
X90957687Y-65801997D01*
X90854699Y-66056261D01*
X90851955Y-66064705D01*
X90785821Y-66330942D01*
X90784294Y-66339693D01*
X90760328Y-66573607D01*
X90760000Y-66580024D01*
X90760000Y-67657885D01*
X90000500Y-67657885D01*
X90000500Y-63227885D01*
X103785000Y-63227885D01*
X103789475Y-63243124D01*
X103790865Y-63244329D01*
X103798548Y-63246000D01*
X105137885Y-63246000D01*
X105153124Y-63241525D01*
X105154329Y-63240135D01*
X105156000Y-63232452D01*
X105156000Y-63227885D01*
X105664000Y-63227885D01*
X105668475Y-63243124D01*
X105669865Y-63244329D01*
X105677548Y-63246000D01*
X107016884Y-63246000D01*
X107032123Y-63241525D01*
X107033328Y-63240135D01*
X107034999Y-63232452D01*
X107034999Y-63227885D01*
X110770000Y-63227885D01*
X110774475Y-63243124D01*
X110775865Y-63244329D01*
X110783548Y-63246000D01*
X112122885Y-63246000D01*
X112138124Y-63241525D01*
X112139329Y-63240135D01*
X112141000Y-63232452D01*
X112141000Y-63227885D01*
X112649000Y-63227885D01*
X112653475Y-63243124D01*
X112654865Y-63244329D01*
X112662548Y-63246000D01*
X114001884Y-63246000D01*
X114017123Y-63241525D01*
X114018328Y-63240135D01*
X114019999Y-63232452D01*
X114019999Y-62962606D01*
X114019920Y-62959451D01*
X114019911Y-62959278D01*
X114018750Y-62950020D01*
X113979707Y-62756390D01*
X113976124Y-62744668D01*
X113900783Y-62563672D01*
X113894989Y-62552866D01*
X113785928Y-62389954D01*
X113778143Y-62380477D01*
X113639523Y-62241857D01*
X113630046Y-62234072D01*
X113467134Y-62125011D01*
X113456328Y-62119217D01*
X113275332Y-62043876D01*
X113263610Y-62040293D01*
X113069980Y-62001250D01*
X113060722Y-62000088D01*
X113060565Y-62000080D01*
X113057380Y-62000000D01*
X112667115Y-62000000D01*
X112651876Y-62004475D01*
X112650671Y-62005865D01*
X112649000Y-62013548D01*
X112649000Y-63227885D01*
X112141000Y-63227885D01*
X112141000Y-62018116D01*
X112136525Y-62002877D01*
X112135135Y-62001672D01*
X112127452Y-62000001D01*
X111732606Y-62000001D01*
X111729451Y-62000080D01*
X111729278Y-62000089D01*
X111720020Y-62001250D01*
X111526390Y-62040293D01*
X111514668Y-62043876D01*
X111333672Y-62119217D01*
X111322866Y-62125011D01*
X111159954Y-62234072D01*
X111150477Y-62241857D01*
X111011857Y-62380477D01*
X111004072Y-62389954D01*
X110895011Y-62552866D01*
X110889217Y-62563672D01*
X110813876Y-62744668D01*
X110810293Y-62756390D01*
X110771250Y-62950020D01*
X110770088Y-62959278D01*
X110770080Y-62959435D01*
X110770000Y-62962620D01*
X110770000Y-63227885D01*
X107034999Y-63227885D01*
X107034999Y-62962606D01*
X107034920Y-62959451D01*
X107034911Y-62959278D01*
X107033750Y-62950020D01*
X106994707Y-62756390D01*
X106991124Y-62744668D01*
X106915783Y-62563672D01*
X106909989Y-62552866D01*
X106800928Y-62389954D01*
X106793143Y-62380477D01*
X106654523Y-62241857D01*
X106645046Y-62234072D01*
X106482134Y-62125011D01*
X106471328Y-62119217D01*
X106290332Y-62043876D01*
X106278610Y-62040293D01*
X106084980Y-62001250D01*
X106075722Y-62000088D01*
X106075565Y-62000080D01*
X106072380Y-62000000D01*
X105682115Y-62000000D01*
X105666876Y-62004475D01*
X105665671Y-62005865D01*
X105664000Y-62013548D01*
X105664000Y-63227885D01*
X105156000Y-63227885D01*
X105156000Y-62018116D01*
X105151525Y-62002877D01*
X105150135Y-62001672D01*
X105142452Y-62000001D01*
X104747606Y-62000001D01*
X104744451Y-62000080D01*
X104744278Y-62000089D01*
X104735020Y-62001250D01*
X104541390Y-62040293D01*
X104529668Y-62043876D01*
X104348672Y-62119217D01*
X104337866Y-62125011D01*
X104174954Y-62234072D01*
X104165477Y-62241857D01*
X104026857Y-62380477D01*
X104019072Y-62389954D01*
X103910011Y-62552866D01*
X103904217Y-62563672D01*
X103828876Y-62744668D01*
X103825293Y-62756390D01*
X103786250Y-62950020D01*
X103785088Y-62959278D01*
X103785080Y-62959435D01*
X103785000Y-62962620D01*
X103785000Y-63227885D01*
X90000500Y-63227885D01*
X90000500Y-60757702D01*
X90020502Y-60689581D01*
X90074158Y-60643088D01*
X90144432Y-60632984D01*
X90209012Y-60662478D01*
X90226462Y-60680997D01*
X90408929Y-60918793D01*
X90676478Y-61202709D01*
X90678883Y-61204793D01*
X90678889Y-61204798D01*
X90968942Y-61456049D01*
X90971349Y-61458134D01*
X91290523Y-61682454D01*
X91630732Y-61873370D01*
X91633646Y-61874637D01*
X91633650Y-61874639D01*
X91780286Y-61938398D01*
X91988493Y-62028929D01*
X91991539Y-62029901D01*
X92357098Y-62146566D01*
X92357106Y-62146568D01*
X92360142Y-62147537D01*
X92567519Y-62191238D01*
X92738756Y-62227324D01*
X92738761Y-62227325D01*
X92741875Y-62227981D01*
X93129783Y-62269436D01*
X93132971Y-62269453D01*
X93132976Y-62269453D01*
X93309869Y-62270379D01*
X93519895Y-62271479D01*
X93667498Y-62257266D01*
X93905051Y-62234393D01*
X93905056Y-62234392D01*
X93908216Y-62234088D01*
X93911335Y-62233465D01*
X93911340Y-62233464D01*
X94099846Y-62195796D01*
X94290770Y-62157646D01*
X94577494Y-62069438D01*
X94660599Y-62043872D01*
X94660602Y-62043871D01*
X94663641Y-62042936D01*
X94666569Y-62041699D01*
X94666575Y-62041697D01*
X94828300Y-61973381D01*
X95023011Y-61891132D01*
X95025814Y-61889598D01*
X95025819Y-61889595D01*
X95173215Y-61808898D01*
X95365200Y-61703789D01*
X95686706Y-61482824D01*
X95689145Y-61480756D01*
X95689151Y-61480751D01*
X95981795Y-61232571D01*
X95984236Y-61230501D01*
X95986442Y-61228209D01*
X95986448Y-61228203D01*
X96252537Y-60951694D01*
X96254744Y-60949401D01*
X96495460Y-60642405D01*
X96518109Y-60606579D01*
X96702211Y-60315357D01*
X96703920Y-60312654D01*
X96705340Y-60309806D01*
X96705345Y-60309797D01*
X96876569Y-59966373D01*
X96877989Y-59963525D01*
X97015885Y-59598592D01*
X97026131Y-59560087D01*
X97115376Y-59224678D01*
X97116197Y-59221593D01*
X97122036Y-59185142D01*
X97177392Y-58839537D01*
X97177897Y-58836386D01*
X97180031Y-58799387D01*
X97200256Y-58448610D01*
X97200354Y-58446916D01*
X97200448Y-58420000D01*
X97200363Y-58418317D01*
X97180872Y-58033556D01*
X97180871Y-58033551D01*
X97180711Y-58030383D01*
X97121701Y-57644755D01*
X97024024Y-57267064D01*
X96888679Y-56901177D01*
X96717051Y-56550842D01*
X96510898Y-56219644D01*
X96272331Y-55910974D01*
X96003792Y-55627993D01*
X95708031Y-55373598D01*
X95609467Y-55304839D01*
X95565041Y-55249460D01*
X95557609Y-55178853D01*
X95589529Y-55115437D01*
X95650667Y-55079345D01*
X95681557Y-55075500D01*
X114502941Y-55075500D01*
X114571062Y-55095502D01*
G37*
%TD.AperFunction*%
%TD*%
M02*
