%TF.GenerationSoftware,KiCad,Pcbnew,(6.0.8)*%
%TF.CreationDate,2022-12-18T03:28:43+02:00*%
%TF.ProjectId,shunt,7368756e-742e-46b6-9963-61645f706362,rev?*%
%TF.SameCoordinates,Original*%
%TF.FileFunction,Copper,L1,Top*%
%TF.FilePolarity,Positive*%
%FSLAX46Y46*%
G04 Gerber Fmt 4.6, Leading zero omitted, Abs format (unit mm)*
G04 Created by KiCad (PCBNEW (6.0.8)) date 2022-12-18 03:28:43*
%MOMM*%
%LPD*%
G01*
G04 APERTURE LIST*
G04 Aperture macros list*
%AMRoundRect*
0 Rectangle with rounded corners*
0 $1 Rounding radius*
0 $2 $3 $4 $5 $6 $7 $8 $9 X,Y pos of 4 corners*
0 Add a 4 corners polygon primitive as box body*
4,1,4,$2,$3,$4,$5,$6,$7,$8,$9,$2,$3,0*
0 Add four circle primitives for the rounded corners*
1,1,$1+$1,$2,$3*
1,1,$1+$1,$4,$5*
1,1,$1+$1,$6,$7*
1,1,$1+$1,$8,$9*
0 Add four rect primitives between the rounded corners*
20,1,$1+$1,$2,$3,$4,$5,0*
20,1,$1+$1,$4,$5,$6,$7,0*
20,1,$1+$1,$6,$7,$8,$9,0*
20,1,$1+$1,$8,$9,$2,$3,0*%
G04 Aperture macros list end*
%TA.AperFunction,NonConductor*%
%ADD10C,0.200000*%
%TD*%
%TA.AperFunction,ComponentPad*%
%ADD11O,3.500000X5.000000*%
%TD*%
%TA.AperFunction,ComponentPad*%
%ADD12RoundRect,1.650000X1.650000X-1.650000X1.650000X1.650000X-1.650000X1.650000X-1.650000X-1.650000X0*%
%TD*%
%TA.AperFunction,ComponentPad*%
%ADD13C,6.600000*%
%TD*%
%TA.AperFunction,ViaPad*%
%ADD14C,5.000000*%
%TD*%
%TA.AperFunction,Conductor*%
%ADD15C,3.000000*%
%TD*%
G04 APERTURE END LIST*
D10*
X12700000Y-12700000D02*
X83820000Y-12700000D01*
X83820000Y-12700000D02*
X83820000Y-53340000D01*
X83820000Y-53340000D02*
X12700000Y-53340000D01*
X12700000Y-53340000D02*
X12700000Y-12700000D01*
D11*
%TO.P,R2,1*%
%TO.N,Net-(J1-Pad1)*%
X73660000Y-45720000D03*
%TO.P,R2,2*%
%TO.N,Net-(J1-Pad2)*%
X73660000Y-20320000D03*
%TD*%
D12*
%TO.P,J1,1,Pin_1*%
%TO.N,Net-(J1-Pad1)*%
X22860000Y-36620000D03*
D13*
%TO.P,J1,2,Pin_2*%
%TO.N,Net-(J1-Pad2)*%
X22860000Y-29420000D03*
%TD*%
D11*
%TO.P,R3,1*%
%TO.N,Net-(J1-Pad1)*%
X53340000Y-45720000D03*
%TO.P,R3,2*%
%TO.N,Net-(J1-Pad2)*%
X53340000Y-20320000D03*
%TD*%
%TO.P,R1,1*%
%TO.N,Net-(J1-Pad1)*%
X43180000Y-45720000D03*
%TO.P,R1,2*%
%TO.N,Net-(J1-Pad2)*%
X43180000Y-20320000D03*
%TD*%
%TO.P,R4,1*%
%TO.N,Net-(J1-Pad1)*%
X63500000Y-45720000D03*
%TO.P,R4,5*%
%TO.N,Net-(J1-Pad2)*%
X63500000Y-20320000D03*
%TD*%
D14*
%TO.N,*%
X80010000Y-16510000D03*
X16510000Y-16510000D03*
X80010000Y-49530000D03*
X16510000Y-49530000D03*
%TD*%
D15*
%TO.N,Net-(J1-Pad1)*%
X22860000Y-45720000D02*
X22860000Y-36620000D01*
X43180000Y-45720000D02*
X22860000Y-45720000D01*
X53340000Y-45720000D02*
X63500000Y-45720000D01*
X63500000Y-45720000D02*
X73660000Y-45720000D01*
X43180000Y-45720000D02*
X53340000Y-45720000D01*
%TO.N,Net-(J1-Pad2)*%
X22860000Y-20320000D02*
X22860000Y-29420000D01*
X43180000Y-20320000D02*
X22860000Y-20320000D01*
X63500000Y-20320000D02*
X73660000Y-20320000D01*
X53340000Y-20320000D02*
X63500000Y-20320000D01*
X43180000Y-20320000D02*
X53340000Y-20320000D01*
%TD*%
M02*
